solid OpenSCAD_Model
  facet normal -1 0 0
    outer loop
      vertex 43.2 10.2 14
      vertex 43.2 13.2 32
      vertex 43.2 13.2 14
    endloop
  endfacet
  facet normal -1 -0 0
    outer loop
      vertex 43.2 13.2 32
      vertex 43.2 10.2 14
      vertex 43.2 10.2 32
    endloop
  endfacet
  facet normal -0 0 1
    outer loop
      vertex 40.2 13.2 14
      vertex 43.2 10.2 14
      vertex 43.2 13.2 14
    endloop
  endfacet
  facet normal 0 0 1
    outer loop
      vertex 43.2 10.2 14
      vertex 40.2 13.2 14
      vertex 40.2 10.2 14
    endloop
  endfacet
  facet normal 0 0 -1
    outer loop
      vertex 49.2 13.2 12
      vertex 52.2 13.2 12
      vertex 52.2 10.2 12
    endloop
  endfacet
  facet normal 0 0 -1
    outer loop
      vertex 52.2 13.2 12
      vertex 49.2 13.2 12
      vertex 52.2 16.2 12
    endloop
  endfacet
  facet normal 0 0 -1
    outer loop
      vertex 49.2 13.2 12
      vertex 52.2 10.2 12
      vertex 49.2 10.2 12
    endloop
  endfacet
  facet normal -0 0 -1
    outer loop
      vertex 52.2 16.2 12
      vertex 49.2 13.2 12
      vertex 49.2 16.2 12
    endloop
  endfacet
  facet normal 0 0 -1
    outer loop
      vertex 52.2 16.2 12
      vertex 49.2 16.2 12
      vertex 52.2 22.2 12
    endloop
  endfacet
  facet normal 0 0 -1
    outer loop
      vertex 49.2 16.2 12
      vertex 46.2 22.2 12
      vertex 52.2 22.2 12
    endloop
  endfacet
  facet normal 0 0 -1
    outer loop
      vertex 43.2 16.2 12
      vertex 46.2 22.2 12
      vertex 49.2 16.2 12
    endloop
  endfacet
  facet normal 0 0 -1
    outer loop
      vertex 43.2 25.2 12
      vertex 46.2 22.2 12
      vertex 43.2 16.2 12
    endloop
  endfacet
  facet normal 0 0 -1
    outer loop
      vertex 46.2 22.2 12
      vertex 43.2 25.2 12
      vertex 46.2 25.2 12
    endloop
  endfacet
  facet normal 0 0 -1
    outer loop
      vertex 61.2 10.2 12
      vertex 58.2 16.2 12
      vertex 61.2 22.2 12
    endloop
  endfacet
  facet normal 0 0 -1
    outer loop
      vertex 55.2 13.2 12
      vertex 61.2 10.2 12
      vertex 55.2 10.2 12
    endloop
  endfacet
  facet normal 0 0 -1
    outer loop
      vertex 61.2 10.2 12
      vertex 55.2 13.2 12
      vertex 58.2 16.2 12
    endloop
  endfacet
  facet normal 0 0 -1
    outer loop
      vertex 52.2 16.2 12
      vertex 55.2 13.2 12
      vertex 52.2 13.2 12
    endloop
  endfacet
  facet normal 0 0 -1
    outer loop
      vertex 55.2 13.2 12
      vertex 52.2 16.2 12
      vertex 58.2 16.2 12
    endloop
  endfacet
  facet normal -0 0 -1
    outer loop
      vertex 61.2 22.2 12
      vertex 58.2 16.2 12
      vertex 58.2 22.2 12
    endloop
  endfacet
  facet normal 0 0 -1
    outer loop
      vertex 46.2 10.2 12
      vertex 49.2 10.2 12
      vertex 49.2 7.2 12
    endloop
  endfacet
  facet normal 0 0 -1
    outer loop
      vertex 46.2 10.2 12
      vertex 49.2 7.2 12
      vertex 46.2 7.2 12
    endloop
  endfacet
  facet normal 0 0 -1
    outer loop
      vertex 49.2 10.2 12
      vertex 46.2 10.2 12
      vertex 49.2 13.2 12
    endloop
  endfacet
  facet normal 0 0 -1
    outer loop
      vertex 40.2 13.2 12
      vertex 46.2 10.2 12
      vertex 40.2 10.2 12
    endloop
  endfacet
  facet normal 0 0 -1
    outer loop
      vertex 46.2 10.2 12
      vertex 40.2 13.2 12
      vertex 49.2 13.2 12
    endloop
  endfacet
  facet normal -1 0 0
    outer loop
      vertex 40.2 10.2 12
      vertex 40.2 13.2 14
      vertex 40.2 13.2 12
    endloop
  endfacet
  facet normal -1 -0 0
    outer loop
      vertex 40.2 13.2 14
      vertex 40.2 10.2 12
      vertex 40.2 10.2 14
    endloop
  endfacet
  facet normal 0 1 -0
    outer loop
      vertex 49.2 13.2 12
      vertex 46.2 13.2 18
      vertex 49.2 13.2 18
    endloop
  endfacet
  facet normal 0 1 0
    outer loop
      vertex 46.2 13.2 18
      vertex 49.2 13.2 12
      vertex 43.2 13.2 14
    endloop
  endfacet
  facet normal 0 1 0
    outer loop
      vertex 40.2 13.2 12
      vertex 43.2 13.2 14
      vertex 49.2 13.2 12
    endloop
  endfacet
  facet normal 0 1 0
    outer loop
      vertex 43.2 13.2 14
      vertex 40.2 13.2 12
      vertex 40.2 13.2 14
    endloop
  endfacet
  facet normal 0 1 -0
    outer loop
      vertex 46.2 13.2 18
      vertex 43.2 13.2 32
      vertex 46.2 13.2 32
    endloop
  endfacet
  facet normal 0 1 0
    outer loop
      vertex 43.2 13.2 32
      vertex 46.2 13.2 18
      vertex 43.2 13.2 14
    endloop
  endfacet
  facet normal 0 -1 0
    outer loop
      vertex 43.2 10.2 32
      vertex 46.2 10.2 18
      vertex 46.2 10.2 32
    endloop
  endfacet
  facet normal 0 -1 0
    outer loop
      vertex 46.2 10.2 14
      vertex 46.2 10.2 18
      vertex 43.2 10.2 14
    endloop
  endfacet
  facet normal 0 -1 0
    outer loop
      vertex 43.2 10.2 14
      vertex 46.2 10.2 18
      vertex 43.2 10.2 32
    endloop
  endfacet
  facet normal 0 -1 0
    outer loop
      vertex 49.2 10.2 18
      vertex 52.2 10.2 28
      vertex 49.2 10.2 28
    endloop
  endfacet
  facet normal 0 -1 0
    outer loop
      vertex 46.2 10.2 18
      vertex 46.2 10.2 14
      vertex 49.2 10.2 18
    endloop
  endfacet
  facet normal 0 -1 0
    outer loop
      vertex 49.2 10.2 14
      vertex 49.2 10.2 18
      vertex 46.2 10.2 14
    endloop
  endfacet
  facet normal 0 -1 0
    outer loop
      vertex 52.2 10.2 12
      vertex 49.2 10.2 18
      vertex 49.2 10.2 14
    endloop
  endfacet
  facet normal 0 -1 0
    outer loop
      vertex 52.2 10.2 12
      vertex 49.2 10.2 14
      vertex 49.2 10.2 12
    endloop
  endfacet
  facet normal 0 -1 0
    outer loop
      vertex 49.2 10.2 18
      vertex 52.2 10.2 12
      vertex 52.2 10.2 28
    endloop
  endfacet
  facet normal 0 -1 0
    outer loop
      vertex 40.2 10.2 12
      vertex 43.2 10.2 14
      vertex 40.2 10.2 14
    endloop
  endfacet
  facet normal 0 -1 0
    outer loop
      vertex 46.2 10.2 12
      vertex 43.2 10.2 14
      vertex 40.2 10.2 12
    endloop
  endfacet
  facet normal 0 -1 0
    outer loop
      vertex 43.2 10.2 14
      vertex 46.2 10.2 12
      vertex 46.2 10.2 14
    endloop
  endfacet
  facet normal 1 -0 0
    outer loop
      vertex 46.2 10.2 32
      vertex 46.2 13.2 18
      vertex 46.2 13.2 32
    endloop
  endfacet
  facet normal 1 0 0
    outer loop
      vertex 46.2 13.2 18
      vertex 46.2 10.2 32
      vertex 46.2 10.2 18
    endloop
  endfacet
  facet normal -0 0 1
    outer loop
      vertex 43.2 13.2 32
      vertex 46.2 10.2 32
      vertex 46.2 13.2 32
    endloop
  endfacet
  facet normal 0 0 1
    outer loop
      vertex 46.2 10.2 32
      vertex 43.2 13.2 32
      vertex 43.2 10.2 32
    endloop
  endfacet
  facet normal 1 -0 0
    outer loop
      vertex 46.2 16.2 30
      vertex 46.2 19.2 22
      vertex 46.2 19.2 30
    endloop
  endfacet
  facet normal 1 0 0
    outer loop
      vertex 46.2 16.2 16
      vertex 46.2 19.2 22
      vertex 46.2 16.2 30
    endloop
  endfacet
  facet normal 1 0 0
    outer loop
      vertex 46.2 19.2 22
      vertex 46.2 16.2 16
      vertex 46.2 19.2 16
    endloop
  endfacet
  facet normal -0 0 1
    outer loop
      vertex 43.2 19.2 30
      vertex 46.2 16.2 30
      vertex 46.2 19.2 30
    endloop
  endfacet
  facet normal 0 0 1
    outer loop
      vertex 46.2 16.2 30
      vertex 43.2 19.2 30
      vertex 43.2 16.2 30
    endloop
  endfacet
  facet normal -1 0 0
    outer loop
      vertex 43.2 25.2 12
      vertex 43.2 22.2 14
      vertex 43.2 25.2 24
    endloop
  endfacet
  facet normal -1 0 0
    outer loop
      vertex 43.2 25.2 12
      vertex 43.2 19.2 14
      vertex 43.2 22.2 14
    endloop
  endfacet
  facet normal -1 0 0
    outer loop
      vertex 43.2 16.2 12
      vertex 43.2 19.2 14
      vertex 43.2 25.2 12
    endloop
  endfacet
  facet normal -1 0 0
    outer loop
      vertex 43.2 16.2 30
      vertex 43.2 19.2 14
      vertex 43.2 16.2 12
    endloop
  endfacet
  facet normal -1 0 0
    outer loop
      vertex 43.2 19.2 14
      vertex 43.2 16.2 30
      vertex 43.2 19.2 30
    endloop
  endfacet
  facet normal -1 -0 0
    outer loop
      vertex 43.2 25.2 24
      vertex 43.2 22.2 14
      vertex 43.2 22.2 24
    endloop
  endfacet
  facet normal 0 1 -0
    outer loop
      vertex 46.2 19.2 22
      vertex 43.2 19.2 30
      vertex 46.2 19.2 30
    endloop
  endfacet
  facet normal 0 1 0
    outer loop
      vertex 43.2 19.2 14
      vertex 46.2 19.2 22
      vertex 46.2 19.2 16
    endloop
  endfacet
  facet normal 0 1 0
    outer loop
      vertex 43.2 19.2 14
      vertex 46.2 19.2 16
      vertex 46.2 19.2 14
    endloop
  endfacet
  facet normal 0 1 0
    outer loop
      vertex 46.2 19.2 22
      vertex 43.2 19.2 14
      vertex 43.2 19.2 30
    endloop
  endfacet
  facet normal 0 -1 0
    outer loop
      vertex 43.2 16.2 30
      vertex 46.2 16.2 16
      vertex 46.2 16.2 30
    endloop
  endfacet
  facet normal 0 -1 0
    outer loop
      vertex 43.2 16.2 12
      vertex 46.2 16.2 16
      vertex 43.2 16.2 30
    endloop
  endfacet
  facet normal 0 -1 0
    outer loop
      vertex 49.2 16.2 12
      vertex 46.2 16.2 16
      vertex 43.2 16.2 12
    endloop
  endfacet
  facet normal 0 -1 0
    outer loop
      vertex 46.2 16.2 16
      vertex 49.2 16.2 12
      vertex 49.2 16.2 16
    endloop
  endfacet
  facet normal -1 0 0
    outer loop
      vertex 46.2 19.2 16
      vertex 46.2 22.2 14
      vertex 46.2 19.2 14
    endloop
  endfacet
  facet normal -1 0 0
    outer loop
      vertex 46.2 22.2 14
      vertex 46.2 19.2 16
      vertex 46.2 22.2 22
    endloop
  endfacet
  facet normal -1 -0 0
    outer loop
      vertex 46.2 22.2 22
      vertex 46.2 19.2 16
      vertex 46.2 19.2 22
    endloop
  endfacet
  facet normal -0 0 1
    outer loop
      vertex 43.2 22.2 14
      vertex 46.2 19.2 14
      vertex 46.2 22.2 14
    endloop
  endfacet
  facet normal 0 0 1
    outer loop
      vertex 46.2 19.2 14
      vertex 43.2 22.2 14
      vertex 43.2 19.2 14
    endloop
  endfacet
  facet normal 0 -1 0
    outer loop
      vertex 43.2 22.2 24
      vertex 46.2 22.2 22
      vertex 46.2 22.2 24
    endloop
  endfacet
  facet normal 0 -1 0
    outer loop
      vertex 43.2 22.2 14
      vertex 46.2 22.2 22
      vertex 43.2 22.2 24
    endloop
  endfacet
  facet normal 0 -1 -0
    outer loop
      vertex 46.2 22.2 22
      vertex 43.2 22.2 14
      vertex 46.2 22.2 14
    endloop
  endfacet
  facet normal 1 0 0
    outer loop
      vertex 46.2 22.2 22
      vertex 46.2 25.2 24
      vertex 46.2 22.2 24
    endloop
  endfacet
  facet normal 1 0 0
    outer loop
      vertex 46.2 25.2 24
      vertex 46.2 22.2 22
      vertex 46.2 25.2 12
    endloop
  endfacet
  facet normal 1 -0 0
    outer loop
      vertex 46.2 22.2 14
      vertex 46.2 25.2 12
      vertex 46.2 22.2 22
    endloop
  endfacet
  facet normal 1 0 0
    outer loop
      vertex 46.2 25.2 12
      vertex 46.2 22.2 14
      vertex 46.2 22.2 12
    endloop
  endfacet
  facet normal -0 0 1
    outer loop
      vertex 43.2 25.2 24
      vertex 46.2 22.2 24
      vertex 46.2 25.2 24
    endloop
  endfacet
  facet normal 0 0 1
    outer loop
      vertex 46.2 22.2 24
      vertex 43.2 25.2 24
      vertex 43.2 22.2 24
    endloop
  endfacet
  facet normal 0 1 -0
    outer loop
      vertex 46.2 25.2 12
      vertex 43.2 25.2 24
      vertex 46.2 25.2 24
    endloop
  endfacet
  facet normal 0 1 0
    outer loop
      vertex 43.2 25.2 24
      vertex 46.2 25.2 12
      vertex 43.2 25.2 12
    endloop
  endfacet
  facet normal 1 -0 0
    outer loop
      vertex 49.2 7.2 14
      vertex 49.2 10.2 12
      vertex 49.2 10.2 14
    endloop
  endfacet
  facet normal 1 0 0
    outer loop
      vertex 49.2 10.2 12
      vertex 49.2 7.2 14
      vertex 49.2 7.2 12
    endloop
  endfacet
  facet normal -0 0 1
    outer loop
      vertex 46.2 10.2 14
      vertex 49.2 7.2 14
      vertex 49.2 10.2 14
    endloop
  endfacet
  facet normal 0 0 1
    outer loop
      vertex 49.2 7.2 14
      vertex 46.2 10.2 14
      vertex 46.2 7.2 14
    endloop
  endfacet
  facet normal -1 0 0
    outer loop
      vertex 46.2 7.2 12
      vertex 46.2 10.2 14
      vertex 46.2 10.2 12
    endloop
  endfacet
  facet normal -1 -0 0
    outer loop
      vertex 46.2 10.2 14
      vertex 46.2 7.2 12
      vertex 46.2 7.2 14
    endloop
  endfacet
  facet normal 0 -1 0
    outer loop
      vertex 46.2 7.2 12
      vertex 49.2 7.2 14
      vertex 46.2 7.2 14
    endloop
  endfacet
  facet normal 0 -1 -0
    outer loop
      vertex 49.2 7.2 14
      vertex 46.2 7.2 12
      vertex 49.2 7.2 12
    endloop
  endfacet
  facet normal -1 0 0
    outer loop
      vertex 49.2 10.2 18
      vertex 49.2 13.2 28
      vertex 49.2 13.2 18
    endloop
  endfacet
  facet normal -1 -0 0
    outer loop
      vertex 49.2 13.2 28
      vertex 49.2 10.2 18
      vertex 49.2 10.2 28
    endloop
  endfacet
  facet normal -1 0 0
    outer loop
      vertex 49.2 19.2 30
      vertex 49.2 22.2 22
      vertex 49.2 19.2 22
    endloop
  endfacet
  facet normal -1 0 0
    outer loop
      vertex 49.2 22.2 22
      vertex 49.2 19.2 30
      vertex 49.2 22.2 36
    endloop
  endfacet
  facet normal -1 -0 0
    outer loop
      vertex 49.2 22.2 36
      vertex 49.2 19.2 30
      vertex 49.2 19.2 36
    endloop
  endfacet
  facet normal -1 0 0
    outer loop
      vertex 49.2 16.2 18
      vertex 49.2 19.2 22
      vertex 49.2 19.2 16
    endloop
  endfacet
  facet normal -1 0 0
    outer loop
      vertex 49.2 16.2 18
      vertex 49.2 19.2 16
      vertex 49.2 16.2 16
    endloop
  endfacet
  facet normal -1 0 0
    outer loop
      vertex 49.2 16.2 30
      vertex 49.2 19.2 22
      vertex 49.2 16.2 18
    endloop
  endfacet
  facet normal -1 0 0
    outer loop
      vertex 49.2 19.2 22
      vertex 49.2 16.2 30
      vertex 49.2 19.2 30
    endloop
  endfacet
  facet normal -1 0 0
    outer loop
      vertex 49.2 13.2 12
      vertex 49.2 16.2 16
      vertex 49.2 16.2 12
    endloop
  endfacet
  facet normal -1 0 0
    outer loop
      vertex 49.2 13.2 18
      vertex 49.2 16.2 16
      vertex 49.2 13.2 12
    endloop
  endfacet
  facet normal -1 0 0
    outer loop
      vertex 49.2 16.2 16
      vertex 49.2 13.2 18
      vertex 49.2 16.2 18
    endloop
  endfacet
  facet normal -0 0 1
    outer loop
      vertex 46.2 13.2 18
      vertex 49.2 10.2 18
      vertex 49.2 13.2 18
    endloop
  endfacet
  facet normal 0 0 1
    outer loop
      vertex 49.2 10.2 18
      vertex 46.2 13.2 18
      vertex 46.2 10.2 18
    endloop
  endfacet
  facet normal -0 0 1
    outer loop
      vertex 46.2 19.2 16
      vertex 49.2 16.2 16
      vertex 49.2 19.2 16
    endloop
  endfacet
  facet normal 0 0 1
    outer loop
      vertex 49.2 16.2 16
      vertex 46.2 19.2 16
      vertex 46.2 16.2 16
    endloop
  endfacet
  facet normal 0 -1 0
    outer loop
      vertex 46.2 19.2 16
      vertex 49.2 19.2 22
      vertex 46.2 19.2 22
    endloop
  endfacet
  facet normal 0 -1 -0
    outer loop
      vertex 49.2 19.2 22
      vertex 46.2 19.2 16
      vertex 49.2 19.2 16
    endloop
  endfacet
  facet normal 0 -1 0
    outer loop
      vertex 49.2 19.2 30
      vertex 52.2 19.2 36
      vertex 49.2 19.2 36
    endloop
  endfacet
  facet normal 0 -1 -0
    outer loop
      vertex 52.2 19.2 36
      vertex 49.2 19.2 30
      vertex 52.2 19.2 30
    endloop
  endfacet
  facet normal -0 0 1
    outer loop
      vertex 46.2 22.2 22
      vertex 49.2 19.2 22
      vertex 49.2 22.2 22
    endloop
  endfacet
  facet normal 0 0 1
    outer loop
      vertex 49.2 19.2 22
      vertex 46.2 22.2 22
      vertex 46.2 19.2 22
    endloop
  endfacet
  facet normal 0 1 0
    outer loop
      vertex 52.2 22.2 36
      vertex 49.2 22.2 22
      vertex 49.2 22.2 36
    endloop
  endfacet
  facet normal 0 1 0
    outer loop
      vertex 49.2 22.2 22
      vertex 46.2 22.2 14
      vertex 46.2 22.2 22
    endloop
  endfacet
  facet normal 0 1 -0
    outer loop
      vertex 52.2 22.2 12
      vertex 49.2 22.2 22
      vertex 52.2 22.2 36
    endloop
  endfacet
  facet normal 0 1 0
    outer loop
      vertex 52.2 22.2 12
      vertex 46.2 22.2 14
      vertex 49.2 22.2 22
    endloop
  endfacet
  facet normal 0 1 0
    outer loop
      vertex 46.2 22.2 14
      vertex 52.2 22.2 12
      vertex 46.2 22.2 12
    endloop
  endfacet
  facet normal 1 0 0
    outer loop
      vertex 52.2 19.2 30
      vertex 52.2 22.2 36
      vertex 52.2 19.2 36
    endloop
  endfacet
  facet normal 1 0 0
    outer loop
      vertex 52.2 22.2 36
      vertex 52.2 19.2 30
      vertex 52.2 22.2 12
    endloop
  endfacet
  facet normal 1 0 0
    outer loop
      vertex 52.2 16.2 20
      vertex 52.2 19.2 30
      vertex 52.2 16.2 30
    endloop
  endfacet
  facet normal 1 0 0
    outer loop
      vertex 52.2 19.2 30
      vertex 52.2 16.2 20
      vertex 52.2 22.2 12
    endloop
  endfacet
  facet normal 1 -0 0
    outer loop
      vertex 52.2 16.2 18
      vertex 52.2 22.2 12
      vertex 52.2 16.2 20
    endloop
  endfacet
  facet normal 1 0 0
    outer loop
      vertex 52.2 22.2 12
      vertex 52.2 16.2 18
      vertex 52.2 16.2 12
    endloop
  endfacet
  facet normal -1 0 0
    outer loop
      vertex 52.2 13.2 18
      vertex 52.2 16.2 20
      vertex 52.2 16.2 18
    endloop
  endfacet
  facet normal -1 -0 0
    outer loop
      vertex 52.2 16.2 20
      vertex 52.2 13.2 18
      vertex 52.2 13.2 20
    endloop
  endfacet
  facet normal 1 -0 0
    outer loop
      vertex 52.2 10.2 28
      vertex 52.2 13.2 20
      vertex 52.2 13.2 28
    endloop
  endfacet
  facet normal 1 0 0
    outer loop
      vertex 52.2 10.2 12
      vertex 52.2 13.2 20
      vertex 52.2 10.2 28
    endloop
  endfacet
  facet normal 1 0 0
    outer loop
      vertex 52.2 13.2 20
      vertex 52.2 10.2 12
      vertex 52.2 13.2 18
    endloop
  endfacet
  facet normal 1 0 0
    outer loop
      vertex 52.2 13.2 18
      vertex 52.2 10.2 12
      vertex 52.2 13.2 12
    endloop
  endfacet
  facet normal -0 0 1
    outer loop
      vertex 49.2 13.2 28
      vertex 52.2 10.2 28
      vertex 52.2 13.2 28
    endloop
  endfacet
  facet normal 0 0 1
    outer loop
      vertex 52.2 10.2 28
      vertex 49.2 13.2 28
      vertex 49.2 10.2 28
    endloop
  endfacet
  facet normal 0 1 -0
    outer loop
      vertex 52.2 13.2 20
      vertex 49.2 13.2 28
      vertex 52.2 13.2 28
    endloop
  endfacet
  facet normal 0 1 0
    outer loop
      vertex 49.2 13.2 18
      vertex 52.2 13.2 20
      vertex 52.2 13.2 18
    endloop
  endfacet
  facet normal 0 1 0
    outer loop
      vertex 52.2 13.2 20
      vertex 49.2 13.2 18
      vertex 49.2 13.2 28
    endloop
  endfacet
  facet normal -0 0 1
    outer loop
      vertex 49.2 16.2 18
      vertex 52.2 13.2 18
      vertex 52.2 16.2 18
    endloop
  endfacet
  facet normal 0 0 1
    outer loop
      vertex 52.2 13.2 18
      vertex 49.2 16.2 18
      vertex 49.2 13.2 18
    endloop
  endfacet
  facet normal 0 -1 0
    outer loop
      vertex 49.2 16.2 30
      vertex 52.2 16.2 20
      vertex 52.2 16.2 30
    endloop
  endfacet
  facet normal 0 -1 0
    outer loop
      vertex 49.2 16.2 18
      vertex 52.2 16.2 20
      vertex 49.2 16.2 30
    endloop
  endfacet
  facet normal 0 -1 -0
    outer loop
      vertex 52.2 16.2 20
      vertex 49.2 16.2 18
      vertex 52.2 16.2 18
    endloop
  endfacet
  facet normal -0 0 1
    outer loop
      vertex 49.2 19.2 30
      vertex 52.2 16.2 30
      vertex 52.2 19.2 30
    endloop
  endfacet
  facet normal 0 0 1
    outer loop
      vertex 52.2 16.2 30
      vertex 49.2 19.2 30
      vertex 49.2 16.2 30
    endloop
  endfacet
  facet normal -0 0 1
    outer loop
      vertex 49.2 22.2 36
      vertex 52.2 19.2 36
      vertex 52.2 22.2 36
    endloop
  endfacet
  facet normal 0 0 1
    outer loop
      vertex 52.2 19.2 36
      vertex 49.2 22.2 36
      vertex 49.2 19.2 36
    endloop
  endfacet
  facet normal 1 -0 0
    outer loop
      vertex 55.2 13.2 20
      vertex 55.2 16.2 18
      vertex 55.2 16.2 20
    endloop
  endfacet
  facet normal 1 0 0
    outer loop
      vertex 55.2 16.2 18
      vertex 55.2 13.2 20
      vertex 55.2 13.2 18
    endloop
  endfacet
  facet normal -0 0 1
    outer loop
      vertex 52.2 16.2 20
      vertex 55.2 13.2 20
      vertex 55.2 16.2 20
    endloop
  endfacet
  facet normal 0 0 1
    outer loop
      vertex 55.2 13.2 20
      vertex 52.2 16.2 20
      vertex 52.2 13.2 20
    endloop
  endfacet
  facet normal 0 1 0
    outer loop
      vertex 61.2 16.2 20
      vertex 58.2 16.2 18
      vertex 58.2 16.2 20
    endloop
  endfacet
  facet normal 0 1 -0
    outer loop
      vertex 58.2 16.2 14
      vertex 55.2 16.2 18
      vertex 58.2 16.2 18
    endloop
  endfacet
  facet normal 0 1 -0
    outer loop
      vertex 61.2 16.2 14
      vertex 58.2 16.2 18
      vertex 61.2 16.2 20
    endloop
  endfacet
  facet normal 0 1 0
    outer loop
      vertex 58.2 16.2 14
      vertex 58.2 16.2 18
      vertex 61.2 16.2 14
    endloop
  endfacet
  facet normal 0 1 0
    outer loop
      vertex 52.2 16.2 12
      vertex 55.2 16.2 18
      vertex 58.2 16.2 14
    endloop
  endfacet
  facet normal 0 1 0
    outer loop
      vertex 52.2 16.2 12
      vertex 58.2 16.2 14
      vertex 58.2 16.2 12
    endloop
  endfacet
  facet normal 0 1 0
    outer loop
      vertex 55.2 16.2 18
      vertex 52.2 16.2 12
      vertex 52.2 16.2 18
    endloop
  endfacet
  facet normal 0 1 -0
    outer loop
      vertex 55.2 16.2 18
      vertex 52.2 16.2 20
      vertex 55.2 16.2 20
    endloop
  endfacet
  facet normal 0 1 0
    outer loop
      vertex 52.2 16.2 20
      vertex 55.2 16.2 18
      vertex 52.2 16.2 18
    endloop
  endfacet
  facet normal 0 -1 0
    outer loop
      vertex 52.2 13.2 18
      vertex 55.2 13.2 20
      vertex 52.2 13.2 20
    endloop
  endfacet
  facet normal 0 -1 0
    outer loop
      vertex 52.2 13.2 18
      vertex 55.2 13.2 18
      vertex 55.2 13.2 20
    endloop
  endfacet
  facet normal 0 -1 0
    outer loop
      vertex 55.2 13.2 14
      vertex 55.2 13.2 18
      vertex 52.2 13.2 18
    endloop
  endfacet
  facet normal 0 -1 0
    outer loop
      vertex 55.2 13.2 18
      vertex 55.2 13.2 14
      vertex 58.2 13.2 18
    endloop
  endfacet
  facet normal 0 -1 0
    outer loop
      vertex 52.2 13.2 12
      vertex 55.2 13.2 14
      vertex 52.2 13.2 18
    endloop
  endfacet
  facet normal 0 -1 -0
    outer loop
      vertex 55.2 13.2 14
      vertex 52.2 13.2 12
      vertex 55.2 13.2 12
    endloop
  endfacet
  facet normal 0 -1 -0
    outer loop
      vertex 58.2 13.2 18
      vertex 55.2 13.2 14
      vertex 58.2 13.2 14
    endloop
  endfacet
  facet normal -1 0 0
    outer loop
      vertex 58.2 10.2 14
      vertex 58.2 13.2 18
      vertex 58.2 13.2 14
    endloop
  endfacet
  facet normal -1 -0 0
    outer loop
      vertex 58.2 13.2 18
      vertex 58.2 10.2 14
      vertex 58.2 10.2 18
    endloop
  endfacet
  facet normal -0 0 1
    outer loop
      vertex 55.2 13.2 14
      vertex 58.2 10.2 14
      vertex 58.2 13.2 14
    endloop
  endfacet
  facet normal 0 0 1
    outer loop
      vertex 58.2 10.2 14
      vertex 55.2 13.2 14
      vertex 55.2 10.2 14
    endloop
  endfacet
  facet normal -1 0 0
    outer loop
      vertex 55.2 10.2 12
      vertex 55.2 13.2 14
      vertex 55.2 13.2 12
    endloop
  endfacet
  facet normal -1 -0 0
    outer loop
      vertex 55.2 13.2 14
      vertex 55.2 10.2 12
      vertex 55.2 10.2 14
    endloop
  endfacet
  facet normal 0 -1 0
    outer loop
      vertex 55.2 10.2 14
      vertex 55.2 10.2 12
      vertex 58.2 10.2 14
    endloop
  endfacet
  facet normal 0 -1 0
    outer loop
      vertex 58.2 10.2 14
      vertex 61.2 10.2 18
      vertex 58.2 10.2 18
    endloop
  endfacet
  facet normal 0 -1 0
    outer loop
      vertex 58.2 10.2 14
      vertex 61.2 10.2 12
      vertex 61.2 10.2 18
    endloop
  endfacet
  facet normal 0 -1 0
    outer loop
      vertex 61.2 10.2 12
      vertex 58.2 10.2 14
      vertex 55.2 10.2 12
    endloop
  endfacet
  facet normal -1 0 0
    outer loop
      vertex 58.2 13.2 18
      vertex 58.2 16.2 20
      vertex 58.2 16.2 18
    endloop
  endfacet
  facet normal -1 -0 0
    outer loop
      vertex 58.2 16.2 20
      vertex 58.2 13.2 18
      vertex 58.2 13.2 20
    endloop
  endfacet
  facet normal -1 0 0
    outer loop
      vertex 58.2 22.2 12
      vertex 58.2 19.2 14
      vertex 58.2 22.2 16
    endloop
  endfacet
  facet normal -1 0 0
    outer loop
      vertex 58.2 16.2 12
      vertex 58.2 19.2 14
      vertex 58.2 22.2 12
    endloop
  endfacet
  facet normal -1 -0 0
    outer loop
      vertex 58.2 19.2 14
      vertex 58.2 16.2 12
      vertex 58.2 16.2 14
    endloop
  endfacet
  facet normal -1 -0 0
    outer loop
      vertex 58.2 22.2 16
      vertex 58.2 19.2 14
      vertex 58.2 19.2 16
    endloop
  endfacet
  facet normal -0 0 1
    outer loop
      vertex 55.2 16.2 18
      vertex 58.2 13.2 18
      vertex 58.2 16.2 18
    endloop
  endfacet
  facet normal 0 0 1
    outer loop
      vertex 58.2 13.2 18
      vertex 55.2 16.2 18
      vertex 55.2 13.2 18
    endloop
  endfacet
  facet normal 1 0 0
    outer loop
      vertex 61.2 13.2 18
      vertex 61.2 16.2 20
      vertex 61.2 13.2 20
    endloop
  endfacet
  facet normal 1 0 0
    outer loop
      vertex 61.2 19.2 14
      vertex 61.2 22.2 16
      vertex 61.2 19.2 16
    endloop
  endfacet
  facet normal 1 0 0
    outer loop
      vertex 61.2 22.2 16
      vertex 61.2 19.2 14
      vertex 61.2 22.2 12
    endloop
  endfacet
  facet normal 1 -0 0
    outer loop
      vertex 61.2 16.2 14
      vertex 61.2 22.2 12
      vertex 61.2 19.2 14
    endloop
  endfacet
  facet normal 1 0 0
    outer loop
      vertex 61.2 16.2 20
      vertex 61.2 13.2 18
      vertex 61.2 16.2 14
    endloop
  endfacet
  facet normal 1 0 0
    outer loop
      vertex 61.2 10.2 12
      vertex 61.2 13.2 18
      vertex 61.2 10.2 18
    endloop
  endfacet
  facet normal 1 0 0
    outer loop
      vertex 61.2 16.2 14
      vertex 61.2 10.2 12
      vertex 61.2 22.2 12
    endloop
  endfacet
  facet normal 1 0 0
    outer loop
      vertex 61.2 13.2 18
      vertex 61.2 10.2 12
      vertex 61.2 16.2 14
    endloop
  endfacet
  facet normal -0 0 1
    outer loop
      vertex 58.2 13.2 18
      vertex 61.2 10.2 18
      vertex 61.2 13.2 18
    endloop
  endfacet
  facet normal 0 0 1
    outer loop
      vertex 61.2 10.2 18
      vertex 58.2 13.2 18
      vertex 58.2 10.2 18
    endloop
  endfacet
  facet normal 0 -1 0
    outer loop
      vertex 58.2 13.2 18
      vertex 61.2 13.2 20
      vertex 58.2 13.2 20
    endloop
  endfacet
  facet normal 0 -1 -0
    outer loop
      vertex 61.2 13.2 20
      vertex 58.2 13.2 18
      vertex 61.2 13.2 18
    endloop
  endfacet
  facet normal -0 0 1
    outer loop
      vertex 58.2 16.2 20
      vertex 61.2 13.2 20
      vertex 61.2 16.2 20
    endloop
  endfacet
  facet normal 0 0 1
    outer loop
      vertex 61.2 13.2 20
      vertex 58.2 16.2 20
      vertex 58.2 13.2 20
    endloop
  endfacet
  facet normal -0 0 1
    outer loop
      vertex 58.2 19.2 14
      vertex 61.2 16.2 14
      vertex 61.2 19.2 14
    endloop
  endfacet
  facet normal 0 0 1
    outer loop
      vertex 61.2 16.2 14
      vertex 58.2 19.2 14
      vertex 58.2 16.2 14
    endloop
  endfacet
  facet normal 0 -1 0
    outer loop
      vertex 58.2 19.2 14
      vertex 61.2 19.2 16
      vertex 58.2 19.2 16
    endloop
  endfacet
  facet normal 0 -1 -0
    outer loop
      vertex 61.2 19.2 16
      vertex 58.2 19.2 14
      vertex 61.2 19.2 14
    endloop
  endfacet
  facet normal -0 0 1
    outer loop
      vertex 58.2 22.2 16
      vertex 61.2 19.2 16
      vertex 61.2 22.2 16
    endloop
  endfacet
  facet normal 0 0 1
    outer loop
      vertex 61.2 19.2 16
      vertex 58.2 22.2 16
      vertex 58.2 19.2 16
    endloop
  endfacet
  facet normal 0 1 -0
    outer loop
      vertex 61.2 22.2 12
      vertex 58.2 22.2 16
      vertex 61.2 22.2 16
    endloop
  endfacet
  facet normal 0 1 0
    outer loop
      vertex 58.2 22.2 16
      vertex 61.2 22.2 12
      vertex 58.2 22.2 12
    endloop
  endfacet
  facet normal 1 -0 0
    outer loop
      vertex 67.2 13.2 16
      vertex 67.2 16.2 12
      vertex 67.2 16.2 16
    endloop
  endfacet
  facet normal 1 0 0
    outer loop
      vertex 67.2 16.2 12
      vertex 67.2 13.2 16
      vertex 67.2 13.2 12
    endloop
  endfacet
  facet normal -0 0 1
    outer loop
      vertex 64.2 16.2 16
      vertex 67.2 13.2 16
      vertex 67.2 16.2 16
    endloop
  endfacet
  facet normal 0 0 1
    outer loop
      vertex 67.2 13.2 16
      vertex 64.2 16.2 16
      vertex 64.2 13.2 16
    endloop
  endfacet
  facet normal 0 0 -1
    outer loop
      vertex 64.2 13.2 12
      vertex 67.2 16.2 12
      vertex 67.2 13.2 12
    endloop
  endfacet
  facet normal -0 0 -1
    outer loop
      vertex 67.2 16.2 12
      vertex 64.2 13.2 12
      vertex 64.2 16.2 12
    endloop
  endfacet
  facet normal -1 0 0
    outer loop
      vertex 64.2 13.2 12
      vertex 64.2 16.2 16
      vertex 64.2 16.2 12
    endloop
  endfacet
  facet normal -1 -0 0
    outer loop
      vertex 64.2 16.2 16
      vertex 64.2 13.2 12
      vertex 64.2 13.2 16
    endloop
  endfacet
  facet normal 0 1 -0
    outer loop
      vertex 67.2 16.2 12
      vertex 64.2 16.2 16
      vertex 67.2 16.2 16
    endloop
  endfacet
  facet normal 0 1 0
    outer loop
      vertex 64.2 16.2 16
      vertex 67.2 16.2 12
      vertex 64.2 16.2 12
    endloop
  endfacet
  facet normal 0 -1 0
    outer loop
      vertex 64.2 13.2 12
      vertex 67.2 13.2 16
      vertex 64.2 13.2 16
    endloop
  endfacet
  facet normal 0 -1 -0
    outer loop
      vertex 67.2 13.2 16
      vertex 64.2 13.2 12
      vertex 67.2 13.2 12
    endloop
  endfacet
  facet normal 1 -0 0
    outer loop
      vertex 67.2 19.2 16
      vertex 67.2 22.2 12
      vertex 67.2 22.2 16
    endloop
  endfacet
  facet normal 1 0 0
    outer loop
      vertex 67.2 22.2 12
      vertex 67.2 19.2 16
      vertex 67.2 19.2 12
    endloop
  endfacet
  facet normal -0 0 1
    outer loop
      vertex 64.2 22.2 16
      vertex 67.2 19.2 16
      vertex 67.2 22.2 16
    endloop
  endfacet
  facet normal 0 0 1
    outer loop
      vertex 67.2 19.2 16
      vertex 64.2 22.2 16
      vertex 64.2 19.2 16
    endloop
  endfacet
  facet normal 0 0 -1
    outer loop
      vertex 64.2 19.2 12
      vertex 67.2 22.2 12
      vertex 67.2 19.2 12
    endloop
  endfacet
  facet normal -0 0 -1
    outer loop
      vertex 67.2 22.2 12
      vertex 64.2 19.2 12
      vertex 64.2 22.2 12
    endloop
  endfacet
  facet normal -1 0 0
    outer loop
      vertex 64.2 19.2 12
      vertex 64.2 22.2 16
      vertex 64.2 22.2 12
    endloop
  endfacet
  facet normal -1 -0 0
    outer loop
      vertex 64.2 22.2 16
      vertex 64.2 19.2 12
      vertex 64.2 19.2 16
    endloop
  endfacet
  facet normal 0 1 -0
    outer loop
      vertex 67.2 22.2 12
      vertex 64.2 22.2 16
      vertex 67.2 22.2 16
    endloop
  endfacet
  facet normal 0 1 0
    outer loop
      vertex 64.2 22.2 16
      vertex 67.2 22.2 12
      vertex 64.2 22.2 12
    endloop
  endfacet
  facet normal 0 -1 0
    outer loop
      vertex 64.2 19.2 12
      vertex 67.2 19.2 16
      vertex 64.2 19.2 16
    endloop
  endfacet
  facet normal 0 -1 -0
    outer loop
      vertex 67.2 19.2 16
      vertex 64.2 19.2 12
      vertex 67.2 19.2 12
    endloop
  endfacet
  facet normal 1 -0 0
    outer loop
      vertex 79.2 10.2 16
      vertex 79.2 13.2 12
      vertex 79.2 13.2 16
    endloop
  endfacet
  facet normal 1 0 0
    outer loop
      vertex 79.2 13.2 12
      vertex 79.2 10.2 16
      vertex 79.2 10.2 12
    endloop
  endfacet
  facet normal -0 0 1
    outer loop
      vertex 76.2 13.2 16
      vertex 79.2 10.2 16
      vertex 79.2 13.2 16
    endloop
  endfacet
  facet normal 0 0 1
    outer loop
      vertex 79.2 10.2 16
      vertex 76.2 13.2 16
      vertex 76.2 10.2 16
    endloop
  endfacet
  facet normal 0 0 -1
    outer loop
      vertex 76.2 10.2 12
      vertex 79.2 13.2 12
      vertex 79.2 10.2 12
    endloop
  endfacet
  facet normal -0 0 -1
    outer loop
      vertex 79.2 13.2 12
      vertex 76.2 10.2 12
      vertex 76.2 13.2 12
    endloop
  endfacet
  facet normal -1 0 0
    outer loop
      vertex 76.2 10.2 12
      vertex 76.2 13.2 16
      vertex 76.2 13.2 12
    endloop
  endfacet
  facet normal -1 -0 0
    outer loop
      vertex 76.2 13.2 16
      vertex 76.2 10.2 12
      vertex 76.2 10.2 16
    endloop
  endfacet
  facet normal 0 1 -0
    outer loop
      vertex 79.2 13.2 12
      vertex 76.2 13.2 16
      vertex 79.2 13.2 16
    endloop
  endfacet
  facet normal 0 1 0
    outer loop
      vertex 76.2 13.2 16
      vertex 79.2 13.2 12
      vertex 76.2 13.2 12
    endloop
  endfacet
  facet normal 0 -1 0
    outer loop
      vertex 76.2 10.2 12
      vertex 79.2 10.2 16
      vertex 76.2 10.2 16
    endloop
  endfacet
  facet normal 0 -1 -0
    outer loop
      vertex 79.2 10.2 16
      vertex 76.2 10.2 12
      vertex 79.2 10.2 12
    endloop
  endfacet
  facet normal 1 -0 0
    outer loop
      vertex 82.2 16.2 22
      vertex 82.2 19.2 12
      vertex 82.2 19.2 22
    endloop
  endfacet
  facet normal 1 0 0
    outer loop
      vertex 82.2 19.2 12
      vertex 82.2 16.2 22
      vertex 82.2 16.2 12
    endloop
  endfacet
  facet normal -0 0 1
    outer loop
      vertex 79.2 19.2 22
      vertex 82.2 16.2 22
      vertex 82.2 19.2 22
    endloop
  endfacet
  facet normal 0 0 1
    outer loop
      vertex 82.2 16.2 22
      vertex 79.2 19.2 22
      vertex 79.2 16.2 22
    endloop
  endfacet
  facet normal 0 0 -1
    outer loop
      vertex 79.2 16.2 12
      vertex 82.2 19.2 12
      vertex 82.2 16.2 12
    endloop
  endfacet
  facet normal -0 0 -1
    outer loop
      vertex 82.2 19.2 12
      vertex 79.2 16.2 12
      vertex 79.2 19.2 12
    endloop
  endfacet
  facet normal -1 0 0
    outer loop
      vertex 79.2 16.2 12
      vertex 79.2 19.2 22
      vertex 79.2 19.2 12
    endloop
  endfacet
  facet normal -1 -0 0
    outer loop
      vertex 79.2 19.2 22
      vertex 79.2 16.2 12
      vertex 79.2 16.2 22
    endloop
  endfacet
  facet normal 0 1 -0
    outer loop
      vertex 82.2 19.2 12
      vertex 79.2 19.2 22
      vertex 82.2 19.2 22
    endloop
  endfacet
  facet normal 0 1 0
    outer loop
      vertex 79.2 19.2 22
      vertex 82.2 19.2 12
      vertex 79.2 19.2 12
    endloop
  endfacet
  facet normal 0 -1 0
    outer loop
      vertex 79.2 16.2 12
      vertex 82.2 16.2 22
      vertex 79.2 16.2 22
    endloop
  endfacet
  facet normal 0 -1 -0
    outer loop
      vertex 82.2 16.2 22
      vertex 79.2 16.2 12
      vertex 82.2 16.2 12
    endloop
  endfacet
endsolid OpenSCAD_Model
