solid OpenSCAD_Model
  facet normal 1 -0 0
    outer loop
      vertex 16.2 13.2 19.3846
      vertex 16.2 16.2 12
      vertex 16.2 16.2 19.3846
    endloop
  endfacet
  facet normal 1 0 0
    outer loop
      vertex 16.2 16.2 12
      vertex 16.2 13.2 19.3846
      vertex 16.2 13.2 12
    endloop
  endfacet
  facet normal -0 0 1
    outer loop
      vertex 13.2 16.2 19.3846
      vertex 16.2 13.2 19.3846
      vertex 16.2 16.2 19.3846
    endloop
  endfacet
  facet normal 0 0 1
    outer loop
      vertex 16.2 13.2 19.3846
      vertex 13.2 16.2 19.3846
      vertex 13.2 13.2 19.3846
    endloop
  endfacet
  facet normal 0 0 -1
    outer loop
      vertex 13.2 13.2 12
      vertex 16.2 16.2 12
      vertex 16.2 13.2 12
    endloop
  endfacet
  facet normal -0 0 -1
    outer loop
      vertex 16.2 16.2 12
      vertex 13.2 13.2 12
      vertex 13.2 16.2 12
    endloop
  endfacet
  facet normal -1 0 0
    outer loop
      vertex 13.2 13.2 12
      vertex 13.2 16.2 19.3846
      vertex 13.2 16.2 12
    endloop
  endfacet
  facet normal -1 -0 0
    outer loop
      vertex 13.2 16.2 19.3846
      vertex 13.2 13.2 12
      vertex 13.2 13.2 19.3846
    endloop
  endfacet
  facet normal 0 1 -0
    outer loop
      vertex 16.2 16.2 12
      vertex 13.2 16.2 19.3846
      vertex 16.2 16.2 19.3846
    endloop
  endfacet
  facet normal 0 1 0
    outer loop
      vertex 13.2 16.2 19.3846
      vertex 16.2 16.2 12
      vertex 13.2 16.2 12
    endloop
  endfacet
  facet normal 0 -1 0
    outer loop
      vertex 13.2 13.2 12
      vertex 16.2 13.2 19.3846
      vertex 13.2 13.2 19.3846
    endloop
  endfacet
  facet normal 0 -1 -0
    outer loop
      vertex 16.2 13.2 19.3846
      vertex 13.2 13.2 12
      vertex 16.2 13.2 12
    endloop
  endfacet
  facet normal 1 -0 0
    outer loop
      vertex 22.2 22.2 13.8462
      vertex 22.2 25.2 12
      vertex 22.2 25.2 13.8462
    endloop
  endfacet
  facet normal 1 0 0
    outer loop
      vertex 22.2 25.2 12
      vertex 22.2 22.2 13.8462
      vertex 22.2 22.2 12
    endloop
  endfacet
  facet normal -0 0 1
    outer loop
      vertex 19.2 25.2 13.8462
      vertex 22.2 22.2 13.8462
      vertex 22.2 25.2 13.8462
    endloop
  endfacet
  facet normal 0 0 1
    outer loop
      vertex 22.2 22.2 13.8462
      vertex 19.2 25.2 13.8462
      vertex 19.2 22.2 13.8462
    endloop
  endfacet
  facet normal 0 0 -1
    outer loop
      vertex 19.2 22.2 12
      vertex 22.2 25.2 12
      vertex 22.2 22.2 12
    endloop
  endfacet
  facet normal -0 0 -1
    outer loop
      vertex 22.2 25.2 12
      vertex 19.2 22.2 12
      vertex 19.2 25.2 12
    endloop
  endfacet
  facet normal -1 0 0
    outer loop
      vertex 19.2 22.2 12
      vertex 19.2 25.2 13.8462
      vertex 19.2 25.2 12
    endloop
  endfacet
  facet normal -1 -0 0
    outer loop
      vertex 19.2 25.2 13.8462
      vertex 19.2 22.2 12
      vertex 19.2 22.2 13.8462
    endloop
  endfacet
  facet normal 0 1 -0
    outer loop
      vertex 22.2 25.2 12
      vertex 19.2 25.2 13.8462
      vertex 22.2 25.2 13.8462
    endloop
  endfacet
  facet normal 0 1 0
    outer loop
      vertex 19.2 25.2 13.8462
      vertex 22.2 25.2 12
      vertex 19.2 25.2 12
    endloop
  endfacet
  facet normal 0 -1 0
    outer loop
      vertex 19.2 22.2 12
      vertex 22.2 22.2 13.8462
      vertex 19.2 22.2 13.8462
    endloop
  endfacet
  facet normal 0 -1 -0
    outer loop
      vertex 22.2 22.2 13.8462
      vertex 19.2 22.2 12
      vertex 22.2 22.2 12
    endloop
  endfacet
  facet normal 1 -0 0
    outer loop
      vertex 28.2 10.2 15.6923
      vertex 28.2 13.2 13.8462
      vertex 28.2 13.2 15.6923
    endloop
  endfacet
  facet normal 1 0 0
    outer loop
      vertex 28.2 13.2 13.8462
      vertex 28.2 10.2 15.6923
      vertex 28.2 10.2 13.8462
    endloop
  endfacet
  facet normal -0 0 1
    outer loop
      vertex 25.2 13.2 15.6923
      vertex 28.2 10.2 15.6923
      vertex 28.2 13.2 15.6923
    endloop
  endfacet
  facet normal 0 0 1
    outer loop
      vertex 28.2 10.2 15.6923
      vertex 25.2 13.2 15.6923
      vertex 25.2 10.2 15.6923
    endloop
  endfacet
  facet normal 0 0 -1
    outer loop
      vertex 34.2 10.2 12
      vertex 31.2 19.2 12
      vertex 34.2 19.2 12
    endloop
  endfacet
  facet normal 0 0 -1
    outer loop
      vertex 28.2 25.2 12
      vertex 31.2 19.2 12
      vertex 28.2 13.2 12
    endloop
  endfacet
  facet normal 0 0 -1
    outer loop
      vertex 34.2 10.2 12
      vertex 28.2 13.2 12
      vertex 31.2 19.2 12
    endloop
  endfacet
  facet normal 0 0 -1
    outer loop
      vertex 25.2 10.2 12
      vertex 28.2 13.2 12
      vertex 34.2 10.2 12
    endloop
  endfacet
  facet normal -0 0 -1
    outer loop
      vertex 28.2 13.2 12
      vertex 25.2 10.2 12
      vertex 25.2 13.2 12
    endloop
  endfacet
  facet normal 0 0 -1
    outer loop
      vertex 31.2 19.2 12
      vertex 28.2 25.2 12
      vertex 31.2 25.2 12
    endloop
  endfacet
  facet normal -1 0 0
    outer loop
      vertex 25.2 10.2 12
      vertex 25.2 13.2 15.6923
      vertex 25.2 13.2 12
    endloop
  endfacet
  facet normal -1 -0 0
    outer loop
      vertex 25.2 13.2 15.6923
      vertex 25.2 10.2 12
      vertex 25.2 10.2 15.6923
    endloop
  endfacet
  facet normal 0 1 -0
    outer loop
      vertex 28.2 13.2 13.8462
      vertex 25.2 13.2 15.6923
      vertex 28.2 13.2 15.6923
    endloop
  endfacet
  facet normal 0 1 0
    outer loop
      vertex 25.2 13.2 12
      vertex 28.2 13.2 13.8462
      vertex 28.2 13.2 12
    endloop
  endfacet
  facet normal 0 1 0
    outer loop
      vertex 28.2 13.2 13.8462
      vertex 25.2 13.2 12
      vertex 25.2 13.2 15.6923
    endloop
  endfacet
  facet normal 0 -1 0
    outer loop
      vertex 25.2 10.2 15.6923
      vertex 28.2 10.2 13.8462
      vertex 28.2 10.2 15.6923
    endloop
  endfacet
  facet normal 0 -1 -0
    outer loop
      vertex 28.2 10.2 13.8462
      vertex 25.2 10.2 12
      vertex 31.2 10.2 13.8462
    endloop
  endfacet
  facet normal 0 -1 0
    outer loop
      vertex 25.2 10.2 12
      vertex 28.2 10.2 13.8462
      vertex 25.2 10.2 15.6923
    endloop
  endfacet
  facet normal 0 -1 0
    outer loop
      vertex 31.2 10.2 13.8462
      vertex 34.2 10.2 17.5385
      vertex 31.2 10.2 17.5385
    endloop
  endfacet
  facet normal 0 -1 0
    outer loop
      vertex 31.2 10.2 13.8462
      vertex 34.2 10.2 12
      vertex 34.2 10.2 17.5385
    endloop
  endfacet
  facet normal 0 -1 0
    outer loop
      vertex 34.2 10.2 12
      vertex 31.2 10.2 13.8462
      vertex 25.2 10.2 12
    endloop
  endfacet
  facet normal -1 0 0
    outer loop
      vertex 31.2 10.2 13.8462
      vertex 31.2 13.2 17.5385
      vertex 31.2 13.2 13.8462
    endloop
  endfacet
  facet normal -1 -0 0
    outer loop
      vertex 31.2 13.2 17.5385
      vertex 31.2 10.2 13.8462
      vertex 31.2 10.2 17.5385
    endloop
  endfacet
  facet normal -0 0 1
    outer loop
      vertex 28.2 13.2 13.8462
      vertex 31.2 10.2 13.8462
      vertex 31.2 13.2 13.8462
    endloop
  endfacet
  facet normal 0 0 1
    outer loop
      vertex 31.2 10.2 13.8462
      vertex 28.2 13.2 13.8462
      vertex 28.2 10.2 13.8462
    endloop
  endfacet
  facet normal 0 -1 0
    outer loop
      vertex 28.2 13.2 21.2308
      vertex 31.2 13.2 17.5385
      vertex 31.2 13.2 21.2308
    endloop
  endfacet
  facet normal 0 -1 0
    outer loop
      vertex 28.2 13.2 15.6923
      vertex 31.2 13.2 17.5385
      vertex 28.2 13.2 21.2308
    endloop
  endfacet
  facet normal 0 -1 0
    outer loop
      vertex 31.2 13.2 13.8462
      vertex 28.2 13.2 15.6923
      vertex 28.2 13.2 13.8462
    endloop
  endfacet
  facet normal 0 -1 0
    outer loop
      vertex 28.2 13.2 15.6923
      vertex 31.2 13.2 13.8462
      vertex 31.2 13.2 17.5385
    endloop
  endfacet
  facet normal 0 -1 0
    outer loop
      vertex 31.2 13.2 21.2308
      vertex 34.2 13.2 24.9231
      vertex 31.2 13.2 24.9231
    endloop
  endfacet
  facet normal 0 -1 0
    outer loop
      vertex 34.2 13.2 17.5385
      vertex 31.2 13.2 21.2308
      vertex 31.2 13.2 17.5385
    endloop
  endfacet
  facet normal 0 -1 0
    outer loop
      vertex 31.2 13.2 21.2308
      vertex 34.2 13.2 17.5385
      vertex 34.2 13.2 24.9231
    endloop
  endfacet
  facet normal -1 0 0
    outer loop
      vertex 31.2 13.2 21.2308
      vertex 31.2 16.2 24.9231
      vertex 31.2 16.2 21.2308
    endloop
  endfacet
  facet normal -1 -0 0
    outer loop
      vertex 31.2 16.2 24.9231
      vertex 31.2 13.2 21.2308
      vertex 31.2 13.2 24.9231
    endloop
  endfacet
  facet normal -0 0 1
    outer loop
      vertex 28.2 16.2 21.2308
      vertex 31.2 13.2 21.2308
      vertex 31.2 16.2 21.2308
    endloop
  endfacet
  facet normal 0 0 1
    outer loop
      vertex 31.2 13.2 21.2308
      vertex 28.2 16.2 21.2308
      vertex 28.2 13.2 21.2308
    endloop
  endfacet
  facet normal -1 0 0
    outer loop
      vertex 28.2 25.2 12
      vertex 28.2 22.2 19.3846
      vertex 28.2 25.2 36
    endloop
  endfacet
  facet normal -1 0 0
    outer loop
      vertex 28.2 25.2 12
      vertex 28.2 19.2 13.8462
      vertex 28.2 22.2 19.3846
    endloop
  endfacet
  facet normal -1 0 0
    outer loop
      vertex 28.2 13.2 12
      vertex 28.2 19.2 13.8462
      vertex 28.2 25.2 12
    endloop
  endfacet
  facet normal -1 -0 0
    outer loop
      vertex 28.2 19.2 13.8462
      vertex 28.2 13.2 12
      vertex 28.2 16.2 13.8462
    endloop
  endfacet
  facet normal -1 0 0
    outer loop
      vertex 28.2 13.2 13.8462
      vertex 28.2 16.2 13.8462
      vertex 28.2 13.2 12
    endloop
  endfacet
  facet normal -1 0 0
    outer loop
      vertex 28.2 13.2 15.6923
      vertex 28.2 16.2 13.8462
      vertex 28.2 13.2 13.8462
    endloop
  endfacet
  facet normal -1 0 0
    outer loop
      vertex 28.2 16.2 13.8462
      vertex 28.2 13.2 15.6923
      vertex 28.2 16.2 21.2308
    endloop
  endfacet
  facet normal -1 -0 0
    outer loop
      vertex 28.2 16.2 21.2308
      vertex 28.2 13.2 15.6923
      vertex 28.2 13.2 21.2308
    endloop
  endfacet
  facet normal -1 -0 0
    outer loop
      vertex 28.2 25.2 36
      vertex 28.2 22.2 19.3846
      vertex 28.2 22.2 36
    endloop
  endfacet
  facet normal -1 -0 0
    outer loop
      vertex 28.2 22.2 19.3846
      vertex 28.2 19.2 13.8462
      vertex 28.2 19.2 19.3846
    endloop
  endfacet
  facet normal 0 1 0
    outer loop
      vertex 34.2 16.2 24.9231
      vertex 31.2 16.2 21.2308
      vertex 31.2 16.2 24.9231
    endloop
  endfacet
  facet normal 0 1 -0
    outer loop
      vertex 34.2 16.2 13.8462
      vertex 31.2 16.2 21.2308
      vertex 34.2 16.2 24.9231
    endloop
  endfacet
  facet normal 0 1 0
    outer loop
      vertex 28.2 16.2 13.8462
      vertex 31.2 16.2 21.2308
      vertex 34.2 16.2 13.8462
    endloop
  endfacet
  facet normal 0 1 0
    outer loop
      vertex 31.2 16.2 21.2308
      vertex 28.2 16.2 13.8462
      vertex 28.2 16.2 21.2308
    endloop
  endfacet
  facet normal -0 0 1
    outer loop
      vertex 31.2 19.2 13.8462
      vertex 34.2 16.2 13.8462
      vertex 34.2 19.2 13.8462
    endloop
  endfacet
  facet normal 0 0 1
    outer loop
      vertex 28.2 16.2 13.8462
      vertex 31.2 19.2 13.8462
      vertex 28.2 19.2 13.8462
    endloop
  endfacet
  facet normal 0 0 1
    outer loop
      vertex 31.2 19.2 13.8462
      vertex 28.2 16.2 13.8462
      vertex 34.2 16.2 13.8462
    endloop
  endfacet
  facet normal 0 -1 0
    outer loop
      vertex 28.2 19.2 13.8462
      vertex 31.2 19.2 19.3846
      vertex 28.2 19.2 19.3846
    endloop
  endfacet
  facet normal 0 -1 -0
    outer loop
      vertex 31.2 19.2 19.3846
      vertex 28.2 19.2 13.8462
      vertex 31.2 19.2 13.8462
    endloop
  endfacet
  facet normal 1 0 0
    outer loop
      vertex 31.2 22.2 19.3846
      vertex 31.2 25.2 36
      vertex 31.2 22.2 36
    endloop
  endfacet
  facet normal 1 0 0
    outer loop
      vertex 31.2 25.2 36
      vertex 31.2 22.2 19.3846
      vertex 31.2 25.2 12
    endloop
  endfacet
  facet normal 1 0 0
    outer loop
      vertex 31.2 19.2 13.8462
      vertex 31.2 22.2 19.3846
      vertex 31.2 19.2 19.3846
    endloop
  endfacet
  facet normal 1 0 0
    outer loop
      vertex 31.2 22.2 19.3846
      vertex 31.2 19.2 13.8462
      vertex 31.2 25.2 12
    endloop
  endfacet
  facet normal 1 0 0
    outer loop
      vertex 31.2 25.2 12
      vertex 31.2 19.2 13.8462
      vertex 31.2 19.2 12
    endloop
  endfacet
  facet normal -0 0 1
    outer loop
      vertex 28.2 22.2 19.3846
      vertex 31.2 19.2 19.3846
      vertex 31.2 22.2 19.3846
    endloop
  endfacet
  facet normal 0 0 1
    outer loop
      vertex 31.2 19.2 19.3846
      vertex 28.2 22.2 19.3846
      vertex 28.2 19.2 19.3846
    endloop
  endfacet
  facet normal 0 -1 0
    outer loop
      vertex 28.2 22.2 19.3846
      vertex 31.2 22.2 36
      vertex 28.2 22.2 36
    endloop
  endfacet
  facet normal 0 -1 -0
    outer loop
      vertex 31.2 22.2 36
      vertex 28.2 22.2 19.3846
      vertex 31.2 22.2 19.3846
    endloop
  endfacet
  facet normal -0 0 1
    outer loop
      vertex 28.2 25.2 36
      vertex 31.2 22.2 36
      vertex 31.2 25.2 36
    endloop
  endfacet
  facet normal 0 0 1
    outer loop
      vertex 31.2 22.2 36
      vertex 28.2 25.2 36
      vertex 28.2 22.2 36
    endloop
  endfacet
  facet normal 0 1 -0
    outer loop
      vertex 31.2 25.2 12
      vertex 28.2 25.2 36
      vertex 31.2 25.2 36
    endloop
  endfacet
  facet normal 0 1 0
    outer loop
      vertex 28.2 25.2 36
      vertex 31.2 25.2 12
      vertex 28.2 25.2 12
    endloop
  endfacet
  facet normal 1 0 0
    outer loop
      vertex 34.2 13.2 17.5385
      vertex 34.2 16.2 24.9231
      vertex 34.2 13.2 24.9231
    endloop
  endfacet
  facet normal 1 -0 0
    outer loop
      vertex 34.2 16.2 13.8462
      vertex 34.2 19.2 12
      vertex 34.2 19.2 13.8462
    endloop
  endfacet
  facet normal 1 0 0
    outer loop
      vertex 34.2 16.2 24.9231
      vertex 34.2 13.2 17.5385
      vertex 34.2 16.2 13.8462
    endloop
  endfacet
  facet normal 1 0 0
    outer loop
      vertex 34.2 10.2 12
      vertex 34.2 13.2 17.5385
      vertex 34.2 10.2 17.5385
    endloop
  endfacet
  facet normal 1 0 0
    outer loop
      vertex 34.2 13.2 17.5385
      vertex 34.2 10.2 12
      vertex 34.2 16.2 13.8462
    endloop
  endfacet
  facet normal 1 0 0
    outer loop
      vertex 34.2 16.2 13.8462
      vertex 34.2 10.2 12
      vertex 34.2 19.2 12
    endloop
  endfacet
  facet normal -0 0 1
    outer loop
      vertex 31.2 13.2 17.5385
      vertex 34.2 10.2 17.5385
      vertex 34.2 13.2 17.5385
    endloop
  endfacet
  facet normal 0 0 1
    outer loop
      vertex 34.2 10.2 17.5385
      vertex 31.2 13.2 17.5385
      vertex 31.2 10.2 17.5385
    endloop
  endfacet
  facet normal -0 0 1
    outer loop
      vertex 31.2 16.2 24.9231
      vertex 34.2 13.2 24.9231
      vertex 34.2 16.2 24.9231
    endloop
  endfacet
  facet normal 0 0 1
    outer loop
      vertex 34.2 13.2 24.9231
      vertex 31.2 16.2 24.9231
      vertex 31.2 13.2 24.9231
    endloop
  endfacet
  facet normal 0 1 -0
    outer loop
      vertex 34.2 19.2 12
      vertex 31.2 19.2 13.8462
      vertex 34.2 19.2 13.8462
    endloop
  endfacet
  facet normal 0 1 0
    outer loop
      vertex 31.2 19.2 13.8462
      vertex 34.2 19.2 12
      vertex 31.2 19.2 12
    endloop
  endfacet
  facet normal 1 -0 0
    outer loop
      vertex 46.2 16.2 15.6923
      vertex 46.2 19.2 12
      vertex 46.2 19.2 15.6923
    endloop
  endfacet
  facet normal 1 0 0
    outer loop
      vertex 46.2 19.2 12
      vertex 46.2 16.2 15.6923
      vertex 46.2 16.2 12
    endloop
  endfacet
  facet normal -0 0 1
    outer loop
      vertex 43.2 19.2 15.6923
      vertex 46.2 16.2 15.6923
      vertex 46.2 19.2 15.6923
    endloop
  endfacet
  facet normal 0 0 1
    outer loop
      vertex 46.2 16.2 15.6923
      vertex 43.2 19.2 15.6923
      vertex 43.2 16.2 15.6923
    endloop
  endfacet
  facet normal 0 0 -1
    outer loop
      vertex 43.2 16.2 12
      vertex 46.2 19.2 12
      vertex 46.2 16.2 12
    endloop
  endfacet
  facet normal -0 0 -1
    outer loop
      vertex 46.2 19.2 12
      vertex 43.2 16.2 12
      vertex 43.2 19.2 12
    endloop
  endfacet
  facet normal -1 0 0
    outer loop
      vertex 43.2 16.2 12
      vertex 43.2 19.2 15.6923
      vertex 43.2 19.2 12
    endloop
  endfacet
  facet normal -1 -0 0
    outer loop
      vertex 43.2 19.2 15.6923
      vertex 43.2 16.2 12
      vertex 43.2 16.2 15.6923
    endloop
  endfacet
  facet normal 0 1 -0
    outer loop
      vertex 46.2 19.2 12
      vertex 43.2 19.2 15.6923
      vertex 46.2 19.2 15.6923
    endloop
  endfacet
  facet normal 0 1 0
    outer loop
      vertex 43.2 19.2 15.6923
      vertex 46.2 19.2 12
      vertex 43.2 19.2 12
    endloop
  endfacet
  facet normal 0 -1 0
    outer loop
      vertex 43.2 16.2 12
      vertex 46.2 16.2 15.6923
      vertex 43.2 16.2 15.6923
    endloop
  endfacet
  facet normal 0 -1 -0
    outer loop
      vertex 46.2 16.2 15.6923
      vertex 43.2 16.2 12
      vertex 46.2 16.2 12
    endloop
  endfacet
  facet normal 1 -0 0
    outer loop
      vertex 52.2 22.2 19.3846
      vertex 52.2 25.2 13.8462
      vertex 52.2 25.2 19.3846
    endloop
  endfacet
  facet normal 1 0 0
    outer loop
      vertex 52.2 25.2 13.8462
      vertex 52.2 22.2 19.3846
      vertex 52.2 22.2 13.8462
    endloop
  endfacet
  facet normal -0 0 1
    outer loop
      vertex 49.2 25.2 19.3846
      vertex 52.2 22.2 19.3846
      vertex 52.2 25.2 19.3846
    endloop
  endfacet
  facet normal 0 0 1
    outer loop
      vertex 52.2 22.2 19.3846
      vertex 49.2 25.2 19.3846
      vertex 49.2 22.2 19.3846
    endloop
  endfacet
  facet normal 0 0 -1
    outer loop
      vertex 49.2 22.2 12
      vertex 55.2 25.2 12
      vertex 55.2 22.2 12
    endloop
  endfacet
  facet normal -0 0 -1
    outer loop
      vertex 55.2 25.2 12
      vertex 49.2 22.2 12
      vertex 49.2 25.2 12
    endloop
  endfacet
  facet normal -1 0 0
    outer loop
      vertex 49.2 22.2 12
      vertex 49.2 25.2 19.3846
      vertex 49.2 25.2 12
    endloop
  endfacet
  facet normal -1 -0 0
    outer loop
      vertex 49.2 25.2 19.3846
      vertex 49.2 22.2 12
      vertex 49.2 22.2 19.3846
    endloop
  endfacet
  facet normal 0 1 0
    outer loop
      vertex 55.2 25.2 13.8462
      vertex 55.2 25.2 12
      vertex 52.2 25.2 13.8462
    endloop
  endfacet
  facet normal 0 1 -0
    outer loop
      vertex 52.2 25.2 13.8462
      vertex 49.2 25.2 19.3846
      vertex 52.2 25.2 19.3846
    endloop
  endfacet
  facet normal 0 1 0
    outer loop
      vertex 52.2 25.2 13.8462
      vertex 49.2 25.2 12
      vertex 49.2 25.2 19.3846
    endloop
  endfacet
  facet normal 0 1 0
    outer loop
      vertex 49.2 25.2 12
      vertex 52.2 25.2 13.8462
      vertex 55.2 25.2 12
    endloop
  endfacet
  facet normal 0 -1 0
    outer loop
      vertex 49.2 22.2 19.3846
      vertex 52.2 22.2 13.8462
      vertex 52.2 22.2 19.3846
    endloop
  endfacet
  facet normal 0 -1 0
    outer loop
      vertex 49.2 22.2 12
      vertex 52.2 22.2 13.8462
      vertex 49.2 22.2 19.3846
    endloop
  endfacet
  facet normal 0 -1 0
    outer loop
      vertex 55.2 22.2 12
      vertex 52.2 22.2 13.8462
      vertex 49.2 22.2 12
    endloop
  endfacet
  facet normal 0 -1 0
    outer loop
      vertex 52.2 22.2 13.8462
      vertex 55.2 22.2 12
      vertex 55.2 22.2 13.8462
    endloop
  endfacet
  facet normal 1 -0 0
    outer loop
      vertex 55.2 22.2 13.8462
      vertex 55.2 25.2 12
      vertex 55.2 25.2 13.8462
    endloop
  endfacet
  facet normal 1 0 0
    outer loop
      vertex 55.2 25.2 12
      vertex 55.2 22.2 13.8462
      vertex 55.2 22.2 12
    endloop
  endfacet
  facet normal -0 0 1
    outer loop
      vertex 52.2 25.2 13.8462
      vertex 55.2 22.2 13.8462
      vertex 55.2 25.2 13.8462
    endloop
  endfacet
  facet normal 0 0 1
    outer loop
      vertex 55.2 22.2 13.8462
      vertex 52.2 25.2 13.8462
      vertex 52.2 22.2 13.8462
    endloop
  endfacet
  facet normal 1 0 0
    outer loop
      vertex 61.2 19.2 13.8462
      vertex 61.2 22.2 15.6923
      vertex 61.2 19.2 15.6923
    endloop
  endfacet
  facet normal 1 0 0
    outer loop
      vertex 61.2 22.2 15.6923
      vertex 61.2 19.2 13.8462
      vertex 61.2 22.2 12
    endloop
  endfacet
  facet normal 1 0 0
    outer loop
      vertex 61.2 22.2 12
      vertex 61.2 19.2 13.8462
      vertex 61.2 19.2 12
    endloop
  endfacet
  facet normal 1 -0 0
    outer loop
      vertex 61.2 16.2 21.2308
      vertex 61.2 19.2 15.6923
      vertex 61.2 19.2 21.2308
    endloop
  endfacet
  facet normal 1 0 0
    outer loop
      vertex 61.2 16.2 13.8462
      vertex 61.2 19.2 15.6923
      vertex 61.2 16.2 21.2308
    endloop
  endfacet
  facet normal 1 0 0
    outer loop
      vertex 61.2 19.2 15.6923
      vertex 61.2 16.2 13.8462
      vertex 61.2 19.2 13.8462
    endloop
  endfacet
  facet normal 0 0 1
    outer loop
      vertex 61.2 16.2 13.8462
      vertex 64.2 19.2 13.8462
      vertex 61.2 19.2 13.8462
    endloop
  endfacet
  facet normal 0 0 1
    outer loop
      vertex 64.2 19.2 13.8462
      vertex 61.2 16.2 13.8462
      vertex 64.2 13.2 13.8462
    endloop
  endfacet
  facet normal 0 0 1
    outer loop
      vertex 58.2 13.2 13.8462
      vertex 61.2 16.2 13.8462
      vertex 58.2 16.2 13.8462
    endloop
  endfacet
  facet normal 0 0 1
    outer loop
      vertex 61.2 16.2 13.8462
      vertex 58.2 13.2 13.8462
      vertex 64.2 13.2 13.8462
    endloop
  endfacet
  facet normal 0 0 -1
    outer loop
      vertex 64.2 13.2 12
      vertex 61.2 19.2 12
      vertex 64.2 19.2 12
    endloop
  endfacet
  facet normal 0 0 -1
    outer loop
      vertex 58.2 13.2 12
      vertex 61.2 19.2 12
      vertex 64.2 13.2 12
    endloop
  endfacet
  facet normal 0 0 -1
    outer loop
      vertex 58.2 22.2 12
      vertex 61.2 19.2 12
      vertex 58.2 13.2 12
    endloop
  endfacet
  facet normal 0 0 -1
    outer loop
      vertex 61.2 19.2 12
      vertex 58.2 22.2 12
      vertex 61.2 22.2 12
    endloop
  endfacet
  facet normal -1 0 0
    outer loop
      vertex 58.2 22.2 12
      vertex 58.2 19.2 15.6923
      vertex 58.2 22.2 15.6923
    endloop
  endfacet
  facet normal -1 0 0
    outer loop
      vertex 58.2 16.2 21.2308
      vertex 58.2 19.2 15.6923
      vertex 58.2 16.2 13.8462
    endloop
  endfacet
  facet normal -1 0 0
    outer loop
      vertex 58.2 22.2 12
      vertex 58.2 16.2 13.8462
      vertex 58.2 19.2 15.6923
    endloop
  endfacet
  facet normal -1 0 0
    outer loop
      vertex 58.2 13.2 12
      vertex 58.2 16.2 13.8462
      vertex 58.2 22.2 12
    endloop
  endfacet
  facet normal -1 -0 0
    outer loop
      vertex 58.2 16.2 13.8462
      vertex 58.2 13.2 12
      vertex 58.2 13.2 13.8462
    endloop
  endfacet
  facet normal -1 0 0
    outer loop
      vertex 58.2 19.2 15.6923
      vertex 58.2 16.2 21.2308
      vertex 58.2 19.2 21.2308
    endloop
  endfacet
  facet normal 0 -1 0
    outer loop
      vertex 58.2 16.2 13.8462
      vertex 61.2 16.2 21.2308
      vertex 58.2 16.2 21.2308
    endloop
  endfacet
  facet normal 0 -1 -0
    outer loop
      vertex 61.2 16.2 21.2308
      vertex 58.2 16.2 13.8462
      vertex 61.2 16.2 13.8462
    endloop
  endfacet
  facet normal 0 -1 0
    outer loop
      vertex 58.2 13.2 12
      vertex 64.2 13.2 13.8462
      vertex 58.2 13.2 13.8462
    endloop
  endfacet
  facet normal 0 -1 -0
    outer loop
      vertex 64.2 13.2 13.8462
      vertex 58.2 13.2 12
      vertex 64.2 13.2 12
    endloop
  endfacet
  facet normal -0 0 1
    outer loop
      vertex 58.2 19.2 21.2308
      vertex 61.2 16.2 21.2308
      vertex 61.2 19.2 21.2308
    endloop
  endfacet
  facet normal 0 0 1
    outer loop
      vertex 61.2 16.2 21.2308
      vertex 58.2 19.2 21.2308
      vertex 58.2 16.2 21.2308
    endloop
  endfacet
  facet normal 0 1 -0
    outer loop
      vertex 61.2 19.2 15.6923
      vertex 58.2 19.2 21.2308
      vertex 61.2 19.2 21.2308
    endloop
  endfacet
  facet normal 0 1 0
    outer loop
      vertex 58.2 19.2 21.2308
      vertex 61.2 19.2 15.6923
      vertex 58.2 19.2 15.6923
    endloop
  endfacet
  facet normal -0 0 1
    outer loop
      vertex 58.2 22.2 15.6923
      vertex 61.2 19.2 15.6923
      vertex 61.2 22.2 15.6923
    endloop
  endfacet
  facet normal 0 0 1
    outer loop
      vertex 61.2 19.2 15.6923
      vertex 58.2 22.2 15.6923
      vertex 58.2 19.2 15.6923
    endloop
  endfacet
  facet normal 0 1 -0
    outer loop
      vertex 61.2 22.2 12
      vertex 58.2 22.2 15.6923
      vertex 61.2 22.2 15.6923
    endloop
  endfacet
  facet normal 0 1 0
    outer loop
      vertex 58.2 22.2 15.6923
      vertex 61.2 22.2 12
      vertex 58.2 22.2 12
    endloop
  endfacet
  facet normal 1 -0 0
    outer loop
      vertex 64.2 13.2 13.8462
      vertex 64.2 19.2 12
      vertex 64.2 19.2 13.8462
    endloop
  endfacet
  facet normal 1 0 0
    outer loop
      vertex 64.2 19.2 12
      vertex 64.2 13.2 13.8462
      vertex 64.2 13.2 12
    endloop
  endfacet
  facet normal 0 1 -0
    outer loop
      vertex 64.2 19.2 12
      vertex 61.2 19.2 13.8462
      vertex 64.2 19.2 13.8462
    endloop
  endfacet
  facet normal 0 1 0
    outer loop
      vertex 61.2 19.2 13.8462
      vertex 64.2 19.2 12
      vertex 61.2 19.2 12
    endloop
  endfacet
  facet normal 1 0 0
    outer loop
      vertex 70.2 16.2 13.8462
      vertex 70.2 19.2 13.8462
      vertex 70.2 19.2 15.6923
    endloop
  endfacet
  facet normal 1 0 0
    outer loop
      vertex 70.2 16.2 13.8462
      vertex 70.2 19.2 15.6923
      vertex 70.2 16.2 15.6923
    endloop
  endfacet
  facet normal 1 0 0
    outer loop
      vertex 70.2 19.2 13.8462
      vertex 70.2 16.2 13.8462
      vertex 70.2 19.2 12
    endloop
  endfacet
  facet normal 1 0 0
    outer loop
      vertex 70.2 19.2 12
      vertex 70.2 16.2 13.8462
      vertex 70.2 16.2 12
    endloop
  endfacet
  facet normal 1 -0 0
    outer loop
      vertex 70.2 13.2 17.5385
      vertex 70.2 16.2 15.6923
      vertex 70.2 16.2 17.5385
    endloop
  endfacet
  facet normal 1 0 0
    outer loop
      vertex 70.2 13.2 13.8462
      vertex 70.2 16.2 15.6923
      vertex 70.2 13.2 17.5385
    endloop
  endfacet
  facet normal 1 0 0
    outer loop
      vertex 70.2 16.2 15.6923
      vertex 70.2 13.2 13.8462
      vertex 70.2 16.2 13.8462
    endloop
  endfacet
  facet normal -1 0 0
    outer loop
      vertex 70.2 10.2 12
      vertex 70.2 13.2 13.8462
      vertex 70.2 13.2 12
    endloop
  endfacet
  facet normal -1 -0 0
    outer loop
      vertex 70.2 13.2 13.8462
      vertex 70.2 10.2 12
      vertex 70.2 10.2 13.8462
    endloop
  endfacet
  facet normal -0 0 1
    outer loop
      vertex 67.2 16.2 17.5385
      vertex 70.2 13.2 17.5385
      vertex 70.2 16.2 17.5385
    endloop
  endfacet
  facet normal 0 0 1
    outer loop
      vertex 70.2 13.2 17.5385
      vertex 67.2 16.2 17.5385
      vertex 67.2 13.2 17.5385
    endloop
  endfacet
  facet normal 0 0 -1
    outer loop
      vertex 73.2 10.2 12
      vertex 70.2 10.2 12
      vertex 73.2 13.2 12
    endloop
  endfacet
  facet normal 0 0 -1
    outer loop
      vertex 73.2 13.2 12
      vertex 76.2 16.2 12
      vertex 76.2 13.2 12
    endloop
  endfacet
  facet normal 0 0 -1
    outer loop
      vertex 70.2 13.2 12
      vertex 73.2 13.2 12
      vertex 70.2 10.2 12
    endloop
  endfacet
  facet normal 0 0 -1
    outer loop
      vertex 70.2 16.2 12
      vertex 73.2 13.2 12
      vertex 70.2 13.2 12
    endloop
  endfacet
  facet normal 0 0 -1
    outer loop
      vertex 73.2 13.2 12
      vertex 70.2 16.2 12
      vertex 76.2 16.2 12
    endloop
  endfacet
  facet normal 0 0 -1
    outer loop
      vertex 67.2 13.2 12
      vertex 70.2 16.2 12
      vertex 70.2 13.2 12
    endloop
  endfacet
  facet normal 0 0 -1
    outer loop
      vertex 67.2 19.2 12
      vertex 70.2 16.2 12
      vertex 67.2 13.2 12
    endloop
  endfacet
  facet normal 0 0 -1
    outer loop
      vertex 70.2 16.2 12
      vertex 67.2 19.2 12
      vertex 70.2 19.2 12
    endloop
  endfacet
  facet normal -1 0 0
    outer loop
      vertex 67.2 19.2 12
      vertex 67.2 16.2 15.6923
      vertex 67.2 19.2 15.6923
    endloop
  endfacet
  facet normal -1 0 0
    outer loop
      vertex 67.2 13.2 12
      vertex 67.2 16.2 15.6923
      vertex 67.2 19.2 12
    endloop
  endfacet
  facet normal -1 0 0
    outer loop
      vertex 67.2 13.2 17.5385
      vertex 67.2 16.2 15.6923
      vertex 67.2 13.2 12
    endloop
  endfacet
  facet normal -1 0 0
    outer loop
      vertex 67.2 16.2 15.6923
      vertex 67.2 13.2 17.5385
      vertex 67.2 16.2 17.5385
    endloop
  endfacet
  facet normal 0 1 0
    outer loop
      vertex 76.2 16.2 15.6923
      vertex 73.2 16.2 13.8462
      vertex 73.2 16.2 15.6923
    endloop
  endfacet
  facet normal 0 1 -0
    outer loop
      vertex 76.2 16.2 12
      vertex 73.2 16.2 13.8462
      vertex 76.2 16.2 15.6923
    endloop
  endfacet
  facet normal 0 1 0
    outer loop
      vertex 70.2 16.2 12
      vertex 73.2 16.2 13.8462
      vertex 76.2 16.2 12
    endloop
  endfacet
  facet normal 0 1 0
    outer loop
      vertex 73.2 16.2 13.8462
      vertex 70.2 16.2 12
      vertex 70.2 16.2 13.8462
    endloop
  endfacet
  facet normal 0 1 -0
    outer loop
      vertex 70.2 16.2 15.6923
      vertex 67.2 16.2 17.5385
      vertex 70.2 16.2 17.5385
    endloop
  endfacet
  facet normal 0 1 0
    outer loop
      vertex 67.2 16.2 17.5385
      vertex 70.2 16.2 15.6923
      vertex 67.2 16.2 15.6923
    endloop
  endfacet
  facet normal 0 -1 0
    outer loop
      vertex 67.2 13.2 17.5385
      vertex 70.2 13.2 13.8462
      vertex 70.2 13.2 17.5385
    endloop
  endfacet
  facet normal 0 -1 0
    outer loop
      vertex 67.2 13.2 12
      vertex 70.2 13.2 13.8462
      vertex 67.2 13.2 17.5385
    endloop
  endfacet
  facet normal 0 -1 -0
    outer loop
      vertex 70.2 13.2 13.8462
      vertex 67.2 13.2 12
      vertex 70.2 13.2 12
    endloop
  endfacet
  facet normal -0 0 1
    outer loop
      vertex 67.2 19.2 15.6923
      vertex 70.2 16.2 15.6923
      vertex 70.2 19.2 15.6923
    endloop
  endfacet
  facet normal 0 0 1
    outer loop
      vertex 70.2 16.2 15.6923
      vertex 67.2 19.2 15.6923
      vertex 67.2 16.2 15.6923
    endloop
  endfacet
  facet normal 0 1 -0
    outer loop
      vertex 70.2 19.2 13.8462
      vertex 67.2 19.2 15.6923
      vertex 70.2 19.2 15.6923
    endloop
  endfacet
  facet normal 0 1 0
    outer loop
      vertex 67.2 19.2 12
      vertex 70.2 19.2 13.8462
      vertex 70.2 19.2 12
    endloop
  endfacet
  facet normal 0 1 0
    outer loop
      vertex 70.2 19.2 13.8462
      vertex 67.2 19.2 12
      vertex 67.2 19.2 15.6923
    endloop
  endfacet
  facet normal -1 0 0
    outer loop
      vertex 73.2 13.2 13.8462
      vertex 73.2 16.2 15.6923
      vertex 73.2 16.2 13.8462
    endloop
  endfacet
  facet normal -1 -0 0
    outer loop
      vertex 73.2 16.2 15.6923
      vertex 73.2 13.2 13.8462
      vertex 73.2 13.2 15.6923
    endloop
  endfacet
  facet normal 1 -0 0
    outer loop
      vertex 73.2 10.2 13.8462
      vertex 73.2 13.2 12
      vertex 73.2 13.2 13.8462
    endloop
  endfacet
  facet normal 1 0 0
    outer loop
      vertex 73.2 13.2 12
      vertex 73.2 10.2 13.8462
      vertex 73.2 10.2 12
    endloop
  endfacet
  facet normal 0 0 1
    outer loop
      vertex 70.2 13.2 13.8462
      vertex 73.2 13.2 13.8462
      vertex 73.2 16.2 13.8462
    endloop
  endfacet
  facet normal 0 0 1
    outer loop
      vertex 70.2 13.2 13.8462
      vertex 73.2 16.2 13.8462
      vertex 70.2 16.2 13.8462
    endloop
  endfacet
  facet normal 0 0 1
    outer loop
      vertex 73.2 13.2 13.8462
      vertex 70.2 13.2 13.8462
      vertex 73.2 10.2 13.8462
    endloop
  endfacet
  facet normal 0 0 1
    outer loop
      vertex 73.2 10.2 13.8462
      vertex 70.2 13.2 13.8462
      vertex 70.2 10.2 13.8462
    endloop
  endfacet
  facet normal 0 -1 0
    outer loop
      vertex 70.2 10.2 12
      vertex 73.2 10.2 13.8462
      vertex 70.2 10.2 13.8462
    endloop
  endfacet
  facet normal 0 -1 -0
    outer loop
      vertex 73.2 10.2 13.8462
      vertex 70.2 10.2 12
      vertex 73.2 10.2 12
    endloop
  endfacet
  facet normal 1 -0 0
    outer loop
      vertex 73.2 19.2 13.8462
      vertex 73.2 22.2 12
      vertex 73.2 22.2 13.8462
    endloop
  endfacet
  facet normal 1 0 0
    outer loop
      vertex 73.2 22.2 12
      vertex 73.2 19.2 13.8462
      vertex 73.2 19.2 12
    endloop
  endfacet
  facet normal -0 0 1
    outer loop
      vertex 70.2 22.2 13.8462
      vertex 73.2 19.2 13.8462
      vertex 73.2 22.2 13.8462
    endloop
  endfacet
  facet normal 0 0 1
    outer loop
      vertex 73.2 19.2 13.8462
      vertex 70.2 22.2 13.8462
      vertex 70.2 19.2 13.8462
    endloop
  endfacet
  facet normal 0 0 -1
    outer loop
      vertex 70.2 19.2 12
      vertex 73.2 22.2 12
      vertex 73.2 19.2 12
    endloop
  endfacet
  facet normal -0 0 -1
    outer loop
      vertex 73.2 22.2 12
      vertex 70.2 19.2 12
      vertex 70.2 22.2 12
    endloop
  endfacet
  facet normal -1 0 0
    outer loop
      vertex 70.2 19.2 12
      vertex 70.2 22.2 13.8462
      vertex 70.2 22.2 12
    endloop
  endfacet
  facet normal -1 -0 0
    outer loop
      vertex 70.2 22.2 13.8462
      vertex 70.2 19.2 12
      vertex 70.2 19.2 13.8462
    endloop
  endfacet
  facet normal 0 1 -0
    outer loop
      vertex 73.2 22.2 12
      vertex 70.2 22.2 13.8462
      vertex 73.2 22.2 13.8462
    endloop
  endfacet
  facet normal 0 1 0
    outer loop
      vertex 70.2 22.2 13.8462
      vertex 73.2 22.2 12
      vertex 70.2 22.2 12
    endloop
  endfacet
  facet normal 0 -1 0
    outer loop
      vertex 70.2 19.2 12
      vertex 73.2 19.2 13.8462
      vertex 70.2 19.2 13.8462
    endloop
  endfacet
  facet normal 0 -1 -0
    outer loop
      vertex 73.2 19.2 13.8462
      vertex 70.2 19.2 12
      vertex 73.2 19.2 12
    endloop
  endfacet
  facet normal 1 -0 0
    outer loop
      vertex 76.2 13.2 15.6923
      vertex 76.2 16.2 12
      vertex 76.2 16.2 15.6923
    endloop
  endfacet
  facet normal 1 0 0
    outer loop
      vertex 76.2 16.2 12
      vertex 76.2 13.2 15.6923
      vertex 76.2 13.2 12
    endloop
  endfacet
  facet normal -0 0 1
    outer loop
      vertex 73.2 16.2 15.6923
      vertex 76.2 13.2 15.6923
      vertex 76.2 16.2 15.6923
    endloop
  endfacet
  facet normal 0 0 1
    outer loop
      vertex 76.2 13.2 15.6923
      vertex 73.2 16.2 15.6923
      vertex 73.2 13.2 15.6923
    endloop
  endfacet
  facet normal 0 -1 0
    outer loop
      vertex 73.2 13.2 13.8462
      vertex 76.2 13.2 15.6923
      vertex 73.2 13.2 15.6923
    endloop
  endfacet
  facet normal 0 -1 0
    outer loop
      vertex 76.2 13.2 12
      vertex 73.2 13.2 13.8462
      vertex 73.2 13.2 12
    endloop
  endfacet
  facet normal 0 -1 0
    outer loop
      vertex 73.2 13.2 13.8462
      vertex 76.2 13.2 12
      vertex 76.2 13.2 15.6923
    endloop
  endfacet
  facet normal 1 -0 0
    outer loop
      vertex 76.2 22.2 13.8462
      vertex 76.2 25.2 12
      vertex 76.2 25.2 13.8462
    endloop
  endfacet
  facet normal 1 0 0
    outer loop
      vertex 76.2 25.2 12
      vertex 76.2 22.2 13.8462
      vertex 76.2 22.2 12
    endloop
  endfacet
  facet normal -0 0 1
    outer loop
      vertex 73.2 25.2 13.8462
      vertex 76.2 22.2 13.8462
      vertex 76.2 25.2 13.8462
    endloop
  endfacet
  facet normal 0 0 1
    outer loop
      vertex 76.2 22.2 13.8462
      vertex 73.2 25.2 13.8462
      vertex 73.2 22.2 13.8462
    endloop
  endfacet
  facet normal 0 0 -1
    outer loop
      vertex 73.2 22.2 12
      vertex 76.2 25.2 12
      vertex 76.2 22.2 12
    endloop
  endfacet
  facet normal -0 0 -1
    outer loop
      vertex 76.2 25.2 12
      vertex 73.2 22.2 12
      vertex 73.2 25.2 12
    endloop
  endfacet
  facet normal -1 0 0
    outer loop
      vertex 73.2 22.2 12
      vertex 73.2 25.2 13.8462
      vertex 73.2 25.2 12
    endloop
  endfacet
  facet normal -1 -0 0
    outer loop
      vertex 73.2 25.2 13.8462
      vertex 73.2 22.2 12
      vertex 73.2 22.2 13.8462
    endloop
  endfacet
  facet normal 0 1 -0
    outer loop
      vertex 76.2 25.2 12
      vertex 73.2 25.2 13.8462
      vertex 76.2 25.2 13.8462
    endloop
  endfacet
  facet normal 0 1 0
    outer loop
      vertex 73.2 25.2 13.8462
      vertex 76.2 25.2 12
      vertex 73.2 25.2 12
    endloop
  endfacet
  facet normal 0 -1 0
    outer loop
      vertex 73.2 22.2 12
      vertex 76.2 22.2 13.8462
      vertex 73.2 22.2 13.8462
    endloop
  endfacet
  facet normal 0 -1 -0
    outer loop
      vertex 76.2 22.2 13.8462
      vertex 73.2 22.2 12
      vertex 76.2 22.2 12
    endloop
  endfacet
  facet normal -0 0 1
    outer loop
      vertex 100.2 22.2 13.8462
      vertex 106.2 19.2 13.8462
      vertex 106.2 22.2 13.8462
    endloop
  endfacet
  facet normal 0 0 1
    outer loop
      vertex 106.2 19.2 13.8462
      vertex 100.2 22.2 13.8462
      vertex 100.2 19.2 13.8462
    endloop
  endfacet
  facet normal 0 0 -1
    outer loop
      vertex 100.2 19.2 12
      vertex 106.2 22.2 12
      vertex 106.2 19.2 12
    endloop
  endfacet
  facet normal -0 0 -1
    outer loop
      vertex 106.2 22.2 12
      vertex 100.2 19.2 12
      vertex 100.2 22.2 12
    endloop
  endfacet
  facet normal -1 0 0
    outer loop
      vertex 100.2 19.2 12
      vertex 100.2 22.2 13.8462
      vertex 100.2 22.2 12
    endloop
  endfacet
  facet normal -1 -0 0
    outer loop
      vertex 100.2 22.2 13.8462
      vertex 100.2 19.2 12
      vertex 100.2 19.2 13.8462
    endloop
  endfacet
  facet normal 0 1 -0
    outer loop
      vertex 106.2 22.2 12
      vertex 100.2 22.2 13.8462
      vertex 106.2 22.2 13.8462
    endloop
  endfacet
  facet normal 0 1 0
    outer loop
      vertex 100.2 22.2 13.8462
      vertex 106.2 22.2 12
      vertex 100.2 22.2 12
    endloop
  endfacet
  facet normal 0 -1 0
    outer loop
      vertex 100.2 19.2 12
      vertex 106.2 19.2 13.8462
      vertex 100.2 19.2 13.8462
    endloop
  endfacet
  facet normal 0 -1 -0
    outer loop
      vertex 106.2 19.2 13.8462
      vertex 100.2 19.2 12
      vertex 106.2 19.2 12
    endloop
  endfacet
  facet normal 1 -0 0
    outer loop
      vertex 106.2 19.2 13.8462
      vertex 106.2 22.2 12
      vertex 106.2 22.2 13.8462
    endloop
  endfacet
  facet normal 1 0 0
    outer loop
      vertex 106.2 22.2 12
      vertex 106.2 19.2 13.8462
      vertex 106.2 19.2 12
    endloop
  endfacet
  facet normal 1 -0 0
    outer loop
      vertex 112.2 22.2 13.8462
      vertex 112.2 25.2 12
      vertex 112.2 25.2 13.8462
    endloop
  endfacet
  facet normal 1 0 0
    outer loop
      vertex 112.2 25.2 12
      vertex 112.2 22.2 13.8462
      vertex 112.2 22.2 12
    endloop
  endfacet
  facet normal -0 0 1
    outer loop
      vertex 109.2 25.2 13.8462
      vertex 112.2 22.2 13.8462
      vertex 112.2 25.2 13.8462
    endloop
  endfacet
  facet normal 0 0 1
    outer loop
      vertex 112.2 22.2 13.8462
      vertex 109.2 25.2 13.8462
      vertex 109.2 22.2 13.8462
    endloop
  endfacet
  facet normal 0 0 -1
    outer loop
      vertex 109.2 22.2 12
      vertex 112.2 25.2 12
      vertex 112.2 22.2 12
    endloop
  endfacet
  facet normal -0 0 -1
    outer loop
      vertex 112.2 25.2 12
      vertex 109.2 22.2 12
      vertex 109.2 25.2 12
    endloop
  endfacet
  facet normal -1 0 0
    outer loop
      vertex 109.2 22.2 12
      vertex 109.2 25.2 13.8462
      vertex 109.2 25.2 12
    endloop
  endfacet
  facet normal -1 -0 0
    outer loop
      vertex 109.2 25.2 13.8462
      vertex 109.2 22.2 12
      vertex 109.2 22.2 13.8462
    endloop
  endfacet
  facet normal 0 1 -0
    outer loop
      vertex 112.2 25.2 12
      vertex 109.2 25.2 13.8462
      vertex 112.2 25.2 13.8462
    endloop
  endfacet
  facet normal 0 1 0
    outer loop
      vertex 109.2 25.2 13.8462
      vertex 112.2 25.2 12
      vertex 109.2 25.2 12
    endloop
  endfacet
  facet normal 0 -1 0
    outer loop
      vertex 109.2 22.2 12
      vertex 112.2 22.2 13.8462
      vertex 109.2 22.2 13.8462
    endloop
  endfacet
  facet normal 0 -1 -0
    outer loop
      vertex 112.2 22.2 13.8462
      vertex 109.2 22.2 12
      vertex 112.2 22.2 12
    endloop
  endfacet
  facet normal 1 0 0
    outer loop
      vertex 115.2 16.2 21.2308
      vertex 115.2 13.2 21.2308
      vertex 115.2 16.2 13.8462
    endloop
  endfacet
  facet normal 1 -0 0
    outer loop
      vertex 115.2 16.2 13.8462
      vertex 115.2 19.2 12
      vertex 115.2 19.2 13.8462
    endloop
  endfacet
  facet normal 1 0 0
    outer loop
      vertex 115.2 16.2 13.8462
      vertex 115.2 13.2 12
      vertex 115.2 19.2 12
    endloop
  endfacet
  facet normal 1 0 0
    outer loop
      vertex 115.2 13.2 12
      vertex 115.2 16.2 13.8462
      vertex 115.2 13.2 21.2308
    endloop
  endfacet
  facet normal -0 0 1
    outer loop
      vertex 112.2 16.2 21.2308
      vertex 115.2 13.2 21.2308
      vertex 115.2 16.2 21.2308
    endloop
  endfacet
  facet normal 0 0 1
    outer loop
      vertex 115.2 13.2 21.2308
      vertex 112.2 16.2 21.2308
      vertex 112.2 13.2 21.2308
    endloop
  endfacet
  facet normal 0 0 -1
    outer loop
      vertex 112.2 13.2 12
      vertex 115.2 19.2 12
      vertex 115.2 13.2 12
    endloop
  endfacet
  facet normal -0 0 -1
    outer loop
      vertex 115.2 19.2 12
      vertex 112.2 13.2 12
      vertex 112.2 19.2 12
    endloop
  endfacet
  facet normal -1 0 0
    outer loop
      vertex 112.2 19.2 12
      vertex 112.2 16.2 13.8462
      vertex 112.2 19.2 13.8462
    endloop
  endfacet
  facet normal -1 0 0
    outer loop
      vertex 112.2 13.2 12
      vertex 112.2 16.2 13.8462
      vertex 112.2 19.2 12
    endloop
  endfacet
  facet normal -1 0 0
    outer loop
      vertex 112.2 13.2 21.2308
      vertex 112.2 16.2 13.8462
      vertex 112.2 13.2 12
    endloop
  endfacet
  facet normal -1 0 0
    outer loop
      vertex 112.2 16.2 13.8462
      vertex 112.2 13.2 21.2308
      vertex 112.2 16.2 21.2308
    endloop
  endfacet
  facet normal 0 1 -0
    outer loop
      vertex 115.2 16.2 13.8462
      vertex 112.2 16.2 21.2308
      vertex 115.2 16.2 21.2308
    endloop
  endfacet
  facet normal 0 1 0
    outer loop
      vertex 112.2 16.2 21.2308
      vertex 115.2 16.2 13.8462
      vertex 112.2 16.2 13.8462
    endloop
  endfacet
  facet normal 0 -1 0
    outer loop
      vertex 112.2 13.2 12
      vertex 115.2 13.2 21.2308
      vertex 112.2 13.2 21.2308
    endloop
  endfacet
  facet normal 0 -1 -0
    outer loop
      vertex 115.2 13.2 21.2308
      vertex 112.2 13.2 12
      vertex 115.2 13.2 12
    endloop
  endfacet
  facet normal -0 0 1
    outer loop
      vertex 112.2 19.2 13.8462
      vertex 115.2 16.2 13.8462
      vertex 115.2 19.2 13.8462
    endloop
  endfacet
  facet normal 0 0 1
    outer loop
      vertex 115.2 16.2 13.8462
      vertex 112.2 19.2 13.8462
      vertex 112.2 16.2 13.8462
    endloop
  endfacet
  facet normal 0 1 -0
    outer loop
      vertex 115.2 19.2 12
      vertex 112.2 19.2 13.8462
      vertex 115.2 19.2 13.8462
    endloop
  endfacet
  facet normal 0 1 0
    outer loop
      vertex 112.2 19.2 13.8462
      vertex 115.2 19.2 12
      vertex 112.2 19.2 12
    endloop
  endfacet
  facet normal 1 -0 0
    outer loop
      vertex 121.2 16.2 15.6923
      vertex 121.2 19.2 12
      vertex 121.2 19.2 15.6923
    endloop
  endfacet
  facet normal 1 0 0
    outer loop
      vertex 121.2 19.2 12
      vertex 121.2 16.2 15.6923
      vertex 121.2 16.2 12
    endloop
  endfacet
  facet normal -0 0 1
    outer loop
      vertex 118.2 19.2 15.6923
      vertex 121.2 16.2 15.6923
      vertex 121.2 19.2 15.6923
    endloop
  endfacet
  facet normal 0 0 1
    outer loop
      vertex 121.2 16.2 15.6923
      vertex 118.2 19.2 15.6923
      vertex 118.2 16.2 15.6923
    endloop
  endfacet
  facet normal 0 0 -1
    outer loop
      vertex 118.2 16.2 12
      vertex 121.2 19.2 12
      vertex 121.2 16.2 12
    endloop
  endfacet
  facet normal -0 0 -1
    outer loop
      vertex 121.2 19.2 12
      vertex 118.2 16.2 12
      vertex 118.2 19.2 12
    endloop
  endfacet
  facet normal -1 0 0
    outer loop
      vertex 118.2 16.2 12
      vertex 118.2 19.2 15.6923
      vertex 118.2 19.2 12
    endloop
  endfacet
  facet normal -1 -0 0
    outer loop
      vertex 118.2 19.2 15.6923
      vertex 118.2 16.2 12
      vertex 118.2 16.2 15.6923
    endloop
  endfacet
  facet normal 0 1 -0
    outer loop
      vertex 121.2 19.2 12
      vertex 118.2 19.2 15.6923
      vertex 121.2 19.2 15.6923
    endloop
  endfacet
  facet normal 0 1 0
    outer loop
      vertex 118.2 19.2 15.6923
      vertex 121.2 19.2 12
      vertex 118.2 19.2 12
    endloop
  endfacet
  facet normal 0 -1 0
    outer loop
      vertex 118.2 16.2 12
      vertex 121.2 16.2 15.6923
      vertex 118.2 16.2 15.6923
    endloop
  endfacet
  facet normal 0 -1 -0
    outer loop
      vertex 121.2 16.2 15.6923
      vertex 118.2 16.2 12
      vertex 121.2 16.2 12
    endloop
  endfacet
  facet normal 1 -0 0
    outer loop
      vertex 139.2 22.2 30.4615
      vertex 139.2 25.2 12
      vertex 139.2 25.2 30.4615
    endloop
  endfacet
  facet normal 1 0 0
    outer loop
      vertex 139.2 25.2 12
      vertex 139.2 22.2 30.4615
      vertex 139.2 22.2 12
    endloop
  endfacet
  facet normal -0 0 1
    outer loop
      vertex 136.2 25.2 30.4615
      vertex 139.2 22.2 30.4615
      vertex 139.2 25.2 30.4615
    endloop
  endfacet
  facet normal 0 0 1
    outer loop
      vertex 139.2 22.2 30.4615
      vertex 136.2 25.2 30.4615
      vertex 136.2 22.2 30.4615
    endloop
  endfacet
  facet normal 0 0 -1
    outer loop
      vertex 136.2 22.2 12
      vertex 139.2 25.2 12
      vertex 139.2 22.2 12
    endloop
  endfacet
  facet normal -0 0 -1
    outer loop
      vertex 139.2 25.2 12
      vertex 136.2 22.2 12
      vertex 136.2 25.2 12
    endloop
  endfacet
  facet normal -1 0 0
    outer loop
      vertex 136.2 22.2 12
      vertex 136.2 25.2 30.4615
      vertex 136.2 25.2 12
    endloop
  endfacet
  facet normal -1 -0 0
    outer loop
      vertex 136.2 25.2 30.4615
      vertex 136.2 22.2 12
      vertex 136.2 22.2 30.4615
    endloop
  endfacet
  facet normal 0 1 -0
    outer loop
      vertex 139.2 25.2 12
      vertex 136.2 25.2 30.4615
      vertex 139.2 25.2 30.4615
    endloop
  endfacet
  facet normal 0 1 0
    outer loop
      vertex 136.2 25.2 30.4615
      vertex 139.2 25.2 12
      vertex 136.2 25.2 12
    endloop
  endfacet
  facet normal 0 -1 0
    outer loop
      vertex 136.2 22.2 12
      vertex 139.2 22.2 30.4615
      vertex 136.2 22.2 30.4615
    endloop
  endfacet
  facet normal 0 -1 -0
    outer loop
      vertex 139.2 22.2 30.4615
      vertex 136.2 22.2 12
      vertex 139.2 22.2 12
    endloop
  endfacet
  facet normal -1 0 0
    outer loop
      vertex 142.2 13.2 13.8462
      vertex 142.2 16.2 17.5385
      vertex 142.2 16.2 13.8462
    endloop
  endfacet
  facet normal -1 0 0
    outer loop
      vertex 142.2 13.2 19.3846
      vertex 142.2 16.2 17.5385
      vertex 142.2 13.2 13.8462
    endloop
  endfacet
  facet normal -1 0 0
    outer loop
      vertex 142.2 16.2 17.5385
      vertex 142.2 13.2 19.3846
      vertex 142.2 16.2 19.3846
    endloop
  endfacet
  facet normal 1 -0 0
    outer loop
      vertex 142.2 10.2 28.6154
      vertex 142.2 13.2 19.3846
      vertex 142.2 13.2 28.6154
    endloop
  endfacet
  facet normal 1 0 0
    outer loop
      vertex 142.2 10.2 12
      vertex 142.2 13.2 19.3846
      vertex 142.2 10.2 28.6154
    endloop
  endfacet
  facet normal 1 0 0
    outer loop
      vertex 142.2 13.2 19.3846
      vertex 142.2 10.2 12
      vertex 142.2 13.2 13.8462
    endloop
  endfacet
  facet normal 1 0 0
    outer loop
      vertex 142.2 13.2 13.8462
      vertex 142.2 10.2 12
      vertex 142.2 13.2 12
    endloop
  endfacet
  facet normal -0 0 1
    outer loop
      vertex 139.2 13.2 28.6154
      vertex 142.2 10.2 28.6154
      vertex 142.2 13.2 28.6154
    endloop
  endfacet
  facet normal 0 0 1
    outer loop
      vertex 142.2 10.2 28.6154
      vertex 139.2 13.2 28.6154
      vertex 139.2 10.2 28.6154
    endloop
  endfacet
  facet normal 0 0 -1
    outer loop
      vertex 142.2 10.2 12
      vertex 139.2 10.2 12
      vertex 142.2 13.2 12
    endloop
  endfacet
  facet normal 0 0 -1
    outer loop
      vertex 142.2 13.2 12
      vertex 148.2 19.2 12
      vertex 148.2 13.2 12
    endloop
  endfacet
  facet normal 0 0 -1
    outer loop
      vertex 139.2 19.2 12
      vertex 142.2 13.2 12
      vertex 139.2 10.2 12
    endloop
  endfacet
  facet normal 0 0 -1
    outer loop
      vertex 142.2 13.2 12
      vertex 139.2 19.2 12
      vertex 148.2 19.2 12
    endloop
  endfacet
  facet normal -1 0 0
    outer loop
      vertex 139.2 19.2 12
      vertex 139.2 16.2 13.8462
      vertex 139.2 19.2 17.5385
    endloop
  endfacet
  facet normal -1 0 0
    outer loop
      vertex 139.2 19.2 12
      vertex 139.2 13.2 13.8462
      vertex 139.2 16.2 13.8462
    endloop
  endfacet
  facet normal -1 0 0
    outer loop
      vertex 139.2 10.2 12
      vertex 139.2 13.2 13.8462
      vertex 139.2 19.2 12
    endloop
  endfacet
  facet normal -1 0 0
    outer loop
      vertex 139.2 10.2 28.6154
      vertex 139.2 13.2 13.8462
      vertex 139.2 10.2 12
    endloop
  endfacet
  facet normal -1 0 0
    outer loop
      vertex 139.2 13.2 13.8462
      vertex 139.2 10.2 28.6154
      vertex 139.2 13.2 28.6154
    endloop
  endfacet
  facet normal -1 -0 0
    outer loop
      vertex 139.2 19.2 17.5385
      vertex 139.2 16.2 13.8462
      vertex 139.2 16.2 17.5385
    endloop
  endfacet
  facet normal 0 1 -0
    outer loop
      vertex 142.2 13.2 19.3846
      vertex 139.2 13.2 28.6154
      vertex 142.2 13.2 28.6154
    endloop
  endfacet
  facet normal 0 1 0
    outer loop
      vertex 139.2 13.2 13.8462
      vertex 142.2 13.2 19.3846
      vertex 142.2 13.2 13.8462
    endloop
  endfacet
  facet normal 0 1 0
    outer loop
      vertex 142.2 13.2 19.3846
      vertex 139.2 13.2 13.8462
      vertex 139.2 13.2 28.6154
    endloop
  endfacet
  facet normal 0 -1 0
    outer loop
      vertex 139.2 10.2 12
      vertex 142.2 10.2 28.6154
      vertex 139.2 10.2 28.6154
    endloop
  endfacet
  facet normal 0 -1 -0
    outer loop
      vertex 142.2 10.2 28.6154
      vertex 139.2 10.2 12
      vertex 142.2 10.2 12
    endloop
  endfacet
  facet normal -0 0 1
    outer loop
      vertex 139.2 16.2 13.8462
      vertex 142.2 13.2 13.8462
      vertex 142.2 16.2 13.8462
    endloop
  endfacet
  facet normal 0 0 1
    outer loop
      vertex 142.2 13.2 13.8462
      vertex 139.2 16.2 13.8462
      vertex 139.2 13.2 13.8462
    endloop
  endfacet
  facet normal 0 -1 0
    outer loop
      vertex 139.2 16.2 13.8462
      vertex 142.2 16.2 17.5385
      vertex 139.2 16.2 17.5385
    endloop
  endfacet
  facet normal 0 -1 -0
    outer loop
      vertex 142.2 16.2 17.5385
      vertex 139.2 16.2 13.8462
      vertex 142.2 16.2 13.8462
    endloop
  endfacet
  facet normal 1 -0 0
    outer loop
      vertex 142.2 16.2 17.5385
      vertex 142.2 19.2 13.8462
      vertex 142.2 19.2 17.5385
    endloop
  endfacet
  facet normal 1 0 0
    outer loop
      vertex 142.2 19.2 13.8462
      vertex 142.2 16.2 17.5385
      vertex 142.2 16.2 13.8462
    endloop
  endfacet
  facet normal -0 0 1
    outer loop
      vertex 139.2 19.2 17.5385
      vertex 142.2 16.2 17.5385
      vertex 142.2 19.2 17.5385
    endloop
  endfacet
  facet normal 0 0 1
    outer loop
      vertex 142.2 16.2 17.5385
      vertex 139.2 19.2 17.5385
      vertex 139.2 16.2 17.5385
    endloop
  endfacet
  facet normal 0 1 0
    outer loop
      vertex 148.2 19.2 15.6923
      vertex 145.2 19.2 13.8462
      vertex 145.2 19.2 15.6923
    endloop
  endfacet
  facet normal 0 1 0
    outer loop
      vertex 145.2 19.2 13.8462
      vertex 148.2 19.2 12
      vertex 142.2 19.2 13.8462
    endloop
  endfacet
  facet normal 0 1 -0
    outer loop
      vertex 148.2 19.2 12
      vertex 145.2 19.2 13.8462
      vertex 148.2 19.2 15.6923
    endloop
  endfacet
  facet normal 0 1 -0
    outer loop
      vertex 142.2 19.2 13.8462
      vertex 139.2 19.2 17.5385
      vertex 142.2 19.2 17.5385
    endloop
  endfacet
  facet normal 0 1 0
    outer loop
      vertex 142.2 19.2 13.8462
      vertex 139.2 19.2 12
      vertex 139.2 19.2 17.5385
    endloop
  endfacet
  facet normal 0 1 0
    outer loop
      vertex 139.2 19.2 12
      vertex 142.2 19.2 13.8462
      vertex 148.2 19.2 12
    endloop
  endfacet
  facet normal -1 0 0
    outer loop
      vertex 145.2 16.2 13.8462
      vertex 145.2 19.2 15.6923
      vertex 145.2 19.2 13.8462
    endloop
  endfacet
  facet normal -1 -0 0
    outer loop
      vertex 145.2 19.2 15.6923
      vertex 145.2 16.2 13.8462
      vertex 145.2 16.2 15.6923
    endloop
  endfacet
  facet normal -0 0 1
    outer loop
      vertex 142.2 16.2 19.3846
      vertex 148.2 13.2 19.3846
      vertex 148.2 16.2 19.3846
    endloop
  endfacet
  facet normal 0 0 1
    outer loop
      vertex 148.2 13.2 19.3846
      vertex 142.2 16.2 19.3846
      vertex 142.2 13.2 19.3846
    endloop
  endfacet
  facet normal 0 1 -0
    outer loop
      vertex 145.2 16.2 15.6923
      vertex 142.2 16.2 19.3846
      vertex 148.2 16.2 19.3846
    endloop
  endfacet
  facet normal 0 1 0
    outer loop
      vertex 145.2 16.2 15.6923
      vertex 148.2 16.2 19.3846
      vertex 148.2 16.2 15.6923
    endloop
  endfacet
  facet normal 0 1 0
    outer loop
      vertex 142.2 16.2 19.3846
      vertex 145.2 16.2 15.6923
      vertex 142.2 16.2 17.5385
    endloop
  endfacet
  facet normal 0 1 0
    outer loop
      vertex 142.2 16.2 13.8462
      vertex 145.2 16.2 15.6923
      vertex 145.2 16.2 13.8462
    endloop
  endfacet
  facet normal 0 1 0
    outer loop
      vertex 145.2 16.2 15.6923
      vertex 142.2 16.2 13.8462
      vertex 142.2 16.2 17.5385
    endloop
  endfacet
  facet normal 0 -1 0
    outer loop
      vertex 142.2 13.2 13.8462
      vertex 148.2 13.2 19.3846
      vertex 142.2 13.2 19.3846
    endloop
  endfacet
  facet normal 0 -1 0
    outer loop
      vertex 148.2 13.2 12
      vertex 142.2 13.2 13.8462
      vertex 142.2 13.2 12
    endloop
  endfacet
  facet normal 0 -1 0
    outer loop
      vertex 142.2 13.2 13.8462
      vertex 148.2 13.2 12
      vertex 148.2 13.2 19.3846
    endloop
  endfacet
  facet normal -0 0 1
    outer loop
      vertex 142.2 19.2 13.8462
      vertex 145.2 16.2 13.8462
      vertex 145.2 19.2 13.8462
    endloop
  endfacet
  facet normal 0 0 1
    outer loop
      vertex 145.2 16.2 13.8462
      vertex 142.2 19.2 13.8462
      vertex 142.2 16.2 13.8462
    endloop
  endfacet
  facet normal 1 -0 0
    outer loop
      vertex 145.2 22.2 17.5385
      vertex 145.2 25.2 12
      vertex 145.2 25.2 17.5385
    endloop
  endfacet
  facet normal 1 0 0
    outer loop
      vertex 145.2 25.2 12
      vertex 145.2 22.2 17.5385
      vertex 145.2 22.2 12
    endloop
  endfacet
  facet normal -0 0 1
    outer loop
      vertex 142.2 25.2 17.5385
      vertex 145.2 22.2 17.5385
      vertex 145.2 25.2 17.5385
    endloop
  endfacet
  facet normal 0 0 1
    outer loop
      vertex 145.2 22.2 17.5385
      vertex 142.2 25.2 17.5385
      vertex 142.2 22.2 17.5385
    endloop
  endfacet
  facet normal 0 0 -1
    outer loop
      vertex 142.2 22.2 12
      vertex 145.2 25.2 12
      vertex 145.2 22.2 12
    endloop
  endfacet
  facet normal -0 0 -1
    outer loop
      vertex 145.2 25.2 12
      vertex 142.2 22.2 12
      vertex 142.2 25.2 12
    endloop
  endfacet
  facet normal -1 0 0
    outer loop
      vertex 142.2 22.2 12
      vertex 142.2 25.2 17.5385
      vertex 142.2 25.2 12
    endloop
  endfacet
  facet normal -1 -0 0
    outer loop
      vertex 142.2 25.2 17.5385
      vertex 142.2 22.2 12
      vertex 142.2 22.2 17.5385
    endloop
  endfacet
  facet normal 0 1 -0
    outer loop
      vertex 145.2 25.2 12
      vertex 142.2 25.2 17.5385
      vertex 145.2 25.2 17.5385
    endloop
  endfacet
  facet normal 0 1 0
    outer loop
      vertex 142.2 25.2 17.5385
      vertex 145.2 25.2 12
      vertex 142.2 25.2 12
    endloop
  endfacet
  facet normal 0 -1 0
    outer loop
      vertex 142.2 22.2 12
      vertex 145.2 22.2 17.5385
      vertex 142.2 22.2 17.5385
    endloop
  endfacet
  facet normal 0 -1 -0
    outer loop
      vertex 145.2 22.2 17.5385
      vertex 142.2 22.2 12
      vertex 145.2 22.2 12
    endloop
  endfacet
  facet normal 1 0 0
    outer loop
      vertex 148.2 16.2 19.3846
      vertex 148.2 13.2 19.3846
      vertex 148.2 16.2 15.6923
    endloop
  endfacet
  facet normal 1 -0 0
    outer loop
      vertex 148.2 16.2 15.6923
      vertex 148.2 19.2 12
      vertex 148.2 19.2 15.6923
    endloop
  endfacet
  facet normal 1 0 0
    outer loop
      vertex 148.2 13.2 12
      vertex 148.2 16.2 15.6923
      vertex 148.2 13.2 19.3846
    endloop
  endfacet
  facet normal 1 0 0
    outer loop
      vertex 148.2 16.2 15.6923
      vertex 148.2 13.2 12
      vertex 148.2 19.2 12
    endloop
  endfacet
  facet normal -0 0 1
    outer loop
      vertex 145.2 19.2 15.6923
      vertex 148.2 16.2 15.6923
      vertex 148.2 19.2 15.6923
    endloop
  endfacet
  facet normal 0 0 1
    outer loop
      vertex 148.2 16.2 15.6923
      vertex 145.2 19.2 15.6923
      vertex 145.2 16.2 15.6923
    endloop
  endfacet
  facet normal 1 -0 0
    outer loop
      vertex 160.2 10.2 13.8462
      vertex 160.2 13.2 12
      vertex 160.2 13.2 13.8462
    endloop
  endfacet
  facet normal 1 0 0
    outer loop
      vertex 160.2 13.2 12
      vertex 160.2 10.2 13.8462
      vertex 160.2 10.2 12
    endloop
  endfacet
  facet normal -0 0 1
    outer loop
      vertex 157.2 13.2 13.8462
      vertex 160.2 10.2 13.8462
      vertex 160.2 13.2 13.8462
    endloop
  endfacet
  facet normal 0 0 1
    outer loop
      vertex 160.2 10.2 13.8462
      vertex 157.2 13.2 13.8462
      vertex 157.2 10.2 13.8462
    endloop
  endfacet
  facet normal 0 0 -1
    outer loop
      vertex 157.2 10.2 12
      vertex 160.2 13.2 12
      vertex 160.2 10.2 12
    endloop
  endfacet
  facet normal -0 0 -1
    outer loop
      vertex 160.2 13.2 12
      vertex 157.2 10.2 12
      vertex 157.2 13.2 12
    endloop
  endfacet
  facet normal -1 0 0
    outer loop
      vertex 157.2 10.2 12
      vertex 157.2 13.2 13.8462
      vertex 157.2 13.2 12
    endloop
  endfacet
  facet normal -1 -0 0
    outer loop
      vertex 157.2 13.2 13.8462
      vertex 157.2 10.2 12
      vertex 157.2 10.2 13.8462
    endloop
  endfacet
  facet normal 0 1 -0
    outer loop
      vertex 160.2 13.2 12
      vertex 157.2 13.2 13.8462
      vertex 160.2 13.2 13.8462
    endloop
  endfacet
  facet normal 0 1 0
    outer loop
      vertex 157.2 13.2 13.8462
      vertex 160.2 13.2 12
      vertex 157.2 13.2 12
    endloop
  endfacet
  facet normal 0 -1 0
    outer loop
      vertex 157.2 10.2 12
      vertex 160.2 10.2 13.8462
      vertex 157.2 10.2 13.8462
    endloop
  endfacet
  facet normal 0 -1 -0
    outer loop
      vertex 160.2 10.2 13.8462
      vertex 157.2 10.2 12
      vertex 160.2 10.2 12
    endloop
  endfacet
  facet normal 1 -0 0
    outer loop
      vertex 163.2 19.2 13.8462
      vertex 163.2 22.2 12
      vertex 163.2 22.2 13.8462
    endloop
  endfacet
  facet normal 1 0 0
    outer loop
      vertex 163.2 22.2 12
      vertex 163.2 19.2 13.8462
      vertex 163.2 19.2 12
    endloop
  endfacet
  facet normal -0 0 1
    outer loop
      vertex 160.2 22.2 13.8462
      vertex 163.2 19.2 13.8462
      vertex 163.2 22.2 13.8462
    endloop
  endfacet
  facet normal 0 0 1
    outer loop
      vertex 163.2 19.2 13.8462
      vertex 160.2 22.2 13.8462
      vertex 160.2 19.2 13.8462
    endloop
  endfacet
  facet normal 0 0 -1
    outer loop
      vertex 160.2 19.2 12
      vertex 163.2 22.2 12
      vertex 163.2 19.2 12
    endloop
  endfacet
  facet normal -0 0 -1
    outer loop
      vertex 163.2 22.2 12
      vertex 160.2 19.2 12
      vertex 160.2 22.2 12
    endloop
  endfacet
  facet normal -1 0 0
    outer loop
      vertex 160.2 19.2 12
      vertex 160.2 22.2 13.8462
      vertex 160.2 22.2 12
    endloop
  endfacet
  facet normal -1 -0 0
    outer loop
      vertex 160.2 22.2 13.8462
      vertex 160.2 19.2 12
      vertex 160.2 19.2 13.8462
    endloop
  endfacet
  facet normal 0 1 -0
    outer loop
      vertex 163.2 22.2 12
      vertex 160.2 22.2 13.8462
      vertex 163.2 22.2 13.8462
    endloop
  endfacet
  facet normal 0 1 0
    outer loop
      vertex 160.2 22.2 13.8462
      vertex 163.2 22.2 12
      vertex 160.2 22.2 12
    endloop
  endfacet
  facet normal 0 -1 0
    outer loop
      vertex 160.2 19.2 12
      vertex 163.2 19.2 13.8462
      vertex 160.2 19.2 13.8462
    endloop
  endfacet
  facet normal 0 -1 -0
    outer loop
      vertex 163.2 19.2 13.8462
      vertex 160.2 19.2 12
      vertex 163.2 19.2 12
    endloop
  endfacet
  facet normal 1 0 0
    outer loop
      vertex 166.2 13.2 19.3846
      vertex 166.2 10.2 19.3846
      vertex 166.2 13.2 13.8462
    endloop
  endfacet
  facet normal 1 -0 0
    outer loop
      vertex 166.2 13.2 13.8462
      vertex 166.2 19.2 12
      vertex 166.2 19.2 13.8462
    endloop
  endfacet
  facet normal 1 0 0
    outer loop
      vertex 166.2 13.2 13.8462
      vertex 166.2 10.2 12
      vertex 166.2 19.2 12
    endloop
  endfacet
  facet normal 1 0 0
    outer loop
      vertex 166.2 10.2 12
      vertex 166.2 13.2 13.8462
      vertex 166.2 10.2 19.3846
    endloop
  endfacet
  facet normal -0 0 1
    outer loop
      vertex 163.2 13.2 19.3846
      vertex 166.2 10.2 19.3846
      vertex 166.2 13.2 19.3846
    endloop
  endfacet
  facet normal 0 0 1
    outer loop
      vertex 166.2 10.2 19.3846
      vertex 163.2 13.2 19.3846
      vertex 163.2 10.2 19.3846
    endloop
  endfacet
  facet normal 0 0 -1
    outer loop
      vertex 163.2 10.2 12
      vertex 166.2 19.2 12
      vertex 166.2 10.2 12
    endloop
  endfacet
  facet normal -0 0 -1
    outer loop
      vertex 166.2 19.2 12
      vertex 163.2 10.2 12
      vertex 163.2 19.2 12
    endloop
  endfacet
  facet normal -1 0 0
    outer loop
      vertex 163.2 19.2 12
      vertex 163.2 13.2 13.8462
      vertex 163.2 19.2 13.8462
    endloop
  endfacet
  facet normal -1 0 0
    outer loop
      vertex 163.2 10.2 12
      vertex 163.2 13.2 13.8462
      vertex 163.2 19.2 12
    endloop
  endfacet
  facet normal -1 0 0
    outer loop
      vertex 163.2 10.2 19.3846
      vertex 163.2 13.2 13.8462
      vertex 163.2 10.2 12
    endloop
  endfacet
  facet normal -1 0 0
    outer loop
      vertex 163.2 13.2 13.8462
      vertex 163.2 10.2 19.3846
      vertex 163.2 13.2 19.3846
    endloop
  endfacet
  facet normal 0 1 -0
    outer loop
      vertex 166.2 13.2 13.8462
      vertex 163.2 13.2 19.3846
      vertex 166.2 13.2 19.3846
    endloop
  endfacet
  facet normal 0 1 0
    outer loop
      vertex 163.2 13.2 19.3846
      vertex 166.2 13.2 13.8462
      vertex 163.2 13.2 13.8462
    endloop
  endfacet
  facet normal 0 -1 0
    outer loop
      vertex 163.2 10.2 12
      vertex 166.2 10.2 19.3846
      vertex 163.2 10.2 19.3846
    endloop
  endfacet
  facet normal 0 -1 -0
    outer loop
      vertex 166.2 10.2 19.3846
      vertex 163.2 10.2 12
      vertex 166.2 10.2 12
    endloop
  endfacet
  facet normal -0 0 1
    outer loop
      vertex 163.2 19.2 13.8462
      vertex 166.2 13.2 13.8462
      vertex 166.2 19.2 13.8462
    endloop
  endfacet
  facet normal 0 0 1
    outer loop
      vertex 166.2 13.2 13.8462
      vertex 163.2 19.2 13.8462
      vertex 163.2 13.2 13.8462
    endloop
  endfacet
  facet normal 0 1 -0
    outer loop
      vertex 166.2 19.2 12
      vertex 163.2 19.2 13.8462
      vertex 166.2 19.2 13.8462
    endloop
  endfacet
  facet normal 0 1 0
    outer loop
      vertex 163.2 19.2 13.8462
      vertex 166.2 19.2 12
      vertex 163.2 19.2 12
    endloop
  endfacet
endsolid OpenSCAD_Model
