solid OpenSCAD_Model
  facet normal -0 0 1
    outer loop
      vertex 148.2 16.2 36
      vertex 151.2 13.2 36
      vertex 151.2 16.2 36
    endloop
  endfacet
  facet normal 0 0 1
    outer loop
      vertex 151.2 13.2 36
      vertex 148.2 16.2 36
      vertex 148.2 13.2 36
    endloop
  endfacet
  facet normal 0 0 -1
    outer loop
      vertex 148.2 13.2 12
      vertex 151.2 16.2 12
      vertex 151.2 13.2 12
    endloop
  endfacet
  facet normal -0 0 -1
    outer loop
      vertex 151.2 16.2 12
      vertex 148.2 13.2 12
      vertex 148.2 16.2 12
    endloop
  endfacet
  facet normal 0 -1 0
    outer loop
      vertex 148.2 13.2 12
      vertex 151.2 13.2 36
      vertex 148.2 13.2 36
    endloop
  endfacet
  facet normal 0 -1 -0
    outer loop
      vertex 151.2 13.2 36
      vertex 148.2 13.2 12
      vertex 151.2 13.2 12
    endloop
  endfacet
  facet normal 1 -0 0
    outer loop
      vertex 151.2 13.2 36
      vertex 151.2 16.2 12
      vertex 151.2 16.2 36
    endloop
  endfacet
  facet normal 1 0 0
    outer loop
      vertex 151.2 16.2 12
      vertex 151.2 13.2 36
      vertex 151.2 13.2 12
    endloop
  endfacet
  facet normal 0 1 -0
    outer loop
      vertex 151.2 16.2 12
      vertex 148.2 16.2 36
      vertex 151.2 16.2 36
    endloop
  endfacet
  facet normal 0 1 0
    outer loop
      vertex 148.2 16.2 36
      vertex 151.2 16.2 12
      vertex 148.2 16.2 12
    endloop
  endfacet
  facet normal -1 0 0
    outer loop
      vertex 148.2 13.2 12
      vertex 148.2 16.2 36
      vertex 148.2 16.2 12
    endloop
  endfacet
  facet normal -1 -0 0
    outer loop
      vertex 148.2 16.2 36
      vertex 148.2 13.2 12
      vertex 148.2 13.2 36
    endloop
  endfacet
endsolid OpenSCAD_Model
