solid OpenSCAD_Model
  facet normal 1 0 0
    outer loop
      vertex 25.2 19.2 18.4
      vertex 25.2 22.2 24.8
      vertex 25.2 19.2 24.8
    endloop
  endfacet
  facet normal 1 0 0
    outer loop
      vertex 25.2 22.2 24.8
      vertex 25.2 19.2 18.4
      vertex 25.2 22.2 12
    endloop
  endfacet
  facet normal 1 0 0
    outer loop
      vertex 25.2 16.2 12
      vertex 25.2 19.2 18.4
      vertex 25.2 16.2 18.4
    endloop
  endfacet
  facet normal 1 0 0
    outer loop
      vertex 25.2 19.2 18.4
      vertex 25.2 16.2 12
      vertex 25.2 22.2 12
    endloop
  endfacet
  facet normal -0 0 1
    outer loop
      vertex 22.2 19.2 18.4
      vertex 25.2 16.2 18.4
      vertex 25.2 19.2 18.4
    endloop
  endfacet
  facet normal 0 0 1
    outer loop
      vertex 25.2 16.2 18.4
      vertex 22.2 19.2 18.4
      vertex 22.2 16.2 18.4
    endloop
  endfacet
  facet normal 0 0 -1
    outer loop
      vertex 22.2 16.2 12
      vertex 25.2 22.2 12
      vertex 25.2 16.2 12
    endloop
  endfacet
  facet normal -0 0 -1
    outer loop
      vertex 25.2 22.2 12
      vertex 22.2 16.2 12
      vertex 22.2 22.2 12
    endloop
  endfacet
  facet normal -1 0 0
    outer loop
      vertex 22.2 22.2 12
      vertex 22.2 19.2 18.4
      vertex 22.2 22.2 24.8
    endloop
  endfacet
  facet normal -1 0 0
    outer loop
      vertex 22.2 16.2 12
      vertex 22.2 19.2 18.4
      vertex 22.2 22.2 12
    endloop
  endfacet
  facet normal -1 -0 0
    outer loop
      vertex 22.2 19.2 18.4
      vertex 22.2 16.2 12
      vertex 22.2 16.2 18.4
    endloop
  endfacet
  facet normal -1 -0 0
    outer loop
      vertex 22.2 22.2 24.8
      vertex 22.2 19.2 18.4
      vertex 22.2 19.2 24.8
    endloop
  endfacet
  facet normal 0 -1 0
    outer loop
      vertex 22.2 19.2 18.4
      vertex 25.2 19.2 24.8
      vertex 22.2 19.2 24.8
    endloop
  endfacet
  facet normal 0 -1 -0
    outer loop
      vertex 25.2 19.2 24.8
      vertex 22.2 19.2 18.4
      vertex 25.2 19.2 18.4
    endloop
  endfacet
  facet normal 0 -1 0
    outer loop
      vertex 22.2 16.2 12
      vertex 25.2 16.2 18.4
      vertex 22.2 16.2 18.4
    endloop
  endfacet
  facet normal 0 -1 -0
    outer loop
      vertex 25.2 16.2 18.4
      vertex 22.2 16.2 12
      vertex 25.2 16.2 12
    endloop
  endfacet
  facet normal -0 0 1
    outer loop
      vertex 22.2 22.2 24.8
      vertex 25.2 19.2 24.8
      vertex 25.2 22.2 24.8
    endloop
  endfacet
  facet normal 0 0 1
    outer loop
      vertex 25.2 19.2 24.8
      vertex 22.2 22.2 24.8
      vertex 22.2 19.2 24.8
    endloop
  endfacet
  facet normal 0 1 -0
    outer loop
      vertex 25.2 22.2 12
      vertex 22.2 22.2 24.8
      vertex 25.2 22.2 24.8
    endloop
  endfacet
  facet normal 0 1 0
    outer loop
      vertex 22.2 22.2 24.8
      vertex 25.2 22.2 12
      vertex 22.2 22.2 12
    endloop
  endfacet
  facet normal 1 -0 0
    outer loop
      vertex 28.2 13.2 18.4
      vertex 28.2 16.2 12
      vertex 28.2 16.2 18.4
    endloop
  endfacet
  facet normal 1 0 0
    outer loop
      vertex 28.2 16.2 12
      vertex 28.2 13.2 18.4
      vertex 28.2 13.2 12
    endloop
  endfacet
  facet normal -0 0 1
    outer loop
      vertex 25.2 16.2 18.4
      vertex 28.2 13.2 18.4
      vertex 28.2 16.2 18.4
    endloop
  endfacet
  facet normal 0 0 1
    outer loop
      vertex 28.2 13.2 18.4
      vertex 25.2 16.2 18.4
      vertex 25.2 13.2 18.4
    endloop
  endfacet
  facet normal 0 0 -1
    outer loop
      vertex 25.2 13.2 12
      vertex 28.2 16.2 12
      vertex 28.2 13.2 12
    endloop
  endfacet
  facet normal -0 0 -1
    outer loop
      vertex 28.2 16.2 12
      vertex 25.2 13.2 12
      vertex 25.2 16.2 12
    endloop
  endfacet
  facet normal -1 0 0
    outer loop
      vertex 25.2 13.2 12
      vertex 25.2 16.2 18.4
      vertex 25.2 16.2 12
    endloop
  endfacet
  facet normal -1 -0 0
    outer loop
      vertex 25.2 16.2 18.4
      vertex 25.2 13.2 12
      vertex 25.2 13.2 18.4
    endloop
  endfacet
  facet normal 0 1 -0
    outer loop
      vertex 28.2 16.2 12
      vertex 25.2 16.2 18.4
      vertex 28.2 16.2 18.4
    endloop
  endfacet
  facet normal 0 1 0
    outer loop
      vertex 25.2 16.2 18.4
      vertex 28.2 16.2 12
      vertex 25.2 16.2 12
    endloop
  endfacet
  facet normal 0 -1 0
    outer loop
      vertex 25.2 13.2 12
      vertex 28.2 13.2 18.4
      vertex 25.2 13.2 18.4
    endloop
  endfacet
  facet normal 0 -1 -0
    outer loop
      vertex 28.2 13.2 18.4
      vertex 25.2 13.2 12
      vertex 28.2 13.2 12
    endloop
  endfacet
  facet normal 1 -0 0
    outer loop
      vertex 31.2 10.2 31.2
      vertex 31.2 13.2 12
      vertex 31.2 13.2 31.2
    endloop
  endfacet
  facet normal 1 0 0
    outer loop
      vertex 31.2 13.2 12
      vertex 31.2 10.2 31.2
      vertex 31.2 10.2 12
    endloop
  endfacet
  facet normal -0 0 1
    outer loop
      vertex 28.2 13.2 31.2
      vertex 31.2 10.2 31.2
      vertex 31.2 13.2 31.2
    endloop
  endfacet
  facet normal 0 0 1
    outer loop
      vertex 31.2 10.2 31.2
      vertex 28.2 13.2 31.2
      vertex 28.2 10.2 31.2
    endloop
  endfacet
  facet normal 0 0 -1
    outer loop
      vertex 28.2 10.2 12
      vertex 31.2 13.2 12
      vertex 31.2 10.2 12
    endloop
  endfacet
  facet normal -0 0 -1
    outer loop
      vertex 31.2 13.2 12
      vertex 28.2 10.2 12
      vertex 28.2 13.2 12
    endloop
  endfacet
  facet normal -1 0 0
    outer loop
      vertex 28.2 10.2 12
      vertex 28.2 13.2 18.4
      vertex 28.2 13.2 12
    endloop
  endfacet
  facet normal -1 0 0
    outer loop
      vertex 28.2 10.2 31.2
      vertex 28.2 13.2 18.4
      vertex 28.2 10.2 12
    endloop
  endfacet
  facet normal -1 0 0
    outer loop
      vertex 28.2 13.2 18.4
      vertex 28.2 10.2 31.2
      vertex 28.2 13.2 31.2
    endloop
  endfacet
  facet normal 0 1 0
    outer loop
      vertex 31.2 13.2 31.2
      vertex 28.2 13.2 18.4
      vertex 28.2 13.2 31.2
    endloop
  endfacet
  facet normal 0 1 -0
    outer loop
      vertex 31.2 13.2 12
      vertex 28.2 13.2 18.4
      vertex 31.2 13.2 31.2
    endloop
  endfacet
  facet normal 0 1 0
    outer loop
      vertex 28.2 13.2 18.4
      vertex 31.2 13.2 12
      vertex 28.2 13.2 12
    endloop
  endfacet
  facet normal 0 -1 0
    outer loop
      vertex 28.2 10.2 12
      vertex 31.2 10.2 31.2
      vertex 28.2 10.2 31.2
    endloop
  endfacet
  facet normal 0 -1 -0
    outer loop
      vertex 31.2 10.2 31.2
      vertex 28.2 10.2 12
      vertex 31.2 10.2 12
    endloop
  endfacet
  facet normal 1 -0 0
    outer loop
      vertex 31.2 16.2 34.4
      vertex 31.2 19.2 15.2
      vertex 31.2 19.2 34.4
    endloop
  endfacet
  facet normal 1 0 0
    outer loop
      vertex 31.2 19.2 15.2
      vertex 31.2 16.2 34.4
      vertex 31.2 16.2 15.2
    endloop
  endfacet
  facet normal 1 0 0
    outer loop
      vertex 31.2 19.2 34.4
      vertex 31.2 22.2 36
      vertex 31.2 19.2 36
    endloop
  endfacet
  facet normal 1 0 0
    outer loop
      vertex 31.2 19.2 15.2
      vertex 31.2 22.2 36
      vertex 31.2 19.2 34.4
    endloop
  endfacet
  facet normal 1 0 0
    outer loop
      vertex 31.2 22.2 36
      vertex 31.2 19.2 15.2
      vertex 31.2 22.2 12
    endloop
  endfacet
  facet normal 1 0 0
    outer loop
      vertex 31.2 22.2 12
      vertex 31.2 19.2 15.2
      vertex 31.2 19.2 12
    endloop
  endfacet
  facet normal -0 0 1
    outer loop
      vertex 28.2 19.2 34.4
      vertex 31.2 16.2 34.4
      vertex 31.2 19.2 34.4
    endloop
  endfacet
  facet normal 0 0 1
    outer loop
      vertex 31.2 16.2 34.4
      vertex 28.2 19.2 34.4
      vertex 28.2 16.2 34.4
    endloop
  endfacet
  facet normal 0 0 -1
    outer loop
      vertex 34.2 16.2 12
      vertex 31.2 19.2 12
      vertex 34.2 19.2 12
    endloop
  endfacet
  facet normal 0 0 -1
    outer loop
      vertex 28.2 16.2 12
      vertex 31.2 19.2 12
      vertex 34.2 16.2 12
    endloop
  endfacet
  facet normal 0 0 -1
    outer loop
      vertex 28.2 22.2 12
      vertex 31.2 19.2 12
      vertex 28.2 16.2 12
    endloop
  endfacet
  facet normal 0 0 -1
    outer loop
      vertex 31.2 19.2 12
      vertex 28.2 22.2 12
      vertex 31.2 22.2 12
    endloop
  endfacet
  facet normal -1 0 0
    outer loop
      vertex 28.2 16.2 18.4
      vertex 28.2 22.2 36
      vertex 28.2 22.2 12
    endloop
  endfacet
  facet normal -1 0 0
    outer loop
      vertex 28.2 16.2 18.4
      vertex 28.2 22.2 12
      vertex 28.2 16.2 12
    endloop
  endfacet
  facet normal -1 0 0
    outer loop
      vertex 28.2 22.2 36
      vertex 28.2 16.2 18.4
      vertex 28.2 19.2 34.4
    endloop
  endfacet
  facet normal -1 -0 0
    outer loop
      vertex 28.2 19.2 34.4
      vertex 28.2 16.2 18.4
      vertex 28.2 16.2 34.4
    endloop
  endfacet
  facet normal -1 -0 0
    outer loop
      vertex 28.2 22.2 36
      vertex 28.2 19.2 34.4
      vertex 28.2 19.2 36
    endloop
  endfacet
  facet normal 0 -1 0
    outer loop
      vertex 28.2 19.2 34.4
      vertex 31.2 19.2 36
      vertex 28.2 19.2 36
    endloop
  endfacet
  facet normal 0 -1 -0
    outer loop
      vertex 31.2 19.2 36
      vertex 28.2 19.2 34.4
      vertex 31.2 19.2 34.4
    endloop
  endfacet
  facet normal 0 -1 0
    outer loop
      vertex 28.2 16.2 18.4
      vertex 31.2 16.2 34.4
      vertex 28.2 16.2 34.4
    endloop
  endfacet
  facet normal 0 -1 0
    outer loop
      vertex 28.2 16.2 18.4
      vertex 31.2 16.2 15.2
      vertex 31.2 16.2 34.4
    endloop
  endfacet
  facet normal 0 -1 0
    outer loop
      vertex 28.2 16.2 12
      vertex 31.2 16.2 15.2
      vertex 28.2 16.2 18.4
    endloop
  endfacet
  facet normal 0 -1 0
    outer loop
      vertex 34.2 16.2 12
      vertex 31.2 16.2 15.2
      vertex 28.2 16.2 12
    endloop
  endfacet
  facet normal 0 -1 0
    outer loop
      vertex 31.2 16.2 15.2
      vertex 34.2 16.2 12
      vertex 34.2 16.2 15.2
    endloop
  endfacet
  facet normal -0 0 1
    outer loop
      vertex 28.2 22.2 36
      vertex 31.2 19.2 36
      vertex 31.2 22.2 36
    endloop
  endfacet
  facet normal 0 0 1
    outer loop
      vertex 31.2 19.2 36
      vertex 28.2 22.2 36
      vertex 28.2 19.2 36
    endloop
  endfacet
  facet normal 0 1 -0
    outer loop
      vertex 31.2 22.2 12
      vertex 28.2 22.2 36
      vertex 31.2 22.2 36
    endloop
  endfacet
  facet normal 0 1 0
    outer loop
      vertex 28.2 22.2 36
      vertex 31.2 22.2 12
      vertex 28.2 22.2 12
    endloop
  endfacet
  facet normal 1 -0 0
    outer loop
      vertex 34.2 16.2 15.2
      vertex 34.2 19.2 12
      vertex 34.2 19.2 15.2
    endloop
  endfacet
  facet normal 1 0 0
    outer loop
      vertex 34.2 19.2 12
      vertex 34.2 16.2 15.2
      vertex 34.2 16.2 12
    endloop
  endfacet
  facet normal -0 0 1
    outer loop
      vertex 31.2 19.2 15.2
      vertex 34.2 16.2 15.2
      vertex 34.2 19.2 15.2
    endloop
  endfacet
  facet normal 0 0 1
    outer loop
      vertex 34.2 16.2 15.2
      vertex 31.2 19.2 15.2
      vertex 31.2 16.2 15.2
    endloop
  endfacet
  facet normal 0 1 -0
    outer loop
      vertex 34.2 19.2 12
      vertex 31.2 19.2 15.2
      vertex 34.2 19.2 15.2
    endloop
  endfacet
  facet normal 0 1 0
    outer loop
      vertex 31.2 19.2 15.2
      vertex 34.2 19.2 12
      vertex 31.2 19.2 12
    endloop
  endfacet
  facet normal 1 -0 0
    outer loop
      vertex 46.2 19.2 13.6
      vertex 46.2 22.2 12
      vertex 46.2 22.2 13.6
    endloop
  endfacet
  facet normal 1 0 0
    outer loop
      vertex 46.2 22.2 12
      vertex 46.2 19.2 13.6
      vertex 46.2 19.2 12
    endloop
  endfacet
  facet normal -0 0 1
    outer loop
      vertex 43.2 22.2 13.6
      vertex 46.2 19.2 13.6
      vertex 46.2 22.2 13.6
    endloop
  endfacet
  facet normal 0 0 1
    outer loop
      vertex 46.2 19.2 13.6
      vertex 43.2 22.2 13.6
      vertex 43.2 19.2 13.6
    endloop
  endfacet
  facet normal 0 0 -1
    outer loop
      vertex 43.2 19.2 12
      vertex 46.2 22.2 12
      vertex 46.2 19.2 12
    endloop
  endfacet
  facet normal -0 0 -1
    outer loop
      vertex 46.2 22.2 12
      vertex 43.2 19.2 12
      vertex 43.2 22.2 12
    endloop
  endfacet
  facet normal -1 0 0
    outer loop
      vertex 43.2 19.2 12
      vertex 43.2 22.2 13.6
      vertex 43.2 22.2 12
    endloop
  endfacet
  facet normal -1 -0 0
    outer loop
      vertex 43.2 22.2 13.6
      vertex 43.2 19.2 12
      vertex 43.2 19.2 13.6
    endloop
  endfacet
  facet normal 0 1 -0
    outer loop
      vertex 46.2 22.2 12
      vertex 43.2 22.2 13.6
      vertex 46.2 22.2 13.6
    endloop
  endfacet
  facet normal 0 1 0
    outer loop
      vertex 43.2 22.2 13.6
      vertex 46.2 22.2 12
      vertex 43.2 22.2 12
    endloop
  endfacet
  facet normal 0 -1 0
    outer loop
      vertex 43.2 19.2 12
      vertex 46.2 19.2 13.6
      vertex 43.2 19.2 13.6
    endloop
  endfacet
  facet normal 0 -1 -0
    outer loop
      vertex 46.2 19.2 13.6
      vertex 43.2 19.2 12
      vertex 46.2 19.2 12
    endloop
  endfacet
  facet normal 1 -0 0
    outer loop
      vertex 52.2 10.2 13.6
      vertex 52.2 13.2 12
      vertex 52.2 13.2 13.6
    endloop
  endfacet
  facet normal 1 0 0
    outer loop
      vertex 52.2 13.2 12
      vertex 52.2 10.2 13.6
      vertex 52.2 10.2 12
    endloop
  endfacet
  facet normal -0 0 1
    outer loop
      vertex 49.2 13.2 13.6
      vertex 52.2 10.2 13.6
      vertex 52.2 13.2 13.6
    endloop
  endfacet
  facet normal 0 0 1
    outer loop
      vertex 52.2 10.2 13.6
      vertex 49.2 13.2 13.6
      vertex 49.2 10.2 13.6
    endloop
  endfacet
  facet normal 0 0 -1
    outer loop
      vertex 49.2 10.2 12
      vertex 52.2 13.2 12
      vertex 52.2 10.2 12
    endloop
  endfacet
  facet normal -0 0 -1
    outer loop
      vertex 52.2 13.2 12
      vertex 49.2 10.2 12
      vertex 49.2 13.2 12
    endloop
  endfacet
  facet normal -1 0 0
    outer loop
      vertex 49.2 10.2 12
      vertex 49.2 13.2 13.6
      vertex 49.2 13.2 12
    endloop
  endfacet
  facet normal -1 -0 0
    outer loop
      vertex 49.2 13.2 13.6
      vertex 49.2 10.2 12
      vertex 49.2 10.2 13.6
    endloop
  endfacet
  facet normal 0 1 -0
    outer loop
      vertex 52.2 13.2 12
      vertex 49.2 13.2 13.6
      vertex 52.2 13.2 13.6
    endloop
  endfacet
  facet normal 0 1 0
    outer loop
      vertex 49.2 13.2 13.6
      vertex 52.2 13.2 12
      vertex 49.2 13.2 12
    endloop
  endfacet
  facet normal 0 -1 0
    outer loop
      vertex 49.2 10.2 12
      vertex 52.2 10.2 13.6
      vertex 49.2 10.2 13.6
    endloop
  endfacet
  facet normal 0 -1 -0
    outer loop
      vertex 52.2 10.2 13.6
      vertex 49.2 10.2 12
      vertex 52.2 10.2 12
    endloop
  endfacet
  facet normal 1 -0 0
    outer loop
      vertex 70.2 19.2 16.8
      vertex 70.2 22.2 12
      vertex 70.2 22.2 16.8
    endloop
  endfacet
  facet normal 1 0 0
    outer loop
      vertex 70.2 22.2 12
      vertex 70.2 19.2 16.8
      vertex 70.2 19.2 12
    endloop
  endfacet
  facet normal -0 0 1
    outer loop
      vertex 67.2 22.2 16.8
      vertex 70.2 19.2 16.8
      vertex 70.2 22.2 16.8
    endloop
  endfacet
  facet normal 0 0 1
    outer loop
      vertex 70.2 19.2 16.8
      vertex 67.2 22.2 16.8
      vertex 67.2 19.2 16.8
    endloop
  endfacet
  facet normal 0 0 -1
    outer loop
      vertex 67.2 19.2 12
      vertex 70.2 22.2 12
      vertex 70.2 19.2 12
    endloop
  endfacet
  facet normal -0 0 -1
    outer loop
      vertex 70.2 22.2 12
      vertex 67.2 19.2 12
      vertex 67.2 22.2 12
    endloop
  endfacet
  facet normal -1 0 0
    outer loop
      vertex 67.2 19.2 12
      vertex 67.2 22.2 16.8
      vertex 67.2 22.2 12
    endloop
  endfacet
  facet normal -1 -0 0
    outer loop
      vertex 67.2 22.2 16.8
      vertex 67.2 19.2 12
      vertex 67.2 19.2 16.8
    endloop
  endfacet
  facet normal 0 1 -0
    outer loop
      vertex 70.2 22.2 12
      vertex 67.2 22.2 16.8
      vertex 70.2 22.2 16.8
    endloop
  endfacet
  facet normal 0 1 0
    outer loop
      vertex 67.2 22.2 16.8
      vertex 70.2 22.2 12
      vertex 67.2 22.2 12
    endloop
  endfacet
  facet normal 0 -1 0
    outer loop
      vertex 67.2 19.2 12
      vertex 70.2 19.2 16.8
      vertex 67.2 19.2 16.8
    endloop
  endfacet
  facet normal 0 -1 -0
    outer loop
      vertex 70.2 19.2 16.8
      vertex 67.2 19.2 12
      vertex 70.2 19.2 12
    endloop
  endfacet
  facet normal -1 0 0
    outer loop
      vertex 79.2 13.2 18.4
      vertex 79.2 16.2 24.8
      vertex 79.2 16.2 18.4
    endloop
  endfacet
  facet normal -1 -0 0
    outer loop
      vertex 79.2 16.2 24.8
      vertex 79.2 13.2 18.4
      vertex 79.2 13.2 24.8
    endloop
  endfacet
  facet normal -0 0 1
    outer loop
      vertex 76.2 16.2 18.4
      vertex 79.2 13.2 18.4
      vertex 79.2 16.2 18.4
    endloop
  endfacet
  facet normal 0 0 1
    outer loop
      vertex 79.2 13.2 18.4
      vertex 76.2 16.2 18.4
      vertex 76.2 13.2 18.4
    endloop
  endfacet
  facet normal 0 0 -1
    outer loop
      vertex 82.2 13.2 12
      vertex 79.2 16.2 12
      vertex 82.2 16.2 12
    endloop
  endfacet
  facet normal 0 0 -1
    outer loop
      vertex 76.2 13.2 12
      vertex 79.2 16.2 12
      vertex 82.2 13.2 12
    endloop
  endfacet
  facet normal -0 0 -1
    outer loop
      vertex 79.2 16.2 12
      vertex 76.2 13.2 12
      vertex 76.2 16.2 12
    endloop
  endfacet
  facet normal 0 0 -1
    outer loop
      vertex 82.2 16.2 12
      vertex 85.2 19.2 12
      vertex 85.2 16.2 12
    endloop
  endfacet
  facet normal 0 0 -1
    outer loop
      vertex 79.2 19.2 12
      vertex 82.2 16.2 12
      vertex 79.2 16.2 12
    endloop
  endfacet
  facet normal 0 0 -1
    outer loop
      vertex 82.2 16.2 12
      vertex 79.2 19.2 12
      vertex 85.2 19.2 12
    endloop
  endfacet
  facet normal -1 0 0
    outer loop
      vertex 76.2 13.2 12
      vertex 76.2 16.2 18.4
      vertex 76.2 16.2 12
    endloop
  endfacet
  facet normal -1 -0 0
    outer loop
      vertex 76.2 16.2 18.4
      vertex 76.2 13.2 12
      vertex 76.2 13.2 18.4
    endloop
  endfacet
  facet normal 0 1 -0
    outer loop
      vertex 82.2 16.2 18.4
      vertex 79.2 16.2 24.8
      vertex 82.2 16.2 24.8
    endloop
  endfacet
  facet normal 0 1 0
    outer loop
      vertex 82.2 16.2 18.4
      vertex 79.2 16.2 18.4
      vertex 79.2 16.2 24.8
    endloop
  endfacet
  facet normal 0 1 0
    outer loop
      vertex 79.2 16.2 15.2
      vertex 79.2 16.2 18.4
      vertex 82.2 16.2 18.4
    endloop
  endfacet
  facet normal 0 1 0
    outer loop
      vertex 79.2 16.2 15.2
      vertex 82.2 16.2 18.4
      vertex 82.2 16.2 15.2
    endloop
  endfacet
  facet normal 0 1 0
    outer loop
      vertex 79.2 16.2 18.4
      vertex 79.2 16.2 15.2
      vertex 76.2 16.2 18.4
    endloop
  endfacet
  facet normal 0 1 0
    outer loop
      vertex 76.2 16.2 12
      vertex 79.2 16.2 15.2
      vertex 79.2 16.2 12
    endloop
  endfacet
  facet normal 0 1 0
    outer loop
      vertex 79.2 16.2 15.2
      vertex 76.2 16.2 12
      vertex 76.2 16.2 18.4
    endloop
  endfacet
  facet normal 0 -1 0
    outer loop
      vertex 82.2 16.2 15.2
      vertex 85.2 16.2 18.4
      vertex 82.2 16.2 18.4
    endloop
  endfacet
  facet normal 0 -1 0
    outer loop
      vertex 85.2 16.2 12
      vertex 82.2 16.2 15.2
      vertex 82.2 16.2 12
    endloop
  endfacet
  facet normal 0 -1 0
    outer loop
      vertex 82.2 16.2 15.2
      vertex 85.2 16.2 12
      vertex 85.2 16.2 18.4
    endloop
  endfacet
  facet normal 0 -1 0
    outer loop
      vertex 76.2 13.2 18.4
      vertex 76.2 13.2 12
      vertex 79.2 13.2 18.4
    endloop
  endfacet
  facet normal 0 -1 0
    outer loop
      vertex 79.2 13.2 18.4
      vertex 82.2 13.2 24.8
      vertex 79.2 13.2 24.8
    endloop
  endfacet
  facet normal 0 -1 0
    outer loop
      vertex 82.2 13.2 12
      vertex 79.2 13.2 18.4
      vertex 76.2 13.2 12
    endloop
  endfacet
  facet normal 0 -1 0
    outer loop
      vertex 79.2 13.2 18.4
      vertex 82.2 13.2 12
      vertex 82.2 13.2 24.8
    endloop
  endfacet
  facet normal 1 -0 0
    outer loop
      vertex 82.2 13.2 24.8
      vertex 82.2 16.2 18.4
      vertex 82.2 16.2 24.8
    endloop
  endfacet
  facet normal 1 0 0
    outer loop
      vertex 82.2 13.2 12
      vertex 82.2 16.2 18.4
      vertex 82.2 13.2 24.8
    endloop
  endfacet
  facet normal 1 0 0
    outer loop
      vertex 82.2 16.2 18.4
      vertex 82.2 13.2 12
      vertex 82.2 16.2 15.2
    endloop
  endfacet
  facet normal 1 0 0
    outer loop
      vertex 82.2 16.2 15.2
      vertex 82.2 13.2 12
      vertex 82.2 16.2 12
    endloop
  endfacet
  facet normal -0 0 1
    outer loop
      vertex 79.2 16.2 24.8
      vertex 82.2 13.2 24.8
      vertex 82.2 16.2 24.8
    endloop
  endfacet
  facet normal 0 0 1
    outer loop
      vertex 82.2 13.2 24.8
      vertex 79.2 16.2 24.8
      vertex 79.2 13.2 24.8
    endloop
  endfacet
  facet normal -1 0 0
    outer loop
      vertex 82.2 16.2 15.2
      vertex 82.2 19.2 18.4
      vertex 82.2 19.2 15.2
    endloop
  endfacet
  facet normal -1 -0 0
    outer loop
      vertex 82.2 19.2 18.4
      vertex 82.2 16.2 15.2
      vertex 82.2 16.2 18.4
    endloop
  endfacet
  facet normal -0 0 1
    outer loop
      vertex 79.2 19.2 15.2
      vertex 82.2 16.2 15.2
      vertex 82.2 19.2 15.2
    endloop
  endfacet
  facet normal 0 0 1
    outer loop
      vertex 82.2 16.2 15.2
      vertex 79.2 19.2 15.2
      vertex 79.2 16.2 15.2
    endloop
  endfacet
  facet normal -1 0 0
    outer loop
      vertex 79.2 16.2 12
      vertex 79.2 19.2 15.2
      vertex 79.2 19.2 12
    endloop
  endfacet
  facet normal -1 -0 0
    outer loop
      vertex 79.2 19.2 15.2
      vertex 79.2 16.2 12
      vertex 79.2 16.2 15.2
    endloop
  endfacet
  facet normal 0 1 0
    outer loop
      vertex 85.2 19.2 18.4
      vertex 82.2 19.2 15.2
      vertex 82.2 19.2 18.4
    endloop
  endfacet
  facet normal 0 1 -0
    outer loop
      vertex 85.2 19.2 12
      vertex 82.2 19.2 15.2
      vertex 85.2 19.2 18.4
    endloop
  endfacet
  facet normal 0 1 0
    outer loop
      vertex 79.2 19.2 12
      vertex 82.2 19.2 15.2
      vertex 85.2 19.2 12
    endloop
  endfacet
  facet normal 0 1 0
    outer loop
      vertex 82.2 19.2 15.2
      vertex 79.2 19.2 12
      vertex 79.2 19.2 15.2
    endloop
  endfacet
  facet normal 1 -0 0
    outer loop
      vertex 85.2 10.2 24.8
      vertex 85.2 13.2 12
      vertex 85.2 13.2 24.8
    endloop
  endfacet
  facet normal 1 0 0
    outer loop
      vertex 85.2 13.2 12
      vertex 85.2 10.2 24.8
      vertex 85.2 10.2 12
    endloop
  endfacet
  facet normal -0 0 1
    outer loop
      vertex 82.2 13.2 24.8
      vertex 85.2 10.2 24.8
      vertex 85.2 13.2 24.8
    endloop
  endfacet
  facet normal 0 0 1
    outer loop
      vertex 85.2 10.2 24.8
      vertex 82.2 13.2 24.8
      vertex 82.2 10.2 24.8
    endloop
  endfacet
  facet normal 0 0 -1
    outer loop
      vertex 82.2 10.2 12
      vertex 85.2 13.2 12
      vertex 85.2 10.2 12
    endloop
  endfacet
  facet normal -0 0 -1
    outer loop
      vertex 85.2 13.2 12
      vertex 82.2 10.2 12
      vertex 82.2 13.2 12
    endloop
  endfacet
  facet normal -1 0 0
    outer loop
      vertex 82.2 10.2 12
      vertex 82.2 13.2 24.8
      vertex 82.2 13.2 12
    endloop
  endfacet
  facet normal -1 -0 0
    outer loop
      vertex 82.2 13.2 24.8
      vertex 82.2 10.2 12
      vertex 82.2 10.2 24.8
    endloop
  endfacet
  facet normal 0 1 -0
    outer loop
      vertex 85.2 13.2 12
      vertex 82.2 13.2 24.8
      vertex 85.2 13.2 24.8
    endloop
  endfacet
  facet normal 0 1 0
    outer loop
      vertex 82.2 13.2 24.8
      vertex 85.2 13.2 12
      vertex 82.2 13.2 12
    endloop
  endfacet
  facet normal 0 -1 0
    outer loop
      vertex 82.2 10.2 12
      vertex 85.2 10.2 24.8
      vertex 82.2 10.2 24.8
    endloop
  endfacet
  facet normal 0 -1 -0
    outer loop
      vertex 85.2 10.2 24.8
      vertex 82.2 10.2 12
      vertex 85.2 10.2 12
    endloop
  endfacet
  facet normal 1 -0 0
    outer loop
      vertex 85.2 16.2 18.4
      vertex 85.2 19.2 12
      vertex 85.2 19.2 18.4
    endloop
  endfacet
  facet normal 1 0 0
    outer loop
      vertex 85.2 19.2 12
      vertex 85.2 16.2 18.4
      vertex 85.2 16.2 12
    endloop
  endfacet
  facet normal -0 0 1
    outer loop
      vertex 82.2 19.2 18.4
      vertex 85.2 16.2 18.4
      vertex 85.2 19.2 18.4
    endloop
  endfacet
  facet normal 0 0 1
    outer loop
      vertex 85.2 16.2 18.4
      vertex 82.2 19.2 18.4
      vertex 82.2 16.2 18.4
    endloop
  endfacet
  facet normal 1 0 0
    outer loop
      vertex 88.2 22.2 24.8
      vertex 88.2 19.2 24.8
      vertex 88.2 22.2 21.6
    endloop
  endfacet
  facet normal 1 0 0
    outer loop
      vertex 88.2 19.2 18.4
      vertex 88.2 25.2 21.6
      vertex 88.2 22.2 21.6
    endloop
  endfacet
  facet normal 1 0 0
    outer loop
      vertex 88.2 19.2 18.4
      vertex 88.2 22.2 21.6
      vertex 88.2 19.2 24.8
    endloop
  endfacet
  facet normal 1 0 0
    outer loop
      vertex 88.2 25.2 21.6
      vertex 88.2 19.2 18.4
      vertex 88.2 25.2 12
    endloop
  endfacet
  facet normal 1 0 0
    outer loop
      vertex 88.2 25.2 12
      vertex 88.2 19.2 18.4
      vertex 88.2 19.2 12
    endloop
  endfacet
  facet normal -0 0 1
    outer loop
      vertex 85.2 22.2 24.8
      vertex 88.2 19.2 24.8
      vertex 88.2 22.2 24.8
    endloop
  endfacet
  facet normal 0 0 1
    outer loop
      vertex 88.2 19.2 24.8
      vertex 85.2 22.2 24.8
      vertex 85.2 19.2 24.8
    endloop
  endfacet
  facet normal 0 0 -1
    outer loop
      vertex 85.2 19.2 12
      vertex 88.2 25.2 12
      vertex 88.2 19.2 12
    endloop
  endfacet
  facet normal -0 0 -1
    outer loop
      vertex 88.2 25.2 12
      vertex 85.2 19.2 12
      vertex 85.2 25.2 12
    endloop
  endfacet
  facet normal -1 0 0
    outer loop
      vertex 85.2 19.2 18.4
      vertex 85.2 25.2 21.6
      vertex 85.2 25.2 12
    endloop
  endfacet
  facet normal -1 0 0
    outer loop
      vertex 85.2 19.2 18.4
      vertex 85.2 25.2 12
      vertex 85.2 19.2 12
    endloop
  endfacet
  facet normal -1 -0 0
    outer loop
      vertex 85.2 25.2 21.6
      vertex 85.2 19.2 18.4
      vertex 85.2 22.2 21.6
    endloop
  endfacet
  facet normal -1 0 0
    outer loop
      vertex 85.2 19.2 24.8
      vertex 85.2 22.2 21.6
      vertex 85.2 19.2 18.4
    endloop
  endfacet
  facet normal -1 0 0
    outer loop
      vertex 85.2 22.2 21.6
      vertex 85.2 19.2 24.8
      vertex 85.2 22.2 24.8
    endloop
  endfacet
  facet normal 0 1 -0
    outer loop
      vertex 88.2 22.2 21.6
      vertex 85.2 22.2 24.8
      vertex 88.2 22.2 24.8
    endloop
  endfacet
  facet normal 0 1 0
    outer loop
      vertex 85.2 22.2 24.8
      vertex 88.2 22.2 21.6
      vertex 85.2 22.2 21.6
    endloop
  endfacet
  facet normal 0 -1 0
    outer loop
      vertex 85.2 19.2 18.4
      vertex 88.2 19.2 24.8
      vertex 85.2 19.2 24.8
    endloop
  endfacet
  facet normal 0 -1 0
    outer loop
      vertex 85.2 19.2 18.4
      vertex 88.2 19.2 18.4
      vertex 88.2 19.2 24.8
    endloop
  endfacet
  facet normal 0 -1 0
    outer loop
      vertex 85.2 19.2 12
      vertex 88.2 19.2 18.4
      vertex 85.2 19.2 18.4
    endloop
  endfacet
  facet normal 0 -1 -0
    outer loop
      vertex 88.2 19.2 18.4
      vertex 85.2 19.2 12
      vertex 88.2 19.2 12
    endloop
  endfacet
  facet normal -0 0 1
    outer loop
      vertex 85.2 25.2 21.6
      vertex 88.2 22.2 21.6
      vertex 88.2 25.2 21.6
    endloop
  endfacet
  facet normal 0 0 1
    outer loop
      vertex 88.2 22.2 21.6
      vertex 85.2 25.2 21.6
      vertex 85.2 22.2 21.6
    endloop
  endfacet
  facet normal 0 1 -0
    outer loop
      vertex 88.2 25.2 12
      vertex 85.2 25.2 21.6
      vertex 88.2 25.2 21.6
    endloop
  endfacet
  facet normal 0 1 0
    outer loop
      vertex 85.2 25.2 21.6
      vertex 88.2 25.2 12
      vertex 85.2 25.2 12
    endloop
  endfacet
  facet normal 1 -0 0
    outer loop
      vertex 91.2 10.2 18.4
      vertex 91.2 13.2 15.2
      vertex 91.2 13.2 18.4
    endloop
  endfacet
  facet normal 1 0 0
    outer loop
      vertex 91.2 13.2 15.2
      vertex 91.2 10.2 18.4
      vertex 91.2 10.2 15.2
    endloop
  endfacet
  facet normal -0 0 1
    outer loop
      vertex 88.2 13.2 18.4
      vertex 91.2 10.2 18.4
      vertex 91.2 13.2 18.4
    endloop
  endfacet
  facet normal 0 0 1
    outer loop
      vertex 91.2 10.2 18.4
      vertex 88.2 13.2 18.4
      vertex 88.2 10.2 18.4
    endloop
  endfacet
  facet normal 0 0 -1
    outer loop
      vertex 88.2 10.2 12
      vertex 94.2 13.2 12
      vertex 94.2 10.2 12
    endloop
  endfacet
  facet normal -0 0 -1
    outer loop
      vertex 94.2 13.2 12
      vertex 88.2 10.2 12
      vertex 88.2 13.2 12
    endloop
  endfacet
  facet normal -1 0 0
    outer loop
      vertex 88.2 10.2 12
      vertex 88.2 13.2 18.4
      vertex 88.2 13.2 12
    endloop
  endfacet
  facet normal -1 -0 0
    outer loop
      vertex 88.2 13.2 18.4
      vertex 88.2 10.2 12
      vertex 88.2 10.2 18.4
    endloop
  endfacet
  facet normal 0 1 0
    outer loop
      vertex 94.2 13.2 15.2
      vertex 94.2 13.2 12
      vertex 91.2 13.2 15.2
    endloop
  endfacet
  facet normal 0 1 -0
    outer loop
      vertex 91.2 13.2 15.2
      vertex 88.2 13.2 18.4
      vertex 91.2 13.2 18.4
    endloop
  endfacet
  facet normal 0 1 0
    outer loop
      vertex 88.2 13.2 12
      vertex 91.2 13.2 15.2
      vertex 94.2 13.2 12
    endloop
  endfacet
  facet normal 0 1 0
    outer loop
      vertex 91.2 13.2 15.2
      vertex 88.2 13.2 12
      vertex 88.2 13.2 18.4
    endloop
  endfacet
  facet normal 0 -1 0
    outer loop
      vertex 88.2 10.2 18.4
      vertex 91.2 10.2 15.2
      vertex 91.2 10.2 18.4
    endloop
  endfacet
  facet normal 0 -1 0
    outer loop
      vertex 88.2 10.2 12
      vertex 91.2 10.2 15.2
      vertex 88.2 10.2 18.4
    endloop
  endfacet
  facet normal 0 -1 0
    outer loop
      vertex 94.2 10.2 12
      vertex 91.2 10.2 15.2
      vertex 88.2 10.2 12
    endloop
  endfacet
  facet normal 0 -1 0
    outer loop
      vertex 91.2 10.2 15.2
      vertex 94.2 10.2 12
      vertex 94.2 10.2 15.2
    endloop
  endfacet
  facet normal 1 -0 0
    outer loop
      vertex 91.2 16.2 18.4
      vertex 91.2 19.2 12
      vertex 91.2 19.2 18.4
    endloop
  endfacet
  facet normal 1 0 0
    outer loop
      vertex 91.2 19.2 12
      vertex 91.2 16.2 18.4
      vertex 91.2 16.2 12
    endloop
  endfacet
  facet normal -0 0 1
    outer loop
      vertex 88.2 19.2 18.4
      vertex 91.2 16.2 18.4
      vertex 91.2 19.2 18.4
    endloop
  endfacet
  facet normal 0 0 1
    outer loop
      vertex 91.2 16.2 18.4
      vertex 88.2 19.2 18.4
      vertex 88.2 16.2 18.4
    endloop
  endfacet
  facet normal 0 0 -1
    outer loop
      vertex 88.2 16.2 12
      vertex 91.2 19.2 12
      vertex 91.2 16.2 12
    endloop
  endfacet
  facet normal -0 0 -1
    outer loop
      vertex 91.2 19.2 12
      vertex 88.2 16.2 12
      vertex 88.2 19.2 12
    endloop
  endfacet
  facet normal -1 0 0
    outer loop
      vertex 88.2 16.2 12
      vertex 88.2 19.2 18.4
      vertex 88.2 19.2 12
    endloop
  endfacet
  facet normal -1 -0 0
    outer loop
      vertex 88.2 19.2 18.4
      vertex 88.2 16.2 12
      vertex 88.2 16.2 18.4
    endloop
  endfacet
  facet normal 0 1 -0
    outer loop
      vertex 91.2 19.2 12
      vertex 88.2 19.2 18.4
      vertex 91.2 19.2 18.4
    endloop
  endfacet
  facet normal 0 1 0
    outer loop
      vertex 88.2 19.2 18.4
      vertex 91.2 19.2 12
      vertex 88.2 19.2 12
    endloop
  endfacet
  facet normal 0 -1 0
    outer loop
      vertex 88.2 16.2 12
      vertex 91.2 16.2 18.4
      vertex 88.2 16.2 18.4
    endloop
  endfacet
  facet normal 0 -1 -0
    outer loop
      vertex 91.2 16.2 18.4
      vertex 88.2 16.2 12
      vertex 91.2 16.2 12
    endloop
  endfacet
  facet normal 1 -0 0
    outer loop
      vertex 94.2 10.2 15.2
      vertex 94.2 13.2 12
      vertex 94.2 13.2 15.2
    endloop
  endfacet
  facet normal 1 0 0
    outer loop
      vertex 94.2 13.2 12
      vertex 94.2 10.2 15.2
      vertex 94.2 10.2 12
    endloop
  endfacet
  facet normal -0 0 1
    outer loop
      vertex 91.2 13.2 15.2
      vertex 94.2 10.2 15.2
      vertex 94.2 13.2 15.2
    endloop
  endfacet
  facet normal 0 0 1
    outer loop
      vertex 94.2 10.2 15.2
      vertex 91.2 13.2 15.2
      vertex 91.2 10.2 15.2
    endloop
  endfacet
  facet normal 1 -0 0
    outer loop
      vertex 97.2 22.2 24.8
      vertex 97.2 25.2 12
      vertex 97.2 25.2 24.8
    endloop
  endfacet
  facet normal 1 0 0
    outer loop
      vertex 97.2 25.2 12
      vertex 97.2 22.2 24.8
      vertex 97.2 22.2 12
    endloop
  endfacet
  facet normal -0 0 1
    outer loop
      vertex 94.2 25.2 24.8
      vertex 97.2 22.2 24.8
      vertex 97.2 25.2 24.8
    endloop
  endfacet
  facet normal 0 0 1
    outer loop
      vertex 97.2 22.2 24.8
      vertex 94.2 25.2 24.8
      vertex 94.2 22.2 24.8
    endloop
  endfacet
  facet normal 0 0 -1
    outer loop
      vertex 94.2 22.2 12
      vertex 97.2 25.2 12
      vertex 97.2 22.2 12
    endloop
  endfacet
  facet normal -0 0 -1
    outer loop
      vertex 97.2 25.2 12
      vertex 94.2 22.2 12
      vertex 94.2 25.2 12
    endloop
  endfacet
  facet normal -1 0 0
    outer loop
      vertex 94.2 22.2 12
      vertex 94.2 25.2 24.8
      vertex 94.2 25.2 12
    endloop
  endfacet
  facet normal -1 -0 0
    outer loop
      vertex 94.2 25.2 24.8
      vertex 94.2 22.2 12
      vertex 94.2 22.2 24.8
    endloop
  endfacet
  facet normal 0 1 -0
    outer loop
      vertex 97.2 25.2 12
      vertex 94.2 25.2 24.8
      vertex 97.2 25.2 24.8
    endloop
  endfacet
  facet normal 0 1 0
    outer loop
      vertex 94.2 25.2 24.8
      vertex 97.2 25.2 12
      vertex 94.2 25.2 12
    endloop
  endfacet
  facet normal 0 -1 0
    outer loop
      vertex 94.2 22.2 12
      vertex 97.2 22.2 24.8
      vertex 94.2 22.2 24.8
    endloop
  endfacet
  facet normal 0 -1 -0
    outer loop
      vertex 97.2 22.2 24.8
      vertex 94.2 22.2 12
      vertex 97.2 22.2 12
    endloop
  endfacet
  facet normal 1 -0 0
    outer loop
      vertex 100.2 10.2 21.6
      vertex 100.2 13.2 12
      vertex 100.2 13.2 21.6
    endloop
  endfacet
  facet normal 1 0 0
    outer loop
      vertex 100.2 13.2 12
      vertex 100.2 10.2 21.6
      vertex 100.2 10.2 12
    endloop
  endfacet
  facet normal -0 0 1
    outer loop
      vertex 97.2 13.2 21.6
      vertex 100.2 10.2 21.6
      vertex 100.2 13.2 21.6
    endloop
  endfacet
  facet normal 0 0 1
    outer loop
      vertex 100.2 10.2 21.6
      vertex 97.2 13.2 21.6
      vertex 97.2 10.2 21.6
    endloop
  endfacet
  facet normal 0 0 -1
    outer loop
      vertex 97.2 10.2 12
      vertex 100.2 13.2 12
      vertex 100.2 10.2 12
    endloop
  endfacet
  facet normal -0 0 -1
    outer loop
      vertex 100.2 13.2 12
      vertex 97.2 10.2 12
      vertex 97.2 13.2 12
    endloop
  endfacet
  facet normal -1 0 0
    outer loop
      vertex 97.2 10.2 12
      vertex 97.2 13.2 21.6
      vertex 97.2 13.2 12
    endloop
  endfacet
  facet normal -1 -0 0
    outer loop
      vertex 97.2 13.2 21.6
      vertex 97.2 10.2 12
      vertex 97.2 10.2 21.6
    endloop
  endfacet
  facet normal 0 1 -0
    outer loop
      vertex 100.2 13.2 12
      vertex 97.2 13.2 21.6
      vertex 100.2 13.2 21.6
    endloop
  endfacet
  facet normal 0 1 0
    outer loop
      vertex 97.2 13.2 21.6
      vertex 100.2 13.2 12
      vertex 97.2 13.2 12
    endloop
  endfacet
  facet normal 0 -1 0
    outer loop
      vertex 97.2 10.2 12
      vertex 100.2 10.2 21.6
      vertex 97.2 10.2 21.6
    endloop
  endfacet
  facet normal 0 -1 -0
    outer loop
      vertex 100.2 10.2 21.6
      vertex 97.2 10.2 12
      vertex 100.2 10.2 12
    endloop
  endfacet
  facet normal 1 0 0
    outer loop
      vertex 109.2 19.2 21.6
      vertex 109.2 16.2 21.6
      vertex 109.2 19.2 15.2
    endloop
  endfacet
  facet normal 1 0 0
    outer loop
      vertex 109.2 22.2 15.2
      vertex 109.2 25.2 18.4
      vertex 109.2 22.2 18.4
    endloop
  endfacet
  facet normal 1 0 0
    outer loop
      vertex 109.2 25.2 18.4
      vertex 109.2 22.2 15.2
      vertex 109.2 25.2 12
    endloop
  endfacet
  facet normal 1 -0 0
    outer loop
      vertex 109.2 19.2 15.2
      vertex 109.2 25.2 12
      vertex 109.2 22.2 15.2
    endloop
  endfacet
  facet normal 1 0 0
    outer loop
      vertex 109.2 16.2 15.2
      vertex 109.2 19.2 15.2
      vertex 109.2 16.2 21.6
    endloop
  endfacet
  facet normal 1 0 0
    outer loop
      vertex 109.2 13.2 13.6
      vertex 109.2 19.2 15.2
      vertex 109.2 16.2 15.2
    endloop
  endfacet
  facet normal 1 0 0
    outer loop
      vertex 109.2 13.2 13.6
      vertex 109.2 16.2 15.2
      vertex 109.2 13.2 15.2
    endloop
  endfacet
  facet normal 1 0 0
    outer loop
      vertex 109.2 19.2 15.2
      vertex 109.2 13.2 13.6
      vertex 109.2 25.2 12
    endloop
  endfacet
  facet normal 1 0 0
    outer loop
      vertex 109.2 10.2 12
      vertex 109.2 13.2 13.6
      vertex 109.2 10.2 13.6
    endloop
  endfacet
  facet normal 1 0 0
    outer loop
      vertex 109.2 13.2 13.6
      vertex 109.2 10.2 12
      vertex 109.2 25.2 12
    endloop
  endfacet
  facet normal -0 0 1
    outer loop
      vertex 106.2 13.2 13.6
      vertex 109.2 10.2 13.6
      vertex 109.2 13.2 13.6
    endloop
  endfacet
  facet normal 0 0 1
    outer loop
      vertex 109.2 10.2 13.6
      vertex 106.2 13.2 13.6
      vertex 106.2 10.2 13.6
    endloop
  endfacet
  facet normal 0 0 -1
    outer loop
      vertex 106.2 10.2 12
      vertex 109.2 25.2 12
      vertex 109.2 10.2 12
    endloop
  endfacet
  facet normal -0 0 -1
    outer loop
      vertex 109.2 25.2 12
      vertex 106.2 10.2 12
      vertex 106.2 25.2 12
    endloop
  endfacet
  facet normal -1 0 0
    outer loop
      vertex 106.2 25.2 12
      vertex 106.2 22.2 15.2
      vertex 106.2 25.2 18.4
    endloop
  endfacet
  facet normal -1 0 0
    outer loop
      vertex 106.2 25.2 12
      vertex 106.2 19.2 15.2
      vertex 106.2 22.2 15.2
    endloop
  endfacet
  facet normal -1 0 0
    outer loop
      vertex 106.2 19.2 15.2
      vertex 106.2 16.2 15.2
      vertex 106.2 19.2 21.6
    endloop
  endfacet
  facet normal -1 0 0
    outer loop
      vertex 106.2 13.2 13.6
      vertex 106.2 19.2 15.2
      vertex 106.2 25.2 12
    endloop
  endfacet
  facet normal -1 -0 0
    outer loop
      vertex 106.2 19.2 15.2
      vertex 106.2 13.2 13.6
      vertex 106.2 16.2 15.2
    endloop
  endfacet
  facet normal -1 0 0
    outer loop
      vertex 106.2 10.2 12
      vertex 106.2 13.2 13.6
      vertex 106.2 25.2 12
    endloop
  endfacet
  facet normal -1 -0 0
    outer loop
      vertex 106.2 13.2 13.6
      vertex 106.2 10.2 12
      vertex 106.2 10.2 13.6
    endloop
  endfacet
  facet normal -1 -0 0
    outer loop
      vertex 106.2 25.2 18.4
      vertex 106.2 22.2 15.2
      vertex 106.2 22.2 18.4
    endloop
  endfacet
  facet normal -1 -0 0
    outer loop
      vertex 106.2 19.2 21.6
      vertex 106.2 16.2 15.2
      vertex 106.2 16.2 21.6
    endloop
  endfacet
  facet normal -1 -0 0
    outer loop
      vertex 106.2 16.2 15.2
      vertex 106.2 13.2 13.6
      vertex 106.2 13.2 15.2
    endloop
  endfacet
  facet normal 0 -1 0
    outer loop
      vertex 106.2 13.2 13.6
      vertex 109.2 13.2 15.2
      vertex 106.2 13.2 15.2
    endloop
  endfacet
  facet normal 0 -1 -0
    outer loop
      vertex 109.2 13.2 15.2
      vertex 106.2 13.2 13.6
      vertex 109.2 13.2 13.6
    endloop
  endfacet
  facet normal 0 -1 0
    outer loop
      vertex 106.2 10.2 12
      vertex 109.2 10.2 13.6
      vertex 106.2 10.2 13.6
    endloop
  endfacet
  facet normal 0 -1 -0
    outer loop
      vertex 109.2 10.2 13.6
      vertex 106.2 10.2 12
      vertex 109.2 10.2 12
    endloop
  endfacet
  facet normal -0 0 1
    outer loop
      vertex 106.2 16.2 15.2
      vertex 109.2 13.2 15.2
      vertex 109.2 16.2 15.2
    endloop
  endfacet
  facet normal 0 0 1
    outer loop
      vertex 109.2 13.2 15.2
      vertex 106.2 16.2 15.2
      vertex 106.2 13.2 15.2
    endloop
  endfacet
  facet normal 0 -1 0
    outer loop
      vertex 106.2 16.2 15.2
      vertex 109.2 16.2 21.6
      vertex 106.2 16.2 21.6
    endloop
  endfacet
  facet normal 0 -1 -0
    outer loop
      vertex 109.2 16.2 21.6
      vertex 106.2 16.2 15.2
      vertex 109.2 16.2 15.2
    endloop
  endfacet
  facet normal -0 0 1
    outer loop
      vertex 106.2 19.2 21.6
      vertex 109.2 16.2 21.6
      vertex 109.2 19.2 21.6
    endloop
  endfacet
  facet normal 0 0 1
    outer loop
      vertex 109.2 16.2 21.6
      vertex 106.2 19.2 21.6
      vertex 106.2 16.2 21.6
    endloop
  endfacet
  facet normal 0 1 -0
    outer loop
      vertex 109.2 19.2 15.2
      vertex 106.2 19.2 21.6
      vertex 109.2 19.2 21.6
    endloop
  endfacet
  facet normal 0 1 0
    outer loop
      vertex 106.2 19.2 21.6
      vertex 109.2 19.2 15.2
      vertex 106.2 19.2 15.2
    endloop
  endfacet
  facet normal -0 0 1
    outer loop
      vertex 106.2 22.2 15.2
      vertex 109.2 19.2 15.2
      vertex 109.2 22.2 15.2
    endloop
  endfacet
  facet normal 0 0 1
    outer loop
      vertex 109.2 19.2 15.2
      vertex 106.2 22.2 15.2
      vertex 106.2 19.2 15.2
    endloop
  endfacet
  facet normal 0 -1 0
    outer loop
      vertex 106.2 22.2 15.2
      vertex 109.2 22.2 18.4
      vertex 106.2 22.2 18.4
    endloop
  endfacet
  facet normal 0 -1 -0
    outer loop
      vertex 109.2 22.2 18.4
      vertex 106.2 22.2 15.2
      vertex 109.2 22.2 15.2
    endloop
  endfacet
  facet normal -0 0 1
    outer loop
      vertex 106.2 25.2 18.4
      vertex 109.2 22.2 18.4
      vertex 109.2 25.2 18.4
    endloop
  endfacet
  facet normal 0 0 1
    outer loop
      vertex 109.2 22.2 18.4
      vertex 106.2 25.2 18.4
      vertex 106.2 22.2 18.4
    endloop
  endfacet
  facet normal 0 1 -0
    outer loop
      vertex 109.2 25.2 12
      vertex 106.2 25.2 18.4
      vertex 109.2 25.2 18.4
    endloop
  endfacet
  facet normal 0 1 0
    outer loop
      vertex 106.2 25.2 18.4
      vertex 109.2 25.2 12
      vertex 106.2 25.2 12
    endloop
  endfacet
  facet normal 1 -0 0
    outer loop
      vertex 115.2 10.2 15.2
      vertex 115.2 13.2 12
      vertex 115.2 13.2 15.2
    endloop
  endfacet
  facet normal 1 0 0
    outer loop
      vertex 115.2 13.2 12
      vertex 115.2 10.2 15.2
      vertex 115.2 10.2 12
    endloop
  endfacet
  facet normal -0 0 1
    outer loop
      vertex 112.2 13.2 15.2
      vertex 115.2 10.2 15.2
      vertex 115.2 13.2 15.2
    endloop
  endfacet
  facet normal 0 0 1
    outer loop
      vertex 115.2 10.2 15.2
      vertex 112.2 13.2 15.2
      vertex 112.2 10.2 15.2
    endloop
  endfacet
  facet normal 0 0 -1
    outer loop
      vertex 112.2 10.2 12
      vertex 115.2 13.2 12
      vertex 115.2 10.2 12
    endloop
  endfacet
  facet normal -0 0 -1
    outer loop
      vertex 115.2 13.2 12
      vertex 112.2 10.2 12
      vertex 112.2 13.2 12
    endloop
  endfacet
  facet normal -1 0 0
    outer loop
      vertex 112.2 10.2 12
      vertex 112.2 13.2 15.2
      vertex 112.2 13.2 12
    endloop
  endfacet
  facet normal -1 -0 0
    outer loop
      vertex 112.2 13.2 15.2
      vertex 112.2 10.2 12
      vertex 112.2 10.2 15.2
    endloop
  endfacet
  facet normal 0 1 -0
    outer loop
      vertex 115.2 13.2 12
      vertex 112.2 13.2 15.2
      vertex 115.2 13.2 15.2
    endloop
  endfacet
  facet normal 0 1 0
    outer loop
      vertex 112.2 13.2 15.2
      vertex 115.2 13.2 12
      vertex 112.2 13.2 12
    endloop
  endfacet
  facet normal 0 -1 0
    outer loop
      vertex 112.2 10.2 12
      vertex 115.2 10.2 15.2
      vertex 112.2 10.2 15.2
    endloop
  endfacet
  facet normal 0 -1 -0
    outer loop
      vertex 115.2 10.2 15.2
      vertex 112.2 10.2 12
      vertex 115.2 10.2 12
    endloop
  endfacet
  facet normal 1 -0 0
    outer loop
      vertex 121.2 19.2 13.6
      vertex 121.2 22.2 12
      vertex 121.2 22.2 13.6
    endloop
  endfacet
  facet normal 1 0 0
    outer loop
      vertex 121.2 22.2 12
      vertex 121.2 19.2 13.6
      vertex 121.2 19.2 12
    endloop
  endfacet
  facet normal -0 0 1
    outer loop
      vertex 118.2 22.2 13.6
      vertex 121.2 19.2 13.6
      vertex 121.2 22.2 13.6
    endloop
  endfacet
  facet normal 0 0 1
    outer loop
      vertex 121.2 19.2 13.6
      vertex 118.2 22.2 13.6
      vertex 118.2 19.2 13.6
    endloop
  endfacet
  facet normal 0 0 -1
    outer loop
      vertex 118.2 19.2 12
      vertex 121.2 22.2 12
      vertex 121.2 19.2 12
    endloop
  endfacet
  facet normal -0 0 -1
    outer loop
      vertex 121.2 22.2 12
      vertex 118.2 19.2 12
      vertex 118.2 22.2 12
    endloop
  endfacet
  facet normal -1 0 0
    outer loop
      vertex 118.2 19.2 12
      vertex 118.2 22.2 13.6
      vertex 118.2 22.2 12
    endloop
  endfacet
  facet normal -1 -0 0
    outer loop
      vertex 118.2 22.2 13.6
      vertex 118.2 19.2 12
      vertex 118.2 19.2 13.6
    endloop
  endfacet
  facet normal 0 1 -0
    outer loop
      vertex 121.2 22.2 12
      vertex 118.2 22.2 13.6
      vertex 121.2 22.2 13.6
    endloop
  endfacet
  facet normal 0 1 0
    outer loop
      vertex 118.2 22.2 13.6
      vertex 121.2 22.2 12
      vertex 118.2 22.2 12
    endloop
  endfacet
  facet normal 0 -1 0
    outer loop
      vertex 118.2 19.2 12
      vertex 121.2 19.2 13.6
      vertex 118.2 19.2 13.6
    endloop
  endfacet
  facet normal 0 -1 -0
    outer loop
      vertex 121.2 19.2 13.6
      vertex 118.2 19.2 12
      vertex 121.2 19.2 12
    endloop
  endfacet
  facet normal 1 -0 0
    outer loop
      vertex 127.2 13.2 15.2
      vertex 127.2 16.2 12
      vertex 127.2 16.2 15.2
    endloop
  endfacet
  facet normal 1 0 0
    outer loop
      vertex 127.2 16.2 12
      vertex 127.2 13.2 15.2
      vertex 127.2 13.2 12
    endloop
  endfacet
  facet normal 1 -0 0
    outer loop
      vertex 127.2 10.2 24.8
      vertex 127.2 13.2 21.6
      vertex 127.2 13.2 24.8
    endloop
  endfacet
  facet normal 1 0 0
    outer loop
      vertex 127.2 13.2 21.6
      vertex 127.2 10.2 24.8
      vertex 127.2 10.2 21.6
    endloop
  endfacet
  facet normal -0 0 1
    outer loop
      vertex 124.2 13.2 24.8
      vertex 127.2 10.2 24.8
      vertex 127.2 13.2 24.8
    endloop
  endfacet
  facet normal 0 0 1
    outer loop
      vertex 127.2 10.2 24.8
      vertex 124.2 13.2 24.8
      vertex 124.2 10.2 24.8
    endloop
  endfacet
  facet normal 0 0 -1
    outer loop
      vertex 130.2 10.2 12
      vertex 127.2 13.2 12
      vertex 130.2 13.2 12
    endloop
  endfacet
  facet normal 0 0 -1
    outer loop
      vertex 124.2 10.2 12
      vertex 127.2 13.2 12
      vertex 130.2 10.2 12
    endloop
  endfacet
  facet normal 0 0 -1
    outer loop
      vertex 124.2 16.2 12
      vertex 127.2 13.2 12
      vertex 124.2 10.2 12
    endloop
  endfacet
  facet normal 0 0 -1
    outer loop
      vertex 127.2 13.2 12
      vertex 124.2 16.2 12
      vertex 127.2 16.2 12
    endloop
  endfacet
  facet normal -1 0 0
    outer loop
      vertex 124.2 16.2 12
      vertex 124.2 13.2 15.2
      vertex 124.2 16.2 15.2
    endloop
  endfacet
  facet normal -1 0 0
    outer loop
      vertex 124.2 10.2 12
      vertex 124.2 13.2 15.2
      vertex 124.2 16.2 12
    endloop
  endfacet
  facet normal -1 0 0
    outer loop
      vertex 124.2 10.2 24.8
      vertex 124.2 13.2 15.2
      vertex 124.2 10.2 12
    endloop
  endfacet
  facet normal -1 0 0
    outer loop
      vertex 124.2 13.2 15.2
      vertex 124.2 10.2 24.8
      vertex 124.2 13.2 24.8
    endloop
  endfacet
  facet normal 0 1 0
    outer loop
      vertex 130.2 13.2 21.6
      vertex 127.2 13.2 15.2
      vertex 127.2 13.2 21.6
    endloop
  endfacet
  facet normal 0 1 -0
    outer loop
      vertex 130.2 13.2 12
      vertex 127.2 13.2 15.2
      vertex 130.2 13.2 21.6
    endloop
  endfacet
  facet normal 0 1 0
    outer loop
      vertex 127.2 13.2 15.2
      vertex 130.2 13.2 12
      vertex 127.2 13.2 12
    endloop
  endfacet
  facet normal 0 1 -0
    outer loop
      vertex 127.2 13.2 21.6
      vertex 124.2 13.2 24.8
      vertex 127.2 13.2 24.8
    endloop
  endfacet
  facet normal 0 1 0
    outer loop
      vertex 124.2 13.2 15.2
      vertex 127.2 13.2 21.6
      vertex 127.2 13.2 15.2
    endloop
  endfacet
  facet normal 0 1 0
    outer loop
      vertex 127.2 13.2 21.6
      vertex 124.2 13.2 15.2
      vertex 124.2 13.2 24.8
    endloop
  endfacet
  facet normal 0 -1 0
    outer loop
      vertex 124.2 10.2 24.8
      vertex 127.2 10.2 21.6
      vertex 127.2 10.2 24.8
    endloop
  endfacet
  facet normal 0 -1 0
    outer loop
      vertex 124.2 10.2 12
      vertex 127.2 10.2 21.6
      vertex 124.2 10.2 24.8
    endloop
  endfacet
  facet normal 0 -1 0
    outer loop
      vertex 130.2 10.2 12
      vertex 127.2 10.2 21.6
      vertex 124.2 10.2 12
    endloop
  endfacet
  facet normal 0 -1 0
    outer loop
      vertex 127.2 10.2 21.6
      vertex 130.2 10.2 12
      vertex 130.2 10.2 21.6
    endloop
  endfacet
  facet normal -0 0 1
    outer loop
      vertex 124.2 16.2 15.2
      vertex 127.2 13.2 15.2
      vertex 127.2 16.2 15.2
    endloop
  endfacet
  facet normal 0 0 1
    outer loop
      vertex 127.2 13.2 15.2
      vertex 124.2 16.2 15.2
      vertex 124.2 13.2 15.2
    endloop
  endfacet
  facet normal 0 1 -0
    outer loop
      vertex 127.2 16.2 12
      vertex 124.2 16.2 15.2
      vertex 127.2 16.2 15.2
    endloop
  endfacet
  facet normal 0 1 0
    outer loop
      vertex 124.2 16.2 15.2
      vertex 127.2 16.2 12
      vertex 124.2 16.2 12
    endloop
  endfacet
  facet normal 1 -0 0
    outer loop
      vertex 127.2 22.2 21.6
      vertex 127.2 25.2 12
      vertex 127.2 25.2 21.6
    endloop
  endfacet
  facet normal 1 0 0
    outer loop
      vertex 127.2 25.2 12
      vertex 127.2 22.2 21.6
      vertex 127.2 22.2 12
    endloop
  endfacet
  facet normal -0 0 1
    outer loop
      vertex 124.2 25.2 21.6
      vertex 127.2 22.2 21.6
      vertex 127.2 25.2 21.6
    endloop
  endfacet
  facet normal 0 0 1
    outer loop
      vertex 127.2 22.2 21.6
      vertex 124.2 25.2 21.6
      vertex 124.2 22.2 21.6
    endloop
  endfacet
  facet normal 0 0 -1
    outer loop
      vertex 124.2 22.2 12
      vertex 127.2 25.2 12
      vertex 127.2 22.2 12
    endloop
  endfacet
  facet normal -0 0 -1
    outer loop
      vertex 127.2 25.2 12
      vertex 124.2 22.2 12
      vertex 124.2 25.2 12
    endloop
  endfacet
  facet normal -1 0 0
    outer loop
      vertex 124.2 22.2 12
      vertex 124.2 25.2 21.6
      vertex 124.2 25.2 12
    endloop
  endfacet
  facet normal -1 -0 0
    outer loop
      vertex 124.2 25.2 21.6
      vertex 124.2 22.2 12
      vertex 124.2 22.2 21.6
    endloop
  endfacet
  facet normal 0 1 -0
    outer loop
      vertex 127.2 25.2 12
      vertex 124.2 25.2 21.6
      vertex 127.2 25.2 21.6
    endloop
  endfacet
  facet normal 0 1 0
    outer loop
      vertex 124.2 25.2 21.6
      vertex 127.2 25.2 12
      vertex 124.2 25.2 12
    endloop
  endfacet
  facet normal 0 -1 0
    outer loop
      vertex 124.2 22.2 12
      vertex 127.2 22.2 21.6
      vertex 124.2 22.2 21.6
    endloop
  endfacet
  facet normal 0 -1 -0
    outer loop
      vertex 127.2 22.2 21.6
      vertex 124.2 22.2 12
      vertex 127.2 22.2 12
    endloop
  endfacet
  facet normal 1 -0 0
    outer loop
      vertex 130.2 10.2 21.6
      vertex 130.2 13.2 12
      vertex 130.2 13.2 21.6
    endloop
  endfacet
  facet normal 1 0 0
    outer loop
      vertex 130.2 13.2 12
      vertex 130.2 10.2 21.6
      vertex 130.2 10.2 12
    endloop
  endfacet
  facet normal -0 0 1
    outer loop
      vertex 127.2 13.2 21.6
      vertex 130.2 10.2 21.6
      vertex 130.2 13.2 21.6
    endloop
  endfacet
  facet normal 0 0 1
    outer loop
      vertex 130.2 10.2 21.6
      vertex 127.2 13.2 21.6
      vertex 127.2 10.2 21.6
    endloop
  endfacet
  facet normal 1 -0 0
    outer loop
      vertex 133.2 16.2 18.4
      vertex 133.2 19.2 12
      vertex 133.2 19.2 18.4
    endloop
  endfacet
  facet normal 1 0 0
    outer loop
      vertex 133.2 19.2 12
      vertex 133.2 16.2 18.4
      vertex 133.2 16.2 12
    endloop
  endfacet
  facet normal -0 0 1
    outer loop
      vertex 130.2 19.2 18.4
      vertex 133.2 16.2 18.4
      vertex 133.2 19.2 18.4
    endloop
  endfacet
  facet normal 0 0 1
    outer loop
      vertex 133.2 16.2 18.4
      vertex 130.2 19.2 18.4
      vertex 130.2 16.2 18.4
    endloop
  endfacet
  facet normal 0 0 -1
    outer loop
      vertex 130.2 16.2 12
      vertex 133.2 19.2 12
      vertex 133.2 16.2 12
    endloop
  endfacet
  facet normal -0 0 -1
    outer loop
      vertex 133.2 19.2 12
      vertex 130.2 16.2 12
      vertex 130.2 19.2 12
    endloop
  endfacet
  facet normal -1 0 0
    outer loop
      vertex 130.2 16.2 12
      vertex 130.2 19.2 18.4
      vertex 130.2 19.2 12
    endloop
  endfacet
  facet normal -1 -0 0
    outer loop
      vertex 130.2 19.2 18.4
      vertex 130.2 16.2 12
      vertex 130.2 16.2 18.4
    endloop
  endfacet
  facet normal 0 1 -0
    outer loop
      vertex 133.2 19.2 12
      vertex 130.2 19.2 18.4
      vertex 133.2 19.2 18.4
    endloop
  endfacet
  facet normal 0 1 0
    outer loop
      vertex 130.2 19.2 18.4
      vertex 133.2 19.2 12
      vertex 130.2 19.2 12
    endloop
  endfacet
  facet normal 0 -1 0
    outer loop
      vertex 130.2 16.2 12
      vertex 133.2 16.2 18.4
      vertex 130.2 16.2 18.4
    endloop
  endfacet
  facet normal 0 -1 -0
    outer loop
      vertex 133.2 16.2 18.4
      vertex 130.2 16.2 12
      vertex 133.2 16.2 12
    endloop
  endfacet
  facet normal 1 -0 0
    outer loop
      vertex 136.2 10.2 21.6
      vertex 136.2 13.2 12
      vertex 136.2 13.2 21.6
    endloop
  endfacet
  facet normal 1 0 0
    outer loop
      vertex 136.2 13.2 12
      vertex 136.2 10.2 21.6
      vertex 136.2 10.2 12
    endloop
  endfacet
  facet normal -0 0 1
    outer loop
      vertex 133.2 13.2 21.6
      vertex 136.2 10.2 21.6
      vertex 136.2 13.2 21.6
    endloop
  endfacet
  facet normal 0 0 1
    outer loop
      vertex 136.2 10.2 21.6
      vertex 133.2 13.2 21.6
      vertex 133.2 10.2 21.6
    endloop
  endfacet
  facet normal 0 0 -1
    outer loop
      vertex 133.2 10.2 12
      vertex 136.2 13.2 12
      vertex 136.2 10.2 12
    endloop
  endfacet
  facet normal -0 0 -1
    outer loop
      vertex 136.2 13.2 12
      vertex 133.2 10.2 12
      vertex 133.2 13.2 12
    endloop
  endfacet
  facet normal -1 0 0
    outer loop
      vertex 133.2 10.2 12
      vertex 133.2 13.2 21.6
      vertex 133.2 13.2 12
    endloop
  endfacet
  facet normal -1 -0 0
    outer loop
      vertex 133.2 13.2 21.6
      vertex 133.2 10.2 12
      vertex 133.2 10.2 21.6
    endloop
  endfacet
  facet normal 0 1 -0
    outer loop
      vertex 136.2 13.2 12
      vertex 133.2 13.2 21.6
      vertex 136.2 13.2 21.6
    endloop
  endfacet
  facet normal 0 1 0
    outer loop
      vertex 133.2 13.2 21.6
      vertex 136.2 13.2 12
      vertex 133.2 13.2 12
    endloop
  endfacet
  facet normal 0 -1 0
    outer loop
      vertex 133.2 10.2 12
      vertex 136.2 10.2 21.6
      vertex 133.2 10.2 21.6
    endloop
  endfacet
  facet normal 0 -1 -0
    outer loop
      vertex 136.2 10.2 21.6
      vertex 133.2 10.2 12
      vertex 136.2 10.2 12
    endloop
  endfacet
  facet normal -0 0 1
    outer loop
      vertex 133.2 22.2 18.4
      vertex 139.2 19.2 18.4
      vertex 139.2 22.2 18.4
    endloop
  endfacet
  facet normal 0 0 1
    outer loop
      vertex 139.2 19.2 18.4
      vertex 133.2 22.2 18.4
      vertex 133.2 19.2 18.4
    endloop
  endfacet
  facet normal 0 0 -1
    outer loop
      vertex 139.2 19.2 12
      vertex 142.2 10.2 12
      vertex 139.2 10.2 12
    endloop
  endfacet
  facet normal 0 0 -1
    outer loop
      vertex 142.2 10.2 12
      vertex 139.2 19.2 12
      vertex 142.2 22.2 12
    endloop
  endfacet
  facet normal 0 0 -1
    outer loop
      vertex 133.2 22.2 12
      vertex 139.2 19.2 12
      vertex 133.2 19.2 12
    endloop
  endfacet
  facet normal 0 0 -1
    outer loop
      vertex 139.2 19.2 12
      vertex 133.2 22.2 12
      vertex 142.2 22.2 12
    endloop
  endfacet
  facet normal -1 0 0
    outer loop
      vertex 133.2 19.2 12
      vertex 133.2 22.2 18.4
      vertex 133.2 22.2 12
    endloop
  endfacet
  facet normal -1 -0 0
    outer loop
      vertex 133.2 22.2 18.4
      vertex 133.2 19.2 12
      vertex 133.2 19.2 18.4
    endloop
  endfacet
  facet normal 0 1 0
    outer loop
      vertex 142.2 22.2 21.6
      vertex 139.2 22.2 18.4
      vertex 139.2 22.2 21.6
    endloop
  endfacet
  facet normal 0 1 -0
    outer loop
      vertex 142.2 22.2 12
      vertex 139.2 22.2 18.4
      vertex 142.2 22.2 21.6
    endloop
  endfacet
  facet normal 0 1 0
    outer loop
      vertex 133.2 22.2 12
      vertex 139.2 22.2 18.4
      vertex 142.2 22.2 12
    endloop
  endfacet
  facet normal 0 1 0
    outer loop
      vertex 139.2 22.2 18.4
      vertex 133.2 22.2 12
      vertex 133.2 22.2 18.4
    endloop
  endfacet
  facet normal 0 -1 0
    outer loop
      vertex 133.2 19.2 18.4
      vertex 139.2 19.2 15.2
      vertex 139.2 19.2 18.4
    endloop
  endfacet
  facet normal 0 -1 0
    outer loop
      vertex 133.2 19.2 12
      vertex 139.2 19.2 15.2
      vertex 133.2 19.2 18.4
    endloop
  endfacet
  facet normal 0 -1 -0
    outer loop
      vertex 139.2 19.2 15.2
      vertex 133.2 19.2 12
      vertex 139.2 19.2 12
    endloop
  endfacet
  facet normal 0 -1 0
    outer loop
      vertex 139.2 19.2 18.4
      vertex 142.2 19.2 21.6
      vertex 139.2 19.2 21.6
    endloop
  endfacet
  facet normal 0 -1 0
    outer loop
      vertex 142.2 19.2 15.2
      vertex 139.2 19.2 18.4
      vertex 139.2 19.2 15.2
    endloop
  endfacet
  facet normal 0 -1 0
    outer loop
      vertex 139.2 19.2 18.4
      vertex 142.2 19.2 15.2
      vertex 142.2 19.2 21.6
    endloop
  endfacet
  facet normal -1 0 0
    outer loop
      vertex 139.2 19.2 18.4
      vertex 139.2 22.2 21.6
      vertex 139.2 22.2 18.4
    endloop
  endfacet
  facet normal -1 -0 0
    outer loop
      vertex 139.2 22.2 21.6
      vertex 139.2 19.2 18.4
      vertex 139.2 19.2 21.6
    endloop
  endfacet
  facet normal 1 0 0
    outer loop
      vertex 142.2 13.2 24.8
      vertex 142.2 10.2 24.8
      vertex 142.2 13.2 13.6
    endloop
  endfacet
  facet normal 1 0 0
    outer loop
      vertex 142.2 19.2 15.2
      vertex 142.2 22.2 21.6
      vertex 142.2 19.2 21.6
    endloop
  endfacet
  facet normal 1 0 0
    outer loop
      vertex 142.2 22.2 21.6
      vertex 142.2 19.2 15.2
      vertex 142.2 22.2 12
    endloop
  endfacet
  facet normal 1 0 0
    outer loop
      vertex 142.2 16.2 13.6
      vertex 142.2 19.2 15.2
      vertex 142.2 16.2 15.2
    endloop
  endfacet
  facet normal 1 0 0
    outer loop
      vertex 142.2 19.2 15.2
      vertex 142.2 16.2 13.6
      vertex 142.2 22.2 12
    endloop
  endfacet
  facet normal 1 0 0
    outer loop
      vertex 142.2 10.2 12
      vertex 142.2 16.2 13.6
      vertex 142.2 13.2 13.6
    endloop
  endfacet
  facet normal 1 0 0
    outer loop
      vertex 142.2 16.2 13.6
      vertex 142.2 10.2 12
      vertex 142.2 22.2 12
    endloop
  endfacet
  facet normal 1 0 0
    outer loop
      vertex 142.2 10.2 12
      vertex 142.2 13.2 13.6
      vertex 142.2 10.2 24.8
    endloop
  endfacet
  facet normal -0 0 1
    outer loop
      vertex 139.2 13.2 24.8
      vertex 142.2 10.2 24.8
      vertex 142.2 13.2 24.8
    endloop
  endfacet
  facet normal 0 0 1
    outer loop
      vertex 142.2 10.2 24.8
      vertex 139.2 13.2 24.8
      vertex 139.2 10.2 24.8
    endloop
  endfacet
  facet normal -1 0 0
    outer loop
      vertex 139.2 19.2 12
      vertex 139.2 16.2 13.6
      vertex 139.2 19.2 15.2
    endloop
  endfacet
  facet normal -1 0 0
    outer loop
      vertex 139.2 19.2 12
      vertex 139.2 13.2 13.6
      vertex 139.2 16.2 13.6
    endloop
  endfacet
  facet normal -1 0 0
    outer loop
      vertex 139.2 10.2 12
      vertex 139.2 13.2 13.6
      vertex 139.2 19.2 12
    endloop
  endfacet
  facet normal -1 0 0
    outer loop
      vertex 139.2 10.2 24.8
      vertex 139.2 13.2 13.6
      vertex 139.2 10.2 12
    endloop
  endfacet
  facet normal -1 0 0
    outer loop
      vertex 139.2 13.2 13.6
      vertex 139.2 10.2 24.8
      vertex 139.2 13.2 24.8
    endloop
  endfacet
  facet normal -1 -0 0
    outer loop
      vertex 139.2 19.2 15.2
      vertex 139.2 16.2 13.6
      vertex 139.2 16.2 15.2
    endloop
  endfacet
  facet normal 0 1 -0
    outer loop
      vertex 142.2 13.2 13.6
      vertex 139.2 13.2 24.8
      vertex 142.2 13.2 24.8
    endloop
  endfacet
  facet normal 0 1 0
    outer loop
      vertex 139.2 13.2 24.8
      vertex 142.2 13.2 13.6
      vertex 139.2 13.2 13.6
    endloop
  endfacet
  facet normal 0 -1 0
    outer loop
      vertex 139.2 10.2 12
      vertex 142.2 10.2 24.8
      vertex 139.2 10.2 24.8
    endloop
  endfacet
  facet normal 0 -1 -0
    outer loop
      vertex 142.2 10.2 24.8
      vertex 139.2 10.2 12
      vertex 142.2 10.2 12
    endloop
  endfacet
  facet normal -0 0 1
    outer loop
      vertex 139.2 16.2 13.6
      vertex 142.2 13.2 13.6
      vertex 142.2 16.2 13.6
    endloop
  endfacet
  facet normal 0 0 1
    outer loop
      vertex 142.2 13.2 13.6
      vertex 139.2 16.2 13.6
      vertex 139.2 13.2 13.6
    endloop
  endfacet
  facet normal 0 -1 0
    outer loop
      vertex 139.2 16.2 13.6
      vertex 142.2 16.2 15.2
      vertex 139.2 16.2 15.2
    endloop
  endfacet
  facet normal 0 -1 -0
    outer loop
      vertex 142.2 16.2 15.2
      vertex 139.2 16.2 13.6
      vertex 142.2 16.2 13.6
    endloop
  endfacet
  facet normal -0 0 1
    outer loop
      vertex 139.2 19.2 15.2
      vertex 142.2 16.2 15.2
      vertex 142.2 19.2 15.2
    endloop
  endfacet
  facet normal 0 0 1
    outer loop
      vertex 142.2 16.2 15.2
      vertex 139.2 19.2 15.2
      vertex 139.2 16.2 15.2
    endloop
  endfacet
  facet normal -0 0 1
    outer loop
      vertex 139.2 22.2 21.6
      vertex 142.2 19.2 21.6
      vertex 142.2 22.2 21.6
    endloop
  endfacet
  facet normal 0 0 1
    outer loop
      vertex 142.2 19.2 21.6
      vertex 139.2 22.2 21.6
      vertex 139.2 19.2 21.6
    endloop
  endfacet
  facet normal 1 -0 0
    outer loop
      vertex 145.2 22.2 21.6
      vertex 145.2 25.2 12
      vertex 145.2 25.2 21.6
    endloop
  endfacet
  facet normal 1 0 0
    outer loop
      vertex 145.2 25.2 12
      vertex 145.2 22.2 21.6
      vertex 145.2 22.2 12
    endloop
  endfacet
  facet normal -0 0 1
    outer loop
      vertex 142.2 25.2 21.6
      vertex 145.2 22.2 21.6
      vertex 145.2 25.2 21.6
    endloop
  endfacet
  facet normal 0 0 1
    outer loop
      vertex 145.2 22.2 21.6
      vertex 142.2 25.2 21.6
      vertex 142.2 22.2 21.6
    endloop
  endfacet
  facet normal 0 0 -1
    outer loop
      vertex 142.2 22.2 12
      vertex 145.2 25.2 12
      vertex 145.2 22.2 12
    endloop
  endfacet
  facet normal -0 0 -1
    outer loop
      vertex 145.2 25.2 12
      vertex 142.2 22.2 12
      vertex 142.2 25.2 12
    endloop
  endfacet
  facet normal -1 0 0
    outer loop
      vertex 142.2 22.2 12
      vertex 142.2 25.2 21.6
      vertex 142.2 25.2 12
    endloop
  endfacet
  facet normal -1 -0 0
    outer loop
      vertex 142.2 25.2 21.6
      vertex 142.2 22.2 12
      vertex 142.2 22.2 21.6
    endloop
  endfacet
  facet normal 0 1 -0
    outer loop
      vertex 145.2 25.2 12
      vertex 142.2 25.2 21.6
      vertex 145.2 25.2 21.6
    endloop
  endfacet
  facet normal 0 1 0
    outer loop
      vertex 142.2 25.2 21.6
      vertex 145.2 25.2 12
      vertex 142.2 25.2 12
    endloop
  endfacet
  facet normal 0 -1 0
    outer loop
      vertex 142.2 22.2 12
      vertex 145.2 22.2 21.6
      vertex 142.2 22.2 21.6
    endloop
  endfacet
  facet normal 0 -1 -0
    outer loop
      vertex 145.2 22.2 21.6
      vertex 142.2 22.2 12
      vertex 145.2 22.2 12
    endloop
  endfacet
  facet normal 1 -0 0
    outer loop
      vertex 151.2 19.2 28
      vertex 151.2 22.2 15.2
      vertex 151.2 22.2 34.4
    endloop
  endfacet
  facet normal 1 0 0
    outer loop
      vertex 151.2 19.2 28
      vertex 151.2 22.2 34.4
      vertex 151.2 19.2 34.4
    endloop
  endfacet
  facet normal 1 -0 0
    outer loop
      vertex 151.2 16.2 28
      vertex 151.2 22.2 15.2
      vertex 151.2 19.2 28
    endloop
  endfacet
  facet normal 1 0 0
    outer loop
      vertex 151.2 22.2 15.2
      vertex 151.2 16.2 28
      vertex 151.2 16.2 12
    endloop
  endfacet
  facet normal 1 0 0
    outer loop
      vertex 151.2 22.2 15.2
      vertex 151.2 16.2 12
      vertex 151.2 22.2 12
    endloop
  endfacet
  facet normal -0 0 1
    outer loop
      vertex 148.2 19.2 28
      vertex 151.2 16.2 28
      vertex 151.2 19.2 28
    endloop
  endfacet
  facet normal 0 0 1
    outer loop
      vertex 151.2 16.2 28
      vertex 148.2 19.2 28
      vertex 148.2 16.2 28
    endloop
  endfacet
  facet normal 0 0 -1
    outer loop
      vertex 148.2 16.2 12
      vertex 151.2 22.2 12
      vertex 151.2 16.2 12
    endloop
  endfacet
  facet normal -0 0 -1
    outer loop
      vertex 151.2 22.2 12
      vertex 148.2 16.2 12
      vertex 148.2 22.2 12
    endloop
  endfacet
  facet normal -1 0 0
    outer loop
      vertex 148.2 22.2 12
      vertex 148.2 19.2 28
      vertex 148.2 22.2 34.4
    endloop
  endfacet
  facet normal -1 0 0
    outer loop
      vertex 148.2 16.2 12
      vertex 148.2 19.2 28
      vertex 148.2 22.2 12
    endloop
  endfacet
  facet normal -1 -0 0
    outer loop
      vertex 148.2 19.2 28
      vertex 148.2 16.2 12
      vertex 148.2 16.2 28
    endloop
  endfacet
  facet normal -1 -0 0
    outer loop
      vertex 148.2 22.2 34.4
      vertex 148.2 19.2 28
      vertex 148.2 19.2 34.4
    endloop
  endfacet
  facet normal 0 -1 0
    outer loop
      vertex 148.2 19.2 28
      vertex 151.2 19.2 34.4
      vertex 148.2 19.2 34.4
    endloop
  endfacet
  facet normal 0 -1 -0
    outer loop
      vertex 151.2 19.2 34.4
      vertex 148.2 19.2 28
      vertex 151.2 19.2 28
    endloop
  endfacet
  facet normal 0 -1 0
    outer loop
      vertex 148.2 16.2 12
      vertex 151.2 16.2 28
      vertex 148.2 16.2 28
    endloop
  endfacet
  facet normal 0 -1 -0
    outer loop
      vertex 151.2 16.2 28
      vertex 148.2 16.2 12
      vertex 151.2 16.2 12
    endloop
  endfacet
  facet normal -0 0 1
    outer loop
      vertex 148.2 22.2 34.4
      vertex 151.2 19.2 34.4
      vertex 151.2 22.2 34.4
    endloop
  endfacet
  facet normal 0 0 1
    outer loop
      vertex 151.2 19.2 34.4
      vertex 148.2 22.2 34.4
      vertex 148.2 19.2 34.4
    endloop
  endfacet
  facet normal 0 1 -0
    outer loop
      vertex 151.2 22.2 15.2
      vertex 148.2 22.2 34.4
      vertex 151.2 22.2 34.4
    endloop
  endfacet
  facet normal 0 1 0
    outer loop
      vertex 148.2 22.2 12
      vertex 151.2 22.2 15.2
      vertex 151.2 22.2 12
    endloop
  endfacet
  facet normal 0 1 0
    outer loop
      vertex 151.2 22.2 15.2
      vertex 148.2 22.2 12
      vertex 148.2 22.2 34.4
    endloop
  endfacet
  facet normal 1 -0 0
    outer loop
      vertex 154.2 10.2 24.8
      vertex 154.2 13.2 12
      vertex 154.2 13.2 24.8
    endloop
  endfacet
  facet normal 1 0 0
    outer loop
      vertex 154.2 13.2 12
      vertex 154.2 10.2 24.8
      vertex 154.2 10.2 12
    endloop
  endfacet
  facet normal -0 0 1
    outer loop
      vertex 151.2 13.2 24.8
      vertex 154.2 10.2 24.8
      vertex 154.2 13.2 24.8
    endloop
  endfacet
  facet normal 0 0 1
    outer loop
      vertex 154.2 10.2 24.8
      vertex 151.2 13.2 24.8
      vertex 151.2 10.2 24.8
    endloop
  endfacet
  facet normal 0 0 -1
    outer loop
      vertex 151.2 10.2 12
      vertex 154.2 13.2 12
      vertex 154.2 10.2 12
    endloop
  endfacet
  facet normal -0 0 -1
    outer loop
      vertex 154.2 13.2 12
      vertex 151.2 10.2 12
      vertex 151.2 13.2 12
    endloop
  endfacet
  facet normal -1 0 0
    outer loop
      vertex 151.2 10.2 12
      vertex 151.2 13.2 24.8
      vertex 151.2 13.2 12
    endloop
  endfacet
  facet normal -1 -0 0
    outer loop
      vertex 151.2 13.2 24.8
      vertex 151.2 10.2 12
      vertex 151.2 10.2 24.8
    endloop
  endfacet
  facet normal 0 1 -0
    outer loop
      vertex 154.2 13.2 12
      vertex 151.2 13.2 24.8
      vertex 154.2 13.2 24.8
    endloop
  endfacet
  facet normal 0 1 0
    outer loop
      vertex 151.2 13.2 24.8
      vertex 154.2 13.2 12
      vertex 151.2 13.2 12
    endloop
  endfacet
  facet normal 0 -1 0
    outer loop
      vertex 151.2 10.2 12
      vertex 154.2 10.2 24.8
      vertex 151.2 10.2 24.8
    endloop
  endfacet
  facet normal 0 -1 -0
    outer loop
      vertex 154.2 10.2 24.8
      vertex 151.2 10.2 12
      vertex 154.2 10.2 12
    endloop
  endfacet
  facet normal -0 0 1
    outer loop
      vertex 151.2 25.2 15.2
      vertex 157.2 22.2 15.2
      vertex 157.2 25.2 15.2
    endloop
  endfacet
  facet normal 0 0 1
    outer loop
      vertex 157.2 22.2 15.2
      vertex 151.2 25.2 15.2
      vertex 151.2 22.2 15.2
    endloop
  endfacet
  facet normal 0 0 -1
    outer loop
      vertex 151.2 22.2 12
      vertex 157.2 25.2 12
      vertex 157.2 22.2 12
    endloop
  endfacet
  facet normal -0 0 -1
    outer loop
      vertex 157.2 25.2 12
      vertex 151.2 22.2 12
      vertex 151.2 25.2 12
    endloop
  endfacet
  facet normal -1 0 0
    outer loop
      vertex 151.2 22.2 12
      vertex 151.2 25.2 15.2
      vertex 151.2 25.2 12
    endloop
  endfacet
  facet normal -1 -0 0
    outer loop
      vertex 151.2 25.2 15.2
      vertex 151.2 22.2 12
      vertex 151.2 22.2 15.2
    endloop
  endfacet
  facet normal 0 1 -0
    outer loop
      vertex 157.2 25.2 12
      vertex 151.2 25.2 15.2
      vertex 157.2 25.2 15.2
    endloop
  endfacet
  facet normal 0 1 0
    outer loop
      vertex 151.2 25.2 15.2
      vertex 157.2 25.2 12
      vertex 151.2 25.2 12
    endloop
  endfacet
  facet normal 0 -1 0
    outer loop
      vertex 151.2 22.2 15.2
      vertex 157.2 22.2 13.6
      vertex 157.2 22.2 15.2
    endloop
  endfacet
  facet normal 0 -1 0
    outer loop
      vertex 151.2 22.2 12
      vertex 157.2 22.2 13.6
      vertex 151.2 22.2 15.2
    endloop
  endfacet
  facet normal 0 -1 -0
    outer loop
      vertex 157.2 22.2 13.6
      vertex 151.2 22.2 12
      vertex 157.2 22.2 12
    endloop
  endfacet
  facet normal 1 0 0
    outer loop
      vertex 157.2 22.2 13.6
      vertex 157.2 25.2 15.2
      vertex 157.2 22.2 15.2
    endloop
  endfacet
  facet normal 1 0 0
    outer loop
      vertex 157.2 25.2 15.2
      vertex 157.2 22.2 13.6
      vertex 157.2 25.2 12
    endloop
  endfacet
  facet normal 1 0 0
    outer loop
      vertex 157.2 25.2 12
      vertex 157.2 22.2 13.6
      vertex 157.2 22.2 12
    endloop
  endfacet
  facet normal 1 -0 0
    outer loop
      vertex 160.2 10.2 34.4
      vertex 160.2 13.2 20
      vertex 160.2 13.2 34.4
    endloop
  endfacet
  facet normal 1 0 0
    outer loop
      vertex 160.2 10.2 12
      vertex 160.2 13.2 20
      vertex 160.2 10.2 34.4
    endloop
  endfacet
  facet normal 1 0 0
    outer loop
      vertex 160.2 13.2 20
      vertex 160.2 10.2 12
      vertex 160.2 13.2 12
    endloop
  endfacet
  facet normal -0 0 1
    outer loop
      vertex 157.2 13.2 34.4
      vertex 160.2 10.2 34.4
      vertex 160.2 13.2 34.4
    endloop
  endfacet
  facet normal 0 0 1
    outer loop
      vertex 160.2 10.2 34.4
      vertex 157.2 13.2 34.4
      vertex 157.2 10.2 34.4
    endloop
  endfacet
  facet normal 0 0 -1
    outer loop
      vertex 157.2 10.2 12
      vertex 160.2 13.2 12
      vertex 160.2 10.2 12
    endloop
  endfacet
  facet normal -0 0 -1
    outer loop
      vertex 160.2 13.2 12
      vertex 157.2 10.2 12
      vertex 157.2 13.2 12
    endloop
  endfacet
  facet normal -1 0 0
    outer loop
      vertex 157.2 10.2 12
      vertex 157.2 13.2 34.4
      vertex 157.2 13.2 12
    endloop
  endfacet
  facet normal -1 -0 0
    outer loop
      vertex 157.2 13.2 34.4
      vertex 157.2 10.2 12
      vertex 157.2 10.2 34.4
    endloop
  endfacet
  facet normal 0 1 -0
    outer loop
      vertex 160.2 13.2 20
      vertex 157.2 13.2 34.4
      vertex 160.2 13.2 34.4
    endloop
  endfacet
  facet normal 0 1 0
    outer loop
      vertex 157.2 13.2 12
      vertex 160.2 13.2 20
      vertex 160.2 13.2 12
    endloop
  endfacet
  facet normal 0 1 0
    outer loop
      vertex 160.2 13.2 20
      vertex 157.2 13.2 12
      vertex 157.2 13.2 34.4
    endloop
  endfacet
  facet normal 0 -1 0
    outer loop
      vertex 157.2 10.2 12
      vertex 160.2 10.2 34.4
      vertex 157.2 10.2 34.4
    endloop
  endfacet
  facet normal 0 -1 -0
    outer loop
      vertex 160.2 10.2 34.4
      vertex 157.2 10.2 12
      vertex 160.2 10.2 12
    endloop
  endfacet
  facet normal 1 -0 0
    outer loop
      vertex 160.2 19.2 13.6
      vertex 160.2 22.2 12
      vertex 160.2 22.2 13.6
    endloop
  endfacet
  facet normal 1 0 0
    outer loop
      vertex 160.2 22.2 12
      vertex 160.2 19.2 13.6
      vertex 160.2 19.2 12
    endloop
  endfacet
  facet normal -0 0 1
    outer loop
      vertex 157.2 22.2 13.6
      vertex 160.2 19.2 13.6
      vertex 160.2 22.2 13.6
    endloop
  endfacet
  facet normal 0 0 1
    outer loop
      vertex 160.2 19.2 13.6
      vertex 157.2 22.2 13.6
      vertex 157.2 19.2 13.6
    endloop
  endfacet
  facet normal 0 0 -1
    outer loop
      vertex 157.2 19.2 12
      vertex 160.2 22.2 12
      vertex 160.2 19.2 12
    endloop
  endfacet
  facet normal -0 0 -1
    outer loop
      vertex 160.2 22.2 12
      vertex 157.2 19.2 12
      vertex 157.2 22.2 12
    endloop
  endfacet
  facet normal -1 0 0
    outer loop
      vertex 157.2 19.2 12
      vertex 157.2 22.2 13.6
      vertex 157.2 22.2 12
    endloop
  endfacet
  facet normal -1 -0 0
    outer loop
      vertex 157.2 22.2 13.6
      vertex 157.2 19.2 12
      vertex 157.2 19.2 13.6
    endloop
  endfacet
  facet normal 0 1 -0
    outer loop
      vertex 160.2 22.2 12
      vertex 157.2 22.2 13.6
      vertex 160.2 22.2 13.6
    endloop
  endfacet
  facet normal 0 1 0
    outer loop
      vertex 157.2 22.2 13.6
      vertex 160.2 22.2 12
      vertex 157.2 22.2 12
    endloop
  endfacet
  facet normal 0 -1 0
    outer loop
      vertex 157.2 19.2 12
      vertex 160.2 19.2 13.6
      vertex 157.2 19.2 13.6
    endloop
  endfacet
  facet normal 0 -1 -0
    outer loop
      vertex 160.2 19.2 13.6
      vertex 157.2 19.2 12
      vertex 160.2 19.2 12
    endloop
  endfacet
  facet normal 1 0 0
    outer loop
      vertex 163.2 13.2 13.6
      vertex 163.2 16.2 20
      vertex 163.2 13.2 20
    endloop
  endfacet
  facet normal 1 0 0
    outer loop
      vertex 163.2 16.2 20
      vertex 163.2 13.2 13.6
      vertex 163.2 16.2 12
    endloop
  endfacet
  facet normal 1 0 0
    outer loop
      vertex 163.2 16.2 12
      vertex 163.2 13.2 13.6
      vertex 163.2 13.2 12
    endloop
  endfacet
  facet normal -0 0 1
    outer loop
      vertex 160.2 16.2 20
      vertex 163.2 13.2 20
      vertex 163.2 16.2 20
    endloop
  endfacet
  facet normal 0 0 1
    outer loop
      vertex 163.2 13.2 20
      vertex 160.2 16.2 20
      vertex 160.2 13.2 20
    endloop
  endfacet
  facet normal 0 0 -1
    outer loop
      vertex 160.2 13.2 12
      vertex 163.2 16.2 12
      vertex 163.2 13.2 12
    endloop
  endfacet
  facet normal -0 0 -1
    outer loop
      vertex 163.2 16.2 12
      vertex 160.2 13.2 12
      vertex 160.2 16.2 12
    endloop
  endfacet
  facet normal -1 0 0
    outer loop
      vertex 160.2 13.2 12
      vertex 160.2 16.2 20
      vertex 160.2 16.2 12
    endloop
  endfacet
  facet normal -1 -0 0
    outer loop
      vertex 160.2 16.2 20
      vertex 160.2 13.2 12
      vertex 160.2 13.2 20
    endloop
  endfacet
  facet normal 0 1 -0
    outer loop
      vertex 163.2 16.2 12
      vertex 160.2 16.2 20
      vertex 163.2 16.2 20
    endloop
  endfacet
  facet normal 0 1 0
    outer loop
      vertex 160.2 16.2 20
      vertex 163.2 16.2 12
      vertex 160.2 16.2 12
    endloop
  endfacet
  facet normal 0 -1 0
    outer loop
      vertex 160.2 13.2 20
      vertex 163.2 13.2 13.6
      vertex 163.2 13.2 20
    endloop
  endfacet
  facet normal 0 -1 0
    outer loop
      vertex 160.2 13.2 12
      vertex 163.2 13.2 13.6
      vertex 160.2 13.2 20
    endloop
  endfacet
  facet normal 0 -1 -0
    outer loop
      vertex 163.2 13.2 13.6
      vertex 160.2 13.2 12
      vertex 163.2 13.2 12
    endloop
  endfacet
  facet normal 1 -0 0
    outer loop
      vertex 166.2 10.2 13.6
      vertex 166.2 13.2 12
      vertex 166.2 13.2 13.6
    endloop
  endfacet
  facet normal 1 0 0
    outer loop
      vertex 166.2 13.2 12
      vertex 166.2 10.2 13.6
      vertex 166.2 10.2 12
    endloop
  endfacet
  facet normal -0 0 1
    outer loop
      vertex 163.2 13.2 13.6
      vertex 166.2 10.2 13.6
      vertex 166.2 13.2 13.6
    endloop
  endfacet
  facet normal 0 0 1
    outer loop
      vertex 166.2 10.2 13.6
      vertex 163.2 13.2 13.6
      vertex 163.2 10.2 13.6
    endloop
  endfacet
  facet normal 0 0 -1
    outer loop
      vertex 163.2 10.2 12
      vertex 166.2 13.2 12
      vertex 166.2 10.2 12
    endloop
  endfacet
  facet normal -0 0 -1
    outer loop
      vertex 166.2 13.2 12
      vertex 163.2 10.2 12
      vertex 163.2 13.2 12
    endloop
  endfacet
  facet normal -1 0 0
    outer loop
      vertex 163.2 10.2 12
      vertex 163.2 13.2 13.6
      vertex 163.2 13.2 12
    endloop
  endfacet
  facet normal -1 -0 0
    outer loop
      vertex 163.2 13.2 13.6
      vertex 163.2 10.2 12
      vertex 163.2 10.2 13.6
    endloop
  endfacet
  facet normal 0 1 -0
    outer loop
      vertex 166.2 13.2 12
      vertex 163.2 13.2 13.6
      vertex 166.2 13.2 13.6
    endloop
  endfacet
  facet normal 0 1 0
    outer loop
      vertex 163.2 13.2 13.6
      vertex 166.2 13.2 12
      vertex 163.2 13.2 12
    endloop
  endfacet
  facet normal 0 -1 0
    outer loop
      vertex 163.2 10.2 12
      vertex 166.2 10.2 13.6
      vertex 163.2 10.2 13.6
    endloop
  endfacet
  facet normal 0 -1 -0
    outer loop
      vertex 166.2 10.2 13.6
      vertex 163.2 10.2 12
      vertex 166.2 10.2 12
    endloop
  endfacet
endsolid OpenSCAD_Model
