solid OpenSCAD_Model
  facet normal 1 -0 0
    outer loop
      vertex 52.2 16.2 20
      vertex 52.2 19.2 12
      vertex 52.2 19.2 20
    endloop
  endfacet
  facet normal 1 0 0
    outer loop
      vertex 52.2 19.2 12
      vertex 52.2 16.2 20
      vertex 52.2 16.2 12
    endloop
  endfacet
  facet normal -0 0 1
    outer loop
      vertex 49.2 19.2 20
      vertex 52.2 16.2 20
      vertex 52.2 19.2 20
    endloop
  endfacet
  facet normal 0 0 1
    outer loop
      vertex 52.2 16.2 20
      vertex 49.2 19.2 20
      vertex 49.2 16.2 20
    endloop
  endfacet
  facet normal 0 0 -1
    outer loop
      vertex 49.2 16.2 12
      vertex 52.2 19.2 12
      vertex 52.2 16.2 12
    endloop
  endfacet
  facet normal -0 0 -1
    outer loop
      vertex 52.2 19.2 12
      vertex 49.2 16.2 12
      vertex 49.2 19.2 12
    endloop
  endfacet
  facet normal -1 0 0
    outer loop
      vertex 49.2 16.2 12
      vertex 49.2 19.2 20
      vertex 49.2 19.2 12
    endloop
  endfacet
  facet normal -1 -0 0
    outer loop
      vertex 49.2 19.2 20
      vertex 49.2 16.2 12
      vertex 49.2 16.2 20
    endloop
  endfacet
  facet normal 0 1 -0
    outer loop
      vertex 52.2 19.2 12
      vertex 49.2 19.2 20
      vertex 52.2 19.2 20
    endloop
  endfacet
  facet normal 0 1 0
    outer loop
      vertex 49.2 19.2 20
      vertex 52.2 19.2 12
      vertex 49.2 19.2 12
    endloop
  endfacet
  facet normal 0 -1 0
    outer loop
      vertex 49.2 16.2 12
      vertex 52.2 16.2 20
      vertex 49.2 16.2 20
    endloop
  endfacet
  facet normal 0 -1 -0
    outer loop
      vertex 52.2 16.2 20
      vertex 49.2 16.2 12
      vertex 52.2 16.2 12
    endloop
  endfacet
  facet normal 1 -0 0
    outer loop
      vertex 55.2 10.2 16
      vertex 55.2 13.2 12
      vertex 55.2 13.2 16
    endloop
  endfacet
  facet normal 1 0 0
    outer loop
      vertex 55.2 13.2 12
      vertex 55.2 10.2 16
      vertex 55.2 10.2 12
    endloop
  endfacet
  facet normal -0 0 1
    outer loop
      vertex 52.2 13.2 16
      vertex 55.2 10.2 16
      vertex 55.2 13.2 16
    endloop
  endfacet
  facet normal 0 0 1
    outer loop
      vertex 55.2 10.2 16
      vertex 52.2 13.2 16
      vertex 52.2 10.2 16
    endloop
  endfacet
  facet normal 0 0 -1
    outer loop
      vertex 52.2 10.2 12
      vertex 55.2 13.2 12
      vertex 55.2 10.2 12
    endloop
  endfacet
  facet normal -0 0 -1
    outer loop
      vertex 55.2 13.2 12
      vertex 52.2 10.2 12
      vertex 52.2 13.2 12
    endloop
  endfacet
  facet normal -1 0 0
    outer loop
      vertex 52.2 10.2 12
      vertex 52.2 13.2 16
      vertex 52.2 13.2 12
    endloop
  endfacet
  facet normal -1 -0 0
    outer loop
      vertex 52.2 13.2 16
      vertex 52.2 10.2 12
      vertex 52.2 10.2 16
    endloop
  endfacet
  facet normal 0 1 -0
    outer loop
      vertex 55.2 13.2 12
      vertex 52.2 13.2 16
      vertex 55.2 13.2 16
    endloop
  endfacet
  facet normal 0 1 0
    outer loop
      vertex 52.2 13.2 16
      vertex 55.2 13.2 12
      vertex 52.2 13.2 12
    endloop
  endfacet
  facet normal 0 -1 0
    outer loop
      vertex 52.2 10.2 12
      vertex 55.2 10.2 16
      vertex 52.2 10.2 16
    endloop
  endfacet
  facet normal 0 -1 -0
    outer loop
      vertex 55.2 10.2 16
      vertex 52.2 10.2 12
      vertex 55.2 10.2 12
    endloop
  endfacet
  facet normal 1 -0 0
    outer loop
      vertex 58.2 16.2 20
      vertex 58.2 19.2 16
      vertex 58.2 19.2 20
    endloop
  endfacet
  facet normal 1 0 0
    outer loop
      vertex 58.2 16.2 12
      vertex 58.2 19.2 16
      vertex 58.2 16.2 20
    endloop
  endfacet
  facet normal 1 0 0
    outer loop
      vertex 58.2 19.2 16
      vertex 58.2 16.2 12
      vertex 58.2 19.2 12
    endloop
  endfacet
  facet normal -0 0 1
    outer loop
      vertex 55.2 19.2 20
      vertex 58.2 16.2 20
      vertex 58.2 19.2 20
    endloop
  endfacet
  facet normal 0 0 1
    outer loop
      vertex 58.2 16.2 20
      vertex 55.2 19.2 20
      vertex 55.2 16.2 20
    endloop
  endfacet
  facet normal 0 0 -1
    outer loop
      vertex 64.2 19.2 12
      vertex 61.2 22.2 12
      vertex 64.2 22.2 12
    endloop
  endfacet
  facet normal 0 0 -1
    outer loop
      vertex 58.2 19.2 12
      vertex 61.2 22.2 12
      vertex 64.2 19.2 12
    endloop
  endfacet
  facet normal 0 0 -1
    outer loop
      vertex 58.2 22.2 12
      vertex 61.2 22.2 12
      vertex 58.2 19.2 12
    endloop
  endfacet
  facet normal 0 0 -1
    outer loop
      vertex 61.2 22.2 12
      vertex 58.2 22.2 12
      vertex 61.2 25.2 12
    endloop
  endfacet
  facet normal -0 0 -1
    outer loop
      vertex 61.2 25.2 12
      vertex 58.2 22.2 12
      vertex 58.2 25.2 12
    endloop
  endfacet
  facet normal 0 0 -1
    outer loop
      vertex 55.2 16.2 12
      vertex 58.2 19.2 12
      vertex 58.2 16.2 12
    endloop
  endfacet
  facet normal 0 0 -1
    outer loop
      vertex 55.2 22.2 12
      vertex 58.2 19.2 12
      vertex 55.2 16.2 12
    endloop
  endfacet
  facet normal 0 0 -1
    outer loop
      vertex 58.2 19.2 12
      vertex 55.2 22.2 12
      vertex 58.2 22.2 12
    endloop
  endfacet
  facet normal -1 0 0
    outer loop
      vertex 55.2 22.2 12
      vertex 55.2 19.2 16
      vertex 55.2 22.2 16
    endloop
  endfacet
  facet normal -1 0 0
    outer loop
      vertex 55.2 16.2 12
      vertex 55.2 19.2 16
      vertex 55.2 22.2 12
    endloop
  endfacet
  facet normal -1 0 0
    outer loop
      vertex 55.2 16.2 20
      vertex 55.2 19.2 16
      vertex 55.2 16.2 12
    endloop
  endfacet
  facet normal -1 0 0
    outer loop
      vertex 55.2 19.2 16
      vertex 55.2 16.2 20
      vertex 55.2 19.2 20
    endloop
  endfacet
  facet normal 0 1 -0
    outer loop
      vertex 58.2 19.2 16
      vertex 55.2 19.2 20
      vertex 58.2 19.2 20
    endloop
  endfacet
  facet normal 0 1 0
    outer loop
      vertex 55.2 19.2 20
      vertex 58.2 19.2 16
      vertex 55.2 19.2 16
    endloop
  endfacet
  facet normal 0 -1 0
    outer loop
      vertex 55.2 16.2 12
      vertex 58.2 16.2 20
      vertex 55.2 16.2 20
    endloop
  endfacet
  facet normal 0 -1 -0
    outer loop
      vertex 58.2 16.2 20
      vertex 55.2 16.2 12
      vertex 58.2 16.2 12
    endloop
  endfacet
  facet normal -1 0 0
    outer loop
      vertex 58.2 22.2 12
      vertex 58.2 25.2 16
      vertex 58.2 25.2 12
    endloop
  endfacet
  facet normal -1 -0 0
    outer loop
      vertex 58.2 25.2 16
      vertex 58.2 22.2 12
      vertex 58.2 22.2 16
    endloop
  endfacet
  facet normal 0 0 1
    outer loop
      vertex 61.2 25.2 16
      vertex 58.2 25.2 16
      vertex 61.2 22.2 16
    endloop
  endfacet
  facet normal -0 0 1
    outer loop
      vertex 61.2 22.2 16
      vertex 64.2 19.2 16
      vertex 64.2 22.2 16
    endloop
  endfacet
  facet normal 0 0 1
    outer loop
      vertex 58.2 22.2 16
      vertex 61.2 22.2 16
      vertex 58.2 25.2 16
    endloop
  endfacet
  facet normal 0 0 1
    outer loop
      vertex 58.2 19.2 16
      vertex 61.2 22.2 16
      vertex 58.2 22.2 16
    endloop
  endfacet
  facet normal 0 0 1
    outer loop
      vertex 61.2 22.2 16
      vertex 58.2 19.2 16
      vertex 64.2 19.2 16
    endloop
  endfacet
  facet normal -0 0 1
    outer loop
      vertex 55.2 22.2 16
      vertex 58.2 19.2 16
      vertex 58.2 22.2 16
    endloop
  endfacet
  facet normal 0 0 1
    outer loop
      vertex 58.2 19.2 16
      vertex 55.2 22.2 16
      vertex 55.2 19.2 16
    endloop
  endfacet
  facet normal 0 1 -0
    outer loop
      vertex 58.2 22.2 12
      vertex 55.2 22.2 16
      vertex 58.2 22.2 16
    endloop
  endfacet
  facet normal 0 1 0
    outer loop
      vertex 55.2 22.2 16
      vertex 58.2 22.2 12
      vertex 55.2 22.2 12
    endloop
  endfacet
  facet normal 1 -0 0
    outer loop
      vertex 61.2 22.2 16
      vertex 61.2 25.2 12
      vertex 61.2 25.2 16
    endloop
  endfacet
  facet normal 1 0 0
    outer loop
      vertex 61.2 25.2 12
      vertex 61.2 22.2 16
      vertex 61.2 22.2 12
    endloop
  endfacet
  facet normal 0 -1 0
    outer loop
      vertex 58.2 19.2 12
      vertex 64.2 19.2 16
      vertex 58.2 19.2 16
    endloop
  endfacet
  facet normal 0 -1 -0
    outer loop
      vertex 64.2 19.2 16
      vertex 58.2 19.2 12
      vertex 64.2 19.2 12
    endloop
  endfacet
  facet normal 0 1 -0
    outer loop
      vertex 61.2 25.2 12
      vertex 58.2 25.2 16
      vertex 61.2 25.2 16
    endloop
  endfacet
  facet normal 0 1 0
    outer loop
      vertex 58.2 25.2 16
      vertex 61.2 25.2 12
      vertex 58.2 25.2 12
    endloop
  endfacet
  facet normal -0 0 1
    outer loop
      vertex 61.2 13.2 16
      vertex 67.2 10.2 16
      vertex 67.2 13.2 16
    endloop
  endfacet
  facet normal 0 0 1
    outer loop
      vertex 67.2 10.2 16
      vertex 61.2 13.2 16
      vertex 61.2 10.2 16
    endloop
  endfacet
  facet normal 0 0 -1
    outer loop
      vertex 61.2 10.2 12
      vertex 67.2 13.2 12
      vertex 67.2 10.2 12
    endloop
  endfacet
  facet normal -0 0 -1
    outer loop
      vertex 67.2 13.2 12
      vertex 61.2 10.2 12
      vertex 61.2 13.2 12
    endloop
  endfacet
  facet normal -1 0 0
    outer loop
      vertex 61.2 10.2 12
      vertex 61.2 13.2 16
      vertex 61.2 13.2 12
    endloop
  endfacet
  facet normal -1 -0 0
    outer loop
      vertex 61.2 13.2 16
      vertex 61.2 10.2 12
      vertex 61.2 10.2 16
    endloop
  endfacet
  facet normal 0 1 -0
    outer loop
      vertex 67.2 13.2 12
      vertex 61.2 13.2 16
      vertex 67.2 13.2 16
    endloop
  endfacet
  facet normal 0 1 0
    outer loop
      vertex 61.2 13.2 16
      vertex 67.2 13.2 12
      vertex 61.2 13.2 12
    endloop
  endfacet
  facet normal 0 -1 0
    outer loop
      vertex 61.2 10.2 12
      vertex 67.2 10.2 16
      vertex 61.2 10.2 16
    endloop
  endfacet
  facet normal 0 -1 -0
    outer loop
      vertex 67.2 10.2 16
      vertex 61.2 10.2 12
      vertex 67.2 10.2 12
    endloop
  endfacet
  facet normal 1 -0 0
    outer loop
      vertex 64.2 19.2 16
      vertex 64.2 22.2 12
      vertex 64.2 22.2 16
    endloop
  endfacet
  facet normal 1 0 0
    outer loop
      vertex 64.2 22.2 12
      vertex 64.2 19.2 16
      vertex 64.2 19.2 12
    endloop
  endfacet
  facet normal 0 1 -0
    outer loop
      vertex 64.2 22.2 12
      vertex 61.2 22.2 16
      vertex 64.2 22.2 16
    endloop
  endfacet
  facet normal 0 1 0
    outer loop
      vertex 61.2 22.2 16
      vertex 64.2 22.2 12
      vertex 61.2 22.2 12
    endloop
  endfacet
  facet normal 1 -0 0
    outer loop
      vertex 67.2 10.2 16
      vertex 67.2 13.2 12
      vertex 67.2 13.2 16
    endloop
  endfacet
  facet normal 1 0 0
    outer loop
      vertex 67.2 13.2 12
      vertex 67.2 10.2 16
      vertex 67.2 10.2 12
    endloop
  endfacet
  facet normal 1 -0 0
    outer loop
      vertex 70.2 16.2 16
      vertex 70.2 19.2 12
      vertex 70.2 19.2 16
    endloop
  endfacet
  facet normal 1 0 0
    outer loop
      vertex 70.2 19.2 12
      vertex 70.2 16.2 16
      vertex 70.2 16.2 12
    endloop
  endfacet
  facet normal -0 0 1
    outer loop
      vertex 67.2 19.2 16
      vertex 70.2 16.2 16
      vertex 70.2 19.2 16
    endloop
  endfacet
  facet normal 0 0 1
    outer loop
      vertex 70.2 16.2 16
      vertex 67.2 19.2 16
      vertex 67.2 16.2 16
    endloop
  endfacet
  facet normal 0 0 -1
    outer loop
      vertex 67.2 16.2 12
      vertex 70.2 19.2 12
      vertex 70.2 16.2 12
    endloop
  endfacet
  facet normal -0 0 -1
    outer loop
      vertex 70.2 19.2 12
      vertex 67.2 16.2 12
      vertex 67.2 19.2 12
    endloop
  endfacet
  facet normal -1 0 0
    outer loop
      vertex 67.2 16.2 12
      vertex 67.2 19.2 16
      vertex 67.2 19.2 12
    endloop
  endfacet
  facet normal -1 -0 0
    outer loop
      vertex 67.2 19.2 16
      vertex 67.2 16.2 12
      vertex 67.2 16.2 16
    endloop
  endfacet
  facet normal 0 1 -0
    outer loop
      vertex 70.2 19.2 12
      vertex 67.2 19.2 16
      vertex 70.2 19.2 16
    endloop
  endfacet
  facet normal 0 1 0
    outer loop
      vertex 67.2 19.2 16
      vertex 70.2 19.2 12
      vertex 67.2 19.2 12
    endloop
  endfacet
  facet normal 0 -1 0
    outer loop
      vertex 67.2 16.2 12
      vertex 70.2 16.2 16
      vertex 67.2 16.2 16
    endloop
  endfacet
  facet normal 0 -1 -0
    outer loop
      vertex 70.2 16.2 16
      vertex 67.2 16.2 12
      vertex 70.2 16.2 12
    endloop
  endfacet
  facet normal 1 -0 0
    outer loop
      vertex 79.2 13.2 16
      vertex 79.2 16.2 12
      vertex 79.2 16.2 16
    endloop
  endfacet
  facet normal 1 0 0
    outer loop
      vertex 79.2 16.2 12
      vertex 79.2 13.2 16
      vertex 79.2 13.2 12
    endloop
  endfacet
  facet normal -0 0 1
    outer loop
      vertex 76.2 16.2 16
      vertex 79.2 13.2 16
      vertex 79.2 16.2 16
    endloop
  endfacet
  facet normal 0 0 1
    outer loop
      vertex 79.2 13.2 16
      vertex 76.2 16.2 16
      vertex 76.2 13.2 16
    endloop
  endfacet
  facet normal 0 0 -1
    outer loop
      vertex 76.2 13.2 12
      vertex 79.2 16.2 12
      vertex 79.2 13.2 12
    endloop
  endfacet
  facet normal -0 0 -1
    outer loop
      vertex 79.2 16.2 12
      vertex 76.2 13.2 12
      vertex 76.2 16.2 12
    endloop
  endfacet
  facet normal -1 0 0
    outer loop
      vertex 76.2 13.2 12
      vertex 76.2 16.2 16
      vertex 76.2 16.2 12
    endloop
  endfacet
  facet normal -1 -0 0
    outer loop
      vertex 76.2 16.2 16
      vertex 76.2 13.2 12
      vertex 76.2 13.2 16
    endloop
  endfacet
  facet normal 0 1 -0
    outer loop
      vertex 79.2 16.2 12
      vertex 76.2 16.2 16
      vertex 79.2 16.2 16
    endloop
  endfacet
  facet normal 0 1 0
    outer loop
      vertex 76.2 16.2 16
      vertex 79.2 16.2 12
      vertex 76.2 16.2 12
    endloop
  endfacet
  facet normal 0 -1 0
    outer loop
      vertex 76.2 13.2 12
      vertex 79.2 13.2 16
      vertex 76.2 13.2 16
    endloop
  endfacet
  facet normal 0 -1 -0
    outer loop
      vertex 79.2 13.2 16
      vertex 76.2 13.2 12
      vertex 79.2 13.2 12
    endloop
  endfacet
  facet normal 1 -0 0
    outer loop
      vertex 97.2 10.2 20
      vertex 97.2 13.2 16
      vertex 97.2 13.2 20
    endloop
  endfacet
  facet normal 1 0 0
    outer loop
      vertex 97.2 10.2 12
      vertex 97.2 13.2 16
      vertex 97.2 10.2 20
    endloop
  endfacet
  facet normal 1 0 0
    outer loop
      vertex 97.2 13.2 16
      vertex 97.2 10.2 12
      vertex 97.2 13.2 12
    endloop
  endfacet
  facet normal -0 0 1
    outer loop
      vertex 94.2 13.2 20
      vertex 97.2 10.2 20
      vertex 97.2 13.2 20
    endloop
  endfacet
  facet normal 0 0 1
    outer loop
      vertex 97.2 10.2 20
      vertex 94.2 13.2 20
      vertex 94.2 10.2 20
    endloop
  endfacet
  facet normal 0 0 -1
    outer loop
      vertex 94.2 10.2 12
      vertex 97.2 13.2 12
      vertex 97.2 10.2 12
    endloop
  endfacet
  facet normal -0 0 -1
    outer loop
      vertex 97.2 13.2 12
      vertex 94.2 10.2 12
      vertex 94.2 13.2 12
    endloop
  endfacet
  facet normal -1 0 0
    outer loop
      vertex 94.2 10.2 12
      vertex 94.2 13.2 20
      vertex 94.2 13.2 12
    endloop
  endfacet
  facet normal -1 -0 0
    outer loop
      vertex 94.2 13.2 20
      vertex 94.2 10.2 12
      vertex 94.2 10.2 20
    endloop
  endfacet
  facet normal 0 1 -0
    outer loop
      vertex 97.2 13.2 16
      vertex 94.2 13.2 20
      vertex 97.2 13.2 20
    endloop
  endfacet
  facet normal 0 1 0
    outer loop
      vertex 94.2 13.2 12
      vertex 97.2 13.2 16
      vertex 97.2 13.2 12
    endloop
  endfacet
  facet normal 0 1 0
    outer loop
      vertex 97.2 13.2 16
      vertex 94.2 13.2 12
      vertex 94.2 13.2 20
    endloop
  endfacet
  facet normal 0 -1 0
    outer loop
      vertex 94.2 10.2 12
      vertex 97.2 10.2 20
      vertex 94.2 10.2 20
    endloop
  endfacet
  facet normal 0 -1 -0
    outer loop
      vertex 97.2 10.2 20
      vertex 94.2 10.2 12
      vertex 97.2 10.2 12
    endloop
  endfacet
  facet normal 1 -0 0
    outer loop
      vertex 97.2 19.2 16
      vertex 97.2 22.2 12
      vertex 97.2 22.2 16
    endloop
  endfacet
  facet normal 1 0 0
    outer loop
      vertex 97.2 22.2 12
      vertex 97.2 19.2 16
      vertex 97.2 19.2 12
    endloop
  endfacet
  facet normal -0 0 1
    outer loop
      vertex 94.2 22.2 16
      vertex 97.2 19.2 16
      vertex 97.2 22.2 16
    endloop
  endfacet
  facet normal 0 0 1
    outer loop
      vertex 97.2 19.2 16
      vertex 94.2 22.2 16
      vertex 94.2 19.2 16
    endloop
  endfacet
  facet normal 0 0 -1
    outer loop
      vertex 94.2 19.2 12
      vertex 97.2 22.2 12
      vertex 97.2 19.2 12
    endloop
  endfacet
  facet normal -0 0 -1
    outer loop
      vertex 97.2 22.2 12
      vertex 94.2 19.2 12
      vertex 94.2 22.2 12
    endloop
  endfacet
  facet normal -1 0 0
    outer loop
      vertex 94.2 19.2 12
      vertex 94.2 22.2 16
      vertex 94.2 22.2 12
    endloop
  endfacet
  facet normal -1 -0 0
    outer loop
      vertex 94.2 22.2 16
      vertex 94.2 19.2 12
      vertex 94.2 19.2 16
    endloop
  endfacet
  facet normal 0 1 -0
    outer loop
      vertex 97.2 22.2 12
      vertex 94.2 22.2 16
      vertex 97.2 22.2 16
    endloop
  endfacet
  facet normal 0 1 0
    outer loop
      vertex 94.2 22.2 16
      vertex 97.2 22.2 12
      vertex 94.2 22.2 12
    endloop
  endfacet
  facet normal 0 -1 0
    outer loop
      vertex 94.2 19.2 12
      vertex 97.2 19.2 16
      vertex 94.2 19.2 16
    endloop
  endfacet
  facet normal 0 -1 -0
    outer loop
      vertex 97.2 19.2 16
      vertex 94.2 19.2 12
      vertex 97.2 19.2 12
    endloop
  endfacet
  facet normal -1 0 0
    outer loop
      vertex 100.2 10.2 12
      vertex 100.2 13.2 16
      vertex 100.2 13.2 12
    endloop
  endfacet
  facet normal -1 -0 0
    outer loop
      vertex 100.2 13.2 16
      vertex 100.2 10.2 12
      vertex 100.2 13.2 24
    endloop
  endfacet
  facet normal -1 0 0
    outer loop
      vertex 100.2 10.2 36
      vertex 100.2 13.2 24
      vertex 100.2 10.2 12
    endloop
  endfacet
  facet normal -1 0 0
    outer loop
      vertex 100.2 13.2 24
      vertex 100.2 10.2 36
      vertex 100.2 13.2 36
    endloop
  endfacet
  facet normal -1 0 0
    outer loop
      vertex 100.2 13.2 16
      vertex 100.2 16.2 24
      vertex 100.2 16.2 16
    endloop
  endfacet
  facet normal -1 -0 0
    outer loop
      vertex 100.2 16.2 24
      vertex 100.2 13.2 16
      vertex 100.2 13.2 24
    endloop
  endfacet
  facet normal 1 0 0
    outer loop
      vertex 100.2 16.2 16
      vertex 100.2 19.2 16
      vertex 100.2 19.2 24
    endloop
  endfacet
  facet normal 1 0 0
    outer loop
      vertex 100.2 16.2 16
      vertex 100.2 19.2 24
      vertex 100.2 16.2 24
    endloop
  endfacet
  facet normal 1 0 0
    outer loop
      vertex 100.2 19.2 16
      vertex 100.2 16.2 16
      vertex 100.2 19.2 12
    endloop
  endfacet
  facet normal 1 0 0
    outer loop
      vertex 100.2 19.2 12
      vertex 100.2 16.2 16
      vertex 100.2 16.2 12
    endloop
  endfacet
  facet normal -0 0 1
    outer loop
      vertex 97.2 16.2 16
      vertex 100.2 13.2 16
      vertex 100.2 16.2 16
    endloop
  endfacet
  facet normal 0 0 1
    outer loop
      vertex 100.2 13.2 16
      vertex 97.2 16.2 16
      vertex 97.2 13.2 16
    endloop
  endfacet
  facet normal 0 0 -1
    outer loop
      vertex 109.2 10.2 12
      vertex 106.2 13.2 12
      vertex 109.2 13.2 12
    endloop
  endfacet
  facet normal 0 0 -1
    outer loop
      vertex 100.2 10.2 12
      vertex 106.2 13.2 12
      vertex 109.2 10.2 12
    endloop
  endfacet
  facet normal 0 0 -1
    outer loop
      vertex 100.2 13.2 12
      vertex 106.2 13.2 12
      vertex 100.2 10.2 12
    endloop
  endfacet
  facet normal 0 0 -1
    outer loop
      vertex 106.2 13.2 12
      vertex 100.2 13.2 12
      vertex 106.2 16.2 12
    endloop
  endfacet
  facet normal 0 0 -1
    outer loop
      vertex 100.2 13.2 12
      vertex 100.2 16.2 12
      vertex 106.2 16.2 12
    endloop
  endfacet
  facet normal 0 0 -1
    outer loop
      vertex 97.2 13.2 12
      vertex 100.2 16.2 12
      vertex 100.2 13.2 12
    endloop
  endfacet
  facet normal 0 0 -1
    outer loop
      vertex 97.2 19.2 12
      vertex 100.2 16.2 12
      vertex 97.2 13.2 12
    endloop
  endfacet
  facet normal 0 0 -1
    outer loop
      vertex 100.2 16.2 12
      vertex 97.2 19.2 12
      vertex 100.2 19.2 12
    endloop
  endfacet
  facet normal -1 0 0
    outer loop
      vertex 97.2 16.2 16
      vertex 97.2 19.2 16
      vertex 97.2 19.2 12
    endloop
  endfacet
  facet normal -1 0 0
    outer loop
      vertex 97.2 19.2 16
      vertex 97.2 16.2 16
      vertex 97.2 19.2 24
    endloop
  endfacet
  facet normal -1 0 0
    outer loop
      vertex 97.2 13.2 12
      vertex 97.2 16.2 16
      vertex 97.2 19.2 12
    endloop
  endfacet
  facet normal -1 -0 0
    outer loop
      vertex 97.2 16.2 16
      vertex 97.2 13.2 12
      vertex 97.2 13.2 16
    endloop
  endfacet
  facet normal -1 -0 0
    outer loop
      vertex 97.2 19.2 24
      vertex 97.2 16.2 16
      vertex 97.2 16.2 24
    endloop
  endfacet
  facet normal 0 -1 0
    outer loop
      vertex 97.2 16.2 16
      vertex 100.2 16.2 24
      vertex 97.2 16.2 24
    endloop
  endfacet
  facet normal 0 -1 -0
    outer loop
      vertex 100.2 16.2 24
      vertex 97.2 16.2 16
      vertex 100.2 16.2 16
    endloop
  endfacet
  facet normal 0 -1 0
    outer loop
      vertex 97.2 13.2 12
      vertex 100.2 13.2 16
      vertex 97.2 13.2 16
    endloop
  endfacet
  facet normal 0 -1 -0
    outer loop
      vertex 100.2 13.2 16
      vertex 97.2 13.2 12
      vertex 100.2 13.2 12
    endloop
  endfacet
  facet normal -0 0 1
    outer loop
      vertex 97.2 19.2 24
      vertex 100.2 16.2 24
      vertex 100.2 19.2 24
    endloop
  endfacet
  facet normal 0 0 1
    outer loop
      vertex 100.2 16.2 24
      vertex 97.2 19.2 24
      vertex 97.2 16.2 24
    endloop
  endfacet
  facet normal 0 1 -0
    outer loop
      vertex 100.2 19.2 16
      vertex 97.2 19.2 24
      vertex 100.2 19.2 24
    endloop
  endfacet
  facet normal 0 1 0
    outer loop
      vertex 100.2 19.2 16
      vertex 97.2 19.2 16
      vertex 97.2 19.2 24
    endloop
  endfacet
  facet normal 0 1 -0
    outer loop
      vertex 100.2 19.2 12
      vertex 97.2 19.2 16
      vertex 100.2 19.2 16
    endloop
  endfacet
  facet normal 0 1 0
    outer loop
      vertex 97.2 19.2 16
      vertex 100.2 19.2 12
      vertex 97.2 19.2 12
    endloop
  endfacet
  facet normal 1 -0 0
    outer loop
      vertex 103.2 10.2 36
      vertex 103.2 13.2 32
      vertex 103.2 13.2 36
    endloop
  endfacet
  facet normal 1 0 0
    outer loop
      vertex 103.2 13.2 32
      vertex 103.2 10.2 36
      vertex 103.2 10.2 32
    endloop
  endfacet
  facet normal -0 0 1
    outer loop
      vertex 100.2 13.2 36
      vertex 103.2 10.2 36
      vertex 103.2 13.2 36
    endloop
  endfacet
  facet normal 0 0 1
    outer loop
      vertex 103.2 10.2 36
      vertex 100.2 13.2 36
      vertex 100.2 10.2 36
    endloop
  endfacet
  facet normal 0 1 0
    outer loop
      vertex 106.2 13.2 32
      vertex 106.2 13.2 24
      vertex 103.2 13.2 32
    endloop
  endfacet
  facet normal 0 1 -0
    outer loop
      vertex 103.2 13.2 32
      vertex 100.2 13.2 36
      vertex 103.2 13.2 36
    endloop
  endfacet
  facet normal 0 1 0
    outer loop
      vertex 100.2 13.2 24
      vertex 103.2 13.2 32
      vertex 106.2 13.2 24
    endloop
  endfacet
  facet normal 0 1 0
    outer loop
      vertex 103.2 13.2 32
      vertex 100.2 13.2 24
      vertex 100.2 13.2 36
    endloop
  endfacet
  facet normal 0 -1 0
    outer loop
      vertex 100.2 10.2 36
      vertex 103.2 10.2 32
      vertex 103.2 10.2 36
    endloop
  endfacet
  facet normal 0 -1 0
    outer loop
      vertex 103.2 10.2 32
      vertex 106.2 10.2 16
      vertex 106.2 10.2 32
    endloop
  endfacet
  facet normal 0 -1 0
    outer loop
      vertex 100.2 10.2 12
      vertex 103.2 10.2 32
      vertex 100.2 10.2 36
    endloop
  endfacet
  facet normal 0 -1 -0
    outer loop
      vertex 103.2 10.2 32
      vertex 100.2 10.2 12
      vertex 106.2 10.2 16
    endloop
  endfacet
  facet normal 0 -1 0
    outer loop
      vertex 109.2 10.2 12
      vertex 106.2 10.2 16
      vertex 100.2 10.2 12
    endloop
  endfacet
  facet normal 0 -1 0
    outer loop
      vertex 106.2 10.2 16
      vertex 109.2 10.2 12
      vertex 109.2 10.2 16
    endloop
  endfacet
  facet normal -0 0 1
    outer loop
      vertex 100.2 16.2 24
      vertex 106.2 13.2 24
      vertex 106.2 16.2 24
    endloop
  endfacet
  facet normal 0 0 1
    outer loop
      vertex 106.2 13.2 24
      vertex 100.2 16.2 24
      vertex 100.2 13.2 24
    endloop
  endfacet
  facet normal 0 1 0
    outer loop
      vertex 106.2 16.2 24
      vertex 100.2 16.2 16
      vertex 100.2 16.2 24
    endloop
  endfacet
  facet normal 0 1 -0
    outer loop
      vertex 106.2 16.2 12
      vertex 100.2 16.2 16
      vertex 106.2 16.2 24
    endloop
  endfacet
  facet normal 0 1 0
    outer loop
      vertex 100.2 16.2 16
      vertex 106.2 16.2 12
      vertex 100.2 16.2 12
    endloop
  endfacet
  facet normal 1 -0 0
    outer loop
      vertex 103.2 19.2 16
      vertex 103.2 22.2 12
      vertex 103.2 22.2 16
    endloop
  endfacet
  facet normal 1 0 0
    outer loop
      vertex 103.2 22.2 12
      vertex 103.2 19.2 16
      vertex 103.2 19.2 12
    endloop
  endfacet
  facet normal -0 0 1
    outer loop
      vertex 100.2 22.2 16
      vertex 103.2 19.2 16
      vertex 103.2 22.2 16
    endloop
  endfacet
  facet normal 0 0 1
    outer loop
      vertex 103.2 19.2 16
      vertex 100.2 22.2 16
      vertex 100.2 19.2 16
    endloop
  endfacet
  facet normal 0 0 -1
    outer loop
      vertex 100.2 19.2 12
      vertex 103.2 22.2 12
      vertex 103.2 19.2 12
    endloop
  endfacet
  facet normal -0 0 -1
    outer loop
      vertex 103.2 22.2 12
      vertex 100.2 19.2 12
      vertex 100.2 22.2 12
    endloop
  endfacet
  facet normal -1 0 0
    outer loop
      vertex 100.2 19.2 12
      vertex 100.2 22.2 16
      vertex 100.2 22.2 12
    endloop
  endfacet
  facet normal -1 -0 0
    outer loop
      vertex 100.2 22.2 16
      vertex 100.2 19.2 12
      vertex 100.2 19.2 16
    endloop
  endfacet
  facet normal 0 1 -0
    outer loop
      vertex 103.2 22.2 12
      vertex 100.2 22.2 16
      vertex 103.2 22.2 16
    endloop
  endfacet
  facet normal 0 1 0
    outer loop
      vertex 100.2 22.2 16
      vertex 103.2 22.2 12
      vertex 100.2 22.2 12
    endloop
  endfacet
  facet normal 0 -1 0
    outer loop
      vertex 100.2 19.2 12
      vertex 103.2 19.2 16
      vertex 100.2 19.2 16
    endloop
  endfacet
  facet normal 0 -1 -0
    outer loop
      vertex 103.2 19.2 16
      vertex 100.2 19.2 12
      vertex 103.2 19.2 12
    endloop
  endfacet
  facet normal 1 0 0
    outer loop
      vertex 106.2 13.2 16
      vertex 106.2 16.2 24
      vertex 106.2 13.2 24
    endloop
  endfacet
  facet normal 1 0 0
    outer loop
      vertex 106.2 16.2 24
      vertex 106.2 13.2 16
      vertex 106.2 16.2 12
    endloop
  endfacet
  facet normal 1 0 0
    outer loop
      vertex 106.2 16.2 12
      vertex 106.2 13.2 16
      vertex 106.2 13.2 12
    endloop
  endfacet
  facet normal 1 -0 0
    outer loop
      vertex 106.2 10.2 32
      vertex 106.2 13.2 24
      vertex 106.2 13.2 32
    endloop
  endfacet
  facet normal 1 0 0
    outer loop
      vertex 106.2 10.2 16
      vertex 106.2 13.2 24
      vertex 106.2 10.2 32
    endloop
  endfacet
  facet normal 1 0 0
    outer loop
      vertex 106.2 13.2 24
      vertex 106.2 10.2 16
      vertex 106.2 13.2 16
    endloop
  endfacet
  facet normal -0 0 1
    outer loop
      vertex 103.2 13.2 32
      vertex 106.2 10.2 32
      vertex 106.2 13.2 32
    endloop
  endfacet
  facet normal 0 0 1
    outer loop
      vertex 106.2 10.2 32
      vertex 103.2 13.2 32
      vertex 103.2 10.2 32
    endloop
  endfacet
  facet normal 1 -0 0
    outer loop
      vertex 109.2 10.2 16
      vertex 109.2 13.2 12
      vertex 109.2 13.2 16
    endloop
  endfacet
  facet normal 1 0 0
    outer loop
      vertex 109.2 13.2 12
      vertex 109.2 10.2 16
      vertex 109.2 10.2 12
    endloop
  endfacet
  facet normal -0 0 1
    outer loop
      vertex 106.2 13.2 16
      vertex 109.2 10.2 16
      vertex 109.2 13.2 16
    endloop
  endfacet
  facet normal 0 0 1
    outer loop
      vertex 109.2 10.2 16
      vertex 106.2 13.2 16
      vertex 106.2 10.2 16
    endloop
  endfacet
  facet normal 0 1 -0
    outer loop
      vertex 109.2 13.2 12
      vertex 106.2 13.2 16
      vertex 109.2 13.2 16
    endloop
  endfacet
  facet normal 0 1 0
    outer loop
      vertex 106.2 13.2 16
      vertex 109.2 13.2 12
      vertex 106.2 13.2 12
    endloop
  endfacet
  facet normal 1 -0 0
    outer loop
      vertex 109.2 22.2 20
      vertex 109.2 25.2 12
      vertex 109.2 25.2 20
    endloop
  endfacet
  facet normal 1 0 0
    outer loop
      vertex 109.2 25.2 12
      vertex 109.2 22.2 20
      vertex 109.2 22.2 12
    endloop
  endfacet
  facet normal -0 0 1
    outer loop
      vertex 106.2 25.2 20
      vertex 109.2 22.2 20
      vertex 109.2 25.2 20
    endloop
  endfacet
  facet normal 0 0 1
    outer loop
      vertex 109.2 22.2 20
      vertex 106.2 25.2 20
      vertex 106.2 22.2 20
    endloop
  endfacet
  facet normal 0 0 -1
    outer loop
      vertex 106.2 22.2 12
      vertex 109.2 25.2 12
      vertex 109.2 22.2 12
    endloop
  endfacet
  facet normal -0 0 -1
    outer loop
      vertex 109.2 25.2 12
      vertex 106.2 22.2 12
      vertex 106.2 25.2 12
    endloop
  endfacet
  facet normal -1 0 0
    outer loop
      vertex 106.2 22.2 12
      vertex 106.2 25.2 20
      vertex 106.2 25.2 12
    endloop
  endfacet
  facet normal -1 -0 0
    outer loop
      vertex 106.2 25.2 20
      vertex 106.2 22.2 12
      vertex 106.2 22.2 20
    endloop
  endfacet
  facet normal 0 1 -0
    outer loop
      vertex 109.2 25.2 12
      vertex 106.2 25.2 20
      vertex 109.2 25.2 20
    endloop
  endfacet
  facet normal 0 1 0
    outer loop
      vertex 106.2 25.2 20
      vertex 109.2 25.2 12
      vertex 106.2 25.2 12
    endloop
  endfacet
  facet normal 0 -1 0
    outer loop
      vertex 106.2 22.2 12
      vertex 109.2 22.2 20
      vertex 106.2 22.2 20
    endloop
  endfacet
  facet normal 0 -1 -0
    outer loop
      vertex 109.2 22.2 20
      vertex 106.2 22.2 12
      vertex 109.2 22.2 12
    endloop
  endfacet
  facet normal 1 0 0
    outer loop
      vertex 115.2 16.2 16
      vertex 115.2 19.2 20
      vertex 115.2 16.2 20
    endloop
  endfacet
  facet normal 1 0 0
    outer loop
      vertex 115.2 19.2 20
      vertex 115.2 16.2 16
      vertex 115.2 19.2 12
    endloop
  endfacet
  facet normal 1 0 0
    outer loop
      vertex 115.2 13.2 12
      vertex 115.2 16.2 16
      vertex 115.2 13.2 16
    endloop
  endfacet
  facet normal 1 0 0
    outer loop
      vertex 115.2 16.2 16
      vertex 115.2 13.2 12
      vertex 115.2 19.2 12
    endloop
  endfacet
  facet normal -0 0 1
    outer loop
      vertex 112.2 16.2 16
      vertex 115.2 13.2 16
      vertex 115.2 16.2 16
    endloop
  endfacet
  facet normal 0 0 1
    outer loop
      vertex 115.2 13.2 16
      vertex 112.2 16.2 16
      vertex 112.2 13.2 16
    endloop
  endfacet
  facet normal 0 0 -1
    outer loop
      vertex 112.2 13.2 12
      vertex 115.2 19.2 12
      vertex 115.2 13.2 12
    endloop
  endfacet
  facet normal -0 0 -1
    outer loop
      vertex 115.2 19.2 12
      vertex 112.2 13.2 12
      vertex 112.2 19.2 12
    endloop
  endfacet
  facet normal -1 0 0
    outer loop
      vertex 112.2 19.2 12
      vertex 112.2 16.2 16
      vertex 112.2 19.2 20
    endloop
  endfacet
  facet normal -1 0 0
    outer loop
      vertex 112.2 13.2 12
      vertex 112.2 16.2 16
      vertex 112.2 19.2 12
    endloop
  endfacet
  facet normal -1 -0 0
    outer loop
      vertex 112.2 16.2 16
      vertex 112.2 13.2 12
      vertex 112.2 13.2 16
    endloop
  endfacet
  facet normal -1 -0 0
    outer loop
      vertex 112.2 19.2 20
      vertex 112.2 16.2 16
      vertex 112.2 16.2 20
    endloop
  endfacet
  facet normal 0 -1 0
    outer loop
      vertex 112.2 16.2 16
      vertex 115.2 16.2 20
      vertex 112.2 16.2 20
    endloop
  endfacet
  facet normal 0 -1 -0
    outer loop
      vertex 115.2 16.2 20
      vertex 112.2 16.2 16
      vertex 115.2 16.2 16
    endloop
  endfacet
  facet normal 0 -1 0
    outer loop
      vertex 112.2 13.2 12
      vertex 115.2 13.2 16
      vertex 112.2 13.2 16
    endloop
  endfacet
  facet normal 0 -1 -0
    outer loop
      vertex 115.2 13.2 16
      vertex 112.2 13.2 12
      vertex 115.2 13.2 12
    endloop
  endfacet
  facet normal -0 0 1
    outer loop
      vertex 112.2 19.2 20
      vertex 115.2 16.2 20
      vertex 115.2 19.2 20
    endloop
  endfacet
  facet normal 0 0 1
    outer loop
      vertex 115.2 16.2 20
      vertex 112.2 19.2 20
      vertex 112.2 16.2 20
    endloop
  endfacet
  facet normal 0 1 -0
    outer loop
      vertex 115.2 19.2 12
      vertex 112.2 19.2 20
      vertex 115.2 19.2 20
    endloop
  endfacet
  facet normal 0 1 0
    outer loop
      vertex 112.2 19.2 20
      vertex 115.2 19.2 12
      vertex 112.2 19.2 12
    endloop
  endfacet
  facet normal 1 -0 0
    outer loop
      vertex 130.2 10.2 16
      vertex 130.2 13.2 12
      vertex 130.2 13.2 16
    endloop
  endfacet
  facet normal 1 0 0
    outer loop
      vertex 130.2 13.2 12
      vertex 130.2 10.2 16
      vertex 130.2 10.2 12
    endloop
  endfacet
  facet normal -0 0 1
    outer loop
      vertex 127.2 13.2 16
      vertex 130.2 10.2 16
      vertex 130.2 13.2 16
    endloop
  endfacet
  facet normal 0 0 1
    outer loop
      vertex 130.2 10.2 16
      vertex 127.2 13.2 16
      vertex 127.2 10.2 16
    endloop
  endfacet
  facet normal 0 0 -1
    outer loop
      vertex 127.2 10.2 12
      vertex 130.2 13.2 12
      vertex 130.2 10.2 12
    endloop
  endfacet
  facet normal -0 0 -1
    outer loop
      vertex 130.2 13.2 12
      vertex 127.2 10.2 12
      vertex 127.2 13.2 12
    endloop
  endfacet
  facet normal -1 0 0
    outer loop
      vertex 127.2 10.2 12
      vertex 127.2 13.2 16
      vertex 127.2 13.2 12
    endloop
  endfacet
  facet normal -1 -0 0
    outer loop
      vertex 127.2 13.2 16
      vertex 127.2 10.2 12
      vertex 127.2 10.2 16
    endloop
  endfacet
  facet normal 0 1 -0
    outer loop
      vertex 130.2 13.2 12
      vertex 127.2 13.2 16
      vertex 130.2 13.2 16
    endloop
  endfacet
  facet normal 0 1 0
    outer loop
      vertex 127.2 13.2 16
      vertex 130.2 13.2 12
      vertex 127.2 13.2 12
    endloop
  endfacet
  facet normal 0 -1 0
    outer loop
      vertex 127.2 10.2 12
      vertex 130.2 10.2 16
      vertex 127.2 10.2 16
    endloop
  endfacet
  facet normal 0 -1 -0
    outer loop
      vertex 130.2 10.2 16
      vertex 127.2 10.2 12
      vertex 130.2 10.2 12
    endloop
  endfacet
  facet normal 1 0 0
    outer loop
      vertex 130.2 22.2 16
      vertex 130.2 25.2 20
      vertex 130.2 22.2 20
    endloop
  endfacet
  facet normal 1 0 0
    outer loop
      vertex 130.2 25.2 20
      vertex 130.2 22.2 16
      vertex 130.2 25.2 12
    endloop
  endfacet
  facet normal 1 0 0
    outer loop
      vertex 130.2 25.2 12
      vertex 130.2 22.2 16
      vertex 130.2 22.2 12
    endloop
  endfacet
  facet normal -0 0 1
    outer loop
      vertex 127.2 25.2 20
      vertex 130.2 22.2 20
      vertex 130.2 25.2 20
    endloop
  endfacet
  facet normal 0 0 1
    outer loop
      vertex 130.2 22.2 20
      vertex 127.2 25.2 20
      vertex 127.2 22.2 20
    endloop
  endfacet
  facet normal 0 0 -1
    outer loop
      vertex 127.2 22.2 12
      vertex 130.2 25.2 12
      vertex 130.2 22.2 12
    endloop
  endfacet
  facet normal -0 0 -1
    outer loop
      vertex 130.2 25.2 12
      vertex 127.2 22.2 12
      vertex 127.2 25.2 12
    endloop
  endfacet
  facet normal -1 0 0
    outer loop
      vertex 127.2 22.2 12
      vertex 127.2 25.2 20
      vertex 127.2 25.2 12
    endloop
  endfacet
  facet normal -1 -0 0
    outer loop
      vertex 127.2 25.2 20
      vertex 127.2 22.2 12
      vertex 127.2 22.2 20
    endloop
  endfacet
  facet normal 0 1 -0
    outer loop
      vertex 130.2 25.2 12
      vertex 127.2 25.2 20
      vertex 130.2 25.2 20
    endloop
  endfacet
  facet normal 0 1 0
    outer loop
      vertex 127.2 25.2 20
      vertex 130.2 25.2 12
      vertex 127.2 25.2 12
    endloop
  endfacet
  facet normal 0 -1 0
    outer loop
      vertex 127.2 22.2 20
      vertex 130.2 22.2 16
      vertex 130.2 22.2 20
    endloop
  endfacet
  facet normal 0 -1 0
    outer loop
      vertex 127.2 22.2 12
      vertex 130.2 22.2 16
      vertex 127.2 22.2 20
    endloop
  endfacet
  facet normal 0 -1 -0
    outer loop
      vertex 130.2 22.2 16
      vertex 127.2 22.2 12
      vertex 130.2 22.2 12
    endloop
  endfacet
  facet normal 1 -0 0
    outer loop
      vertex 133.2 19.2 16
      vertex 133.2 22.2 12
      vertex 133.2 22.2 16
    endloop
  endfacet
  facet normal 1 0 0
    outer loop
      vertex 133.2 22.2 12
      vertex 133.2 19.2 16
      vertex 133.2 19.2 12
    endloop
  endfacet
  facet normal -0 0 1
    outer loop
      vertex 130.2 22.2 16
      vertex 133.2 19.2 16
      vertex 133.2 22.2 16
    endloop
  endfacet
  facet normal 0 0 1
    outer loop
      vertex 133.2 19.2 16
      vertex 130.2 22.2 16
      vertex 130.2 19.2 16
    endloop
  endfacet
  facet normal 0 0 -1
    outer loop
      vertex 130.2 19.2 12
      vertex 133.2 22.2 12
      vertex 133.2 19.2 12
    endloop
  endfacet
  facet normal -0 0 -1
    outer loop
      vertex 133.2 22.2 12
      vertex 130.2 19.2 12
      vertex 130.2 22.2 12
    endloop
  endfacet
  facet normal -1 0 0
    outer loop
      vertex 130.2 19.2 12
      vertex 130.2 22.2 16
      vertex 130.2 22.2 12
    endloop
  endfacet
  facet normal -1 -0 0
    outer loop
      vertex 130.2 22.2 16
      vertex 130.2 19.2 12
      vertex 130.2 19.2 16
    endloop
  endfacet
  facet normal 0 1 -0
    outer loop
      vertex 133.2 22.2 12
      vertex 130.2 22.2 16
      vertex 133.2 22.2 16
    endloop
  endfacet
  facet normal 0 1 0
    outer loop
      vertex 130.2 22.2 16
      vertex 133.2 22.2 12
      vertex 130.2 22.2 12
    endloop
  endfacet
  facet normal 0 -1 0
    outer loop
      vertex 130.2 19.2 12
      vertex 133.2 19.2 16
      vertex 130.2 19.2 16
    endloop
  endfacet
  facet normal 0 -1 -0
    outer loop
      vertex 133.2 19.2 16
      vertex 130.2 19.2 12
      vertex 133.2 19.2 12
    endloop
  endfacet
  facet normal 1 -0 0
    outer loop
      vertex 139.2 13.2 16
      vertex 139.2 16.2 12
      vertex 139.2 16.2 16
    endloop
  endfacet
  facet normal 1 0 0
    outer loop
      vertex 139.2 16.2 12
      vertex 139.2 13.2 16
      vertex 139.2 13.2 12
    endloop
  endfacet
  facet normal -0 0 1
    outer loop
      vertex 136.2 16.2 16
      vertex 139.2 13.2 16
      vertex 139.2 16.2 16
    endloop
  endfacet
  facet normal 0 0 1
    outer loop
      vertex 139.2 13.2 16
      vertex 136.2 16.2 16
      vertex 136.2 13.2 16
    endloop
  endfacet
  facet normal 0 0 -1
    outer loop
      vertex 136.2 13.2 12
      vertex 139.2 16.2 12
      vertex 139.2 13.2 12
    endloop
  endfacet
  facet normal -0 0 -1
    outer loop
      vertex 139.2 16.2 12
      vertex 136.2 13.2 12
      vertex 136.2 16.2 12
    endloop
  endfacet
  facet normal -1 0 0
    outer loop
      vertex 136.2 13.2 12
      vertex 136.2 16.2 16
      vertex 136.2 16.2 12
    endloop
  endfacet
  facet normal -1 -0 0
    outer loop
      vertex 136.2 16.2 16
      vertex 136.2 13.2 12
      vertex 136.2 13.2 16
    endloop
  endfacet
  facet normal 0 1 -0
    outer loop
      vertex 139.2 16.2 12
      vertex 136.2 16.2 16
      vertex 139.2 16.2 16
    endloop
  endfacet
  facet normal 0 1 0
    outer loop
      vertex 136.2 16.2 16
      vertex 139.2 16.2 12
      vertex 136.2 16.2 12
    endloop
  endfacet
  facet normal 0 -1 0
    outer loop
      vertex 136.2 13.2 12
      vertex 139.2 13.2 16
      vertex 136.2 13.2 16
    endloop
  endfacet
  facet normal 0 -1 -0
    outer loop
      vertex 139.2 13.2 16
      vertex 136.2 13.2 12
      vertex 139.2 13.2 12
    endloop
  endfacet
  facet normal 1 -0 0
    outer loop
      vertex 148.2 10.2 32
      vertex 148.2 13.2 12
      vertex 148.2 13.2 32
    endloop
  endfacet
  facet normal 1 0 0
    outer loop
      vertex 148.2 13.2 12
      vertex 148.2 10.2 32
      vertex 148.2 10.2 12
    endloop
  endfacet
  facet normal -0 0 1
    outer loop
      vertex 145.2 13.2 32
      vertex 148.2 10.2 32
      vertex 148.2 13.2 32
    endloop
  endfacet
  facet normal 0 0 1
    outer loop
      vertex 148.2 10.2 32
      vertex 145.2 13.2 32
      vertex 145.2 10.2 32
    endloop
  endfacet
  facet normal 0 0 -1
    outer loop
      vertex 145.2 10.2 12
      vertex 148.2 13.2 12
      vertex 148.2 10.2 12
    endloop
  endfacet
  facet normal -0 0 -1
    outer loop
      vertex 148.2 13.2 12
      vertex 145.2 10.2 12
      vertex 145.2 13.2 12
    endloop
  endfacet
  facet normal -1 0 0
    outer loop
      vertex 145.2 10.2 12
      vertex 145.2 13.2 32
      vertex 145.2 13.2 12
    endloop
  endfacet
  facet normal -1 -0 0
    outer loop
      vertex 145.2 13.2 32
      vertex 145.2 10.2 12
      vertex 145.2 10.2 32
    endloop
  endfacet
  facet normal 0 1 -0
    outer loop
      vertex 148.2 13.2 12
      vertex 145.2 13.2 32
      vertex 148.2 13.2 32
    endloop
  endfacet
  facet normal 0 1 0
    outer loop
      vertex 145.2 13.2 32
      vertex 148.2 13.2 12
      vertex 145.2 13.2 12
    endloop
  endfacet
  facet normal 0 -1 0
    outer loop
      vertex 145.2 10.2 12
      vertex 148.2 10.2 32
      vertex 145.2 10.2 32
    endloop
  endfacet
  facet normal 0 -1 -0
    outer loop
      vertex 148.2 10.2 32
      vertex 145.2 10.2 12
      vertex 148.2 10.2 12
    endloop
  endfacet
  facet normal 1 -0 0
    outer loop
      vertex 151.2 22.2 16
      vertex 151.2 25.2 12
      vertex 151.2 25.2 16
    endloop
  endfacet
  facet normal 1 0 0
    outer loop
      vertex 151.2 25.2 12
      vertex 151.2 22.2 16
      vertex 151.2 22.2 12
    endloop
  endfacet
  facet normal -0 0 1
    outer loop
      vertex 148.2 25.2 16
      vertex 151.2 22.2 16
      vertex 151.2 25.2 16
    endloop
  endfacet
  facet normal 0 0 1
    outer loop
      vertex 151.2 22.2 16
      vertex 148.2 25.2 16
      vertex 148.2 22.2 16
    endloop
  endfacet
  facet normal 0 0 -1
    outer loop
      vertex 148.2 22.2 12
      vertex 151.2 25.2 12
      vertex 151.2 22.2 12
    endloop
  endfacet
  facet normal -0 0 -1
    outer loop
      vertex 151.2 25.2 12
      vertex 148.2 22.2 12
      vertex 148.2 25.2 12
    endloop
  endfacet
  facet normal -1 0 0
    outer loop
      vertex 148.2 22.2 12
      vertex 148.2 25.2 16
      vertex 148.2 25.2 12
    endloop
  endfacet
  facet normal -1 -0 0
    outer loop
      vertex 148.2 25.2 16
      vertex 148.2 22.2 12
      vertex 148.2 22.2 16
    endloop
  endfacet
  facet normal 0 1 -0
    outer loop
      vertex 151.2 25.2 12
      vertex 148.2 25.2 16
      vertex 151.2 25.2 16
    endloop
  endfacet
  facet normal 0 1 0
    outer loop
      vertex 148.2 25.2 16
      vertex 151.2 25.2 12
      vertex 148.2 25.2 12
    endloop
  endfacet
  facet normal 0 -1 0
    outer loop
      vertex 148.2 22.2 12
      vertex 151.2 22.2 16
      vertex 148.2 22.2 16
    endloop
  endfacet
  facet normal 0 -1 -0
    outer loop
      vertex 151.2 22.2 16
      vertex 148.2 22.2 12
      vertex 151.2 22.2 12
    endloop
  endfacet
  facet normal 1 -0 0
    outer loop
      vertex 160.2 16.2 16
      vertex 160.2 19.2 12
      vertex 160.2 19.2 16
    endloop
  endfacet
  facet normal 1 0 0
    outer loop
      vertex 160.2 19.2 12
      vertex 160.2 16.2 16
      vertex 160.2 16.2 12
    endloop
  endfacet
  facet normal -0 0 1
    outer loop
      vertex 157.2 19.2 16
      vertex 160.2 16.2 16
      vertex 160.2 19.2 16
    endloop
  endfacet
  facet normal 0 0 1
    outer loop
      vertex 160.2 16.2 16
      vertex 157.2 19.2 16
      vertex 157.2 16.2 16
    endloop
  endfacet
  facet normal 0 0 -1
    outer loop
      vertex 157.2 16.2 12
      vertex 160.2 19.2 12
      vertex 160.2 16.2 12
    endloop
  endfacet
  facet normal -0 0 -1
    outer loop
      vertex 160.2 19.2 12
      vertex 157.2 16.2 12
      vertex 157.2 19.2 12
    endloop
  endfacet
  facet normal -1 0 0
    outer loop
      vertex 157.2 16.2 12
      vertex 157.2 19.2 16
      vertex 157.2 19.2 12
    endloop
  endfacet
  facet normal -1 -0 0
    outer loop
      vertex 157.2 19.2 16
      vertex 157.2 16.2 12
      vertex 157.2 16.2 16
    endloop
  endfacet
  facet normal 0 1 -0
    outer loop
      vertex 160.2 19.2 12
      vertex 157.2 19.2 16
      vertex 160.2 19.2 16
    endloop
  endfacet
  facet normal 0 1 0
    outer loop
      vertex 157.2 19.2 16
      vertex 160.2 19.2 12
      vertex 157.2 19.2 12
    endloop
  endfacet
  facet normal 0 -1 0
    outer loop
      vertex 157.2 16.2 12
      vertex 160.2 16.2 16
      vertex 157.2 16.2 16
    endloop
  endfacet
  facet normal 0 -1 -0
    outer loop
      vertex 160.2 16.2 16
      vertex 157.2 16.2 12
      vertex 160.2 16.2 12
    endloop
  endfacet
  facet normal 1 -0 0
    outer loop
      vertex 163.2 19.2 28
      vertex 163.2 22.2 12
      vertex 163.2 22.2 28
    endloop
  endfacet
  facet normal 1 0 0
    outer loop
      vertex 163.2 22.2 12
      vertex 163.2 19.2 28
      vertex 163.2 19.2 12
    endloop
  endfacet
  facet normal -0 0 1
    outer loop
      vertex 160.2 22.2 28
      vertex 163.2 19.2 28
      vertex 163.2 22.2 28
    endloop
  endfacet
  facet normal 0 0 1
    outer loop
      vertex 163.2 19.2 28
      vertex 160.2 22.2 28
      vertex 160.2 19.2 28
    endloop
  endfacet
  facet normal 0 0 -1
    outer loop
      vertex 160.2 19.2 12
      vertex 163.2 22.2 12
      vertex 163.2 19.2 12
    endloop
  endfacet
  facet normal -0 0 -1
    outer loop
      vertex 163.2 22.2 12
      vertex 160.2 19.2 12
      vertex 160.2 22.2 12
    endloop
  endfacet
  facet normal -1 0 0
    outer loop
      vertex 160.2 19.2 16
      vertex 160.2 22.2 12
      vertex 160.2 19.2 12
    endloop
  endfacet
  facet normal -1 0 0
    outer loop
      vertex 160.2 22.2 12
      vertex 160.2 19.2 16
      vertex 160.2 22.2 28
    endloop
  endfacet
  facet normal -1 -0 0
    outer loop
      vertex 160.2 22.2 28
      vertex 160.2 19.2 16
      vertex 160.2 19.2 28
    endloop
  endfacet
  facet normal 0 1 -0
    outer loop
      vertex 163.2 22.2 12
      vertex 160.2 22.2 28
      vertex 163.2 22.2 28
    endloop
  endfacet
  facet normal 0 1 0
    outer loop
      vertex 160.2 22.2 28
      vertex 163.2 22.2 12
      vertex 160.2 22.2 12
    endloop
  endfacet
  facet normal 0 -1 0
    outer loop
      vertex 160.2 19.2 16
      vertex 163.2 19.2 28
      vertex 160.2 19.2 28
    endloop
  endfacet
  facet normal 0 -1 0
    outer loop
      vertex 163.2 19.2 12
      vertex 160.2 19.2 16
      vertex 160.2 19.2 12
    endloop
  endfacet
  facet normal 0 -1 0
    outer loop
      vertex 160.2 19.2 16
      vertex 163.2 19.2 12
      vertex 163.2 19.2 28
    endloop
  endfacet
  facet normal 1 -0 0
    outer loop
      vertex 169.2 13.2 24
      vertex 169.2 16.2 12
      vertex 169.2 16.2 24
    endloop
  endfacet
  facet normal 1 0 0
    outer loop
      vertex 169.2 16.2 12
      vertex 169.2 13.2 24
      vertex 169.2 13.2 12
    endloop
  endfacet
  facet normal -0 0 1
    outer loop
      vertex 166.2 16.2 24
      vertex 169.2 13.2 24
      vertex 169.2 16.2 24
    endloop
  endfacet
  facet normal 0 0 1
    outer loop
      vertex 169.2 13.2 24
      vertex 166.2 16.2 24
      vertex 166.2 13.2 24
    endloop
  endfacet
  facet normal 0 0 -1
    outer loop
      vertex 166.2 13.2 12
      vertex 169.2 16.2 12
      vertex 169.2 13.2 12
    endloop
  endfacet
  facet normal -0 0 -1
    outer loop
      vertex 169.2 16.2 12
      vertex 166.2 13.2 12
      vertex 166.2 16.2 12
    endloop
  endfacet
  facet normal -1 0 0
    outer loop
      vertex 166.2 13.2 12
      vertex 166.2 16.2 24
      vertex 166.2 16.2 12
    endloop
  endfacet
  facet normal -1 -0 0
    outer loop
      vertex 166.2 16.2 24
      vertex 166.2 13.2 12
      vertex 166.2 13.2 24
    endloop
  endfacet
  facet normal 0 1 -0
    outer loop
      vertex 169.2 16.2 12
      vertex 166.2 16.2 24
      vertex 169.2 16.2 24
    endloop
  endfacet
  facet normal 0 1 0
    outer loop
      vertex 166.2 16.2 24
      vertex 169.2 16.2 12
      vertex 166.2 16.2 12
    endloop
  endfacet
  facet normal 0 -1 0
    outer loop
      vertex 166.2 13.2 12
      vertex 169.2 13.2 24
      vertex 166.2 13.2 24
    endloop
  endfacet
  facet normal 0 -1 -0
    outer loop
      vertex 169.2 13.2 24
      vertex 166.2 13.2 12
      vertex 169.2 13.2 12
    endloop
  endfacet
endsolid OpenSCAD_Model
