solid OpenSCAD_Model
  facet normal 1 -0 0
    outer loop
      vertex 19.2 13.2 13.8462
      vertex 19.2 16.2 12
      vertex 19.2 16.2 13.8462
    endloop
  endfacet
  facet normal 1 0 0
    outer loop
      vertex 19.2 16.2 12
      vertex 19.2 13.2 13.8462
      vertex 19.2 13.2 12
    endloop
  endfacet
  facet normal -0 0 1
    outer loop
      vertex 16.2 16.2 13.8462
      vertex 19.2 13.2 13.8462
      vertex 19.2 16.2 13.8462
    endloop
  endfacet
  facet normal 0 0 1
    outer loop
      vertex 19.2 13.2 13.8462
      vertex 16.2 16.2 13.8462
      vertex 16.2 13.2 13.8462
    endloop
  endfacet
  facet normal 0 0 -1
    outer loop
      vertex 16.2 13.2 12
      vertex 19.2 16.2 12
      vertex 19.2 13.2 12
    endloop
  endfacet
  facet normal -0 0 -1
    outer loop
      vertex 19.2 16.2 12
      vertex 16.2 13.2 12
      vertex 16.2 16.2 12
    endloop
  endfacet
  facet normal -1 0 0
    outer loop
      vertex 16.2 13.2 12
      vertex 16.2 16.2 13.8462
      vertex 16.2 16.2 12
    endloop
  endfacet
  facet normal -1 -0 0
    outer loop
      vertex 16.2 16.2 13.8462
      vertex 16.2 13.2 12
      vertex 16.2 13.2 13.8462
    endloop
  endfacet
  facet normal 0 1 -0
    outer loop
      vertex 19.2 16.2 12
      vertex 16.2 16.2 13.8462
      vertex 19.2 16.2 13.8462
    endloop
  endfacet
  facet normal 0 1 0
    outer loop
      vertex 16.2 16.2 13.8462
      vertex 19.2 16.2 12
      vertex 16.2 16.2 12
    endloop
  endfacet
  facet normal 0 -1 0
    outer loop
      vertex 16.2 13.2 12
      vertex 19.2 13.2 13.8462
      vertex 16.2 13.2 13.8462
    endloop
  endfacet
  facet normal 0 -1 -0
    outer loop
      vertex 19.2 13.2 13.8462
      vertex 16.2 13.2 12
      vertex 19.2 13.2 12
    endloop
  endfacet
  facet normal 1 -0 0
    outer loop
      vertex 25.2 16.2 13.8462
      vertex 25.2 19.2 12
      vertex 25.2 19.2 13.8462
    endloop
  endfacet
  facet normal 1 0 0
    outer loop
      vertex 25.2 19.2 12
      vertex 25.2 16.2 13.8462
      vertex 25.2 16.2 12
    endloop
  endfacet
  facet normal -0 0 1
    outer loop
      vertex 22.2 19.2 13.8462
      vertex 25.2 16.2 13.8462
      vertex 25.2 19.2 13.8462
    endloop
  endfacet
  facet normal 0 0 1
    outer loop
      vertex 25.2 16.2 13.8462
      vertex 22.2 19.2 13.8462
      vertex 22.2 16.2 13.8462
    endloop
  endfacet
  facet normal 0 0 -1
    outer loop
      vertex 22.2 16.2 12
      vertex 25.2 19.2 12
      vertex 25.2 16.2 12
    endloop
  endfacet
  facet normal -0 0 -1
    outer loop
      vertex 25.2 19.2 12
      vertex 22.2 16.2 12
      vertex 22.2 19.2 12
    endloop
  endfacet
  facet normal -1 0 0
    outer loop
      vertex 22.2 16.2 12
      vertex 22.2 19.2 13.8462
      vertex 22.2 19.2 12
    endloop
  endfacet
  facet normal -1 -0 0
    outer loop
      vertex 22.2 19.2 13.8462
      vertex 22.2 16.2 12
      vertex 22.2 16.2 13.8462
    endloop
  endfacet
  facet normal 0 1 -0
    outer loop
      vertex 25.2 19.2 12
      vertex 22.2 19.2 13.8462
      vertex 25.2 19.2 13.8462
    endloop
  endfacet
  facet normal 0 1 0
    outer loop
      vertex 22.2 19.2 13.8462
      vertex 25.2 19.2 12
      vertex 22.2 19.2 12
    endloop
  endfacet
  facet normal 0 -1 0
    outer loop
      vertex 22.2 16.2 12
      vertex 25.2 16.2 13.8462
      vertex 22.2 16.2 13.8462
    endloop
  endfacet
  facet normal 0 -1 -0
    outer loop
      vertex 25.2 16.2 13.8462
      vertex 22.2 16.2 12
      vertex 25.2 16.2 12
    endloop
  endfacet
  facet normal 1 -0 0
    outer loop
      vertex 28.2 19.2 13.8462
      vertex 28.2 22.2 12
      vertex 28.2 22.2 13.8462
    endloop
  endfacet
  facet normal 1 0 0
    outer loop
      vertex 28.2 22.2 12
      vertex 28.2 19.2 13.8462
      vertex 28.2 19.2 12
    endloop
  endfacet
  facet normal -0 0 1
    outer loop
      vertex 25.2 22.2 13.8462
      vertex 28.2 19.2 13.8462
      vertex 28.2 22.2 13.8462
    endloop
  endfacet
  facet normal 0 0 1
    outer loop
      vertex 28.2 19.2 13.8462
      vertex 25.2 22.2 13.8462
      vertex 25.2 19.2 13.8462
    endloop
  endfacet
  facet normal 0 0 -1
    outer loop
      vertex 25.2 19.2 12
      vertex 28.2 22.2 12
      vertex 28.2 19.2 12
    endloop
  endfacet
  facet normal -0 0 -1
    outer loop
      vertex 28.2 22.2 12
      vertex 25.2 19.2 12
      vertex 25.2 22.2 12
    endloop
  endfacet
  facet normal -1 0 0
    outer loop
      vertex 25.2 19.2 12
      vertex 25.2 22.2 13.8462
      vertex 25.2 22.2 12
    endloop
  endfacet
  facet normal -1 -0 0
    outer loop
      vertex 25.2 22.2 13.8462
      vertex 25.2 19.2 12
      vertex 25.2 19.2 13.8462
    endloop
  endfacet
  facet normal 0 1 -0
    outer loop
      vertex 28.2 22.2 12
      vertex 25.2 22.2 13.8462
      vertex 28.2 22.2 13.8462
    endloop
  endfacet
  facet normal 0 1 0
    outer loop
      vertex 25.2 22.2 13.8462
      vertex 28.2 22.2 12
      vertex 25.2 22.2 12
    endloop
  endfacet
  facet normal 0 -1 0
    outer loop
      vertex 25.2 19.2 12
      vertex 28.2 19.2 13.8462
      vertex 25.2 19.2 13.8462
    endloop
  endfacet
  facet normal 0 -1 -0
    outer loop
      vertex 28.2 19.2 13.8462
      vertex 25.2 19.2 12
      vertex 28.2 19.2 12
    endloop
  endfacet
  facet normal 1 -0 0
    outer loop
      vertex 31.2 13.2 15.6923
      vertex 31.2 16.2 12
      vertex 31.2 16.2 15.6923
    endloop
  endfacet
  facet normal 1 0 0
    outer loop
      vertex 31.2 16.2 12
      vertex 31.2 13.2 15.6923
      vertex 31.2 13.2 12
    endloop
  endfacet
  facet normal -0 0 1
    outer loop
      vertex 28.2 16.2 15.6923
      vertex 31.2 13.2 15.6923
      vertex 31.2 16.2 15.6923
    endloop
  endfacet
  facet normal 0 0 1
    outer loop
      vertex 31.2 13.2 15.6923
      vertex 28.2 16.2 15.6923
      vertex 28.2 13.2 15.6923
    endloop
  endfacet
  facet normal 0 0 -1
    outer loop
      vertex 28.2 13.2 12
      vertex 31.2 16.2 12
      vertex 31.2 13.2 12
    endloop
  endfacet
  facet normal -0 0 -1
    outer loop
      vertex 31.2 16.2 12
      vertex 28.2 13.2 12
      vertex 28.2 16.2 12
    endloop
  endfacet
  facet normal -1 0 0
    outer loop
      vertex 28.2 13.2 12
      vertex 28.2 16.2 15.6923
      vertex 28.2 16.2 12
    endloop
  endfacet
  facet normal -1 -0 0
    outer loop
      vertex 28.2 16.2 15.6923
      vertex 28.2 13.2 12
      vertex 28.2 13.2 15.6923
    endloop
  endfacet
  facet normal 0 1 -0
    outer loop
      vertex 31.2 16.2 12
      vertex 28.2 16.2 15.6923
      vertex 31.2 16.2 15.6923
    endloop
  endfacet
  facet normal 0 1 0
    outer loop
      vertex 28.2 16.2 15.6923
      vertex 31.2 16.2 12
      vertex 28.2 16.2 12
    endloop
  endfacet
  facet normal 0 -1 0
    outer loop
      vertex 28.2 13.2 12
      vertex 31.2 13.2 15.6923
      vertex 28.2 13.2 15.6923
    endloop
  endfacet
  facet normal 0 -1 -0
    outer loop
      vertex 31.2 13.2 15.6923
      vertex 28.2 13.2 12
      vertex 31.2 13.2 12
    endloop
  endfacet
  facet normal 1 -0 0
    outer loop
      vertex 43.2 19.2 15.6923
      vertex 43.2 22.2 13.8462
      vertex 43.2 22.2 15.6923
    endloop
  endfacet
  facet normal 1 0 0
    outer loop
      vertex 43.2 19.2 12
      vertex 43.2 22.2 13.8462
      vertex 43.2 19.2 15.6923
    endloop
  endfacet
  facet normal 1 0 0
    outer loop
      vertex 43.2 22.2 13.8462
      vertex 43.2 19.2 12
      vertex 43.2 22.2 12
    endloop
  endfacet
  facet normal -0 0 1
    outer loop
      vertex 40.2 22.2 15.6923
      vertex 43.2 19.2 15.6923
      vertex 43.2 22.2 15.6923
    endloop
  endfacet
  facet normal 0 0 1
    outer loop
      vertex 43.2 19.2 15.6923
      vertex 40.2 22.2 15.6923
      vertex 40.2 19.2 15.6923
    endloop
  endfacet
  facet normal 0 0 -1
    outer loop
      vertex 40.2 19.2 12
      vertex 43.2 22.2 12
      vertex 43.2 19.2 12
    endloop
  endfacet
  facet normal -0 0 -1
    outer loop
      vertex 43.2 22.2 12
      vertex 40.2 19.2 12
      vertex 40.2 22.2 12
    endloop
  endfacet
  facet normal -1 0 0
    outer loop
      vertex 40.2 19.2 12
      vertex 40.2 22.2 15.6923
      vertex 40.2 22.2 12
    endloop
  endfacet
  facet normal -1 -0 0
    outer loop
      vertex 40.2 22.2 15.6923
      vertex 40.2 19.2 12
      vertex 40.2 19.2 15.6923
    endloop
  endfacet
  facet normal 0 1 -0
    outer loop
      vertex 43.2 22.2 13.8462
      vertex 40.2 22.2 15.6923
      vertex 43.2 22.2 15.6923
    endloop
  endfacet
  facet normal 0 1 0
    outer loop
      vertex 40.2 22.2 12
      vertex 43.2 22.2 13.8462
      vertex 43.2 22.2 12
    endloop
  endfacet
  facet normal 0 1 0
    outer loop
      vertex 43.2 22.2 13.8462
      vertex 40.2 22.2 12
      vertex 40.2 22.2 15.6923
    endloop
  endfacet
  facet normal 0 -1 0
    outer loop
      vertex 40.2 19.2 12
      vertex 43.2 19.2 15.6923
      vertex 40.2 19.2 15.6923
    endloop
  endfacet
  facet normal 0 -1 -0
    outer loop
      vertex 43.2 19.2 15.6923
      vertex 40.2 19.2 12
      vertex 43.2 19.2 12
    endloop
  endfacet
  facet normal 1 -0 0
    outer loop
      vertex 46.2 22.2 13.8462
      vertex 46.2 25.2 12
      vertex 46.2 25.2 13.8462
    endloop
  endfacet
  facet normal 1 0 0
    outer loop
      vertex 46.2 25.2 12
      vertex 46.2 22.2 13.8462
      vertex 46.2 22.2 12
    endloop
  endfacet
  facet normal -0 0 1
    outer loop
      vertex 43.2 25.2 13.8462
      vertex 46.2 22.2 13.8462
      vertex 46.2 25.2 13.8462
    endloop
  endfacet
  facet normal 0 0 1
    outer loop
      vertex 46.2 22.2 13.8462
      vertex 43.2 25.2 13.8462
      vertex 43.2 22.2 13.8462
    endloop
  endfacet
  facet normal 0 0 -1
    outer loop
      vertex 43.2 22.2 12
      vertex 46.2 25.2 12
      vertex 46.2 22.2 12
    endloop
  endfacet
  facet normal -0 0 -1
    outer loop
      vertex 46.2 25.2 12
      vertex 43.2 22.2 12
      vertex 43.2 25.2 12
    endloop
  endfacet
  facet normal -1 0 0
    outer loop
      vertex 43.2 22.2 12
      vertex 43.2 25.2 13.8462
      vertex 43.2 25.2 12
    endloop
  endfacet
  facet normal -1 -0 0
    outer loop
      vertex 43.2 25.2 13.8462
      vertex 43.2 22.2 12
      vertex 43.2 22.2 13.8462
    endloop
  endfacet
  facet normal 0 1 -0
    outer loop
      vertex 46.2 25.2 12
      vertex 43.2 25.2 13.8462
      vertex 46.2 25.2 13.8462
    endloop
  endfacet
  facet normal 0 1 0
    outer loop
      vertex 43.2 25.2 13.8462
      vertex 46.2 25.2 12
      vertex 43.2 25.2 12
    endloop
  endfacet
  facet normal 0 -1 0
    outer loop
      vertex 43.2 22.2 12
      vertex 46.2 22.2 13.8462
      vertex 43.2 22.2 13.8462
    endloop
  endfacet
  facet normal 0 -1 -0
    outer loop
      vertex 46.2 22.2 13.8462
      vertex 43.2 22.2 12
      vertex 46.2 22.2 12
    endloop
  endfacet
  facet normal -0 0 1
    outer loop
      vertex 46.2 13.2 15.6923
      vertex 52.2 10.2 15.6923
      vertex 52.2 13.2 15.6923
    endloop
  endfacet
  facet normal 0 0 1
    outer loop
      vertex 52.2 10.2 15.6923
      vertex 46.2 13.2 15.6923
      vertex 46.2 10.2 15.6923
    endloop
  endfacet
  facet normal 0 0 -1
    outer loop
      vertex 46.2 10.2 12
      vertex 52.2 13.2 12
      vertex 52.2 10.2 12
    endloop
  endfacet
  facet normal -0 0 -1
    outer loop
      vertex 52.2 13.2 12
      vertex 46.2 10.2 12
      vertex 46.2 13.2 12
    endloop
  endfacet
  facet normal -1 0 0
    outer loop
      vertex 46.2 10.2 12
      vertex 46.2 13.2 15.6923
      vertex 46.2 13.2 12
    endloop
  endfacet
  facet normal -1 -0 0
    outer loop
      vertex 46.2 13.2 15.6923
      vertex 46.2 10.2 12
      vertex 46.2 10.2 15.6923
    endloop
  endfacet
  facet normal 0 1 -0
    outer loop
      vertex 52.2 13.2 12
      vertex 46.2 13.2 15.6923
      vertex 52.2 13.2 15.6923
    endloop
  endfacet
  facet normal 0 1 0
    outer loop
      vertex 46.2 13.2 15.6923
      vertex 52.2 13.2 12
      vertex 46.2 13.2 12
    endloop
  endfacet
  facet normal 0 -1 0
    outer loop
      vertex 46.2 10.2 12
      vertex 52.2 10.2 15.6923
      vertex 46.2 10.2 15.6923
    endloop
  endfacet
  facet normal 0 -1 -0
    outer loop
      vertex 52.2 10.2 15.6923
      vertex 46.2 10.2 12
      vertex 52.2 10.2 12
    endloop
  endfacet
  facet normal 1 -0 0
    outer loop
      vertex 52.2 10.2 15.6923
      vertex 52.2 13.2 12
      vertex 52.2 13.2 15.6923
    endloop
  endfacet
  facet normal 1 0 0
    outer loop
      vertex 52.2 13.2 12
      vertex 52.2 10.2 15.6923
      vertex 52.2 10.2 12
    endloop
  endfacet
  facet normal 1 -0 0
    outer loop
      vertex 52.2 19.2 15.6923
      vertex 52.2 22.2 13.8462
      vertex 52.2 22.2 15.6923
    endloop
  endfacet
  facet normal 1 0 0
    outer loop
      vertex 52.2 19.2 12
      vertex 52.2 22.2 13.8462
      vertex 52.2 19.2 15.6923
    endloop
  endfacet
  facet normal 1 0 0
    outer loop
      vertex 52.2 22.2 13.8462
      vertex 52.2 19.2 12
      vertex 52.2 22.2 12
    endloop
  endfacet
  facet normal -0 0 1
    outer loop
      vertex 49.2 22.2 15.6923
      vertex 52.2 19.2 15.6923
      vertex 52.2 22.2 15.6923
    endloop
  endfacet
  facet normal 0 0 1
    outer loop
      vertex 52.2 19.2 15.6923
      vertex 49.2 22.2 15.6923
      vertex 49.2 19.2 15.6923
    endloop
  endfacet
  facet normal 0 0 -1
    outer loop
      vertex 49.2 19.2 12
      vertex 52.2 22.2 12
      vertex 52.2 19.2 12
    endloop
  endfacet
  facet normal -0 0 -1
    outer loop
      vertex 52.2 22.2 12
      vertex 49.2 19.2 12
      vertex 49.2 22.2 12
    endloop
  endfacet
  facet normal -1 0 0
    outer loop
      vertex 49.2 19.2 12
      vertex 49.2 22.2 15.6923
      vertex 49.2 22.2 12
    endloop
  endfacet
  facet normal -1 -0 0
    outer loop
      vertex 49.2 22.2 15.6923
      vertex 49.2 19.2 12
      vertex 49.2 19.2 15.6923
    endloop
  endfacet
  facet normal 0 1 -0
    outer loop
      vertex 52.2 22.2 13.8462
      vertex 49.2 22.2 15.6923
      vertex 52.2 22.2 15.6923
    endloop
  endfacet
  facet normal 0 1 0
    outer loop
      vertex 49.2 22.2 12
      vertex 52.2 22.2 13.8462
      vertex 52.2 22.2 12
    endloop
  endfacet
  facet normal 0 1 0
    outer loop
      vertex 52.2 22.2 13.8462
      vertex 49.2 22.2 12
      vertex 49.2 22.2 15.6923
    endloop
  endfacet
  facet normal 0 -1 0
    outer loop
      vertex 49.2 19.2 12
      vertex 52.2 19.2 15.6923
      vertex 49.2 19.2 15.6923
    endloop
  endfacet
  facet normal 0 -1 -0
    outer loop
      vertex 52.2 19.2 15.6923
      vertex 49.2 19.2 12
      vertex 52.2 19.2 12
    endloop
  endfacet
  facet normal -1 0 0
    outer loop
      vertex 55.2 22.2 13.8462
      vertex 55.2 25.2 23.0769
      vertex 55.2 25.2 13.8462
    endloop
  endfacet
  facet normal -1 -0 0
    outer loop
      vertex 55.2 25.2 23.0769
      vertex 55.2 22.2 13.8462
      vertex 55.2 22.2 23.0769
    endloop
  endfacet
  facet normal -0 0 1
    outer loop
      vertex 52.2 25.2 13.8462
      vertex 55.2 22.2 13.8462
      vertex 55.2 25.2 13.8462
    endloop
  endfacet
  facet normal 0 0 1
    outer loop
      vertex 55.2 22.2 13.8462
      vertex 52.2 25.2 13.8462
      vertex 52.2 22.2 13.8462
    endloop
  endfacet
  facet normal 0 0 -1
    outer loop
      vertex 61.2 22.2 12
      vertex 64.2 19.2 12
      vertex 61.2 19.2 12
    endloop
  endfacet
  facet normal 0 0 -1
    outer loop
      vertex 64.2 19.2 12
      vertex 61.2 22.2 12
      vertex 64.2 25.2 12
    endloop
  endfacet
  facet normal 0 0 -1
    outer loop
      vertex 52.2 25.2 12
      vertex 61.2 22.2 12
      vertex 52.2 22.2 12
    endloop
  endfacet
  facet normal 0 0 -1
    outer loop
      vertex 61.2 22.2 12
      vertex 52.2 25.2 12
      vertex 64.2 25.2 12
    endloop
  endfacet
  facet normal -1 0 0
    outer loop
      vertex 52.2 22.2 12
      vertex 52.2 25.2 13.8462
      vertex 52.2 25.2 12
    endloop
  endfacet
  facet normal -1 -0 0
    outer loop
      vertex 52.2 25.2 13.8462
      vertex 52.2 22.2 12
      vertex 52.2 22.2 13.8462
    endloop
  endfacet
  facet normal 0 1 -0
    outer loop
      vertex 64.2 25.2 12
      vertex 61.2 25.2 19.3846
      vertex 64.2 25.2 19.3846
    endloop
  endfacet
  facet normal 0 1 0
    outer loop
      vertex 61.2 25.2 19.3846
      vertex 64.2 25.2 12
      vertex 55.2 25.2 13.8462
    endloop
  endfacet
  facet normal 0 1 0
    outer loop
      vertex 52.2 25.2 12
      vertex 55.2 25.2 13.8462
      vertex 64.2 25.2 12
    endloop
  endfacet
  facet normal 0 1 0
    outer loop
      vertex 55.2 25.2 13.8462
      vertex 52.2 25.2 12
      vertex 52.2 25.2 13.8462
    endloop
  endfacet
  facet normal 0 1 -0
    outer loop
      vertex 61.2 25.2 19.3846
      vertex 55.2 25.2 23.0769
      vertex 61.2 25.2 23.0769
    endloop
  endfacet
  facet normal 0 1 0
    outer loop
      vertex 55.2 25.2 23.0769
      vertex 61.2 25.2 19.3846
      vertex 55.2 25.2 13.8462
    endloop
  endfacet
  facet normal 0 1 0
    outer loop
      vertex 64.2 22.2 24.9231
      vertex 61.2 22.2 23.0769
      vertex 61.2 22.2 24.9231
    endloop
  endfacet
  facet normal 0 1 -0
    outer loop
      vertex 64.2 22.2 19.3846
      vertex 61.2 22.2 23.0769
      vertex 64.2 22.2 24.9231
    endloop
  endfacet
  facet normal 0 1 0
    outer loop
      vertex 61.2 22.2 23.0769
      vertex 64.2 22.2 19.3846
      vertex 61.2 22.2 19.3846
    endloop
  endfacet
  facet normal 0 -1 0
    outer loop
      vertex 52.2 22.2 13.8462
      vertex 52.2 22.2 12
      vertex 55.2 22.2 13.8462
    endloop
  endfacet
  facet normal 0 -1 0
    outer loop
      vertex 55.2 22.2 23.0769
      vertex 61.2 22.2 19.3846
      vertex 61.2 22.2 23.0769
    endloop
  endfacet
  facet normal 0 -1 0
    outer loop
      vertex 55.2 22.2 13.8462
      vertex 61.2 22.2 19.3846
      vertex 55.2 22.2 23.0769
    endloop
  endfacet
  facet normal 0 -1 0
    outer loop
      vertex 55.2 22.2 13.8462
      vertex 61.2 22.2 12
      vertex 61.2 22.2 19.3846
    endloop
  endfacet
  facet normal 0 -1 0
    outer loop
      vertex 61.2 22.2 12
      vertex 55.2 22.2 13.8462
      vertex 52.2 22.2 12
    endloop
  endfacet
  facet normal -0 0 1
    outer loop
      vertex 58.2 13.2 15.6923
      vertex 61.2 10.2 15.6923
      vertex 61.2 13.2 15.6923
    endloop
  endfacet
  facet normal 0 0 1
    outer loop
      vertex 55.2 10.2 15.6923
      vertex 58.2 13.2 15.6923
      vertex 55.2 13.2 15.6923
    endloop
  endfacet
  facet normal 0 0 1
    outer loop
      vertex 58.2 13.2 15.6923
      vertex 55.2 10.2 15.6923
      vertex 61.2 10.2 15.6923
    endloop
  endfacet
  facet normal 0 0 -1
    outer loop
      vertex 64.2 10.2 12
      vertex 58.2 13.2 12
      vertex 64.2 13.2 12
    endloop
  endfacet
  facet normal 0 0 -1
    outer loop
      vertex 55.2 10.2 12
      vertex 58.2 13.2 12
      vertex 64.2 10.2 12
    endloop
  endfacet
  facet normal -0 0 -1
    outer loop
      vertex 58.2 13.2 12
      vertex 55.2 10.2 12
      vertex 55.2 13.2 12
    endloop
  endfacet
  facet normal 0 0 -1
    outer loop
      vertex 76.2 13.2 12
      vertex 73.2 16.2 12
      vertex 76.2 16.2 12
    endloop
  endfacet
  facet normal 0 0 -1
    outer loop
      vertex 70.2 13.2 12
      vertex 73.2 16.2 12
      vertex 76.2 13.2 12
    endloop
  endfacet
  facet normal 0 0 -1
    outer loop
      vertex 70.2 16.2 12
      vertex 73.2 16.2 12
      vertex 70.2 13.2 12
    endloop
  endfacet
  facet normal 0 0 -1
    outer loop
      vertex 73.2 16.2 12
      vertex 70.2 16.2 12
      vertex 73.2 19.2 12
    endloop
  endfacet
  facet normal -0 0 -1
    outer loop
      vertex 73.2 19.2 12
      vertex 70.2 16.2 12
      vertex 70.2 19.2 12
    endloop
  endfacet
  facet normal 0 0 -1
    outer loop
      vertex 67.2 13.2 12
      vertex 70.2 13.2 12
      vertex 70.2 10.2 12
    endloop
  endfacet
  facet normal 0 0 -1
    outer loop
      vertex 67.2 13.2 12
      vertex 70.2 10.2 12
      vertex 67.2 10.2 12
    endloop
  endfacet
  facet normal 0 0 -1
    outer loop
      vertex 70.2 13.2 12
      vertex 67.2 13.2 12
      vertex 70.2 16.2 12
    endloop
  endfacet
  facet normal 0 0 -1
    outer loop
      vertex 64.2 13.2 12
      vertex 70.2 16.2 12
      vertex 67.2 13.2 12
    endloop
  endfacet
  facet normal 0 0 -1
    outer loop
      vertex 58.2 16.2 12
      vertex 64.2 13.2 12
      vertex 58.2 13.2 12
    endloop
  endfacet
  facet normal 0 0 -1
    outer loop
      vertex 64.2 13.2 12
      vertex 58.2 16.2 12
      vertex 70.2 16.2 12
    endloop
  endfacet
  facet normal -1 0 0
    outer loop
      vertex 55.2 10.2 12
      vertex 55.2 13.2 15.6923
      vertex 55.2 13.2 12
    endloop
  endfacet
  facet normal -1 -0 0
    outer loop
      vertex 55.2 13.2 15.6923
      vertex 55.2 10.2 12
      vertex 55.2 10.2 15.6923
    endloop
  endfacet
  facet normal 0 1 -0
    outer loop
      vertex 58.2 13.2 12
      vertex 55.2 13.2 15.6923
      vertex 58.2 13.2 15.6923
    endloop
  endfacet
  facet normal 0 1 0
    outer loop
      vertex 55.2 13.2 15.6923
      vertex 58.2 13.2 12
      vertex 55.2 13.2 12
    endloop
  endfacet
  facet normal 0 -1 0
    outer loop
      vertex 55.2 10.2 15.6923
      vertex 55.2 10.2 12
      vertex 61.2 10.2 15.6923
    endloop
  endfacet
  facet normal 0 -1 0
    outer loop
      vertex 61.2 10.2 15.6923
      vertex 64.2 10.2 26.7692
      vertex 61.2 10.2 26.7692
    endloop
  endfacet
  facet normal 0 -1 0
    outer loop
      vertex 61.2 10.2 15.6923
      vertex 64.2 10.2 12
      vertex 64.2 10.2 26.7692
    endloop
  endfacet
  facet normal 0 -1 0
    outer loop
      vertex 64.2 10.2 12
      vertex 61.2 10.2 15.6923
      vertex 55.2 10.2 12
    endloop
  endfacet
  facet normal -0 0 1
    outer loop
      vertex 55.2 25.2 23.0769
      vertex 61.2 22.2 23.0769
      vertex 61.2 25.2 23.0769
    endloop
  endfacet
  facet normal 0 0 1
    outer loop
      vertex 61.2 22.2 23.0769
      vertex 55.2 25.2 23.0769
      vertex 55.2 22.2 23.0769
    endloop
  endfacet
  facet normal -1 0 0
    outer loop
      vertex 61.2 10.2 15.6923
      vertex 61.2 13.2 26.7692
      vertex 61.2 13.2 15.6923
    endloop
  endfacet
  facet normal -1 -0 0
    outer loop
      vertex 61.2 13.2 26.7692
      vertex 61.2 10.2 15.6923
      vertex 61.2 10.2 26.7692
    endloop
  endfacet
  facet normal 0 -1 0
    outer loop
      vertex 61.2 13.2 34.1538
      vertex 64.2 13.2 28.6154
      vertex 64.2 13.2 34.1538
    endloop
  endfacet
  facet normal 0 -1 0
    outer loop
      vertex 61.2 13.2 26.7692
      vertex 64.2 13.2 28.6154
      vertex 61.2 13.2 34.1538
    endloop
  endfacet
  facet normal 0 -1 0
    outer loop
      vertex 64.2 13.2 26.7692
      vertex 64.2 13.2 28.6154
      vertex 61.2 13.2 26.7692
    endloop
  endfacet
  facet normal 0 -1 0
    outer loop
      vertex 64.2 13.2 28.6154
      vertex 64.2 13.2 26.7692
      vertex 67.2 13.2 28.6154
    endloop
  endfacet
  facet normal 0 -1 0
    outer loop
      vertex 64.2 13.2 26.7692
      vertex 67.2 13.2 17.5385
      vertex 67.2 13.2 28.6154
    endloop
  endfacet
  facet normal 0 -1 0
    outer loop
      vertex 67.2 13.2 17.5385
      vertex 67.2 13.2 15.6923
      vertex 70.2 13.2 17.5385
    endloop
  endfacet
  facet normal 0 -1 0
    outer loop
      vertex 64.2 13.2 12
      vertex 67.2 13.2 17.5385
      vertex 64.2 13.2 26.7692
    endloop
  endfacet
  facet normal 0 -1 -0
    outer loop
      vertex 67.2 13.2 17.5385
      vertex 64.2 13.2 12
      vertex 67.2 13.2 15.6923
    endloop
  endfacet
  facet normal 0 -1 -0
    outer loop
      vertex 67.2 13.2 15.6923
      vertex 64.2 13.2 12
      vertex 67.2 13.2 12
    endloop
  endfacet
  facet normal 0 -1 -0
    outer loop
      vertex 70.2 13.2 17.5385
      vertex 67.2 13.2 15.6923
      vertex 70.2 13.2 15.6923
    endloop
  endfacet
  facet normal 0 -1 0
    outer loop
      vertex 58.2 13.2 15.6923
      vertex 61.2 13.2 26.7692
      vertex 58.2 13.2 26.7692
    endloop
  endfacet
  facet normal 0 -1 -0
    outer loop
      vertex 61.2 13.2 26.7692
      vertex 58.2 13.2 15.6923
      vertex 61.2 13.2 15.6923
    endloop
  endfacet
  facet normal 0 -1 0
    outer loop
      vertex 70.2 13.2 15.6923
      vertex 70.2 13.2 12
      vertex 73.2 13.2 15.6923
    endloop
  endfacet
  facet normal 0 -1 0
    outer loop
      vertex 73.2 13.2 15.6923
      vertex 76.2 13.2 17.5385
      vertex 73.2 13.2 17.5385
    endloop
  endfacet
  facet normal 0 -1 0
    outer loop
      vertex 76.2 13.2 12
      vertex 73.2 13.2 15.6923
      vertex 70.2 13.2 12
    endloop
  endfacet
  facet normal 0 -1 0
    outer loop
      vertex 73.2 13.2 15.6923
      vertex 76.2 13.2 12
      vertex 76.2 13.2 17.5385
    endloop
  endfacet
  facet normal -1 0 0
    outer loop
      vertex 61.2 13.2 26.7692
      vertex 61.2 16.2 34.1538
      vertex 61.2 16.2 26.7692
    endloop
  endfacet
  facet normal -1 -0 0
    outer loop
      vertex 61.2 16.2 34.1538
      vertex 61.2 13.2 26.7692
      vertex 61.2 13.2 34.1538
    endloop
  endfacet
  facet normal -0 0 1
    outer loop
      vertex 58.2 16.2 26.7692
      vertex 61.2 13.2 26.7692
      vertex 61.2 16.2 26.7692
    endloop
  endfacet
  facet normal 0 0 1
    outer loop
      vertex 61.2 13.2 26.7692
      vertex 58.2 16.2 26.7692
      vertex 58.2 13.2 26.7692
    endloop
  endfacet
  facet normal -1 0 0
    outer loop
      vertex 58.2 13.2 15.6923
      vertex 58.2 16.2 12
      vertex 58.2 13.2 12
    endloop
  endfacet
  facet normal -1 0 0
    outer loop
      vertex 58.2 16.2 12
      vertex 58.2 13.2 15.6923
      vertex 58.2 16.2 26.7692
    endloop
  endfacet
  facet normal -1 -0 0
    outer loop
      vertex 58.2 16.2 26.7692
      vertex 58.2 13.2 15.6923
      vertex 58.2 13.2 26.7692
    endloop
  endfacet
  facet normal 0 1 0
    outer loop
      vertex 70.2 16.2 17.5385
      vertex 70.2 16.2 15.6923
      vertex 67.2 16.2 17.5385
    endloop
  endfacet
  facet normal 0 1 -0
    outer loop
      vertex 67.2 16.2 17.5385
      vertex 64.2 16.2 28.6154
      vertex 67.2 16.2 28.6154
    endloop
  endfacet
  facet normal 0 1 0
    outer loop
      vertex 64.2 16.2 28.6154
      vertex 67.2 16.2 17.5385
      vertex 61.2 16.2 26.7692
    endloop
  endfacet
  facet normal 0 1 0
    outer loop
      vertex 58.2 16.2 12
      vertex 61.2 16.2 26.7692
      vertex 67.2 16.2 17.5385
    endloop
  endfacet
  facet normal 0 1 -0
    outer loop
      vertex 70.2 16.2 12
      vertex 67.2 16.2 17.5385
      vertex 70.2 16.2 15.6923
    endloop
  endfacet
  facet normal 0 1 0
    outer loop
      vertex 58.2 16.2 12
      vertex 67.2 16.2 17.5385
      vertex 70.2 16.2 12
    endloop
  endfacet
  facet normal 0 1 0
    outer loop
      vertex 61.2 16.2 26.7692
      vertex 58.2 16.2 12
      vertex 58.2 16.2 26.7692
    endloop
  endfacet
  facet normal 0 1 -0
    outer loop
      vertex 64.2 16.2 28.6154
      vertex 61.2 16.2 34.1538
      vertex 64.2 16.2 34.1538
    endloop
  endfacet
  facet normal 0 1 0
    outer loop
      vertex 61.2 16.2 34.1538
      vertex 64.2 16.2 28.6154
      vertex 61.2 16.2 26.7692
    endloop
  endfacet
  facet normal 0 -1 0
    outer loop
      vertex 70.2 16.2 17.5385
      vertex 73.2 16.2 21.2308
      vertex 70.2 16.2 21.2308
    endloop
  endfacet
  facet normal 0 -1 0
    outer loop
      vertex 70.2 16.2 17.5385
      vertex 73.2 16.2 17.5385
      vertex 73.2 16.2 21.2308
    endloop
  endfacet
  facet normal 0 -1 0
    outer loop
      vertex 70.2 16.2 15.6923
      vertex 73.2 16.2 17.5385
      vertex 70.2 16.2 17.5385
    endloop
  endfacet
  facet normal 0 -1 -0
    outer loop
      vertex 73.2 16.2 17.5385
      vertex 70.2 16.2 15.6923
      vertex 73.2 16.2 15.6923
    endloop
  endfacet
  facet normal 1 -0 0
    outer loop
      vertex 61.2 22.2 23.0769
      vertex 61.2 25.2 19.3846
      vertex 61.2 25.2 23.0769
    endloop
  endfacet
  facet normal 1 0 0
    outer loop
      vertex 61.2 25.2 19.3846
      vertex 61.2 22.2 23.0769
      vertex 61.2 22.2 19.3846
    endloop
  endfacet
  facet normal 1 -0 0
    outer loop
      vertex 64.2 10.2 26.7692
      vertex 64.2 13.2 12
      vertex 64.2 13.2 26.7692
    endloop
  endfacet
  facet normal 1 0 0
    outer loop
      vertex 64.2 13.2 12
      vertex 64.2 10.2 26.7692
      vertex 64.2 10.2 12
    endloop
  endfacet
  facet normal -0 0 1
    outer loop
      vertex 61.2 13.2 26.7692
      vertex 64.2 10.2 26.7692
      vertex 64.2 13.2 26.7692
    endloop
  endfacet
  facet normal 0 0 1
    outer loop
      vertex 64.2 10.2 26.7692
      vertex 61.2 13.2 26.7692
      vertex 61.2 10.2 26.7692
    endloop
  endfacet
  facet normal 1 -0 0
    outer loop
      vertex 64.2 13.2 34.1538
      vertex 64.2 16.2 28.6154
      vertex 64.2 16.2 34.1538
    endloop
  endfacet
  facet normal 1 0 0
    outer loop
      vertex 64.2 16.2 28.6154
      vertex 64.2 13.2 34.1538
      vertex 64.2 13.2 28.6154
    endloop
  endfacet
  facet normal -0 0 1
    outer loop
      vertex 61.2 16.2 34.1538
      vertex 64.2 13.2 34.1538
      vertex 64.2 16.2 34.1538
    endloop
  endfacet
  facet normal 0 0 1
    outer loop
      vertex 64.2 13.2 34.1538
      vertex 61.2 16.2 34.1538
      vertex 61.2 13.2 34.1538
    endloop
  endfacet
  facet normal 1 0 0
    outer loop
      vertex 64.2 22.2 24.9231
      vertex 64.2 19.2 24.9231
      vertex 64.2 22.2 19.3846
    endloop
  endfacet
  facet normal 1 -0 0
    outer loop
      vertex 64.2 22.2 19.3846
      vertex 64.2 25.2 12
      vertex 64.2 25.2 19.3846
    endloop
  endfacet
  facet normal 1 0 0
    outer loop
      vertex 64.2 19.2 12
      vertex 64.2 22.2 19.3846
      vertex 64.2 19.2 24.9231
    endloop
  endfacet
  facet normal 1 0 0
    outer loop
      vertex 64.2 22.2 19.3846
      vertex 64.2 19.2 12
      vertex 64.2 25.2 12
    endloop
  endfacet
  facet normal -0 0 1
    outer loop
      vertex 61.2 22.2 24.9231
      vertex 64.2 19.2 24.9231
      vertex 64.2 22.2 24.9231
    endloop
  endfacet
  facet normal 0 0 1
    outer loop
      vertex 64.2 19.2 24.9231
      vertex 61.2 22.2 24.9231
      vertex 61.2 19.2 24.9231
    endloop
  endfacet
  facet normal -1 0 0
    outer loop
      vertex 61.2 19.2 12
      vertex 61.2 22.2 19.3846
      vertex 61.2 22.2 12
    endloop
  endfacet
  facet normal -1 0 0
    outer loop
      vertex 61.2 19.2 24.9231
      vertex 61.2 22.2 19.3846
      vertex 61.2 19.2 12
    endloop
  endfacet
  facet normal -1 0 0
    outer loop
      vertex 61.2 22.2 19.3846
      vertex 61.2 19.2 24.9231
      vertex 61.2 22.2 23.0769
    endloop
  endfacet
  facet normal -1 0 0
    outer loop
      vertex 61.2 22.2 23.0769
      vertex 61.2 19.2 24.9231
      vertex 61.2 22.2 24.9231
    endloop
  endfacet
  facet normal 0 -1 0
    outer loop
      vertex 61.2 19.2 12
      vertex 64.2 19.2 24.9231
      vertex 61.2 19.2 24.9231
    endloop
  endfacet
  facet normal 0 -1 -0
    outer loop
      vertex 64.2 19.2 24.9231
      vertex 61.2 19.2 12
      vertex 64.2 19.2 12
    endloop
  endfacet
  facet normal -0 0 1
    outer loop
      vertex 61.2 25.2 19.3846
      vertex 64.2 22.2 19.3846
      vertex 64.2 25.2 19.3846
    endloop
  endfacet
  facet normal 0 0 1
    outer loop
      vertex 64.2 22.2 19.3846
      vertex 61.2 25.2 19.3846
      vertex 61.2 22.2 19.3846
    endloop
  endfacet
  facet normal 1 -0 0
    outer loop
      vertex 67.2 13.2 28.6154
      vertex 67.2 16.2 17.5385
      vertex 67.2 16.2 28.6154
    endloop
  endfacet
  facet normal 1 0 0
    outer loop
      vertex 67.2 16.2 17.5385
      vertex 67.2 13.2 28.6154
      vertex 67.2 13.2 17.5385
    endloop
  endfacet
  facet normal -0 0 1
    outer loop
      vertex 64.2 16.2 28.6154
      vertex 67.2 13.2 28.6154
      vertex 67.2 16.2 28.6154
    endloop
  endfacet
  facet normal 0 0 1
    outer loop
      vertex 67.2 13.2 28.6154
      vertex 64.2 16.2 28.6154
      vertex 64.2 13.2 28.6154
    endloop
  endfacet
  facet normal 1 -0 0
    outer loop
      vertex 70.2 10.2 15.6923
      vertex 70.2 13.2 12
      vertex 70.2 13.2 15.6923
    endloop
  endfacet
  facet normal 1 0 0
    outer loop
      vertex 70.2 13.2 12
      vertex 70.2 10.2 15.6923
      vertex 70.2 10.2 12
    endloop
  endfacet
  facet normal -0 0 1
    outer loop
      vertex 67.2 13.2 15.6923
      vertex 70.2 10.2 15.6923
      vertex 70.2 13.2 15.6923
    endloop
  endfacet
  facet normal 0 0 1
    outer loop
      vertex 70.2 10.2 15.6923
      vertex 67.2 13.2 15.6923
      vertex 67.2 10.2 15.6923
    endloop
  endfacet
  facet normal -1 0 0
    outer loop
      vertex 67.2 10.2 12
      vertex 67.2 13.2 15.6923
      vertex 67.2 13.2 12
    endloop
  endfacet
  facet normal -1 -0 0
    outer loop
      vertex 67.2 13.2 15.6923
      vertex 67.2 10.2 12
      vertex 67.2 10.2 15.6923
    endloop
  endfacet
  facet normal 0 -1 0
    outer loop
      vertex 67.2 10.2 12
      vertex 70.2 10.2 15.6923
      vertex 67.2 10.2 15.6923
    endloop
  endfacet
  facet normal 0 -1 -0
    outer loop
      vertex 70.2 10.2 15.6923
      vertex 67.2 10.2 12
      vertex 70.2 10.2 12
    endloop
  endfacet
  facet normal 1 -0 0
    outer loop
      vertex 70.2 13.2 17.5385
      vertex 70.2 16.2 15.6923
      vertex 70.2 16.2 17.5385
    endloop
  endfacet
  facet normal 1 0 0
    outer loop
      vertex 70.2 16.2 15.6923
      vertex 70.2 13.2 17.5385
      vertex 70.2 13.2 15.6923
    endloop
  endfacet
  facet normal -0 0 1
    outer loop
      vertex 67.2 16.2 17.5385
      vertex 70.2 13.2 17.5385
      vertex 70.2 16.2 17.5385
    endloop
  endfacet
  facet normal 0 0 1
    outer loop
      vertex 70.2 13.2 17.5385
      vertex 67.2 16.2 17.5385
      vertex 67.2 13.2 17.5385
    endloop
  endfacet
  facet normal -1 0 0
    outer loop
      vertex 73.2 13.2 15.6923
      vertex 73.2 16.2 17.5385
      vertex 73.2 16.2 15.6923
    endloop
  endfacet
  facet normal -1 -0 0
    outer loop
      vertex 73.2 16.2 17.5385
      vertex 73.2 13.2 15.6923
      vertex 73.2 13.2 17.5385
    endloop
  endfacet
  facet normal -0 0 1
    outer loop
      vertex 70.2 16.2 15.6923
      vertex 73.2 13.2 15.6923
      vertex 73.2 16.2 15.6923
    endloop
  endfacet
  facet normal 0 0 1
    outer loop
      vertex 73.2 13.2 15.6923
      vertex 70.2 16.2 15.6923
      vertex 70.2 13.2 15.6923
    endloop
  endfacet
  facet normal 1 0 0
    outer loop
      vertex 73.2 16.2 17.5385
      vertex 73.2 19.2 21.2308
      vertex 73.2 16.2 21.2308
    endloop
  endfacet
  facet normal 1 0 0
    outer loop
      vertex 73.2 19.2 21.2308
      vertex 73.2 16.2 17.5385
      vertex 73.2 19.2 12
    endloop
  endfacet
  facet normal 1 -0 0
    outer loop
      vertex 73.2 16.2 15.6923
      vertex 73.2 19.2 12
      vertex 73.2 16.2 17.5385
    endloop
  endfacet
  facet normal 1 0 0
    outer loop
      vertex 73.2 19.2 12
      vertex 73.2 16.2 15.6923
      vertex 73.2 16.2 12
    endloop
  endfacet
  facet normal -0 0 1
    outer loop
      vertex 70.2 19.2 21.2308
      vertex 73.2 16.2 21.2308
      vertex 73.2 19.2 21.2308
    endloop
  endfacet
  facet normal 0 0 1
    outer loop
      vertex 73.2 16.2 21.2308
      vertex 70.2 19.2 21.2308
      vertex 70.2 16.2 21.2308
    endloop
  endfacet
  facet normal -1 0 0
    outer loop
      vertex 70.2 16.2 15.6923
      vertex 70.2 19.2 12
      vertex 70.2 16.2 12
    endloop
  endfacet
  facet normal -1 0 0
    outer loop
      vertex 70.2 19.2 12
      vertex 70.2 16.2 15.6923
      vertex 70.2 19.2 21.2308
    endloop
  endfacet
  facet normal -1 0 0
    outer loop
      vertex 70.2 16.2 17.5385
      vertex 70.2 19.2 21.2308
      vertex 70.2 16.2 15.6923
    endloop
  endfacet
  facet normal -1 -0 0
    outer loop
      vertex 70.2 19.2 21.2308
      vertex 70.2 16.2 17.5385
      vertex 70.2 16.2 21.2308
    endloop
  endfacet
  facet normal 0 1 -0
    outer loop
      vertex 73.2 19.2 12
      vertex 70.2 19.2 21.2308
      vertex 73.2 19.2 21.2308
    endloop
  endfacet
  facet normal 0 1 0
    outer loop
      vertex 70.2 19.2 21.2308
      vertex 73.2 19.2 12
      vertex 70.2 19.2 12
    endloop
  endfacet
  facet normal 1 -0 0
    outer loop
      vertex 76.2 13.2 17.5385
      vertex 76.2 16.2 12
      vertex 76.2 16.2 17.5385
    endloop
  endfacet
  facet normal 1 0 0
    outer loop
      vertex 76.2 16.2 12
      vertex 76.2 13.2 17.5385
      vertex 76.2 13.2 12
    endloop
  endfacet
  facet normal -0 0 1
    outer loop
      vertex 73.2 16.2 17.5385
      vertex 76.2 13.2 17.5385
      vertex 76.2 16.2 17.5385
    endloop
  endfacet
  facet normal 0 0 1
    outer loop
      vertex 76.2 13.2 17.5385
      vertex 73.2 16.2 17.5385
      vertex 73.2 13.2 17.5385
    endloop
  endfacet
  facet normal 0 1 0
    outer loop
      vertex 76.2 16.2 17.5385
      vertex 73.2 16.2 15.6923
      vertex 73.2 16.2 17.5385
    endloop
  endfacet
  facet normal 0 1 -0
    outer loop
      vertex 76.2 16.2 12
      vertex 73.2 16.2 15.6923
      vertex 76.2 16.2 17.5385
    endloop
  endfacet
  facet normal 0 1 0
    outer loop
      vertex 73.2 16.2 15.6923
      vertex 76.2 16.2 12
      vertex 73.2 16.2 12
    endloop
  endfacet
  facet normal 1 -0 0
    outer loop
      vertex 82.2 13.2 21.2308
      vertex 82.2 16.2 12
      vertex 82.2 16.2 21.2308
    endloop
  endfacet
  facet normal 1 0 0
    outer loop
      vertex 82.2 16.2 12
      vertex 82.2 13.2 21.2308
      vertex 82.2 13.2 12
    endloop
  endfacet
  facet normal -0 0 1
    outer loop
      vertex 79.2 16.2 21.2308
      vertex 82.2 13.2 21.2308
      vertex 82.2 16.2 21.2308
    endloop
  endfacet
  facet normal 0 0 1
    outer loop
      vertex 82.2 13.2 21.2308
      vertex 79.2 16.2 21.2308
      vertex 79.2 13.2 21.2308
    endloop
  endfacet
  facet normal 0 0 -1
    outer loop
      vertex 79.2 13.2 12
      vertex 82.2 16.2 12
      vertex 82.2 13.2 12
    endloop
  endfacet
  facet normal -0 0 -1
    outer loop
      vertex 82.2 16.2 12
      vertex 79.2 13.2 12
      vertex 79.2 16.2 12
    endloop
  endfacet
  facet normal -1 0 0
    outer loop
      vertex 79.2 13.2 12
      vertex 79.2 16.2 21.2308
      vertex 79.2 16.2 12
    endloop
  endfacet
  facet normal -1 -0 0
    outer loop
      vertex 79.2 16.2 21.2308
      vertex 79.2 13.2 12
      vertex 79.2 13.2 21.2308
    endloop
  endfacet
  facet normal 0 1 -0
    outer loop
      vertex 82.2 16.2 12
      vertex 79.2 16.2 21.2308
      vertex 82.2 16.2 21.2308
    endloop
  endfacet
  facet normal 0 1 0
    outer loop
      vertex 79.2 16.2 21.2308
      vertex 82.2 16.2 12
      vertex 79.2 16.2 12
    endloop
  endfacet
  facet normal 0 -1 0
    outer loop
      vertex 79.2 13.2 12
      vertex 82.2 13.2 21.2308
      vertex 79.2 13.2 21.2308
    endloop
  endfacet
  facet normal 0 -1 -0
    outer loop
      vertex 82.2 13.2 21.2308
      vertex 79.2 13.2 12
      vertex 82.2 13.2 12
    endloop
  endfacet
  facet normal 1 -0 0
    outer loop
      vertex 82.2 22.2 19.3846
      vertex 82.2 25.2 12
      vertex 82.2 25.2 19.3846
    endloop
  endfacet
  facet normal 1 0 0
    outer loop
      vertex 82.2 25.2 12
      vertex 82.2 22.2 19.3846
      vertex 82.2 22.2 12
    endloop
  endfacet
  facet normal -0 0 1
    outer loop
      vertex 79.2 25.2 19.3846
      vertex 82.2 22.2 19.3846
      vertex 82.2 25.2 19.3846
    endloop
  endfacet
  facet normal 0 0 1
    outer loop
      vertex 82.2 22.2 19.3846
      vertex 79.2 25.2 19.3846
      vertex 79.2 22.2 19.3846
    endloop
  endfacet
  facet normal 0 0 -1
    outer loop
      vertex 79.2 22.2 12
      vertex 82.2 25.2 12
      vertex 82.2 22.2 12
    endloop
  endfacet
  facet normal -0 0 -1
    outer loop
      vertex 82.2 25.2 12
      vertex 79.2 22.2 12
      vertex 79.2 25.2 12
    endloop
  endfacet
  facet normal -1 0 0
    outer loop
      vertex 79.2 22.2 12
      vertex 79.2 25.2 19.3846
      vertex 79.2 25.2 12
    endloop
  endfacet
  facet normal -1 -0 0
    outer loop
      vertex 79.2 25.2 19.3846
      vertex 79.2 22.2 12
      vertex 79.2 22.2 19.3846
    endloop
  endfacet
  facet normal 0 1 -0
    outer loop
      vertex 82.2 25.2 12
      vertex 79.2 25.2 19.3846
      vertex 82.2 25.2 19.3846
    endloop
  endfacet
  facet normal 0 1 0
    outer loop
      vertex 79.2 25.2 19.3846
      vertex 82.2 25.2 12
      vertex 79.2 25.2 12
    endloop
  endfacet
  facet normal 0 -1 0
    outer loop
      vertex 79.2 22.2 12
      vertex 82.2 22.2 19.3846
      vertex 79.2 22.2 19.3846
    endloop
  endfacet
  facet normal 0 -1 -0
    outer loop
      vertex 82.2 22.2 19.3846
      vertex 79.2 22.2 12
      vertex 82.2 22.2 12
    endloop
  endfacet
  facet normal 1 -0 0
    outer loop
      vertex 88.2 10.2 13.8462
      vertex 88.2 13.2 12
      vertex 88.2 13.2 13.8462
    endloop
  endfacet
  facet normal 1 0 0
    outer loop
      vertex 88.2 13.2 12
      vertex 88.2 10.2 13.8462
      vertex 88.2 10.2 12
    endloop
  endfacet
  facet normal -0 0 1
    outer loop
      vertex 85.2 13.2 13.8462
      vertex 88.2 10.2 13.8462
      vertex 88.2 13.2 13.8462
    endloop
  endfacet
  facet normal 0 0 1
    outer loop
      vertex 88.2 10.2 13.8462
      vertex 85.2 13.2 13.8462
      vertex 85.2 10.2 13.8462
    endloop
  endfacet
  facet normal 0 0 -1
    outer loop
      vertex 85.2 10.2 12
      vertex 88.2 13.2 12
      vertex 88.2 10.2 12
    endloop
  endfacet
  facet normal -0 0 -1
    outer loop
      vertex 88.2 13.2 12
      vertex 85.2 10.2 12
      vertex 85.2 13.2 12
    endloop
  endfacet
  facet normal -1 0 0
    outer loop
      vertex 85.2 10.2 12
      vertex 85.2 13.2 13.8462
      vertex 85.2 13.2 12
    endloop
  endfacet
  facet normal -1 -0 0
    outer loop
      vertex 85.2 13.2 13.8462
      vertex 85.2 10.2 12
      vertex 85.2 10.2 13.8462
    endloop
  endfacet
  facet normal 0 1 -0
    outer loop
      vertex 88.2 13.2 12
      vertex 85.2 13.2 13.8462
      vertex 88.2 13.2 13.8462
    endloop
  endfacet
  facet normal 0 1 0
    outer loop
      vertex 85.2 13.2 13.8462
      vertex 88.2 13.2 12
      vertex 85.2 13.2 12
    endloop
  endfacet
  facet normal 0 -1 0
    outer loop
      vertex 85.2 10.2 12
      vertex 88.2 10.2 13.8462
      vertex 85.2 10.2 13.8462
    endloop
  endfacet
  facet normal 0 -1 -0
    outer loop
      vertex 88.2 10.2 13.8462
      vertex 85.2 10.2 12
      vertex 88.2 10.2 12
    endloop
  endfacet
  facet normal -1 0 0
    outer loop
      vertex 94.2 13.2 12
      vertex 94.2 16.2 13.8462
      vertex 94.2 16.2 12
    endloop
  endfacet
  facet normal -1 -0 0
    outer loop
      vertex 94.2 16.2 13.8462
      vertex 94.2 13.2 12
      vertex 94.2 16.2 17.5385
    endloop
  endfacet
  facet normal -1 0 0
    outer loop
      vertex 94.2 13.2 19.3846
      vertex 94.2 16.2 17.5385
      vertex 94.2 13.2 12
    endloop
  endfacet
  facet normal -1 0 0
    outer loop
      vertex 94.2 16.2 17.5385
      vertex 94.2 13.2 19.3846
      vertex 94.2 16.2 19.3846
    endloop
  endfacet
  facet normal -1 0 0
    outer loop
      vertex 94.2 16.2 13.8462
      vertex 94.2 19.2 17.5385
      vertex 94.2 19.2 13.8462
    endloop
  endfacet
  facet normal -1 -0 0
    outer loop
      vertex 94.2 19.2 17.5385
      vertex 94.2 16.2 13.8462
      vertex 94.2 16.2 17.5385
    endloop
  endfacet
  facet normal -0 0 1
    outer loop
      vertex 91.2 19.2 13.8462
      vertex 94.2 16.2 13.8462
      vertex 94.2 19.2 13.8462
    endloop
  endfacet
  facet normal 0 0 1
    outer loop
      vertex 94.2 16.2 13.8462
      vertex 91.2 19.2 13.8462
      vertex 91.2 16.2 13.8462
    endloop
  endfacet
  facet normal 0 0 -1
    outer loop
      vertex 94.2 16.2 12
      vertex 97.2 13.2 12
      vertex 94.2 13.2 12
    endloop
  endfacet
  facet normal 0 0 -1
    outer loop
      vertex 103.2 19.2 12
      vertex 100.2 22.2 12
      vertex 103.2 25.2 12
    endloop
  endfacet
  facet normal 0 0 -1
    outer loop
      vertex 97.2 19.2 12
      vertex 100.2 22.2 12
      vertex 103.2 19.2 12
    endloop
  endfacet
  facet normal 0 0 -1
    outer loop
      vertex 97.2 13.2 12
      vertex 94.2 16.2 12
      vertex 97.2 19.2 12
    endloop
  endfacet
  facet normal 0 0 -1
    outer loop
      vertex 91.2 22.2 12
      vertex 97.2 19.2 12
      vertex 94.2 16.2 12
    endloop
  endfacet
  facet normal 0 0 -1
    outer loop
      vertex 91.2 22.2 12
      vertex 94.2 16.2 12
      vertex 91.2 16.2 12
    endloop
  endfacet
  facet normal 0 0 -1
    outer loop
      vertex 97.2 19.2 12
      vertex 91.2 22.2 12
      vertex 100.2 22.2 12
    endloop
  endfacet
  facet normal -0 0 -1
    outer loop
      vertex 103.2 25.2 12
      vertex 100.2 22.2 12
      vertex 100.2 25.2 12
    endloop
  endfacet
  facet normal -1 0 0
    outer loop
      vertex 91.2 22.2 12
      vertex 91.2 19.2 13.8462
      vertex 91.2 22.2 17.5385
    endloop
  endfacet
  facet normal -1 0 0
    outer loop
      vertex 91.2 16.2 12
      vertex 91.2 19.2 13.8462
      vertex 91.2 22.2 12
    endloop
  endfacet
  facet normal -1 -0 0
    outer loop
      vertex 91.2 19.2 13.8462
      vertex 91.2 16.2 12
      vertex 91.2 16.2 13.8462
    endloop
  endfacet
  facet normal -1 -0 0
    outer loop
      vertex 91.2 22.2 17.5385
      vertex 91.2 19.2 13.8462
      vertex 91.2 19.2 17.5385
    endloop
  endfacet
  facet normal 0 -1 0
    outer loop
      vertex 91.2 19.2 13.8462
      vertex 94.2 19.2 17.5385
      vertex 91.2 19.2 17.5385
    endloop
  endfacet
  facet normal 0 -1 -0
    outer loop
      vertex 94.2 19.2 17.5385
      vertex 91.2 19.2 13.8462
      vertex 94.2 19.2 13.8462
    endloop
  endfacet
  facet normal 0 -1 0
    outer loop
      vertex 91.2 16.2 12
      vertex 94.2 16.2 13.8462
      vertex 91.2 16.2 13.8462
    endloop
  endfacet
  facet normal 0 -1 -0
    outer loop
      vertex 94.2 16.2 13.8462
      vertex 91.2 16.2 12
      vertex 94.2 16.2 12
    endloop
  endfacet
  facet normal 0 0 1
    outer loop
      vertex 97.2 22.2 17.5385
      vertex 94.2 19.2 17.5385
      vertex 97.2 16.2 17.5385
    endloop
  endfacet
  facet normal -0 0 1
    outer loop
      vertex 91.2 22.2 17.5385
      vertex 94.2 19.2 17.5385
      vertex 97.2 22.2 17.5385
    endloop
  endfacet
  facet normal 0 0 1
    outer loop
      vertex 94.2 19.2 17.5385
      vertex 91.2 22.2 17.5385
      vertex 91.2 19.2 17.5385
    endloop
  endfacet
  facet normal 0 0 1
    outer loop
      vertex 97.2 16.2 17.5385
      vertex 94.2 19.2 17.5385
      vertex 94.2 16.2 17.5385
    endloop
  endfacet
  facet normal 0 1 0
    outer loop
      vertex 100.2 22.2 13.8462
      vertex 100.2 22.2 12
      vertex 97.2 22.2 13.8462
    endloop
  endfacet
  facet normal 0 1 -0
    outer loop
      vertex 97.2 22.2 13.8462
      vertex 91.2 22.2 17.5385
      vertex 97.2 22.2 17.5385
    endloop
  endfacet
  facet normal 0 1 0
    outer loop
      vertex 91.2 22.2 12
      vertex 97.2 22.2 13.8462
      vertex 100.2 22.2 12
    endloop
  endfacet
  facet normal 0 1 0
    outer loop
      vertex 97.2 22.2 13.8462
      vertex 91.2 22.2 12
      vertex 91.2 22.2 17.5385
    endloop
  endfacet
  facet normal 1 0 0
    outer loop
      vertex 97.2 16.2 19.3846
      vertex 97.2 13.2 19.3846
      vertex 97.2 16.2 17.5385
    endloop
  endfacet
  facet normal 1 0 0
    outer loop
      vertex 97.2 22.2 17.5385
      vertex 97.2 19.2 13.8462
      vertex 97.2 22.2 13.8462
    endloop
  endfacet
  facet normal 1 -0 0
    outer loop
      vertex 97.2 16.2 17.5385
      vertex 97.2 19.2 13.8462
      vertex 97.2 22.2 17.5385
    endloop
  endfacet
  facet normal 1 0 0
    outer loop
      vertex 97.2 13.2 12
      vertex 97.2 19.2 13.8462
      vertex 97.2 16.2 17.5385
    endloop
  endfacet
  facet normal 1 0 0
    outer loop
      vertex 97.2 13.2 12
      vertex 97.2 16.2 17.5385
      vertex 97.2 13.2 19.3846
    endloop
  endfacet
  facet normal 1 0 0
    outer loop
      vertex 97.2 19.2 13.8462
      vertex 97.2 13.2 12
      vertex 97.2 19.2 12
    endloop
  endfacet
  facet normal -0 0 1
    outer loop
      vertex 94.2 16.2 19.3846
      vertex 97.2 13.2 19.3846
      vertex 97.2 16.2 19.3846
    endloop
  endfacet
  facet normal 0 0 1
    outer loop
      vertex 97.2 13.2 19.3846
      vertex 94.2 16.2 19.3846
      vertex 94.2 13.2 19.3846
    endloop
  endfacet
  facet normal 0 1 -0
    outer loop
      vertex 97.2 16.2 17.5385
      vertex 94.2 16.2 19.3846
      vertex 97.2 16.2 19.3846
    endloop
  endfacet
  facet normal 0 1 0
    outer loop
      vertex 94.2 16.2 19.3846
      vertex 97.2 16.2 17.5385
      vertex 94.2 16.2 17.5385
    endloop
  endfacet
  facet normal 0 -1 0
    outer loop
      vertex 94.2 13.2 12
      vertex 97.2 13.2 19.3846
      vertex 94.2 13.2 19.3846
    endloop
  endfacet
  facet normal 0 -1 -0
    outer loop
      vertex 97.2 13.2 19.3846
      vertex 94.2 13.2 12
      vertex 97.2 13.2 12
    endloop
  endfacet
  facet normal -0 0 1
    outer loop
      vertex 100.2 22.2 13.8462
      vertex 103.2 19.2 13.8462
      vertex 103.2 22.2 13.8462
    endloop
  endfacet
  facet normal 0 0 1
    outer loop
      vertex 97.2 19.2 13.8462
      vertex 100.2 22.2 13.8462
      vertex 97.2 22.2 13.8462
    endloop
  endfacet
  facet normal 0 0 1
    outer loop
      vertex 100.2 22.2 13.8462
      vertex 97.2 19.2 13.8462
      vertex 103.2 19.2 13.8462
    endloop
  endfacet
  facet normal 0 -1 0
    outer loop
      vertex 97.2 19.2 12
      vertex 103.2 19.2 13.8462
      vertex 97.2 19.2 13.8462
    endloop
  endfacet
  facet normal 0 -1 -0
    outer loop
      vertex 103.2 19.2 13.8462
      vertex 97.2 19.2 12
      vertex 103.2 19.2 12
    endloop
  endfacet
  facet normal 1 0 0
    outer loop
      vertex 103.2 22.2 13.8462
      vertex 103.2 25.2 24.9231
      vertex 103.2 22.2 24.9231
    endloop
  endfacet
  facet normal 1 0 0
    outer loop
      vertex 103.2 25.2 24.9231
      vertex 103.2 22.2 13.8462
      vertex 103.2 25.2 12
    endloop
  endfacet
  facet normal 1 0 0
    outer loop
      vertex 103.2 19.2 12
      vertex 103.2 22.2 13.8462
      vertex 103.2 19.2 13.8462
    endloop
  endfacet
  facet normal 1 0 0
    outer loop
      vertex 103.2 22.2 13.8462
      vertex 103.2 19.2 12
      vertex 103.2 25.2 12
    endloop
  endfacet
  facet normal 0 -1 0
    outer loop
      vertex 100.2 22.2 13.8462
      vertex 103.2 22.2 24.9231
      vertex 100.2 22.2 24.9231
    endloop
  endfacet
  facet normal 0 -1 -0
    outer loop
      vertex 103.2 22.2 24.9231
      vertex 100.2 22.2 13.8462
      vertex 103.2 22.2 13.8462
    endloop
  endfacet
  facet normal -0 0 1
    outer loop
      vertex 100.2 25.2 24.9231
      vertex 103.2 22.2 24.9231
      vertex 103.2 25.2 24.9231
    endloop
  endfacet
  facet normal 0 0 1
    outer loop
      vertex 103.2 22.2 24.9231
      vertex 100.2 25.2 24.9231
      vertex 100.2 22.2 24.9231
    endloop
  endfacet
  facet normal -1 0 0
    outer loop
      vertex 100.2 22.2 13.8462
      vertex 100.2 25.2 12
      vertex 100.2 22.2 12
    endloop
  endfacet
  facet normal -1 0 0
    outer loop
      vertex 100.2 25.2 12
      vertex 100.2 22.2 13.8462
      vertex 100.2 25.2 24.9231
    endloop
  endfacet
  facet normal -1 -0 0
    outer loop
      vertex 100.2 25.2 24.9231
      vertex 100.2 22.2 13.8462
      vertex 100.2 22.2 24.9231
    endloop
  endfacet
  facet normal 0 1 -0
    outer loop
      vertex 103.2 25.2 12
      vertex 100.2 25.2 24.9231
      vertex 103.2 25.2 24.9231
    endloop
  endfacet
  facet normal 0 1 0
    outer loop
      vertex 100.2 25.2 24.9231
      vertex 103.2 25.2 12
      vertex 100.2 25.2 12
    endloop
  endfacet
  facet normal 1 -0 0
    outer loop
      vertex 112.2 16.2 13.8462
      vertex 112.2 19.2 12
      vertex 112.2 19.2 13.8462
    endloop
  endfacet
  facet normal 1 0 0
    outer loop
      vertex 112.2 19.2 12
      vertex 112.2 16.2 13.8462
      vertex 112.2 16.2 12
    endloop
  endfacet
  facet normal -0 0 1
    outer loop
      vertex 109.2 19.2 13.8462
      vertex 112.2 16.2 13.8462
      vertex 112.2 19.2 13.8462
    endloop
  endfacet
  facet normal 0 0 1
    outer loop
      vertex 112.2 16.2 13.8462
      vertex 109.2 19.2 13.8462
      vertex 109.2 16.2 13.8462
    endloop
  endfacet
  facet normal 0 0 -1
    outer loop
      vertex 109.2 16.2 12
      vertex 112.2 19.2 12
      vertex 112.2 16.2 12
    endloop
  endfacet
  facet normal -0 0 -1
    outer loop
      vertex 112.2 19.2 12
      vertex 109.2 16.2 12
      vertex 109.2 19.2 12
    endloop
  endfacet
  facet normal -1 0 0
    outer loop
      vertex 109.2 16.2 12
      vertex 109.2 19.2 13.8462
      vertex 109.2 19.2 12
    endloop
  endfacet
  facet normal -1 -0 0
    outer loop
      vertex 109.2 19.2 13.8462
      vertex 109.2 16.2 12
      vertex 109.2 16.2 13.8462
    endloop
  endfacet
  facet normal 0 1 -0
    outer loop
      vertex 112.2 19.2 12
      vertex 109.2 19.2 13.8462
      vertex 112.2 19.2 13.8462
    endloop
  endfacet
  facet normal 0 1 0
    outer loop
      vertex 109.2 19.2 13.8462
      vertex 112.2 19.2 12
      vertex 109.2 19.2 12
    endloop
  endfacet
  facet normal 0 -1 0
    outer loop
      vertex 109.2 16.2 12
      vertex 112.2 16.2 13.8462
      vertex 109.2 16.2 13.8462
    endloop
  endfacet
  facet normal 0 -1 -0
    outer loop
      vertex 112.2 16.2 13.8462
      vertex 109.2 16.2 12
      vertex 112.2 16.2 12
    endloop
  endfacet
  facet normal 1 -0 0
    outer loop
      vertex 121.2 13.2 15.6923
      vertex 121.2 19.2 12
      vertex 121.2 19.2 15.6923
    endloop
  endfacet
  facet normal 1 0 0
    outer loop
      vertex 121.2 19.2 12
      vertex 121.2 13.2 15.6923
      vertex 121.2 13.2 12
    endloop
  endfacet
  facet normal -0 0 1
    outer loop
      vertex 118.2 19.2 15.6923
      vertex 121.2 13.2 15.6923
      vertex 121.2 19.2 15.6923
    endloop
  endfacet
  facet normal 0 0 1
    outer loop
      vertex 121.2 13.2 15.6923
      vertex 118.2 19.2 15.6923
      vertex 118.2 13.2 15.6923
    endloop
  endfacet
  facet normal 0 0 -1
    outer loop
      vertex 118.2 13.2 12
      vertex 121.2 19.2 12
      vertex 121.2 13.2 12
    endloop
  endfacet
  facet normal -0 0 -1
    outer loop
      vertex 121.2 19.2 12
      vertex 118.2 13.2 12
      vertex 118.2 19.2 12
    endloop
  endfacet
  facet normal -1 0 0
    outer loop
      vertex 118.2 13.2 12
      vertex 118.2 19.2 15.6923
      vertex 118.2 19.2 12
    endloop
  endfacet
  facet normal -1 -0 0
    outer loop
      vertex 118.2 19.2 15.6923
      vertex 118.2 13.2 12
      vertex 118.2 13.2 15.6923
    endloop
  endfacet
  facet normal 0 -1 0
    outer loop
      vertex 118.2 13.2 12
      vertex 121.2 13.2 15.6923
      vertex 118.2 13.2 15.6923
    endloop
  endfacet
  facet normal 0 -1 -0
    outer loop
      vertex 121.2 13.2 15.6923
      vertex 118.2 13.2 12
      vertex 121.2 13.2 12
    endloop
  endfacet
  facet normal 0 1 -0
    outer loop
      vertex 121.2 19.2 12
      vertex 118.2 19.2 15.6923
      vertex 121.2 19.2 15.6923
    endloop
  endfacet
  facet normal 0 1 0
    outer loop
      vertex 118.2 19.2 15.6923
      vertex 121.2 19.2 12
      vertex 118.2 19.2 12
    endloop
  endfacet
  facet normal 1 -0 0
    outer loop
      vertex 127.2 16.2 19.3846
      vertex 127.2 19.2 12
      vertex 127.2 19.2 19.3846
    endloop
  endfacet
  facet normal 1 0 0
    outer loop
      vertex 127.2 19.2 12
      vertex 127.2 16.2 19.3846
      vertex 127.2 16.2 12
    endloop
  endfacet
  facet normal -0 0 1
    outer loop
      vertex 124.2 19.2 19.3846
      vertex 127.2 16.2 19.3846
      vertex 127.2 19.2 19.3846
    endloop
  endfacet
  facet normal 0 0 1
    outer loop
      vertex 127.2 16.2 19.3846
      vertex 124.2 19.2 19.3846
      vertex 124.2 16.2 19.3846
    endloop
  endfacet
  facet normal 0 0 -1
    outer loop
      vertex 124.2 16.2 12
      vertex 127.2 19.2 12
      vertex 127.2 16.2 12
    endloop
  endfacet
  facet normal -0 0 -1
    outer loop
      vertex 127.2 19.2 12
      vertex 124.2 16.2 12
      vertex 124.2 19.2 12
    endloop
  endfacet
  facet normal -1 0 0
    outer loop
      vertex 124.2 16.2 12
      vertex 124.2 19.2 19.3846
      vertex 124.2 19.2 12
    endloop
  endfacet
  facet normal -1 -0 0
    outer loop
      vertex 124.2 19.2 19.3846
      vertex 124.2 16.2 12
      vertex 124.2 16.2 19.3846
    endloop
  endfacet
  facet normal 0 1 -0
    outer loop
      vertex 127.2 19.2 12
      vertex 124.2 19.2 19.3846
      vertex 127.2 19.2 19.3846
    endloop
  endfacet
  facet normal 0 1 0
    outer loop
      vertex 124.2 19.2 19.3846
      vertex 127.2 19.2 12
      vertex 124.2 19.2 12
    endloop
  endfacet
  facet normal 0 -1 0
    outer loop
      vertex 124.2 16.2 12
      vertex 127.2 16.2 19.3846
      vertex 124.2 16.2 19.3846
    endloop
  endfacet
  facet normal 0 -1 -0
    outer loop
      vertex 127.2 16.2 19.3846
      vertex 124.2 16.2 12
      vertex 127.2 16.2 12
    endloop
  endfacet
  facet normal 1 -0 0
    outer loop
      vertex 142.2 13.2 13.8462
      vertex 142.2 16.2 12
      vertex 142.2 16.2 13.8462
    endloop
  endfacet
  facet normal 1 0 0
    outer loop
      vertex 142.2 16.2 12
      vertex 142.2 13.2 13.8462
      vertex 142.2 13.2 12
    endloop
  endfacet
  facet normal -0 0 1
    outer loop
      vertex 139.2 16.2 13.8462
      vertex 142.2 13.2 13.8462
      vertex 142.2 16.2 13.8462
    endloop
  endfacet
  facet normal 0 0 1
    outer loop
      vertex 142.2 13.2 13.8462
      vertex 139.2 16.2 13.8462
      vertex 139.2 13.2 13.8462
    endloop
  endfacet
  facet normal 0 0 -1
    outer loop
      vertex 139.2 13.2 12
      vertex 142.2 16.2 12
      vertex 142.2 13.2 12
    endloop
  endfacet
  facet normal -0 0 -1
    outer loop
      vertex 142.2 16.2 12
      vertex 139.2 13.2 12
      vertex 139.2 16.2 12
    endloop
  endfacet
  facet normal -1 0 0
    outer loop
      vertex 139.2 13.2 12
      vertex 139.2 16.2 13.8462
      vertex 139.2 16.2 12
    endloop
  endfacet
  facet normal -1 -0 0
    outer loop
      vertex 139.2 16.2 13.8462
      vertex 139.2 13.2 12
      vertex 139.2 13.2 13.8462
    endloop
  endfacet
  facet normal 0 1 -0
    outer loop
      vertex 142.2 16.2 12
      vertex 139.2 16.2 13.8462
      vertex 142.2 16.2 13.8462
    endloop
  endfacet
  facet normal 0 1 0
    outer loop
      vertex 139.2 16.2 13.8462
      vertex 142.2 16.2 12
      vertex 139.2 16.2 12
    endloop
  endfacet
  facet normal 0 -1 0
    outer loop
      vertex 139.2 13.2 12
      vertex 142.2 13.2 13.8462
      vertex 139.2 13.2 13.8462
    endloop
  endfacet
  facet normal 0 -1 -0
    outer loop
      vertex 142.2 13.2 13.8462
      vertex 139.2 13.2 12
      vertex 142.2 13.2 12
    endloop
  endfacet
  facet normal 1 -0 0
    outer loop
      vertex 145.2 10.2 13.8462
      vertex 145.2 13.2 12
      vertex 145.2 13.2 13.8462
    endloop
  endfacet
  facet normal 1 0 0
    outer loop
      vertex 145.2 13.2 12
      vertex 145.2 10.2 13.8462
      vertex 145.2 10.2 12
    endloop
  endfacet
  facet normal -0 0 1
    outer loop
      vertex 142.2 13.2 13.8462
      vertex 145.2 10.2 13.8462
      vertex 145.2 13.2 13.8462
    endloop
  endfacet
  facet normal 0 0 1
    outer loop
      vertex 145.2 10.2 13.8462
      vertex 142.2 13.2 13.8462
      vertex 142.2 10.2 13.8462
    endloop
  endfacet
  facet normal 0 0 -1
    outer loop
      vertex 142.2 10.2 12
      vertex 145.2 13.2 12
      vertex 145.2 10.2 12
    endloop
  endfacet
  facet normal -0 0 -1
    outer loop
      vertex 145.2 13.2 12
      vertex 142.2 10.2 12
      vertex 142.2 13.2 12
    endloop
  endfacet
  facet normal -1 0 0
    outer loop
      vertex 142.2 10.2 12
      vertex 142.2 13.2 13.8462
      vertex 142.2 13.2 12
    endloop
  endfacet
  facet normal -1 -0 0
    outer loop
      vertex 142.2 13.2 13.8462
      vertex 142.2 10.2 12
      vertex 142.2 10.2 13.8462
    endloop
  endfacet
  facet normal 0 1 -0
    outer loop
      vertex 145.2 13.2 12
      vertex 142.2 13.2 13.8462
      vertex 145.2 13.2 13.8462
    endloop
  endfacet
  facet normal 0 1 0
    outer loop
      vertex 142.2 13.2 13.8462
      vertex 145.2 13.2 12
      vertex 142.2 13.2 12
    endloop
  endfacet
  facet normal 0 -1 0
    outer loop
      vertex 142.2 10.2 12
      vertex 145.2 10.2 13.8462
      vertex 142.2 10.2 13.8462
    endloop
  endfacet
  facet normal 0 -1 -0
    outer loop
      vertex 145.2 10.2 13.8462
      vertex 142.2 10.2 12
      vertex 145.2 10.2 12
    endloop
  endfacet
  facet normal 1 0 0
    outer loop
      vertex 145.2 19.2 17.5385
      vertex 145.2 22.2 19.3846
      vertex 145.2 19.2 19.3846
    endloop
  endfacet
  facet normal 1 0 0
    outer loop
      vertex 145.2 22.2 19.3846
      vertex 145.2 19.2 17.5385
      vertex 145.2 22.2 13.8462
    endloop
  endfacet
  facet normal 1 0 0
    outer loop
      vertex 145.2 22.2 13.8462
      vertex 145.2 19.2 17.5385
      vertex 145.2 19.2 13.8462
    endloop
  endfacet
  facet normal -1 0 0
    outer loop
      vertex 145.2 16.2 13.8462
      vertex 145.2 19.2 13.8462
      vertex 145.2 19.2 12
    endloop
  endfacet
  facet normal -1 0 0
    outer loop
      vertex 145.2 19.2 13.8462
      vertex 145.2 16.2 13.8462
      vertex 145.2 19.2 17.5385
    endloop
  endfacet
  facet normal -1 0 0
    outer loop
      vertex 145.2 13.2 12
      vertex 145.2 16.2 13.8462
      vertex 145.2 19.2 12
    endloop
  endfacet
  facet normal -1 -0 0
    outer loop
      vertex 145.2 16.2 13.8462
      vertex 145.2 13.2 12
      vertex 145.2 13.2 13.8462
    endloop
  endfacet
  facet normal -1 -0 0
    outer loop
      vertex 145.2 19.2 17.5385
      vertex 145.2 16.2 13.8462
      vertex 145.2 16.2 17.5385
    endloop
  endfacet
  facet normal -0 0 1
    outer loop
      vertex 142.2 22.2 19.3846
      vertex 145.2 19.2 19.3846
      vertex 145.2 22.2 19.3846
    endloop
  endfacet
  facet normal 0 0 1
    outer loop
      vertex 145.2 19.2 19.3846
      vertex 142.2 22.2 19.3846
      vertex 142.2 19.2 19.3846
    endloop
  endfacet
  facet normal 0 0 -1
    outer loop
      vertex 154.2 16.2 12
      vertex 157.2 13.2 12
      vertex 154.2 13.2 12
    endloop
  endfacet
  facet normal 0 0 -1
    outer loop
      vertex 157.2 13.2 12
      vertex 154.2 16.2 12
      vertex 157.2 19.2 12
    endloop
  endfacet
  facet normal -0 0 -1
    outer loop
      vertex 157.2 19.2 12
      vertex 154.2 16.2 12
      vertex 154.2 19.2 12
    endloop
  endfacet
  facet normal 0 0 -1
    outer loop
      vertex 151.2 13.2 12
      vertex 154.2 13.2 12
      vertex 154.2 10.2 12
    endloop
  endfacet
  facet normal 0 0 -1
    outer loop
      vertex 151.2 13.2 12
      vertex 154.2 10.2 12
      vertex 151.2 10.2 12
    endloop
  endfacet
  facet normal 0 0 -1
    outer loop
      vertex 154.2 13.2 12
      vertex 151.2 13.2 12
      vertex 154.2 16.2 12
    endloop
  endfacet
  facet normal 0 0 -1
    outer loop
      vertex 151.2 13.2 12
      vertex 148.2 16.2 12
      vertex 154.2 16.2 12
    endloop
  endfacet
  facet normal 0 0 -1
    outer loop
      vertex 145.2 13.2 12
      vertex 148.2 16.2 12
      vertex 151.2 13.2 12
    endloop
  endfacet
  facet normal 0 0 -1
    outer loop
      vertex 145.2 19.2 12
      vertex 148.2 16.2 12
      vertex 145.2 13.2 12
    endloop
  endfacet
  facet normal 0 0 -1
    outer loop
      vertex 148.2 16.2 12
      vertex 145.2 19.2 12
      vertex 148.2 22.2 12
    endloop
  endfacet
  facet normal 0 0 -1
    outer loop
      vertex 142.2 22.2 12
      vertex 145.2 19.2 12
      vertex 142.2 19.2 12
    endloop
  endfacet
  facet normal 0 0 -1
    outer loop
      vertex 145.2 19.2 12
      vertex 142.2 22.2 12
      vertex 148.2 22.2 12
    endloop
  endfacet
  facet normal -1 0 0
    outer loop
      vertex 142.2 19.2 12
      vertex 142.2 22.2 19.3846
      vertex 142.2 22.2 12
    endloop
  endfacet
  facet normal -1 -0 0
    outer loop
      vertex 142.2 22.2 19.3846
      vertex 142.2 19.2 12
      vertex 142.2 19.2 19.3846
    endloop
  endfacet
  facet normal 0 1 0
    outer loop
      vertex 148.2 22.2 13.8462
      vertex 148.2 22.2 12
      vertex 145.2 22.2 13.8462
    endloop
  endfacet
  facet normal 0 1 -0
    outer loop
      vertex 145.2 22.2 13.8462
      vertex 142.2 22.2 19.3846
      vertex 145.2 22.2 19.3846
    endloop
  endfacet
  facet normal 0 1 0
    outer loop
      vertex 145.2 22.2 13.8462
      vertex 142.2 22.2 12
      vertex 142.2 22.2 19.3846
    endloop
  endfacet
  facet normal 0 1 0
    outer loop
      vertex 142.2 22.2 12
      vertex 145.2 22.2 13.8462
      vertex 148.2 22.2 12
    endloop
  endfacet
  facet normal 0 -1 0
    outer loop
      vertex 142.2 19.2 19.3846
      vertex 145.2 19.2 17.5385
      vertex 145.2 19.2 19.3846
    endloop
  endfacet
  facet normal 0 -1 0
    outer loop
      vertex 142.2 19.2 19.3846
      vertex 145.2 19.2 13.8462
      vertex 145.2 19.2 17.5385
    endloop
  endfacet
  facet normal 0 -1 0
    outer loop
      vertex 142.2 19.2 12
      vertex 145.2 19.2 13.8462
      vertex 142.2 19.2 19.3846
    endloop
  endfacet
  facet normal 0 -1 -0
    outer loop
      vertex 145.2 19.2 13.8462
      vertex 142.2 19.2 12
      vertex 145.2 19.2 12
    endloop
  endfacet
  facet normal -1 0 0
    outer loop
      vertex 148.2 13.2 13.8462
      vertex 148.2 16.2 17.5385
      vertex 148.2 16.2 13.8462
    endloop
  endfacet
  facet normal -1 -0 0
    outer loop
      vertex 148.2 16.2 17.5385
      vertex 148.2 13.2 13.8462
      vertex 148.2 13.2 17.5385
    endloop
  endfacet
  facet normal -0 0 1
    outer loop
      vertex 145.2 16.2 13.8462
      vertex 148.2 13.2 13.8462
      vertex 148.2 16.2 13.8462
    endloop
  endfacet
  facet normal 0 0 1
    outer loop
      vertex 148.2 13.2 13.8462
      vertex 145.2 16.2 13.8462
      vertex 145.2 13.2 13.8462
    endloop
  endfacet
  facet normal 0 -1 0
    outer loop
      vertex 145.2 16.2 13.8462
      vertex 148.2 16.2 17.5385
      vertex 145.2 16.2 17.5385
    endloop
  endfacet
  facet normal 0 -1 -0
    outer loop
      vertex 148.2 16.2 17.5385
      vertex 145.2 16.2 13.8462
      vertex 148.2 16.2 13.8462
    endloop
  endfacet
  facet normal 0 -1 0
    outer loop
      vertex 145.2 13.2 13.8462
      vertex 145.2 13.2 12
      vertex 148.2 13.2 13.8462
    endloop
  endfacet
  facet normal 0 -1 0
    outer loop
      vertex 148.2 13.2 17.5385
      vertex 151.2 13.2 15.6923
      vertex 151.2 13.2 17.5385
    endloop
  endfacet
  facet normal 0 -1 0
    outer loop
      vertex 148.2 13.2 13.8462
      vertex 151.2 13.2 15.6923
      vertex 148.2 13.2 17.5385
    endloop
  endfacet
  facet normal 0 -1 0
    outer loop
      vertex 148.2 13.2 13.8462
      vertex 151.2 13.2 12
      vertex 151.2 13.2 15.6923
    endloop
  endfacet
  facet normal 0 -1 0
    outer loop
      vertex 151.2 13.2 12
      vertex 148.2 13.2 13.8462
      vertex 145.2 13.2 12
    endloop
  endfacet
  facet normal 1 0 0
    outer loop
      vertex 148.2 19.2 17.5385
      vertex 148.2 16.2 17.5385
      vertex 148.2 19.2 13.8462
    endloop
  endfacet
  facet normal 1 -0 0
    outer loop
      vertex 148.2 19.2 13.8462
      vertex 148.2 22.2 12
      vertex 148.2 22.2 13.8462
    endloop
  endfacet
  facet normal 1 0 0
    outer loop
      vertex 148.2 16.2 13.8462
      vertex 148.2 19.2 13.8462
      vertex 148.2 16.2 17.5385
    endloop
  endfacet
  facet normal 1 0 0
    outer loop
      vertex 148.2 16.2 12
      vertex 148.2 19.2 13.8462
      vertex 148.2 16.2 13.8462
    endloop
  endfacet
  facet normal 1 0 0
    outer loop
      vertex 148.2 19.2 13.8462
      vertex 148.2 16.2 12
      vertex 148.2 22.2 12
    endloop
  endfacet
  facet normal -0 0 1
    outer loop
      vertex 145.2 19.2 17.5385
      vertex 148.2 16.2 17.5385
      vertex 148.2 19.2 17.5385
    endloop
  endfacet
  facet normal 0 0 1
    outer loop
      vertex 148.2 16.2 17.5385
      vertex 145.2 19.2 17.5385
      vertex 145.2 16.2 17.5385
    endloop
  endfacet
  facet normal 0 1 -0
    outer loop
      vertex 148.2 19.2 13.8462
      vertex 145.2 19.2 17.5385
      vertex 148.2 19.2 17.5385
    endloop
  endfacet
  facet normal 0 1 0
    outer loop
      vertex 145.2 19.2 17.5385
      vertex 148.2 19.2 13.8462
      vertex 145.2 19.2 13.8462
    endloop
  endfacet
  facet normal -0 0 1
    outer loop
      vertex 145.2 22.2 13.8462
      vertex 148.2 19.2 13.8462
      vertex 148.2 22.2 13.8462
    endloop
  endfacet
  facet normal 0 0 1
    outer loop
      vertex 148.2 19.2 13.8462
      vertex 145.2 22.2 13.8462
      vertex 145.2 19.2 13.8462
    endloop
  endfacet
  facet normal 1 -0 0
    outer loop
      vertex 151.2 13.2 17.5385
      vertex 151.2 16.2 15.6923
      vertex 151.2 16.2 17.5385
    endloop
  endfacet
  facet normal 1 0 0
    outer loop
      vertex 151.2 16.2 15.6923
      vertex 151.2 13.2 17.5385
      vertex 151.2 13.2 15.6923
    endloop
  endfacet
  facet normal -0 0 1
    outer loop
      vertex 148.2 16.2 17.5385
      vertex 151.2 13.2 17.5385
      vertex 151.2 16.2 17.5385
    endloop
  endfacet
  facet normal 0 0 1
    outer loop
      vertex 151.2 13.2 17.5385
      vertex 148.2 16.2 17.5385
      vertex 148.2 13.2 17.5385
    endloop
  endfacet
  facet normal 0 1 0
    outer loop
      vertex 157.2 16.2 24.9231
      vertex 154.2 16.2 15.6923
      vertex 154.2 16.2 24.9231
    endloop
  endfacet
  facet normal 0 1 0
    outer loop
      vertex 154.2 16.2 13.8462
      vertex 154.2 16.2 15.6923
      vertex 157.2 16.2 13.8462
    endloop
  endfacet
  facet normal 0 1 -0
    outer loop
      vertex 157.2 16.2 13.8462
      vertex 154.2 16.2 15.6923
      vertex 157.2 16.2 24.9231
    endloop
  endfacet
  facet normal 0 1 -0
    outer loop
      vertex 151.2 16.2 15.6923
      vertex 148.2 16.2 17.5385
      vertex 151.2 16.2 17.5385
    endloop
  endfacet
  facet normal 0 1 0
    outer loop
      vertex 154.2 16.2 15.6923
      vertex 154.2 16.2 13.8462
      vertex 151.2 16.2 15.6923
    endloop
  endfacet
  facet normal 0 1 -0
    outer loop
      vertex 154.2 16.2 12
      vertex 151.2 16.2 15.6923
      vertex 154.2 16.2 13.8462
    endloop
  endfacet
  facet normal 0 1 0
    outer loop
      vertex 151.2 16.2 15.6923
      vertex 148.2 16.2 13.8462
      vertex 148.2 16.2 17.5385
    endloop
  endfacet
  facet normal 0 1 0
    outer loop
      vertex 148.2 16.2 12
      vertex 151.2 16.2 15.6923
      vertex 154.2 16.2 12
    endloop
  endfacet
  facet normal 0 1 0
    outer loop
      vertex 151.2 16.2 15.6923
      vertex 148.2 16.2 12
      vertex 148.2 16.2 13.8462
    endloop
  endfacet
  facet normal 1 -0 0
    outer loop
      vertex 154.2 10.2 28.6154
      vertex 154.2 13.2 24.9231
      vertex 154.2 13.2 28.6154
    endloop
  endfacet
  facet normal 1 0 0
    outer loop
      vertex 154.2 13.2 24.9231
      vertex 154.2 10.2 28.6154
      vertex 154.2 13.2 15.6923
    endloop
  endfacet
  facet normal 1 0 0
    outer loop
      vertex 154.2 10.2 12
      vertex 154.2 13.2 15.6923
      vertex 154.2 10.2 28.6154
    endloop
  endfacet
  facet normal 1 0 0
    outer loop
      vertex 154.2 13.2 15.6923
      vertex 154.2 10.2 12
      vertex 154.2 13.2 12
    endloop
  endfacet
  facet normal -0 0 1
    outer loop
      vertex 151.2 13.2 28.6154
      vertex 154.2 10.2 28.6154
      vertex 154.2 13.2 28.6154
    endloop
  endfacet
  facet normal 0 0 1
    outer loop
      vertex 154.2 10.2 28.6154
      vertex 151.2 13.2 28.6154
      vertex 151.2 10.2 28.6154
    endloop
  endfacet
  facet normal -1 0 0
    outer loop
      vertex 151.2 10.2 12
      vertex 151.2 13.2 15.6923
      vertex 151.2 13.2 12
    endloop
  endfacet
  facet normal -1 -0 0
    outer loop
      vertex 151.2 13.2 15.6923
      vertex 151.2 10.2 12
      vertex 151.2 13.2 17.5385
    endloop
  endfacet
  facet normal -1 0 0
    outer loop
      vertex 151.2 10.2 28.6154
      vertex 151.2 13.2 17.5385
      vertex 151.2 10.2 12
    endloop
  endfacet
  facet normal -1 0 0
    outer loop
      vertex 151.2 13.2 17.5385
      vertex 151.2 10.2 28.6154
      vertex 151.2 13.2 28.6154
    endloop
  endfacet
  facet normal 0 1 -0
    outer loop
      vertex 154.2 13.2 24.9231
      vertex 151.2 13.2 28.6154
      vertex 154.2 13.2 28.6154
    endloop
  endfacet
  facet normal 0 1 0
    outer loop
      vertex 154.2 13.2 24.9231
      vertex 151.2 13.2 17.5385
      vertex 151.2 13.2 28.6154
    endloop
  endfacet
  facet normal 0 1 -0
    outer loop
      vertex 154.2 13.2 15.6923
      vertex 151.2 13.2 17.5385
      vertex 154.2 13.2 24.9231
    endloop
  endfacet
  facet normal 0 1 0
    outer loop
      vertex 151.2 13.2 17.5385
      vertex 154.2 13.2 15.6923
      vertex 151.2 13.2 15.6923
    endloop
  endfacet
  facet normal 0 -1 0
    outer loop
      vertex 151.2 10.2 12
      vertex 154.2 10.2 28.6154
      vertex 151.2 10.2 28.6154
    endloop
  endfacet
  facet normal 0 -1 -0
    outer loop
      vertex 154.2 10.2 28.6154
      vertex 151.2 10.2 12
      vertex 154.2 10.2 12
    endloop
  endfacet
  facet normal -1 0 0
    outer loop
      vertex 154.2 13.2 15.6923
      vertex 154.2 16.2 24.9231
      vertex 154.2 16.2 15.6923
    endloop
  endfacet
  facet normal -1 -0 0
    outer loop
      vertex 154.2 16.2 24.9231
      vertex 154.2 13.2 15.6923
      vertex 154.2 13.2 24.9231
    endloop
  endfacet
  facet normal -0 0 1
    outer loop
      vertex 151.2 16.2 15.6923
      vertex 154.2 13.2 15.6923
      vertex 154.2 16.2 15.6923
    endloop
  endfacet
  facet normal 0 0 1
    outer loop
      vertex 154.2 13.2 15.6923
      vertex 151.2 16.2 15.6923
      vertex 151.2 13.2 15.6923
    endloop
  endfacet
  facet normal 1 0 0
    outer loop
      vertex 157.2 16.2 24.9231
      vertex 157.2 13.2 24.9231
      vertex 157.2 16.2 13.8462
    endloop
  endfacet
  facet normal 1 -0 0
    outer loop
      vertex 157.2 16.2 13.8462
      vertex 157.2 19.2 12
      vertex 157.2 19.2 13.8462
    endloop
  endfacet
  facet normal 1 0 0
    outer loop
      vertex 157.2 16.2 13.8462
      vertex 157.2 13.2 12
      vertex 157.2 19.2 12
    endloop
  endfacet
  facet normal 1 0 0
    outer loop
      vertex 157.2 13.2 12
      vertex 157.2 16.2 13.8462
      vertex 157.2 13.2 24.9231
    endloop
  endfacet
  facet normal -0 0 1
    outer loop
      vertex 154.2 16.2 24.9231
      vertex 157.2 13.2 24.9231
      vertex 157.2 16.2 24.9231
    endloop
  endfacet
  facet normal 0 0 1
    outer loop
      vertex 157.2 13.2 24.9231
      vertex 154.2 16.2 24.9231
      vertex 154.2 13.2 24.9231
    endloop
  endfacet
  facet normal 0 -1 0
    outer loop
      vertex 154.2 13.2 15.6923
      vertex 157.2 13.2 24.9231
      vertex 154.2 13.2 24.9231
    endloop
  endfacet
  facet normal 0 -1 0
    outer loop
      vertex 157.2 13.2 12
      vertex 154.2 13.2 15.6923
      vertex 154.2 13.2 12
    endloop
  endfacet
  facet normal 0 -1 0
    outer loop
      vertex 154.2 13.2 15.6923
      vertex 157.2 13.2 12
      vertex 157.2 13.2 24.9231
    endloop
  endfacet
  facet normal -0 0 1
    outer loop
      vertex 154.2 19.2 13.8462
      vertex 157.2 16.2 13.8462
      vertex 157.2 19.2 13.8462
    endloop
  endfacet
  facet normal 0 0 1
    outer loop
      vertex 157.2 16.2 13.8462
      vertex 154.2 19.2 13.8462
      vertex 154.2 16.2 13.8462
    endloop
  endfacet
  facet normal -1 0 0
    outer loop
      vertex 154.2 16.2 12
      vertex 154.2 19.2 13.8462
      vertex 154.2 19.2 12
    endloop
  endfacet
  facet normal -1 -0 0
    outer loop
      vertex 154.2 19.2 13.8462
      vertex 154.2 16.2 12
      vertex 154.2 16.2 13.8462
    endloop
  endfacet
  facet normal 0 1 -0
    outer loop
      vertex 157.2 19.2 12
      vertex 154.2 19.2 13.8462
      vertex 157.2 19.2 13.8462
    endloop
  endfacet
  facet normal 0 1 0
    outer loop
      vertex 154.2 19.2 13.8462
      vertex 157.2 19.2 12
      vertex 154.2 19.2 12
    endloop
  endfacet
  facet normal 1 -0 0
    outer loop
      vertex 163.2 13.2 36
      vertex 163.2 16.2 15.6923
      vertex 163.2 16.2 36
    endloop
  endfacet
  facet normal 1 0 0
    outer loop
      vertex 163.2 16.2 15.6923
      vertex 163.2 13.2 36
      vertex 163.2 13.2 15.6923
    endloop
  endfacet
  facet normal -0 0 1
    outer loop
      vertex 160.2 16.2 36
      vertex 163.2 13.2 36
      vertex 163.2 16.2 36
    endloop
  endfacet
  facet normal 0 0 1
    outer loop
      vertex 163.2 13.2 36
      vertex 160.2 16.2 36
      vertex 160.2 13.2 36
    endloop
  endfacet
  facet normal 0 0 -1
    outer loop
      vertex 166.2 13.2 12
      vertex 163.2 16.2 12
      vertex 166.2 16.2 12
    endloop
  endfacet
  facet normal 0 0 -1
    outer loop
      vertex 160.2 13.2 12
      vertex 163.2 16.2 12
      vertex 166.2 13.2 12
    endloop
  endfacet
  facet normal 0 0 -1
    outer loop
      vertex 160.2 19.2 12
      vertex 163.2 16.2 12
      vertex 160.2 13.2 12
    endloop
  endfacet
  facet normal 0 0 -1
    outer loop
      vertex 163.2 16.2 12
      vertex 160.2 19.2 12
      vertex 163.2 19.2 12
    endloop
  endfacet
  facet normal -1 0 0
    outer loop
      vertex 160.2 19.2 12
      vertex 160.2 16.2 13.8462
      vertex 160.2 19.2 13.8462
    endloop
  endfacet
  facet normal -1 0 0
    outer loop
      vertex 160.2 13.2 12
      vertex 160.2 16.2 13.8462
      vertex 160.2 19.2 12
    endloop
  endfacet
  facet normal -1 0 0
    outer loop
      vertex 160.2 13.2 36
      vertex 160.2 16.2 13.8462
      vertex 160.2 13.2 12
    endloop
  endfacet
  facet normal -1 0 0
    outer loop
      vertex 160.2 16.2 13.8462
      vertex 160.2 13.2 36
      vertex 160.2 16.2 36
    endloop
  endfacet
  facet normal 0 1 0
    outer loop
      vertex 166.2 16.2 15.6923
      vertex 163.2 16.2 13.8462
      vertex 163.2 16.2 15.6923
    endloop
  endfacet
  facet normal 0 1 -0
    outer loop
      vertex 166.2 16.2 12
      vertex 163.2 16.2 13.8462
      vertex 166.2 16.2 15.6923
    endloop
  endfacet
  facet normal 0 1 0
    outer loop
      vertex 163.2 16.2 13.8462
      vertex 166.2 16.2 12
      vertex 163.2 16.2 12
    endloop
  endfacet
  facet normal 0 1 -0
    outer loop
      vertex 163.2 16.2 15.6923
      vertex 160.2 16.2 36
      vertex 163.2 16.2 36
    endloop
  endfacet
  facet normal 0 1 0
    outer loop
      vertex 160.2 16.2 13.8462
      vertex 163.2 16.2 15.6923
      vertex 163.2 16.2 13.8462
    endloop
  endfacet
  facet normal 0 1 0
    outer loop
      vertex 163.2 16.2 15.6923
      vertex 160.2 16.2 13.8462
      vertex 160.2 16.2 36
    endloop
  endfacet
  facet normal 0 -1 0
    outer loop
      vertex 160.2 13.2 36
      vertex 163.2 13.2 15.6923
      vertex 163.2 13.2 36
    endloop
  endfacet
  facet normal 0 -1 0
    outer loop
      vertex 160.2 13.2 12
      vertex 163.2 13.2 15.6923
      vertex 160.2 13.2 36
    endloop
  endfacet
  facet normal 0 -1 0
    outer loop
      vertex 166.2 13.2 12
      vertex 163.2 13.2 15.6923
      vertex 160.2 13.2 12
    endloop
  endfacet
  facet normal 0 -1 0
    outer loop
      vertex 163.2 13.2 15.6923
      vertex 166.2 13.2 12
      vertex 166.2 13.2 15.6923
    endloop
  endfacet
  facet normal 1 -0 0
    outer loop
      vertex 163.2 16.2 13.8462
      vertex 163.2 19.2 12
      vertex 163.2 19.2 13.8462
    endloop
  endfacet
  facet normal 1 0 0
    outer loop
      vertex 163.2 19.2 12
      vertex 163.2 16.2 13.8462
      vertex 163.2 16.2 12
    endloop
  endfacet
  facet normal -0 0 1
    outer loop
      vertex 160.2 19.2 13.8462
      vertex 163.2 16.2 13.8462
      vertex 163.2 19.2 13.8462
    endloop
  endfacet
  facet normal 0 0 1
    outer loop
      vertex 163.2 16.2 13.8462
      vertex 160.2 19.2 13.8462
      vertex 160.2 16.2 13.8462
    endloop
  endfacet
  facet normal 0 1 -0
    outer loop
      vertex 163.2 19.2 12
      vertex 160.2 19.2 13.8462
      vertex 163.2 19.2 13.8462
    endloop
  endfacet
  facet normal 0 1 0
    outer loop
      vertex 160.2 19.2 13.8462
      vertex 163.2 19.2 12
      vertex 160.2 19.2 12
    endloop
  endfacet
  facet normal 1 -0 0
    outer loop
      vertex 166.2 13.2 15.6923
      vertex 166.2 16.2 12
      vertex 166.2 16.2 15.6923
    endloop
  endfacet
  facet normal 1 0 0
    outer loop
      vertex 166.2 16.2 12
      vertex 166.2 13.2 15.6923
      vertex 166.2 13.2 12
    endloop
  endfacet
  facet normal -0 0 1
    outer loop
      vertex 163.2 16.2 15.6923
      vertex 166.2 13.2 15.6923
      vertex 166.2 16.2 15.6923
    endloop
  endfacet
  facet normal 0 0 1
    outer loop
      vertex 166.2 13.2 15.6923
      vertex 163.2 16.2 15.6923
      vertex 163.2 13.2 15.6923
    endloop
  endfacet
endsolid OpenSCAD_Model
