solid OpenSCAD_Model
  facet normal 1 -0 0
    outer loop
      vertex 25.2 13.2 24
      vertex 25.2 16.2 12
      vertex 25.2 16.2 24
    endloop
  endfacet
  facet normal 1 0 0
    outer loop
      vertex 25.2 16.2 12
      vertex 25.2 13.2 24
      vertex 25.2 13.2 12
    endloop
  endfacet
  facet normal -0 0 1
    outer loop
      vertex 22.2 16.2 24
      vertex 25.2 13.2 24
      vertex 25.2 16.2 24
    endloop
  endfacet
  facet normal 0 0 1
    outer loop
      vertex 25.2 13.2 24
      vertex 22.2 16.2 24
      vertex 22.2 13.2 24
    endloop
  endfacet
  facet normal 0 0 -1
    outer loop
      vertex 22.2 13.2 12
      vertex 25.2 16.2 12
      vertex 25.2 13.2 12
    endloop
  endfacet
  facet normal -0 0 -1
    outer loop
      vertex 25.2 16.2 12
      vertex 22.2 13.2 12
      vertex 22.2 16.2 12
    endloop
  endfacet
  facet normal -1 0 0
    outer loop
      vertex 22.2 13.2 12
      vertex 22.2 16.2 24
      vertex 22.2 16.2 12
    endloop
  endfacet
  facet normal -1 -0 0
    outer loop
      vertex 22.2 16.2 24
      vertex 22.2 13.2 12
      vertex 22.2 13.2 24
    endloop
  endfacet
  facet normal 0 1 -0
    outer loop
      vertex 25.2 16.2 12
      vertex 22.2 16.2 24
      vertex 25.2 16.2 24
    endloop
  endfacet
  facet normal 0 1 0
    outer loop
      vertex 22.2 16.2 24
      vertex 25.2 16.2 12
      vertex 22.2 16.2 12
    endloop
  endfacet
  facet normal 0 -1 0
    outer loop
      vertex 22.2 13.2 12
      vertex 25.2 13.2 24
      vertex 22.2 13.2 24
    endloop
  endfacet
  facet normal 0 -1 -0
    outer loop
      vertex 25.2 13.2 24
      vertex 22.2 13.2 12
      vertex 25.2 13.2 12
    endloop
  endfacet
  facet normal 1 -0 0
    outer loop
      vertex 28.2 16.2 24
      vertex 28.2 19.2 12
      vertex 28.2 19.2 24
    endloop
  endfacet
  facet normal 1 0 0
    outer loop
      vertex 28.2 19.2 12
      vertex 28.2 16.2 24
      vertex 28.2 16.2 12
    endloop
  endfacet
  facet normal -0 0 1
    outer loop
      vertex 25.2 19.2 24
      vertex 28.2 16.2 24
      vertex 28.2 19.2 24
    endloop
  endfacet
  facet normal 0 0 1
    outer loop
      vertex 28.2 16.2 24
      vertex 25.2 19.2 24
      vertex 25.2 16.2 24
    endloop
  endfacet
  facet normal 0 0 -1
    outer loop
      vertex 25.2 16.2 12
      vertex 28.2 19.2 12
      vertex 28.2 16.2 12
    endloop
  endfacet
  facet normal -0 0 -1
    outer loop
      vertex 28.2 19.2 12
      vertex 25.2 16.2 12
      vertex 25.2 19.2 12
    endloop
  endfacet
  facet normal -1 0 0
    outer loop
      vertex 25.2 16.2 12
      vertex 25.2 19.2 24
      vertex 25.2 19.2 12
    endloop
  endfacet
  facet normal -1 -0 0
    outer loop
      vertex 25.2 19.2 24
      vertex 25.2 16.2 12
      vertex 25.2 16.2 24
    endloop
  endfacet
  facet normal 0 1 -0
    outer loop
      vertex 28.2 19.2 12
      vertex 25.2 19.2 24
      vertex 28.2 19.2 24
    endloop
  endfacet
  facet normal 0 1 0
    outer loop
      vertex 25.2 19.2 24
      vertex 28.2 19.2 12
      vertex 25.2 19.2 12
    endloop
  endfacet
  facet normal 0 -1 0
    outer loop
      vertex 25.2 16.2 12
      vertex 28.2 16.2 24
      vertex 25.2 16.2 24
    endloop
  endfacet
  facet normal 0 -1 -0
    outer loop
      vertex 28.2 16.2 24
      vertex 25.2 16.2 12
      vertex 28.2 16.2 12
    endloop
  endfacet
  facet normal 1 -0 0
    outer loop
      vertex 37.2 10.2 24
      vertex 37.2 13.2 12
      vertex 37.2 13.2 24
    endloop
  endfacet
  facet normal 1 0 0
    outer loop
      vertex 37.2 13.2 12
      vertex 37.2 10.2 24
      vertex 37.2 10.2 12
    endloop
  endfacet
  facet normal 0 0 1
    outer loop
      vertex 40.2 16.2 24
      vertex 37.2 13.2 24
      vertex 40.2 13.2 24
    endloop
  endfacet
  facet normal -0 0 1
    outer loop
      vertex 34.2 16.2 24
      vertex 37.2 13.2 24
      vertex 40.2 16.2 24
    endloop
  endfacet
  facet normal 0 0 1
    outer loop
      vertex 34.2 10.2 24
      vertex 37.2 13.2 24
      vertex 34.2 16.2 24
    endloop
  endfacet
  facet normal 0 0 1
    outer loop
      vertex 37.2 13.2 24
      vertex 34.2 10.2 24
      vertex 37.2 10.2 24
    endloop
  endfacet
  facet normal 0 0 -1
    outer loop
      vertex 37.2 10.2 12
      vertex 34.2 10.2 12
      vertex 37.2 13.2 12
    endloop
  endfacet
  facet normal 0 0 -1
    outer loop
      vertex 37.2 13.2 12
      vertex 40.2 16.2 12
      vertex 40.2 13.2 12
    endloop
  endfacet
  facet normal 0 0 -1
    outer loop
      vertex 34.2 16.2 12
      vertex 37.2 13.2 12
      vertex 34.2 10.2 12
    endloop
  endfacet
  facet normal 0 0 -1
    outer loop
      vertex 37.2 13.2 12
      vertex 34.2 16.2 12
      vertex 40.2 16.2 12
    endloop
  endfacet
  facet normal -1 0 0
    outer loop
      vertex 34.2 10.2 12
      vertex 34.2 16.2 24
      vertex 34.2 16.2 12
    endloop
  endfacet
  facet normal -1 -0 0
    outer loop
      vertex 34.2 16.2 24
      vertex 34.2 10.2 12
      vertex 34.2 10.2 24
    endloop
  endfacet
  facet normal 0 -1 0
    outer loop
      vertex 34.2 10.2 12
      vertex 37.2 10.2 24
      vertex 34.2 10.2 24
    endloop
  endfacet
  facet normal 0 -1 -0
    outer loop
      vertex 37.2 10.2 24
      vertex 34.2 10.2 12
      vertex 37.2 10.2 12
    endloop
  endfacet
  facet normal 0 1 -0
    outer loop
      vertex 40.2 16.2 12
      vertex 34.2 16.2 24
      vertex 40.2 16.2 24
    endloop
  endfacet
  facet normal 0 1 0
    outer loop
      vertex 34.2 16.2 24
      vertex 40.2 16.2 12
      vertex 34.2 16.2 12
    endloop
  endfacet
  facet normal -1 0 0
    outer loop
      vertex 37.2 19.2 24
      vertex 37.2 22.2 36
      vertex 37.2 22.2 24
    endloop
  endfacet
  facet normal -1 -0 0
    outer loop
      vertex 37.2 22.2 36
      vertex 37.2 19.2 24
      vertex 37.2 19.2 36
    endloop
  endfacet
  facet normal -0 0 1
    outer loop
      vertex 34.2 22.2 24
      vertex 37.2 19.2 24
      vertex 37.2 22.2 24
    endloop
  endfacet
  facet normal 0 0 1
    outer loop
      vertex 37.2 19.2 24
      vertex 34.2 22.2 24
      vertex 34.2 19.2 24
    endloop
  endfacet
  facet normal 0 0 -1
    outer loop
      vertex 40.2 19.2 12
      vertex 37.2 22.2 12
      vertex 40.2 25.2 12
    endloop
  endfacet
  facet normal 0 0 -1
    outer loop
      vertex 34.2 19.2 12
      vertex 37.2 22.2 12
      vertex 40.2 19.2 12
    endloop
  endfacet
  facet normal -0 0 -1
    outer loop
      vertex 37.2 22.2 12
      vertex 34.2 19.2 12
      vertex 34.2 22.2 12
    endloop
  endfacet
  facet normal -0 0 -1
    outer loop
      vertex 40.2 25.2 12
      vertex 37.2 22.2 12
      vertex 37.2 25.2 12
    endloop
  endfacet
  facet normal -1 0 0
    outer loop
      vertex 34.2 19.2 12
      vertex 34.2 22.2 24
      vertex 34.2 22.2 12
    endloop
  endfacet
  facet normal -1 -0 0
    outer loop
      vertex 34.2 22.2 24
      vertex 34.2 19.2 12
      vertex 34.2 19.2 24
    endloop
  endfacet
  facet normal 0 1 -0
    outer loop
      vertex 37.2 22.2 12
      vertex 34.2 22.2 24
      vertex 37.2 22.2 24
    endloop
  endfacet
  facet normal 0 1 0
    outer loop
      vertex 34.2 22.2 24
      vertex 37.2 22.2 12
      vertex 34.2 22.2 12
    endloop
  endfacet
  facet normal 0 -1 0
    outer loop
      vertex 34.2 19.2 24
      vertex 34.2 19.2 12
      vertex 37.2 19.2 24
    endloop
  endfacet
  facet normal 0 -1 0
    outer loop
      vertex 37.2 19.2 24
      vertex 40.2 19.2 36
      vertex 37.2 19.2 36
    endloop
  endfacet
  facet normal 0 -1 0
    outer loop
      vertex 40.2 19.2 12
      vertex 37.2 19.2 24
      vertex 34.2 19.2 12
    endloop
  endfacet
  facet normal 0 -1 0
    outer loop
      vertex 37.2 19.2 24
      vertex 40.2 19.2 12
      vertex 40.2 19.2 36
    endloop
  endfacet
  facet normal 1 -0 0
    outer loop
      vertex 40.2 13.2 24
      vertex 40.2 16.2 12
      vertex 40.2 16.2 24
    endloop
  endfacet
  facet normal 1 0 0
    outer loop
      vertex 40.2 16.2 12
      vertex 40.2 13.2 24
      vertex 40.2 13.2 12
    endloop
  endfacet
  facet normal 0 -1 0
    outer loop
      vertex 37.2 13.2 12
      vertex 40.2 13.2 24
      vertex 37.2 13.2 24
    endloop
  endfacet
  facet normal 0 -1 -0
    outer loop
      vertex 40.2 13.2 24
      vertex 37.2 13.2 12
      vertex 40.2 13.2 12
    endloop
  endfacet
  facet normal 1 0 0
    outer loop
      vertex 40.2 22.2 36
      vertex 40.2 19.2 36
      vertex 40.2 22.2 24
    endloop
  endfacet
  facet normal 1 -0 0
    outer loop
      vertex 40.2 22.2 24
      vertex 40.2 25.2 12
      vertex 40.2 25.2 24
    endloop
  endfacet
  facet normal 1 0 0
    outer loop
      vertex 40.2 19.2 12
      vertex 40.2 22.2 24
      vertex 40.2 19.2 36
    endloop
  endfacet
  facet normal 1 0 0
    outer loop
      vertex 40.2 22.2 24
      vertex 40.2 19.2 12
      vertex 40.2 25.2 12
    endloop
  endfacet
  facet normal -0 0 1
    outer loop
      vertex 37.2 22.2 36
      vertex 40.2 19.2 36
      vertex 40.2 22.2 36
    endloop
  endfacet
  facet normal 0 0 1
    outer loop
      vertex 40.2 19.2 36
      vertex 37.2 22.2 36
      vertex 37.2 19.2 36
    endloop
  endfacet
  facet normal 0 1 -0
    outer loop
      vertex 40.2 22.2 24
      vertex 37.2 22.2 36
      vertex 40.2 22.2 36
    endloop
  endfacet
  facet normal 0 1 0
    outer loop
      vertex 37.2 22.2 36
      vertex 40.2 22.2 24
      vertex 37.2 22.2 24
    endloop
  endfacet
  facet normal -0 0 1
    outer loop
      vertex 37.2 25.2 24
      vertex 40.2 22.2 24
      vertex 40.2 25.2 24
    endloop
  endfacet
  facet normal 0 0 1
    outer loop
      vertex 40.2 22.2 24
      vertex 37.2 25.2 24
      vertex 37.2 22.2 24
    endloop
  endfacet
  facet normal -1 0 0
    outer loop
      vertex 37.2 22.2 12
      vertex 37.2 25.2 24
      vertex 37.2 25.2 12
    endloop
  endfacet
  facet normal -1 -0 0
    outer loop
      vertex 37.2 25.2 24
      vertex 37.2 22.2 12
      vertex 37.2 22.2 24
    endloop
  endfacet
  facet normal 0 1 -0
    outer loop
      vertex 40.2 25.2 12
      vertex 37.2 25.2 24
      vertex 40.2 25.2 24
    endloop
  endfacet
  facet normal 0 1 0
    outer loop
      vertex 37.2 25.2 24
      vertex 40.2 25.2 12
      vertex 37.2 25.2 12
    endloop
  endfacet
  facet normal 1 -0 0
    outer loop
      vertex 52.2 16.2 24
      vertex 52.2 19.2 12
      vertex 52.2 19.2 24
    endloop
  endfacet
  facet normal 1 0 0
    outer loop
      vertex 52.2 19.2 12
      vertex 52.2 16.2 24
      vertex 52.2 16.2 12
    endloop
  endfacet
  facet normal -0 0 1
    outer loop
      vertex 49.2 19.2 24
      vertex 52.2 16.2 24
      vertex 52.2 19.2 24
    endloop
  endfacet
  facet normal 0 0 1
    outer loop
      vertex 52.2 16.2 24
      vertex 49.2 19.2 24
      vertex 49.2 16.2 24
    endloop
  endfacet
  facet normal 0 0 -1
    outer loop
      vertex 49.2 16.2 12
      vertex 52.2 19.2 12
      vertex 52.2 16.2 12
    endloop
  endfacet
  facet normal -0 0 -1
    outer loop
      vertex 52.2 19.2 12
      vertex 49.2 16.2 12
      vertex 49.2 19.2 12
    endloop
  endfacet
  facet normal -1 0 0
    outer loop
      vertex 49.2 16.2 12
      vertex 49.2 19.2 24
      vertex 49.2 19.2 12
    endloop
  endfacet
  facet normal -1 -0 0
    outer loop
      vertex 49.2 19.2 24
      vertex 49.2 16.2 12
      vertex 49.2 16.2 24
    endloop
  endfacet
  facet normal 0 1 -0
    outer loop
      vertex 52.2 19.2 12
      vertex 49.2 19.2 24
      vertex 52.2 19.2 24
    endloop
  endfacet
  facet normal 0 1 0
    outer loop
      vertex 49.2 19.2 24
      vertex 52.2 19.2 12
      vertex 49.2 19.2 12
    endloop
  endfacet
  facet normal 0 -1 0
    outer loop
      vertex 49.2 16.2 12
      vertex 52.2 16.2 24
      vertex 49.2 16.2 24
    endloop
  endfacet
  facet normal 0 -1 -0
    outer loop
      vertex 52.2 16.2 24
      vertex 49.2 16.2 12
      vertex 52.2 16.2 12
    endloop
  endfacet
  facet normal 1 -0 0
    outer loop
      vertex 52.2 22.2 24
      vertex 52.2 25.2 12
      vertex 52.2 25.2 24
    endloop
  endfacet
  facet normal 1 0 0
    outer loop
      vertex 52.2 25.2 12
      vertex 52.2 22.2 24
      vertex 52.2 22.2 12
    endloop
  endfacet
  facet normal -0 0 1
    outer loop
      vertex 49.2 25.2 24
      vertex 52.2 22.2 24
      vertex 52.2 25.2 24
    endloop
  endfacet
  facet normal 0 0 1
    outer loop
      vertex 52.2 22.2 24
      vertex 49.2 25.2 24
      vertex 49.2 22.2 24
    endloop
  endfacet
  facet normal 0 0 -1
    outer loop
      vertex 49.2 22.2 12
      vertex 52.2 25.2 12
      vertex 52.2 22.2 12
    endloop
  endfacet
  facet normal -0 0 -1
    outer loop
      vertex 52.2 25.2 12
      vertex 49.2 22.2 12
      vertex 49.2 25.2 12
    endloop
  endfacet
  facet normal -1 0 0
    outer loop
      vertex 49.2 22.2 12
      vertex 49.2 25.2 24
      vertex 49.2 25.2 12
    endloop
  endfacet
  facet normal -1 -0 0
    outer loop
      vertex 49.2 25.2 24
      vertex 49.2 22.2 12
      vertex 49.2 22.2 24
    endloop
  endfacet
  facet normal 0 1 -0
    outer loop
      vertex 52.2 25.2 12
      vertex 49.2 25.2 24
      vertex 52.2 25.2 24
    endloop
  endfacet
  facet normal 0 1 0
    outer loop
      vertex 49.2 25.2 24
      vertex 52.2 25.2 12
      vertex 49.2 25.2 12
    endloop
  endfacet
  facet normal 0 -1 0
    outer loop
      vertex 49.2 22.2 12
      vertex 52.2 22.2 24
      vertex 49.2 22.2 24
    endloop
  endfacet
  facet normal 0 -1 -0
    outer loop
      vertex 52.2 22.2 24
      vertex 49.2 22.2 12
      vertex 52.2 22.2 12
    endloop
  endfacet
  facet normal 1 -0 0
    outer loop
      vertex 127.2 22.2 24
      vertex 127.2 25.2 12
      vertex 127.2 25.2 24
    endloop
  endfacet
  facet normal 1 0 0
    outer loop
      vertex 127.2 25.2 12
      vertex 127.2 22.2 24
      vertex 127.2 22.2 12
    endloop
  endfacet
  facet normal -0 0 1
    outer loop
      vertex 124.2 25.2 24
      vertex 127.2 22.2 24
      vertex 127.2 25.2 24
    endloop
  endfacet
  facet normal 0 0 1
    outer loop
      vertex 127.2 22.2 24
      vertex 124.2 25.2 24
      vertex 124.2 22.2 24
    endloop
  endfacet
  facet normal 0 0 -1
    outer loop
      vertex 124.2 22.2 12
      vertex 127.2 25.2 12
      vertex 127.2 22.2 12
    endloop
  endfacet
  facet normal -0 0 -1
    outer loop
      vertex 127.2 25.2 12
      vertex 124.2 22.2 12
      vertex 124.2 25.2 12
    endloop
  endfacet
  facet normal -1 0 0
    outer loop
      vertex 124.2 22.2 12
      vertex 124.2 25.2 24
      vertex 124.2 25.2 12
    endloop
  endfacet
  facet normal -1 -0 0
    outer loop
      vertex 124.2 25.2 24
      vertex 124.2 22.2 12
      vertex 124.2 22.2 24
    endloop
  endfacet
  facet normal 0 1 -0
    outer loop
      vertex 127.2 25.2 12
      vertex 124.2 25.2 24
      vertex 127.2 25.2 24
    endloop
  endfacet
  facet normal 0 1 0
    outer loop
      vertex 124.2 25.2 24
      vertex 127.2 25.2 12
      vertex 124.2 25.2 12
    endloop
  endfacet
  facet normal 0 -1 0
    outer loop
      vertex 124.2 22.2 12
      vertex 127.2 22.2 24
      vertex 124.2 22.2 24
    endloop
  endfacet
  facet normal 0 -1 -0
    outer loop
      vertex 127.2 22.2 24
      vertex 124.2 22.2 12
      vertex 127.2 22.2 12
    endloop
  endfacet
endsolid OpenSCAD_Model
