solid OpenSCAD_Model
  facet normal 1 -0 0
    outer loop
      vertex 13.2 22.2 14.4
      vertex 13.2 25.2 12
      vertex 13.2 25.2 14.4
    endloop
  endfacet
  facet normal 1 0 0
    outer loop
      vertex 13.2 25.2 12
      vertex 13.2 22.2 14.4
      vertex 13.2 22.2 12
    endloop
  endfacet
  facet normal -0 0 1
    outer loop
      vertex 10.2 25.2 14.4
      vertex 13.2 22.2 14.4
      vertex 13.2 25.2 14.4
    endloop
  endfacet
  facet normal 0 0 1
    outer loop
      vertex 13.2 22.2 14.4
      vertex 10.2 25.2 14.4
      vertex 10.2 22.2 14.4
    endloop
  endfacet
  facet normal 0 0 -1
    outer loop
      vertex 10.2 22.2 12
      vertex 13.2 25.2 12
      vertex 13.2 22.2 12
    endloop
  endfacet
  facet normal -0 0 -1
    outer loop
      vertex 13.2 25.2 12
      vertex 10.2 22.2 12
      vertex 10.2 25.2 12
    endloop
  endfacet
  facet normal -1 0 0
    outer loop
      vertex 10.2 22.2 12
      vertex 10.2 25.2 14.4
      vertex 10.2 25.2 12
    endloop
  endfacet
  facet normal -1 -0 0
    outer loop
      vertex 10.2 25.2 14.4
      vertex 10.2 22.2 12
      vertex 10.2 22.2 14.4
    endloop
  endfacet
  facet normal 0 1 -0
    outer loop
      vertex 13.2 25.2 12
      vertex 10.2 25.2 14.4
      vertex 13.2 25.2 14.4
    endloop
  endfacet
  facet normal 0 1 0
    outer loop
      vertex 10.2 25.2 14.4
      vertex 13.2 25.2 12
      vertex 10.2 25.2 12
    endloop
  endfacet
  facet normal 0 -1 0
    outer loop
      vertex 10.2 22.2 12
      vertex 13.2 22.2 14.4
      vertex 10.2 22.2 14.4
    endloop
  endfacet
  facet normal 0 -1 -0
    outer loop
      vertex 13.2 22.2 14.4
      vertex 10.2 22.2 12
      vertex 13.2 22.2 12
    endloop
  endfacet
  facet normal -1 0 0
    outer loop
      vertex 25.2 22.2 14.4
      vertex 25.2 25.2 16.8
      vertex 25.2 25.2 14.4
    endloop
  endfacet
  facet normal -1 -0 0
    outer loop
      vertex 25.2 25.2 16.8
      vertex 25.2 22.2 14.4
      vertex 25.2 22.2 16.8
    endloop
  endfacet
  facet normal -0 0 1
    outer loop
      vertex 22.2 25.2 14.4
      vertex 25.2 22.2 14.4
      vertex 25.2 25.2 14.4
    endloop
  endfacet
  facet normal 0 0 1
    outer loop
      vertex 25.2 22.2 14.4
      vertex 22.2 25.2 14.4
      vertex 22.2 22.2 14.4
    endloop
  endfacet
  facet normal 0 0 -1
    outer loop
      vertex 25.2 22.2 12
      vertex 28.2 19.2 12
      vertex 25.2 19.2 12
    endloop
  endfacet
  facet normal 0 0 -1
    outer loop
      vertex 28.2 19.2 12
      vertex 25.2 22.2 12
      vertex 28.2 25.2 12
    endloop
  endfacet
  facet normal 0 0 -1
    outer loop
      vertex 22.2 25.2 12
      vertex 25.2 22.2 12
      vertex 22.2 22.2 12
    endloop
  endfacet
  facet normal 0 0 -1
    outer loop
      vertex 25.2 22.2 12
      vertex 22.2 25.2 12
      vertex 28.2 25.2 12
    endloop
  endfacet
  facet normal -1 0 0
    outer loop
      vertex 22.2 22.2 12
      vertex 22.2 25.2 14.4
      vertex 22.2 25.2 12
    endloop
  endfacet
  facet normal -1 -0 0
    outer loop
      vertex 22.2 25.2 14.4
      vertex 22.2 22.2 12
      vertex 22.2 22.2 14.4
    endloop
  endfacet
  facet normal 0 1 0
    outer loop
      vertex 28.2 25.2 16.8
      vertex 25.2 25.2 14.4
      vertex 25.2 25.2 16.8
    endloop
  endfacet
  facet normal 0 1 -0
    outer loop
      vertex 28.2 25.2 12
      vertex 25.2 25.2 14.4
      vertex 28.2 25.2 16.8
    endloop
  endfacet
  facet normal 0 1 0
    outer loop
      vertex 22.2 25.2 12
      vertex 25.2 25.2 14.4
      vertex 28.2 25.2 12
    endloop
  endfacet
  facet normal 0 1 0
    outer loop
      vertex 25.2 25.2 14.4
      vertex 22.2 25.2 12
      vertex 22.2 25.2 14.4
    endloop
  endfacet
  facet normal 0 -1 0
    outer loop
      vertex 25.2 22.2 14.4
      vertex 28.2 22.2 16.8
      vertex 25.2 22.2 16.8
    endloop
  endfacet
  facet normal 0 -1 -0
    outer loop
      vertex 28.2 22.2 16.8
      vertex 25.2 22.2 14.4
      vertex 28.2 22.2 14.4
    endloop
  endfacet
  facet normal 0 -1 0
    outer loop
      vertex 22.2 22.2 12
      vertex 25.2 22.2 14.4
      vertex 22.2 22.2 14.4
    endloop
  endfacet
  facet normal 0 -1 -0
    outer loop
      vertex 25.2 22.2 14.4
      vertex 22.2 22.2 12
      vertex 25.2 22.2 12
    endloop
  endfacet
  facet normal 1 0 0
    outer loop
      vertex 28.2 22.2 14.4
      vertex 28.2 25.2 16.8
      vertex 28.2 22.2 16.8
    endloop
  endfacet
  facet normal 1 0 0
    outer loop
      vertex 28.2 25.2 16.8
      vertex 28.2 22.2 14.4
      vertex 28.2 25.2 12
    endloop
  endfacet
  facet normal 1 0 0
    outer loop
      vertex 28.2 19.2 12
      vertex 28.2 22.2 14.4
      vertex 28.2 19.2 14.4
    endloop
  endfacet
  facet normal 1 0 0
    outer loop
      vertex 28.2 22.2 14.4
      vertex 28.2 19.2 12
      vertex 28.2 25.2 12
    endloop
  endfacet
  facet normal -0 0 1
    outer loop
      vertex 25.2 22.2 14.4
      vertex 28.2 19.2 14.4
      vertex 28.2 22.2 14.4
    endloop
  endfacet
  facet normal 0 0 1
    outer loop
      vertex 28.2 19.2 14.4
      vertex 25.2 22.2 14.4
      vertex 25.2 19.2 14.4
    endloop
  endfacet
  facet normal -1 0 0
    outer loop
      vertex 25.2 19.2 12
      vertex 25.2 22.2 14.4
      vertex 25.2 22.2 12
    endloop
  endfacet
  facet normal -1 -0 0
    outer loop
      vertex 25.2 22.2 14.4
      vertex 25.2 19.2 12
      vertex 25.2 19.2 14.4
    endloop
  endfacet
  facet normal 0 -1 0
    outer loop
      vertex 25.2 19.2 12
      vertex 28.2 19.2 14.4
      vertex 25.2 19.2 14.4
    endloop
  endfacet
  facet normal 0 -1 -0
    outer loop
      vertex 28.2 19.2 14.4
      vertex 25.2 19.2 12
      vertex 28.2 19.2 12
    endloop
  endfacet
  facet normal -0 0 1
    outer loop
      vertex 25.2 25.2 16.8
      vertex 28.2 22.2 16.8
      vertex 28.2 25.2 16.8
    endloop
  endfacet
  facet normal 0 0 1
    outer loop
      vertex 28.2 22.2 16.8
      vertex 25.2 25.2 16.8
      vertex 25.2 22.2 16.8
    endloop
  endfacet
  facet normal 1 -0 0
    outer loop
      vertex 34.2 19.2 14.4
      vertex 34.2 22.2 12
      vertex 34.2 22.2 14.4
    endloop
  endfacet
  facet normal 1 0 0
    outer loop
      vertex 34.2 22.2 12
      vertex 34.2 19.2 14.4
      vertex 34.2 19.2 12
    endloop
  endfacet
  facet normal -0 0 1
    outer loop
      vertex 31.2 22.2 14.4
      vertex 34.2 19.2 14.4
      vertex 34.2 22.2 14.4
    endloop
  endfacet
  facet normal 0 0 1
    outer loop
      vertex 34.2 19.2 14.4
      vertex 31.2 22.2 14.4
      vertex 31.2 19.2 14.4
    endloop
  endfacet
  facet normal 0 0 -1
    outer loop
      vertex 31.2 19.2 12
      vertex 34.2 22.2 12
      vertex 34.2 19.2 12
    endloop
  endfacet
  facet normal -0 0 -1
    outer loop
      vertex 34.2 22.2 12
      vertex 31.2 19.2 12
      vertex 31.2 22.2 12
    endloop
  endfacet
  facet normal -1 0 0
    outer loop
      vertex 31.2 19.2 12
      vertex 31.2 22.2 14.4
      vertex 31.2 22.2 12
    endloop
  endfacet
  facet normal -1 -0 0
    outer loop
      vertex 31.2 22.2 14.4
      vertex 31.2 19.2 12
      vertex 31.2 19.2 14.4
    endloop
  endfacet
  facet normal 0 1 -0
    outer loop
      vertex 34.2 22.2 12
      vertex 31.2 22.2 14.4
      vertex 34.2 22.2 14.4
    endloop
  endfacet
  facet normal 0 1 0
    outer loop
      vertex 31.2 22.2 14.4
      vertex 34.2 22.2 12
      vertex 31.2 22.2 12
    endloop
  endfacet
  facet normal 0 -1 0
    outer loop
      vertex 31.2 19.2 12
      vertex 34.2 19.2 14.4
      vertex 31.2 19.2 14.4
    endloop
  endfacet
  facet normal 0 -1 -0
    outer loop
      vertex 34.2 19.2 14.4
      vertex 31.2 19.2 12
      vertex 34.2 19.2 12
    endloop
  endfacet
  facet normal 1 -0 0
    outer loop
      vertex 43.2 19.2 26.4
      vertex 43.2 22.2 19.2
      vertex 43.2 22.2 26.4
    endloop
  endfacet
  facet normal 1 0 0
    outer loop
      vertex 43.2 22.2 19.2
      vertex 43.2 19.2 26.4
      vertex 43.2 19.2 19.2
    endloop
  endfacet
  facet normal -0 0 1
    outer loop
      vertex 40.2 22.2 26.4
      vertex 43.2 19.2 26.4
      vertex 43.2 22.2 26.4
    endloop
  endfacet
  facet normal 0 0 1
    outer loop
      vertex 43.2 19.2 26.4
      vertex 40.2 22.2 26.4
      vertex 40.2 19.2 26.4
    endloop
  endfacet
  facet normal 0 0 -1
    outer loop
      vertex 40.2 19.2 12
      vertex 46.2 22.2 12
      vertex 46.2 19.2 12
    endloop
  endfacet
  facet normal -0 0 -1
    outer loop
      vertex 46.2 22.2 12
      vertex 40.2 19.2 12
      vertex 40.2 22.2 12
    endloop
  endfacet
  facet normal -1 0 0
    outer loop
      vertex 40.2 19.2 12
      vertex 40.2 22.2 26.4
      vertex 40.2 22.2 12
    endloop
  endfacet
  facet normal -1 -0 0
    outer loop
      vertex 40.2 22.2 26.4
      vertex 40.2 19.2 12
      vertex 40.2 19.2 26.4
    endloop
  endfacet
  facet normal 0 1 0
    outer loop
      vertex 46.2 22.2 19.2
      vertex 46.2 22.2 12
      vertex 43.2 22.2 19.2
    endloop
  endfacet
  facet normal 0 1 -0
    outer loop
      vertex 43.2 22.2 19.2
      vertex 40.2 22.2 26.4
      vertex 43.2 22.2 26.4
    endloop
  endfacet
  facet normal 0 1 0
    outer loop
      vertex 40.2 22.2 12
      vertex 43.2 22.2 19.2
      vertex 46.2 22.2 12
    endloop
  endfacet
  facet normal 0 1 0
    outer loop
      vertex 43.2 22.2 19.2
      vertex 40.2 22.2 12
      vertex 40.2 22.2 26.4
    endloop
  endfacet
  facet normal 0 -1 0
    outer loop
      vertex 40.2 19.2 26.4
      vertex 43.2 19.2 19.2
      vertex 43.2 19.2 26.4
    endloop
  endfacet
  facet normal 0 -1 0
    outer loop
      vertex 40.2 19.2 12
      vertex 43.2 19.2 19.2
      vertex 40.2 19.2 26.4
    endloop
  endfacet
  facet normal 0 -1 0
    outer loop
      vertex 46.2 19.2 12
      vertex 43.2 19.2 19.2
      vertex 40.2 19.2 12
    endloop
  endfacet
  facet normal 0 -1 0
    outer loop
      vertex 43.2 19.2 19.2
      vertex 46.2 19.2 12
      vertex 46.2 19.2 19.2
    endloop
  endfacet
  facet normal 1 -0 0
    outer loop
      vertex 46.2 19.2 19.2
      vertex 46.2 22.2 12
      vertex 46.2 22.2 19.2
    endloop
  endfacet
  facet normal 1 0 0
    outer loop
      vertex 46.2 22.2 12
      vertex 46.2 19.2 19.2
      vertex 46.2 19.2 12
    endloop
  endfacet
  facet normal -0 0 1
    outer loop
      vertex 43.2 22.2 19.2
      vertex 46.2 19.2 19.2
      vertex 46.2 22.2 19.2
    endloop
  endfacet
  facet normal 0 0 1
    outer loop
      vertex 46.2 19.2 19.2
      vertex 43.2 22.2 19.2
      vertex 43.2 19.2 19.2
    endloop
  endfacet
  facet normal 1 -0 0
    outer loop
      vertex 52.2 13.2 14.4
      vertex 52.2 16.2 12
      vertex 52.2 16.2 14.4
    endloop
  endfacet
  facet normal 1 0 0
    outer loop
      vertex 52.2 16.2 12
      vertex 52.2 13.2 14.4
      vertex 52.2 13.2 12
    endloop
  endfacet
  facet normal -0 0 1
    outer loop
      vertex 49.2 16.2 14.4
      vertex 52.2 13.2 14.4
      vertex 52.2 16.2 14.4
    endloop
  endfacet
  facet normal 0 0 1
    outer loop
      vertex 52.2 13.2 14.4
      vertex 49.2 16.2 14.4
      vertex 49.2 13.2 14.4
    endloop
  endfacet
  facet normal 0 0 -1
    outer loop
      vertex 49.2 13.2 12
      vertex 52.2 16.2 12
      vertex 52.2 13.2 12
    endloop
  endfacet
  facet normal -0 0 -1
    outer loop
      vertex 52.2 16.2 12
      vertex 49.2 13.2 12
      vertex 49.2 16.2 12
    endloop
  endfacet
  facet normal -1 0 0
    outer loop
      vertex 49.2 13.2 12
      vertex 49.2 16.2 14.4
      vertex 49.2 16.2 12
    endloop
  endfacet
  facet normal -1 -0 0
    outer loop
      vertex 49.2 16.2 14.4
      vertex 49.2 13.2 12
      vertex 49.2 13.2 14.4
    endloop
  endfacet
  facet normal 0 1 -0
    outer loop
      vertex 52.2 16.2 12
      vertex 49.2 16.2 14.4
      vertex 52.2 16.2 14.4
    endloop
  endfacet
  facet normal 0 1 0
    outer loop
      vertex 49.2 16.2 14.4
      vertex 52.2 16.2 12
      vertex 49.2 16.2 12
    endloop
  endfacet
  facet normal 0 -1 0
    outer loop
      vertex 49.2 13.2 12
      vertex 52.2 13.2 14.4
      vertex 49.2 13.2 14.4
    endloop
  endfacet
  facet normal 0 -1 -0
    outer loop
      vertex 52.2 13.2 14.4
      vertex 49.2 13.2 12
      vertex 52.2 13.2 12
    endloop
  endfacet
  facet normal 1 -0 0
    outer loop
      vertex 58.2 10.2 24
      vertex 58.2 13.2 12
      vertex 58.2 13.2 24
    endloop
  endfacet
  facet normal 1 0 0
    outer loop
      vertex 58.2 13.2 12
      vertex 58.2 10.2 24
      vertex 58.2 10.2 12
    endloop
  endfacet
  facet normal -0 0 1
    outer loop
      vertex 55.2 13.2 24
      vertex 58.2 10.2 24
      vertex 58.2 13.2 24
    endloop
  endfacet
  facet normal 0 0 1
    outer loop
      vertex 58.2 10.2 24
      vertex 55.2 13.2 24
      vertex 55.2 10.2 24
    endloop
  endfacet
  facet normal 0 0 -1
    outer loop
      vertex 55.2 10.2 12
      vertex 58.2 13.2 12
      vertex 58.2 10.2 12
    endloop
  endfacet
  facet normal -0 0 -1
    outer loop
      vertex 58.2 13.2 12
      vertex 55.2 10.2 12
      vertex 55.2 13.2 12
    endloop
  endfacet
  facet normal -1 0 0
    outer loop
      vertex 55.2 10.2 12
      vertex 55.2 13.2 24
      vertex 55.2 13.2 12
    endloop
  endfacet
  facet normal -1 -0 0
    outer loop
      vertex 55.2 13.2 24
      vertex 55.2 10.2 12
      vertex 55.2 10.2 24
    endloop
  endfacet
  facet normal 0 1 -0
    outer loop
      vertex 58.2 13.2 12
      vertex 55.2 13.2 24
      vertex 58.2 13.2 24
    endloop
  endfacet
  facet normal 0 1 0
    outer loop
      vertex 55.2 13.2 24
      vertex 58.2 13.2 12
      vertex 55.2 13.2 12
    endloop
  endfacet
  facet normal 0 -1 0
    outer loop
      vertex 55.2 10.2 12
      vertex 58.2 10.2 24
      vertex 55.2 10.2 24
    endloop
  endfacet
  facet normal 0 -1 -0
    outer loop
      vertex 58.2 10.2 24
      vertex 55.2 10.2 12
      vertex 58.2 10.2 12
    endloop
  endfacet
  facet normal -0 0 1
    outer loop
      vertex 55.2 19.2 14.4
      vertex 61.2 16.2 14.4
      vertex 61.2 19.2 14.4
    endloop
  endfacet
  facet normal 0 0 1
    outer loop
      vertex 61.2 16.2 14.4
      vertex 55.2 19.2 14.4
      vertex 55.2 16.2 14.4
    endloop
  endfacet
  facet normal 0 0 -1
    outer loop
      vertex 55.2 16.2 12
      vertex 61.2 19.2 12
      vertex 61.2 16.2 12
    endloop
  endfacet
  facet normal -0 0 -1
    outer loop
      vertex 61.2 19.2 12
      vertex 55.2 16.2 12
      vertex 55.2 19.2 12
    endloop
  endfacet
  facet normal -1 0 0
    outer loop
      vertex 55.2 16.2 12
      vertex 55.2 19.2 14.4
      vertex 55.2 19.2 12
    endloop
  endfacet
  facet normal -1 -0 0
    outer loop
      vertex 55.2 19.2 14.4
      vertex 55.2 16.2 12
      vertex 55.2 16.2 14.4
    endloop
  endfacet
  facet normal 0 1 -0
    outer loop
      vertex 61.2 19.2 12
      vertex 55.2 19.2 14.4
      vertex 61.2 19.2 14.4
    endloop
  endfacet
  facet normal 0 1 0
    outer loop
      vertex 55.2 19.2 14.4
      vertex 61.2 19.2 12
      vertex 55.2 19.2 12
    endloop
  endfacet
  facet normal 0 -1 0
    outer loop
      vertex 55.2 16.2 12
      vertex 61.2 16.2 14.4
      vertex 55.2 16.2 14.4
    endloop
  endfacet
  facet normal 0 -1 -0
    outer loop
      vertex 61.2 16.2 14.4
      vertex 55.2 16.2 12
      vertex 61.2 16.2 12
    endloop
  endfacet
  facet normal 1 -0 0
    outer loop
      vertex 61.2 16.2 14.4
      vertex 61.2 19.2 12
      vertex 61.2 19.2 14.4
    endloop
  endfacet
  facet normal 1 0 0
    outer loop
      vertex 61.2 19.2 12
      vertex 61.2 16.2 14.4
      vertex 61.2 16.2 12
    endloop
  endfacet
  facet normal 1 0 0
    outer loop
      vertex 64.2 22.2 19.2
      vertex 64.2 25.2 36
      vertex 64.2 22.2 36
    endloop
  endfacet
  facet normal 1 0 0
    outer loop
      vertex 64.2 25.2 36
      vertex 64.2 22.2 19.2
      vertex 64.2 25.2 12
    endloop
  endfacet
  facet normal 1 0 0
    outer loop
      vertex 64.2 19.2 12
      vertex 64.2 22.2 19.2
      vertex 64.2 19.2 19.2
    endloop
  endfacet
  facet normal 1 0 0
    outer loop
      vertex 64.2 22.2 19.2
      vertex 64.2 19.2 12
      vertex 64.2 25.2 12
    endloop
  endfacet
  facet normal -0 0 1
    outer loop
      vertex 61.2 22.2 19.2
      vertex 64.2 19.2 19.2
      vertex 64.2 22.2 19.2
    endloop
  endfacet
  facet normal 0 0 1
    outer loop
      vertex 64.2 19.2 19.2
      vertex 61.2 22.2 19.2
      vertex 61.2 19.2 19.2
    endloop
  endfacet
  facet normal 0 0 -1
    outer loop
      vertex 61.2 19.2 12
      vertex 64.2 25.2 12
      vertex 64.2 19.2 12
    endloop
  endfacet
  facet normal -0 0 -1
    outer loop
      vertex 64.2 25.2 12
      vertex 61.2 19.2 12
      vertex 61.2 25.2 12
    endloop
  endfacet
  facet normal -1 0 0
    outer loop
      vertex 61.2 25.2 12
      vertex 61.2 22.2 19.2
      vertex 61.2 25.2 36
    endloop
  endfacet
  facet normal -1 0 0
    outer loop
      vertex 61.2 19.2 14.4
      vertex 61.2 25.2 12
      vertex 61.2 19.2 12
    endloop
  endfacet
  facet normal -1 0 0
    outer loop
      vertex 61.2 25.2 12
      vertex 61.2 19.2 14.4
      vertex 61.2 22.2 19.2
    endloop
  endfacet
  facet normal -1 -0 0
    outer loop
      vertex 61.2 22.2 19.2
      vertex 61.2 19.2 14.4
      vertex 61.2 19.2 19.2
    endloop
  endfacet
  facet normal -1 -0 0
    outer loop
      vertex 61.2 25.2 36
      vertex 61.2 22.2 19.2
      vertex 61.2 22.2 36
    endloop
  endfacet
  facet normal 0 -1 0
    outer loop
      vertex 61.2 22.2 19.2
      vertex 64.2 22.2 36
      vertex 61.2 22.2 36
    endloop
  endfacet
  facet normal 0 -1 -0
    outer loop
      vertex 64.2 22.2 36
      vertex 61.2 22.2 19.2
      vertex 64.2 22.2 19.2
    endloop
  endfacet
  facet normal 0 -1 0
    outer loop
      vertex 61.2 19.2 14.4
      vertex 64.2 19.2 19.2
      vertex 61.2 19.2 19.2
    endloop
  endfacet
  facet normal 0 -1 0
    outer loop
      vertex 64.2 19.2 12
      vertex 61.2 19.2 14.4
      vertex 61.2 19.2 12
    endloop
  endfacet
  facet normal 0 -1 0
    outer loop
      vertex 61.2 19.2 14.4
      vertex 64.2 19.2 12
      vertex 64.2 19.2 19.2
    endloop
  endfacet
  facet normal -0 0 1
    outer loop
      vertex 61.2 25.2 36
      vertex 64.2 22.2 36
      vertex 64.2 25.2 36
    endloop
  endfacet
  facet normal 0 0 1
    outer loop
      vertex 64.2 22.2 36
      vertex 61.2 25.2 36
      vertex 61.2 22.2 36
    endloop
  endfacet
  facet normal 0 1 -0
    outer loop
      vertex 64.2 25.2 12
      vertex 61.2 25.2 36
      vertex 64.2 25.2 36
    endloop
  endfacet
  facet normal 0 1 0
    outer loop
      vertex 61.2 25.2 36
      vertex 64.2 25.2 12
      vertex 61.2 25.2 12
    endloop
  endfacet
  facet normal 1 -0 0
    outer loop
      vertex 70.2 13.2 14.4
      vertex 70.2 16.2 12
      vertex 70.2 16.2 14.4
    endloop
  endfacet
  facet normal 1 0 0
    outer loop
      vertex 70.2 16.2 12
      vertex 70.2 13.2 14.4
      vertex 70.2 13.2 12
    endloop
  endfacet
  facet normal -0 0 1
    outer loop
      vertex 67.2 16.2 14.4
      vertex 70.2 13.2 14.4
      vertex 70.2 16.2 14.4
    endloop
  endfacet
  facet normal 0 0 1
    outer loop
      vertex 70.2 13.2 14.4
      vertex 67.2 16.2 14.4
      vertex 67.2 13.2 14.4
    endloop
  endfacet
  facet normal 0 0 -1
    outer loop
      vertex 67.2 13.2 12
      vertex 70.2 16.2 12
      vertex 70.2 13.2 12
    endloop
  endfacet
  facet normal -0 0 -1
    outer loop
      vertex 70.2 16.2 12
      vertex 67.2 13.2 12
      vertex 67.2 16.2 12
    endloop
  endfacet
  facet normal -1 0 0
    outer loop
      vertex 67.2 13.2 12
      vertex 67.2 16.2 14.4
      vertex 67.2 16.2 12
    endloop
  endfacet
  facet normal -1 -0 0
    outer loop
      vertex 67.2 16.2 14.4
      vertex 67.2 13.2 12
      vertex 67.2 13.2 14.4
    endloop
  endfacet
  facet normal 0 1 -0
    outer loop
      vertex 70.2 16.2 12
      vertex 67.2 16.2 14.4
      vertex 70.2 16.2 14.4
    endloop
  endfacet
  facet normal 0 1 0
    outer loop
      vertex 67.2 16.2 14.4
      vertex 70.2 16.2 12
      vertex 67.2 16.2 12
    endloop
  endfacet
  facet normal 0 -1 0
    outer loop
      vertex 67.2 13.2 12
      vertex 70.2 13.2 14.4
      vertex 67.2 13.2 14.4
    endloop
  endfacet
  facet normal 0 -1 -0
    outer loop
      vertex 70.2 13.2 14.4
      vertex 67.2 13.2 12
      vertex 70.2 13.2 12
    endloop
  endfacet
  facet normal 1 0 0
    outer loop
      vertex 76.2 16.2 14.4
      vertex 76.2 19.2 21.6
      vertex 76.2 16.2 21.6
    endloop
  endfacet
  facet normal 1 0 0
    outer loop
      vertex 76.2 19.2 21.6
      vertex 76.2 16.2 14.4
      vertex 76.2 19.2 12
    endloop
  endfacet
  facet normal 1 0 0
    outer loop
      vertex 76.2 13.2 12
      vertex 76.2 16.2 14.4
      vertex 76.2 13.2 14.4
    endloop
  endfacet
  facet normal 1 0 0
    outer loop
      vertex 76.2 16.2 14.4
      vertex 76.2 13.2 12
      vertex 76.2 19.2 12
    endloop
  endfacet
  facet normal -0 0 1
    outer loop
      vertex 73.2 16.2 14.4
      vertex 76.2 13.2 14.4
      vertex 76.2 16.2 14.4
    endloop
  endfacet
  facet normal 0 0 1
    outer loop
      vertex 76.2 13.2 14.4
      vertex 73.2 16.2 14.4
      vertex 73.2 13.2 14.4
    endloop
  endfacet
  facet normal 0 0 -1
    outer loop
      vertex 73.2 13.2 12
      vertex 76.2 19.2 12
      vertex 76.2 13.2 12
    endloop
  endfacet
  facet normal -0 0 -1
    outer loop
      vertex 76.2 19.2 12
      vertex 73.2 13.2 12
      vertex 73.2 19.2 12
    endloop
  endfacet
  facet normal -1 0 0
    outer loop
      vertex 73.2 19.2 12
      vertex 73.2 16.2 14.4
      vertex 73.2 19.2 21.6
    endloop
  endfacet
  facet normal -1 0 0
    outer loop
      vertex 73.2 13.2 12
      vertex 73.2 16.2 14.4
      vertex 73.2 19.2 12
    endloop
  endfacet
  facet normal -1 -0 0
    outer loop
      vertex 73.2 16.2 14.4
      vertex 73.2 13.2 12
      vertex 73.2 13.2 14.4
    endloop
  endfacet
  facet normal -1 -0 0
    outer loop
      vertex 73.2 19.2 21.6
      vertex 73.2 16.2 14.4
      vertex 73.2 16.2 21.6
    endloop
  endfacet
  facet normal 0 -1 0
    outer loop
      vertex 73.2 16.2 14.4
      vertex 76.2 16.2 21.6
      vertex 73.2 16.2 21.6
    endloop
  endfacet
  facet normal 0 -1 -0
    outer loop
      vertex 76.2 16.2 21.6
      vertex 73.2 16.2 14.4
      vertex 76.2 16.2 14.4
    endloop
  endfacet
  facet normal 0 -1 0
    outer loop
      vertex 73.2 13.2 12
      vertex 76.2 13.2 14.4
      vertex 73.2 13.2 14.4
    endloop
  endfacet
  facet normal 0 -1 -0
    outer loop
      vertex 76.2 13.2 14.4
      vertex 73.2 13.2 12
      vertex 76.2 13.2 12
    endloop
  endfacet
  facet normal -0 0 1
    outer loop
      vertex 73.2 19.2 21.6
      vertex 76.2 16.2 21.6
      vertex 76.2 19.2 21.6
    endloop
  endfacet
  facet normal 0 0 1
    outer loop
      vertex 76.2 16.2 21.6
      vertex 73.2 19.2 21.6
      vertex 73.2 16.2 21.6
    endloop
  endfacet
  facet normal 0 1 -0
    outer loop
      vertex 76.2 19.2 12
      vertex 73.2 19.2 21.6
      vertex 76.2 19.2 21.6
    endloop
  endfacet
  facet normal 0 1 0
    outer loop
      vertex 73.2 19.2 21.6
      vertex 76.2 19.2 12
      vertex 73.2 19.2 12
    endloop
  endfacet
  facet normal 1 -0 0
    outer loop
      vertex 79.2 10.2 14.4
      vertex 79.2 13.2 12
      vertex 79.2 13.2 14.4
    endloop
  endfacet
  facet normal 1 0 0
    outer loop
      vertex 79.2 13.2 12
      vertex 79.2 10.2 14.4
      vertex 79.2 10.2 12
    endloop
  endfacet
  facet normal -0 0 1
    outer loop
      vertex 76.2 13.2 14.4
      vertex 79.2 10.2 14.4
      vertex 79.2 13.2 14.4
    endloop
  endfacet
  facet normal 0 0 1
    outer loop
      vertex 79.2 10.2 14.4
      vertex 76.2 13.2 14.4
      vertex 76.2 10.2 14.4
    endloop
  endfacet
  facet normal 0 0 -1
    outer loop
      vertex 76.2 10.2 12
      vertex 79.2 13.2 12
      vertex 79.2 10.2 12
    endloop
  endfacet
  facet normal -0 0 -1
    outer loop
      vertex 79.2 13.2 12
      vertex 76.2 10.2 12
      vertex 76.2 13.2 12
    endloop
  endfacet
  facet normal -1 0 0
    outer loop
      vertex 76.2 10.2 12
      vertex 76.2 13.2 14.4
      vertex 76.2 13.2 12
    endloop
  endfacet
  facet normal -1 -0 0
    outer loop
      vertex 76.2 13.2 14.4
      vertex 76.2 10.2 12
      vertex 76.2 10.2 14.4
    endloop
  endfacet
  facet normal 0 1 -0
    outer loop
      vertex 79.2 13.2 12
      vertex 76.2 13.2 14.4
      vertex 79.2 13.2 14.4
    endloop
  endfacet
  facet normal 0 1 0
    outer loop
      vertex 76.2 13.2 14.4
      vertex 79.2 13.2 12
      vertex 76.2 13.2 12
    endloop
  endfacet
  facet normal 0 -1 0
    outer loop
      vertex 76.2 10.2 12
      vertex 79.2 10.2 14.4
      vertex 76.2 10.2 14.4
    endloop
  endfacet
  facet normal 0 -1 -0
    outer loop
      vertex 79.2 10.2 14.4
      vertex 76.2 10.2 12
      vertex 79.2 10.2 12
    endloop
  endfacet
  facet normal 1 0 0
    outer loop
      vertex 85.2 19.2 14.4
      vertex 85.2 22.2 16.8
      vertex 85.2 19.2 16.8
    endloop
  endfacet
  facet normal 1 0 0
    outer loop
      vertex 85.2 22.2 16.8
      vertex 85.2 19.2 14.4
      vertex 85.2 22.2 12
    endloop
  endfacet
  facet normal 1 0 0
    outer loop
      vertex 85.2 16.2 12
      vertex 85.2 19.2 14.4
      vertex 85.2 16.2 14.4
    endloop
  endfacet
  facet normal 1 0 0
    outer loop
      vertex 85.2 19.2 14.4
      vertex 85.2 16.2 12
      vertex 85.2 22.2 12
    endloop
  endfacet
  facet normal -0 0 1
    outer loop
      vertex 82.2 19.2 14.4
      vertex 85.2 16.2 14.4
      vertex 85.2 19.2 14.4
    endloop
  endfacet
  facet normal 0 0 1
    outer loop
      vertex 85.2 16.2 14.4
      vertex 82.2 19.2 14.4
      vertex 82.2 16.2 14.4
    endloop
  endfacet
  facet normal 0 0 -1
    outer loop
      vertex 82.2 16.2 12
      vertex 85.2 22.2 12
      vertex 85.2 16.2 12
    endloop
  endfacet
  facet normal -0 0 -1
    outer loop
      vertex 85.2 22.2 12
      vertex 82.2 16.2 12
      vertex 82.2 22.2 12
    endloop
  endfacet
  facet normal -1 0 0
    outer loop
      vertex 82.2 22.2 12
      vertex 82.2 19.2 14.4
      vertex 82.2 22.2 16.8
    endloop
  endfacet
  facet normal -1 0 0
    outer loop
      vertex 82.2 16.2 12
      vertex 82.2 19.2 14.4
      vertex 82.2 22.2 12
    endloop
  endfacet
  facet normal -1 -0 0
    outer loop
      vertex 82.2 19.2 14.4
      vertex 82.2 16.2 12
      vertex 82.2 16.2 14.4
    endloop
  endfacet
  facet normal -1 -0 0
    outer loop
      vertex 82.2 22.2 16.8
      vertex 82.2 19.2 14.4
      vertex 82.2 19.2 16.8
    endloop
  endfacet
  facet normal 0 -1 0
    outer loop
      vertex 82.2 19.2 14.4
      vertex 85.2 19.2 16.8
      vertex 82.2 19.2 16.8
    endloop
  endfacet
  facet normal 0 -1 -0
    outer loop
      vertex 85.2 19.2 16.8
      vertex 82.2 19.2 14.4
      vertex 85.2 19.2 14.4
    endloop
  endfacet
  facet normal 0 -1 0
    outer loop
      vertex 82.2 16.2 12
      vertex 85.2 16.2 14.4
      vertex 82.2 16.2 14.4
    endloop
  endfacet
  facet normal 0 -1 -0
    outer loop
      vertex 85.2 16.2 14.4
      vertex 82.2 16.2 12
      vertex 85.2 16.2 12
    endloop
  endfacet
  facet normal -0 0 1
    outer loop
      vertex 82.2 22.2 16.8
      vertex 85.2 19.2 16.8
      vertex 85.2 22.2 16.8
    endloop
  endfacet
  facet normal 0 0 1
    outer loop
      vertex 85.2 19.2 16.8
      vertex 82.2 22.2 16.8
      vertex 82.2 19.2 16.8
    endloop
  endfacet
  facet normal 0 1 -0
    outer loop
      vertex 85.2 22.2 12
      vertex 82.2 22.2 16.8
      vertex 85.2 22.2 16.8
    endloop
  endfacet
  facet normal 0 1 0
    outer loop
      vertex 82.2 22.2 16.8
      vertex 85.2 22.2 12
      vertex 82.2 22.2 12
    endloop
  endfacet
  facet normal 1 -0 0
    outer loop
      vertex 91.2 19.2 14.4
      vertex 91.2 22.2 12
      vertex 91.2 22.2 14.4
    endloop
  endfacet
  facet normal 1 0 0
    outer loop
      vertex 91.2 22.2 12
      vertex 91.2 19.2 14.4
      vertex 91.2 19.2 12
    endloop
  endfacet
  facet normal -0 0 1
    outer loop
      vertex 88.2 22.2 14.4
      vertex 91.2 19.2 14.4
      vertex 91.2 22.2 14.4
    endloop
  endfacet
  facet normal 0 0 1
    outer loop
      vertex 91.2 19.2 14.4
      vertex 88.2 22.2 14.4
      vertex 88.2 19.2 14.4
    endloop
  endfacet
  facet normal 0 0 -1
    outer loop
      vertex 88.2 19.2 12
      vertex 91.2 22.2 12
      vertex 91.2 19.2 12
    endloop
  endfacet
  facet normal -0 0 -1
    outer loop
      vertex 91.2 22.2 12
      vertex 88.2 19.2 12
      vertex 88.2 22.2 12
    endloop
  endfacet
  facet normal -1 0 0
    outer loop
      vertex 88.2 19.2 12
      vertex 88.2 22.2 14.4
      vertex 88.2 22.2 12
    endloop
  endfacet
  facet normal -1 -0 0
    outer loop
      vertex 88.2 22.2 14.4
      vertex 88.2 19.2 12
      vertex 88.2 19.2 14.4
    endloop
  endfacet
  facet normal 0 1 -0
    outer loop
      vertex 91.2 22.2 12
      vertex 88.2 22.2 14.4
      vertex 91.2 22.2 14.4
    endloop
  endfacet
  facet normal 0 1 0
    outer loop
      vertex 88.2 22.2 14.4
      vertex 91.2 22.2 12
      vertex 88.2 22.2 12
    endloop
  endfacet
  facet normal 0 -1 0
    outer loop
      vertex 88.2 19.2 12
      vertex 91.2 19.2 14.4
      vertex 88.2 19.2 14.4
    endloop
  endfacet
  facet normal 0 -1 -0
    outer loop
      vertex 91.2 19.2 14.4
      vertex 88.2 19.2 12
      vertex 91.2 19.2 12
    endloop
  endfacet
  facet normal 1 -0 0
    outer loop
      vertex 94.2 13.2 16.8
      vertex 94.2 16.2 14.4
      vertex 94.2 16.2 16.8
    endloop
  endfacet
  facet normal 1 0 0
    outer loop
      vertex 94.2 13.2 12
      vertex 94.2 16.2 14.4
      vertex 94.2 13.2 16.8
    endloop
  endfacet
  facet normal 1 0 0
    outer loop
      vertex 94.2 16.2 14.4
      vertex 94.2 13.2 12
      vertex 94.2 16.2 12
    endloop
  endfacet
  facet normal -0 0 1
    outer loop
      vertex 91.2 16.2 16.8
      vertex 94.2 13.2 16.8
      vertex 94.2 16.2 16.8
    endloop
  endfacet
  facet normal 0 0 1
    outer loop
      vertex 94.2 13.2 16.8
      vertex 91.2 16.2 16.8
      vertex 91.2 13.2 16.8
    endloop
  endfacet
  facet normal 0 0 -1
    outer loop
      vertex 94.2 13.2 12
      vertex 91.2 13.2 12
      vertex 94.2 16.2 12
    endloop
  endfacet
  facet normal 0 0 -1
    outer loop
      vertex 94.2 16.2 12
      vertex 97.2 19.2 12
      vertex 97.2 16.2 12
    endloop
  endfacet
  facet normal 0 0 -1
    outer loop
      vertex 94.2 16.2 12
      vertex 91.2 19.2 12
      vertex 97.2 19.2 12
    endloop
  endfacet
  facet normal 0 0 -1
    outer loop
      vertex 91.2 19.2 12
      vertex 94.2 16.2 12
      vertex 91.2 13.2 12
    endloop
  endfacet
  facet normal -1 0 0
    outer loop
      vertex 91.2 19.2 12
      vertex 91.2 16.2 14.4
      vertex 91.2 19.2 14.4
    endloop
  endfacet
  facet normal -1 0 0
    outer loop
      vertex 91.2 13.2 12
      vertex 91.2 16.2 14.4
      vertex 91.2 19.2 12
    endloop
  endfacet
  facet normal -1 0 0
    outer loop
      vertex 91.2 13.2 16.8
      vertex 91.2 16.2 14.4
      vertex 91.2 13.2 12
    endloop
  endfacet
  facet normal -1 0 0
    outer loop
      vertex 91.2 16.2 14.4
      vertex 91.2 13.2 16.8
      vertex 91.2 16.2 16.8
    endloop
  endfacet
  facet normal 0 1 -0
    outer loop
      vertex 94.2 16.2 14.4
      vertex 91.2 16.2 16.8
      vertex 94.2 16.2 16.8
    endloop
  endfacet
  facet normal 0 1 0
    outer loop
      vertex 91.2 16.2 16.8
      vertex 94.2 16.2 14.4
      vertex 91.2 16.2 14.4
    endloop
  endfacet
  facet normal 0 -1 0
    outer loop
      vertex 94.2 16.2 12
      vertex 97.2 16.2 14.4
      vertex 94.2 16.2 14.4
    endloop
  endfacet
  facet normal 0 -1 -0
    outer loop
      vertex 97.2 16.2 14.4
      vertex 94.2 16.2 12
      vertex 97.2 16.2 12
    endloop
  endfacet
  facet normal 0 -1 0
    outer loop
      vertex 91.2 13.2 12
      vertex 94.2 13.2 16.8
      vertex 91.2 13.2 16.8
    endloop
  endfacet
  facet normal 0 -1 -0
    outer loop
      vertex 94.2 13.2 16.8
      vertex 91.2 13.2 12
      vertex 94.2 13.2 12
    endloop
  endfacet
  facet normal 0 0 1
    outer loop
      vertex 97.2 19.2 14.4
      vertex 94.2 16.2 14.4
      vertex 97.2 16.2 14.4
    endloop
  endfacet
  facet normal -0 0 1
    outer loop
      vertex 91.2 19.2 14.4
      vertex 94.2 16.2 14.4
      vertex 97.2 19.2 14.4
    endloop
  endfacet
  facet normal 0 0 1
    outer loop
      vertex 94.2 16.2 14.4
      vertex 91.2 19.2 14.4
      vertex 91.2 16.2 14.4
    endloop
  endfacet
  facet normal 0 1 -0
    outer loop
      vertex 97.2 19.2 12
      vertex 91.2 19.2 14.4
      vertex 97.2 19.2 14.4
    endloop
  endfacet
  facet normal 0 1 0
    outer loop
      vertex 91.2 19.2 14.4
      vertex 97.2 19.2 12
      vertex 91.2 19.2 12
    endloop
  endfacet
  facet normal 1 -0 0
    outer loop
      vertex 97.2 16.2 14.4
      vertex 97.2 19.2 12
      vertex 97.2 19.2 14.4
    endloop
  endfacet
  facet normal 1 0 0
    outer loop
      vertex 97.2 19.2 12
      vertex 97.2 16.2 14.4
      vertex 97.2 16.2 12
    endloop
  endfacet
  facet normal 1 -0 0
    outer loop
      vertex 97.2 22.2 14.4
      vertex 97.2 25.2 12
      vertex 97.2 25.2 14.4
    endloop
  endfacet
  facet normal 1 0 0
    outer loop
      vertex 97.2 25.2 12
      vertex 97.2 22.2 14.4
      vertex 97.2 22.2 12
    endloop
  endfacet
  facet normal -0 0 1
    outer loop
      vertex 94.2 25.2 14.4
      vertex 97.2 22.2 14.4
      vertex 97.2 25.2 14.4
    endloop
  endfacet
  facet normal 0 0 1
    outer loop
      vertex 97.2 22.2 14.4
      vertex 94.2 25.2 14.4
      vertex 94.2 22.2 14.4
    endloop
  endfacet
  facet normal 0 0 -1
    outer loop
      vertex 94.2 22.2 12
      vertex 97.2 25.2 12
      vertex 97.2 22.2 12
    endloop
  endfacet
  facet normal -0 0 -1
    outer loop
      vertex 97.2 25.2 12
      vertex 94.2 22.2 12
      vertex 94.2 25.2 12
    endloop
  endfacet
  facet normal -1 0 0
    outer loop
      vertex 94.2 22.2 12
      vertex 94.2 25.2 14.4
      vertex 94.2 25.2 12
    endloop
  endfacet
  facet normal -1 -0 0
    outer loop
      vertex 94.2 25.2 14.4
      vertex 94.2 22.2 12
      vertex 94.2 22.2 14.4
    endloop
  endfacet
  facet normal 0 1 -0
    outer loop
      vertex 97.2 25.2 12
      vertex 94.2 25.2 14.4
      vertex 97.2 25.2 14.4
    endloop
  endfacet
  facet normal 0 1 0
    outer loop
      vertex 94.2 25.2 14.4
      vertex 97.2 25.2 12
      vertex 94.2 25.2 12
    endloop
  endfacet
  facet normal 0 -1 0
    outer loop
      vertex 94.2 22.2 12
      vertex 97.2 22.2 14.4
      vertex 94.2 22.2 14.4
    endloop
  endfacet
  facet normal 0 -1 -0
    outer loop
      vertex 97.2 22.2 14.4
      vertex 94.2 22.2 12
      vertex 97.2 22.2 12
    endloop
  endfacet
  facet normal 1 -0 0
    outer loop
      vertex 109.2 22.2 19.2
      vertex 109.2 25.2 12
      vertex 109.2 25.2 19.2
    endloop
  endfacet
  facet normal 1 0 0
    outer loop
      vertex 109.2 25.2 12
      vertex 109.2 22.2 19.2
      vertex 109.2 22.2 12
    endloop
  endfacet
  facet normal -0 0 1
    outer loop
      vertex 106.2 25.2 19.2
      vertex 109.2 22.2 19.2
      vertex 109.2 25.2 19.2
    endloop
  endfacet
  facet normal 0 0 1
    outer loop
      vertex 109.2 22.2 19.2
      vertex 106.2 25.2 19.2
      vertex 106.2 22.2 19.2
    endloop
  endfacet
  facet normal 0 0 -1
    outer loop
      vertex 106.2 22.2 12
      vertex 109.2 25.2 12
      vertex 109.2 22.2 12
    endloop
  endfacet
  facet normal -0 0 -1
    outer loop
      vertex 109.2 25.2 12
      vertex 106.2 22.2 12
      vertex 106.2 25.2 12
    endloop
  endfacet
  facet normal -1 0 0
    outer loop
      vertex 106.2 22.2 12
      vertex 106.2 25.2 19.2
      vertex 106.2 25.2 12
    endloop
  endfacet
  facet normal -1 -0 0
    outer loop
      vertex 106.2 25.2 19.2
      vertex 106.2 22.2 12
      vertex 106.2 22.2 19.2
    endloop
  endfacet
  facet normal 0 1 -0
    outer loop
      vertex 109.2 25.2 12
      vertex 106.2 25.2 19.2
      vertex 109.2 25.2 19.2
    endloop
  endfacet
  facet normal 0 1 0
    outer loop
      vertex 106.2 25.2 19.2
      vertex 109.2 25.2 12
      vertex 106.2 25.2 12
    endloop
  endfacet
  facet normal 0 -1 0
    outer loop
      vertex 106.2 22.2 12
      vertex 109.2 22.2 19.2
      vertex 106.2 22.2 19.2
    endloop
  endfacet
  facet normal 0 -1 -0
    outer loop
      vertex 109.2 22.2 19.2
      vertex 106.2 22.2 12
      vertex 109.2 22.2 12
    endloop
  endfacet
  facet normal 1 -0 0
    outer loop
      vertex 112.2 16.2 14.4
      vertex 112.2 19.2 12
      vertex 112.2 19.2 14.4
    endloop
  endfacet
  facet normal 1 0 0
    outer loop
      vertex 112.2 19.2 12
      vertex 112.2 16.2 14.4
      vertex 112.2 16.2 12
    endloop
  endfacet
  facet normal -0 0 1
    outer loop
      vertex 109.2 19.2 14.4
      vertex 112.2 16.2 14.4
      vertex 112.2 19.2 14.4
    endloop
  endfacet
  facet normal 0 0 1
    outer loop
      vertex 112.2 16.2 14.4
      vertex 109.2 19.2 14.4
      vertex 109.2 16.2 14.4
    endloop
  endfacet
  facet normal 0 0 -1
    outer loop
      vertex 109.2 16.2 12
      vertex 112.2 19.2 12
      vertex 112.2 16.2 12
    endloop
  endfacet
  facet normal -0 0 -1
    outer loop
      vertex 112.2 19.2 12
      vertex 109.2 16.2 12
      vertex 109.2 19.2 12
    endloop
  endfacet
  facet normal -1 0 0
    outer loop
      vertex 109.2 16.2 12
      vertex 109.2 19.2 14.4
      vertex 109.2 19.2 12
    endloop
  endfacet
  facet normal -1 -0 0
    outer loop
      vertex 109.2 19.2 14.4
      vertex 109.2 16.2 12
      vertex 109.2 16.2 14.4
    endloop
  endfacet
  facet normal 0 1 -0
    outer loop
      vertex 112.2 19.2 12
      vertex 109.2 19.2 14.4
      vertex 112.2 19.2 14.4
    endloop
  endfacet
  facet normal 0 1 0
    outer loop
      vertex 109.2 19.2 14.4
      vertex 112.2 19.2 12
      vertex 109.2 19.2 12
    endloop
  endfacet
  facet normal 0 -1 0
    outer loop
      vertex 109.2 16.2 12
      vertex 112.2 16.2 14.4
      vertex 109.2 16.2 14.4
    endloop
  endfacet
  facet normal 0 -1 -0
    outer loop
      vertex 112.2 16.2 14.4
      vertex 109.2 16.2 12
      vertex 112.2 16.2 12
    endloop
  endfacet
  facet normal 1 -0 0
    outer loop
      vertex 115.2 10.2 14.4
      vertex 115.2 13.2 12
      vertex 115.2 13.2 14.4
    endloop
  endfacet
  facet normal 1 0 0
    outer loop
      vertex 115.2 13.2 12
      vertex 115.2 10.2 14.4
      vertex 115.2 10.2 12
    endloop
  endfacet
  facet normal -0 0 1
    outer loop
      vertex 112.2 13.2 14.4
      vertex 115.2 10.2 14.4
      vertex 115.2 13.2 14.4
    endloop
  endfacet
  facet normal 0 0 1
    outer loop
      vertex 115.2 10.2 14.4
      vertex 112.2 13.2 14.4
      vertex 112.2 10.2 14.4
    endloop
  endfacet
  facet normal 0 0 -1
    outer loop
      vertex 112.2 10.2 12
      vertex 115.2 13.2 12
      vertex 115.2 10.2 12
    endloop
  endfacet
  facet normal -0 0 -1
    outer loop
      vertex 115.2 13.2 12
      vertex 112.2 10.2 12
      vertex 112.2 13.2 12
    endloop
  endfacet
  facet normal -1 0 0
    outer loop
      vertex 112.2 10.2 12
      vertex 112.2 13.2 14.4
      vertex 112.2 13.2 12
    endloop
  endfacet
  facet normal -1 -0 0
    outer loop
      vertex 112.2 13.2 14.4
      vertex 112.2 10.2 12
      vertex 112.2 10.2 14.4
    endloop
  endfacet
  facet normal 0 1 -0
    outer loop
      vertex 115.2 13.2 12
      vertex 112.2 13.2 14.4
      vertex 115.2 13.2 14.4
    endloop
  endfacet
  facet normal 0 1 0
    outer loop
      vertex 112.2 13.2 14.4
      vertex 115.2 13.2 12
      vertex 112.2 13.2 12
    endloop
  endfacet
  facet normal 0 -1 0
    outer loop
      vertex 112.2 10.2 12
      vertex 115.2 10.2 14.4
      vertex 112.2 10.2 14.4
    endloop
  endfacet
  facet normal 0 -1 -0
    outer loop
      vertex 115.2 10.2 14.4
      vertex 112.2 10.2 12
      vertex 115.2 10.2 12
    endloop
  endfacet
  facet normal -1 0 0
    outer loop
      vertex 148.2 13.2 12
      vertex 148.2 10.2 12
      vertex 148.2 13.2 14.4
    endloop
  endfacet
  facet normal -1 0 0
    outer loop
      vertex 148.2 13.2 14.4
      vertex 148.2 16.2 16.8
      vertex 148.2 16.2 14.4
    endloop
  endfacet
  facet normal -1 0 0
    outer loop
      vertex 148.2 10.2 19.2
      vertex 148.2 16.2 16.8
      vertex 148.2 13.2 14.4
    endloop
  endfacet
  facet normal -1 0 0
    outer loop
      vertex 148.2 10.2 19.2
      vertex 148.2 13.2 14.4
      vertex 148.2 10.2 12
    endloop
  endfacet
  facet normal -1 0 0
    outer loop
      vertex 148.2 16.2 16.8
      vertex 148.2 10.2 19.2
      vertex 148.2 16.2 19.2
    endloop
  endfacet
  facet normal 1 -0 0
    outer loop
      vertex 148.2 16.2 19.2
      vertex 148.2 19.2 16.8
      vertex 148.2 19.2 19.2
    endloop
  endfacet
  facet normal 1 0 0
    outer loop
      vertex 148.2 19.2 16.8
      vertex 148.2 16.2 19.2
      vertex 148.2 16.2 16.8
    endloop
  endfacet
  facet normal -0 0 1
    outer loop
      vertex 145.2 16.2 14.4
      vertex 148.2 13.2 14.4
      vertex 148.2 16.2 14.4
    endloop
  endfacet
  facet normal 0 0 1
    outer loop
      vertex 148.2 13.2 14.4
      vertex 145.2 16.2 14.4
      vertex 145.2 13.2 14.4
    endloop
  endfacet
  facet normal 0 0 -1
    outer loop
      vertex 148.2 13.2 12
      vertex 151.2 10.2 12
      vertex 148.2 10.2 12
    endloop
  endfacet
  facet normal 0 0 -1
    outer loop
      vertex 151.2 10.2 12
      vertex 148.2 13.2 12
      vertex 151.2 19.2 12
    endloop
  endfacet
  facet normal 0 0 -1
    outer loop
      vertex 145.2 19.2 12
      vertex 148.2 13.2 12
      vertex 145.2 13.2 12
    endloop
  endfacet
  facet normal 0 0 -1
    outer loop
      vertex 148.2 13.2 12
      vertex 145.2 19.2 12
      vertex 151.2 19.2 12
    endloop
  endfacet
  facet normal -1 0 0
    outer loop
      vertex 145.2 19.2 12
      vertex 145.2 16.2 14.4
      vertex 145.2 19.2 19.2
    endloop
  endfacet
  facet normal -1 0 0
    outer loop
      vertex 145.2 13.2 12
      vertex 145.2 16.2 14.4
      vertex 145.2 19.2 12
    endloop
  endfacet
  facet normal -1 -0 0
    outer loop
      vertex 145.2 16.2 14.4
      vertex 145.2 13.2 12
      vertex 145.2 13.2 14.4
    endloop
  endfacet
  facet normal -1 -0 0
    outer loop
      vertex 145.2 19.2 19.2
      vertex 145.2 16.2 14.4
      vertex 145.2 16.2 19.2
    endloop
  endfacet
  facet normal 0 -1 0
    outer loop
      vertex 145.2 16.2 19.2
      vertex 148.2 16.2 16.8
      vertex 148.2 16.2 19.2
    endloop
  endfacet
  facet normal 0 -1 0
    outer loop
      vertex 145.2 16.2 14.4
      vertex 148.2 16.2 16.8
      vertex 145.2 16.2 19.2
    endloop
  endfacet
  facet normal 0 -1 -0
    outer loop
      vertex 148.2 16.2 16.8
      vertex 145.2 16.2 14.4
      vertex 148.2 16.2 14.4
    endloop
  endfacet
  facet normal 0 -1 0
    outer loop
      vertex 145.2 13.2 12
      vertex 148.2 13.2 14.4
      vertex 145.2 13.2 14.4
    endloop
  endfacet
  facet normal 0 -1 -0
    outer loop
      vertex 148.2 13.2 14.4
      vertex 145.2 13.2 12
      vertex 148.2 13.2 12
    endloop
  endfacet
  facet normal -0 0 1
    outer loop
      vertex 145.2 19.2 19.2
      vertex 148.2 16.2 19.2
      vertex 148.2 19.2 19.2
    endloop
  endfacet
  facet normal 0 0 1
    outer loop
      vertex 148.2 16.2 19.2
      vertex 145.2 19.2 19.2
      vertex 145.2 16.2 19.2
    endloop
  endfacet
  facet normal 0 1 0
    outer loop
      vertex 151.2 19.2 16.8
      vertex 151.2 19.2 12
      vertex 148.2 19.2 16.8
    endloop
  endfacet
  facet normal 0 1 -0
    outer loop
      vertex 148.2 19.2 16.8
      vertex 145.2 19.2 19.2
      vertex 148.2 19.2 19.2
    endloop
  endfacet
  facet normal 0 1 0
    outer loop
      vertex 145.2 19.2 12
      vertex 148.2 19.2 16.8
      vertex 151.2 19.2 12
    endloop
  endfacet
  facet normal 0 1 0
    outer loop
      vertex 148.2 19.2 16.8
      vertex 145.2 19.2 12
      vertex 145.2 19.2 19.2
    endloop
  endfacet
  facet normal 1 0 0
    outer loop
      vertex 151.2 16.2 19.2
      vertex 151.2 10.2 19.2
      vertex 151.2 16.2 16.8
    endloop
  endfacet
  facet normal 1 -0 0
    outer loop
      vertex 151.2 16.2 16.8
      vertex 151.2 19.2 12
      vertex 151.2 19.2 16.8
    endloop
  endfacet
  facet normal 1 0 0
    outer loop
      vertex 151.2 10.2 12
      vertex 151.2 16.2 16.8
      vertex 151.2 10.2 19.2
    endloop
  endfacet
  facet normal 1 0 0
    outer loop
      vertex 151.2 16.2 16.8
      vertex 151.2 10.2 12
      vertex 151.2 19.2 12
    endloop
  endfacet
  facet normal -0 0 1
    outer loop
      vertex 148.2 16.2 19.2
      vertex 151.2 10.2 19.2
      vertex 151.2 16.2 19.2
    endloop
  endfacet
  facet normal 0 0 1
    outer loop
      vertex 151.2 10.2 19.2
      vertex 148.2 16.2 19.2
      vertex 148.2 10.2 19.2
    endloop
  endfacet
  facet normal 0 -1 0
    outer loop
      vertex 148.2 10.2 12
      vertex 151.2 10.2 19.2
      vertex 148.2 10.2 19.2
    endloop
  endfacet
  facet normal 0 -1 -0
    outer loop
      vertex 151.2 10.2 19.2
      vertex 148.2 10.2 12
      vertex 151.2 10.2 12
    endloop
  endfacet
  facet normal 0 1 -0
    outer loop
      vertex 151.2 16.2 16.8
      vertex 148.2 16.2 19.2
      vertex 151.2 16.2 19.2
    endloop
  endfacet
  facet normal 0 1 0
    outer loop
      vertex 148.2 16.2 19.2
      vertex 151.2 16.2 16.8
      vertex 148.2 16.2 16.8
    endloop
  endfacet
  facet normal -0 0 1
    outer loop
      vertex 148.2 19.2 16.8
      vertex 151.2 16.2 16.8
      vertex 151.2 19.2 16.8
    endloop
  endfacet
  facet normal 0 0 1
    outer loop
      vertex 151.2 16.2 16.8
      vertex 148.2 19.2 16.8
      vertex 148.2 16.2 16.8
    endloop
  endfacet
  facet normal 1 -0 0
    outer loop
      vertex 151.2 22.2 14.4
      vertex 151.2 25.2 12
      vertex 151.2 25.2 14.4
    endloop
  endfacet
  facet normal 1 0 0
    outer loop
      vertex 151.2 25.2 12
      vertex 151.2 22.2 14.4
      vertex 151.2 22.2 12
    endloop
  endfacet
  facet normal -0 0 1
    outer loop
      vertex 148.2 25.2 14.4
      vertex 151.2 22.2 14.4
      vertex 151.2 25.2 14.4
    endloop
  endfacet
  facet normal 0 0 1
    outer loop
      vertex 151.2 22.2 14.4
      vertex 148.2 25.2 14.4
      vertex 148.2 22.2 14.4
    endloop
  endfacet
  facet normal 0 0 -1
    outer loop
      vertex 148.2 22.2 12
      vertex 151.2 25.2 12
      vertex 151.2 22.2 12
    endloop
  endfacet
  facet normal -0 0 -1
    outer loop
      vertex 151.2 25.2 12
      vertex 148.2 22.2 12
      vertex 148.2 25.2 12
    endloop
  endfacet
  facet normal -1 0 0
    outer loop
      vertex 148.2 22.2 12
      vertex 148.2 25.2 14.4
      vertex 148.2 25.2 12
    endloop
  endfacet
  facet normal -1 -0 0
    outer loop
      vertex 148.2 25.2 14.4
      vertex 148.2 22.2 12
      vertex 148.2 22.2 14.4
    endloop
  endfacet
  facet normal 0 1 -0
    outer loop
      vertex 151.2 25.2 12
      vertex 148.2 25.2 14.4
      vertex 151.2 25.2 14.4
    endloop
  endfacet
  facet normal 0 1 0
    outer loop
      vertex 148.2 25.2 14.4
      vertex 151.2 25.2 12
      vertex 148.2 25.2 12
    endloop
  endfacet
  facet normal 0 -1 0
    outer loop
      vertex 148.2 22.2 12
      vertex 151.2 22.2 14.4
      vertex 148.2 22.2 14.4
    endloop
  endfacet
  facet normal 0 -1 -0
    outer loop
      vertex 151.2 22.2 14.4
      vertex 148.2 22.2 12
      vertex 151.2 22.2 12
    endloop
  endfacet
  facet normal 1 -0 0
    outer loop
      vertex 166.2 16.2 16.8
      vertex 166.2 19.2 12
      vertex 166.2 19.2 16.8
    endloop
  endfacet
  facet normal 1 0 0
    outer loop
      vertex 166.2 19.2 12
      vertex 166.2 16.2 16.8
      vertex 166.2 16.2 12
    endloop
  endfacet
  facet normal -0 0 1
    outer loop
      vertex 163.2 19.2 16.8
      vertex 166.2 16.2 16.8
      vertex 166.2 19.2 16.8
    endloop
  endfacet
  facet normal 0 0 1
    outer loop
      vertex 166.2 16.2 16.8
      vertex 163.2 19.2 16.8
      vertex 163.2 16.2 16.8
    endloop
  endfacet
  facet normal 0 0 -1
    outer loop
      vertex 163.2 16.2 12
      vertex 166.2 19.2 12
      vertex 166.2 16.2 12
    endloop
  endfacet
  facet normal -0 0 -1
    outer loop
      vertex 166.2 19.2 12
      vertex 163.2 16.2 12
      vertex 163.2 19.2 12
    endloop
  endfacet
  facet normal -1 0 0
    outer loop
      vertex 163.2 16.2 12
      vertex 163.2 19.2 16.8
      vertex 163.2 19.2 12
    endloop
  endfacet
  facet normal -1 -0 0
    outer loop
      vertex 163.2 19.2 16.8
      vertex 163.2 16.2 12
      vertex 163.2 16.2 16.8
    endloop
  endfacet
  facet normal 0 1 -0
    outer loop
      vertex 166.2 19.2 12
      vertex 163.2 19.2 16.8
      vertex 166.2 19.2 16.8
    endloop
  endfacet
  facet normal 0 1 0
    outer loop
      vertex 163.2 19.2 16.8
      vertex 166.2 19.2 12
      vertex 163.2 19.2 12
    endloop
  endfacet
  facet normal 0 -1 0
    outer loop
      vertex 163.2 16.2 12
      vertex 166.2 16.2 16.8
      vertex 163.2 16.2 16.8
    endloop
  endfacet
  facet normal 0 -1 -0
    outer loop
      vertex 166.2 16.2 16.8
      vertex 163.2 16.2 12
      vertex 166.2 16.2 12
    endloop
  endfacet
endsolid OpenSCAD_Model
