solid OpenSCAD_Model
  facet normal 1 -0 0
    outer loop
      vertex 28.2 19.2 18.8571
      vertex 28.2 22.2 12
      vertex 28.2 22.2 18.8571
    endloop
  endfacet
  facet normal 1 0 0
    outer loop
      vertex 28.2 22.2 12
      vertex 28.2 19.2 18.8571
      vertex 28.2 19.2 12
    endloop
  endfacet
  facet normal -0 0 1
    outer loop
      vertex 25.2 22.2 18.8571
      vertex 28.2 19.2 18.8571
      vertex 28.2 22.2 18.8571
    endloop
  endfacet
  facet normal 0 0 1
    outer loop
      vertex 28.2 19.2 18.8571
      vertex 25.2 22.2 18.8571
      vertex 25.2 19.2 18.8571
    endloop
  endfacet
  facet normal 0 0 -1
    outer loop
      vertex 25.2 19.2 12
      vertex 28.2 22.2 12
      vertex 28.2 19.2 12
    endloop
  endfacet
  facet normal -0 0 -1
    outer loop
      vertex 28.2 22.2 12
      vertex 25.2 19.2 12
      vertex 25.2 22.2 12
    endloop
  endfacet
  facet normal -1 0 0
    outer loop
      vertex 25.2 19.2 12
      vertex 25.2 22.2 18.8571
      vertex 25.2 22.2 12
    endloop
  endfacet
  facet normal -1 -0 0
    outer loop
      vertex 25.2 22.2 18.8571
      vertex 25.2 19.2 12
      vertex 25.2 19.2 18.8571
    endloop
  endfacet
  facet normal 0 1 -0
    outer loop
      vertex 28.2 22.2 12
      vertex 25.2 22.2 18.8571
      vertex 28.2 22.2 18.8571
    endloop
  endfacet
  facet normal 0 1 0
    outer loop
      vertex 25.2 22.2 18.8571
      vertex 28.2 22.2 12
      vertex 25.2 22.2 12
    endloop
  endfacet
  facet normal 0 -1 0
    outer loop
      vertex 25.2 19.2 12
      vertex 28.2 19.2 18.8571
      vertex 25.2 19.2 18.8571
    endloop
  endfacet
  facet normal 0 -1 -0
    outer loop
      vertex 28.2 19.2 18.8571
      vertex 25.2 19.2 12
      vertex 28.2 19.2 12
    endloop
  endfacet
  facet normal 1 0 0
    outer loop
      vertex 49.2 19.2 18.8571
      vertex 49.2 16.2 18.8571
      vertex 49.2 19.2 15.4286
    endloop
  endfacet
  facet normal 1 -0 0
    outer loop
      vertex 49.2 19.2 15.4286
      vertex 49.2 25.2 12
      vertex 49.2 25.2 15.4286
    endloop
  endfacet
  facet normal 1 0 0
    outer loop
      vertex 49.2 19.2 15.4286
      vertex 49.2 16.2 12
      vertex 49.2 25.2 12
    endloop
  endfacet
  facet normal 1 0 0
    outer loop
      vertex 49.2 16.2 12
      vertex 49.2 19.2 15.4286
      vertex 49.2 16.2 18.8571
    endloop
  endfacet
  facet normal -0 0 1
    outer loop
      vertex 46.2 19.2 18.8571
      vertex 49.2 16.2 18.8571
      vertex 49.2 19.2 18.8571
    endloop
  endfacet
  facet normal 0 0 1
    outer loop
      vertex 49.2 16.2 18.8571
      vertex 46.2 19.2 18.8571
      vertex 46.2 16.2 18.8571
    endloop
  endfacet
  facet normal 0 0 -1
    outer loop
      vertex 46.2 16.2 12
      vertex 49.2 25.2 12
      vertex 49.2 16.2 12
    endloop
  endfacet
  facet normal -0 0 -1
    outer loop
      vertex 49.2 25.2 12
      vertex 46.2 16.2 12
      vertex 46.2 25.2 12
    endloop
  endfacet
  facet normal -1 0 0
    outer loop
      vertex 46.2 25.2 12
      vertex 46.2 19.2 15.4286
      vertex 46.2 25.2 15.4286
    endloop
  endfacet
  facet normal -1 0 0
    outer loop
      vertex 46.2 16.2 12
      vertex 46.2 19.2 15.4286
      vertex 46.2 25.2 12
    endloop
  endfacet
  facet normal -1 0 0
    outer loop
      vertex 46.2 16.2 18.8571
      vertex 46.2 19.2 15.4286
      vertex 46.2 16.2 12
    endloop
  endfacet
  facet normal -1 0 0
    outer loop
      vertex 46.2 19.2 15.4286
      vertex 46.2 16.2 18.8571
      vertex 46.2 19.2 18.8571
    endloop
  endfacet
  facet normal 0 1 -0
    outer loop
      vertex 49.2 19.2 15.4286
      vertex 46.2 19.2 18.8571
      vertex 49.2 19.2 18.8571
    endloop
  endfacet
  facet normal 0 1 0
    outer loop
      vertex 46.2 19.2 18.8571
      vertex 49.2 19.2 15.4286
      vertex 46.2 19.2 15.4286
    endloop
  endfacet
  facet normal 0 -1 0
    outer loop
      vertex 46.2 16.2 12
      vertex 49.2 16.2 18.8571
      vertex 46.2 16.2 18.8571
    endloop
  endfacet
  facet normal 0 -1 -0
    outer loop
      vertex 49.2 16.2 18.8571
      vertex 46.2 16.2 12
      vertex 49.2 16.2 12
    endloop
  endfacet
  facet normal -0 0 1
    outer loop
      vertex 46.2 25.2 15.4286
      vertex 49.2 19.2 15.4286
      vertex 49.2 25.2 15.4286
    endloop
  endfacet
  facet normal 0 0 1
    outer loop
      vertex 49.2 19.2 15.4286
      vertex 46.2 25.2 15.4286
      vertex 46.2 19.2 15.4286
    endloop
  endfacet
  facet normal 0 1 -0
    outer loop
      vertex 49.2 25.2 12
      vertex 46.2 25.2 15.4286
      vertex 49.2 25.2 15.4286
    endloop
  endfacet
  facet normal 0 1 0
    outer loop
      vertex 46.2 25.2 15.4286
      vertex 49.2 25.2 12
      vertex 46.2 25.2 12
    endloop
  endfacet
  facet normal 1 -0 0
    outer loop
      vertex 64.2 13.2 18.8571
      vertex 64.2 16.2 12
      vertex 64.2 16.2 18.8571
    endloop
  endfacet
  facet normal 1 0 0
    outer loop
      vertex 64.2 16.2 12
      vertex 64.2 13.2 18.8571
      vertex 64.2 13.2 12
    endloop
  endfacet
  facet normal -0 0 1
    outer loop
      vertex 61.2 16.2 18.8571
      vertex 64.2 13.2 18.8571
      vertex 64.2 16.2 18.8571
    endloop
  endfacet
  facet normal 0 0 1
    outer loop
      vertex 64.2 13.2 18.8571
      vertex 61.2 16.2 18.8571
      vertex 61.2 13.2 18.8571
    endloop
  endfacet
  facet normal 0 0 -1
    outer loop
      vertex 61.2 13.2 12
      vertex 64.2 16.2 12
      vertex 64.2 13.2 12
    endloop
  endfacet
  facet normal -0 0 -1
    outer loop
      vertex 64.2 16.2 12
      vertex 61.2 13.2 12
      vertex 61.2 16.2 12
    endloop
  endfacet
  facet normal -1 0 0
    outer loop
      vertex 61.2 13.2 12
      vertex 61.2 16.2 18.8571
      vertex 61.2 16.2 12
    endloop
  endfacet
  facet normal -1 -0 0
    outer loop
      vertex 61.2 16.2 18.8571
      vertex 61.2 13.2 12
      vertex 61.2 13.2 18.8571
    endloop
  endfacet
  facet normal 0 1 -0
    outer loop
      vertex 64.2 16.2 12
      vertex 61.2 16.2 18.8571
      vertex 64.2 16.2 18.8571
    endloop
  endfacet
  facet normal 0 1 0
    outer loop
      vertex 61.2 16.2 18.8571
      vertex 64.2 16.2 12
      vertex 61.2 16.2 12
    endloop
  endfacet
  facet normal 0 -1 0
    outer loop
      vertex 61.2 13.2 12
      vertex 64.2 13.2 18.8571
      vertex 61.2 13.2 18.8571
    endloop
  endfacet
  facet normal 0 -1 -0
    outer loop
      vertex 64.2 13.2 18.8571
      vertex 61.2 13.2 12
      vertex 64.2 13.2 12
    endloop
  endfacet
  facet normal 1 -0 0
    outer loop
      vertex 64.2 19.2 15.4286
      vertex 64.2 22.2 12
      vertex 64.2 22.2 15.4286
    endloop
  endfacet
  facet normal 1 0 0
    outer loop
      vertex 64.2 22.2 12
      vertex 64.2 19.2 15.4286
      vertex 64.2 19.2 12
    endloop
  endfacet
  facet normal -0 0 1
    outer loop
      vertex 61.2 22.2 15.4286
      vertex 64.2 19.2 15.4286
      vertex 64.2 22.2 15.4286
    endloop
  endfacet
  facet normal 0 0 1
    outer loop
      vertex 64.2 19.2 15.4286
      vertex 61.2 22.2 15.4286
      vertex 61.2 19.2 15.4286
    endloop
  endfacet
  facet normal 0 0 -1
    outer loop
      vertex 61.2 19.2 12
      vertex 64.2 22.2 12
      vertex 64.2 19.2 12
    endloop
  endfacet
  facet normal -0 0 -1
    outer loop
      vertex 64.2 22.2 12
      vertex 61.2 19.2 12
      vertex 61.2 22.2 12
    endloop
  endfacet
  facet normal -1 0 0
    outer loop
      vertex 61.2 19.2 12
      vertex 61.2 22.2 15.4286
      vertex 61.2 22.2 12
    endloop
  endfacet
  facet normal -1 -0 0
    outer loop
      vertex 61.2 22.2 15.4286
      vertex 61.2 19.2 12
      vertex 61.2 19.2 15.4286
    endloop
  endfacet
  facet normal 0 1 -0
    outer loop
      vertex 64.2 22.2 12
      vertex 61.2 22.2 15.4286
      vertex 64.2 22.2 15.4286
    endloop
  endfacet
  facet normal 0 1 0
    outer loop
      vertex 61.2 22.2 15.4286
      vertex 64.2 22.2 12
      vertex 61.2 22.2 12
    endloop
  endfacet
  facet normal 0 -1 0
    outer loop
      vertex 61.2 19.2 12
      vertex 64.2 19.2 15.4286
      vertex 61.2 19.2 15.4286
    endloop
  endfacet
  facet normal 0 -1 -0
    outer loop
      vertex 64.2 19.2 15.4286
      vertex 61.2 19.2 12
      vertex 64.2 19.2 12
    endloop
  endfacet
  facet normal 1 -0 0
    outer loop
      vertex 70.2 10.2 15.4286
      vertex 70.2 13.2 12
      vertex 70.2 13.2 15.4286
    endloop
  endfacet
  facet normal 1 0 0
    outer loop
      vertex 70.2 13.2 12
      vertex 70.2 10.2 15.4286
      vertex 70.2 10.2 12
    endloop
  endfacet
  facet normal -0 0 1
    outer loop
      vertex 67.2 13.2 15.4286
      vertex 70.2 10.2 15.4286
      vertex 70.2 13.2 15.4286
    endloop
  endfacet
  facet normal 0 0 1
    outer loop
      vertex 70.2 10.2 15.4286
      vertex 67.2 13.2 15.4286
      vertex 67.2 10.2 15.4286
    endloop
  endfacet
  facet normal 0 0 -1
    outer loop
      vertex 67.2 10.2 12
      vertex 70.2 13.2 12
      vertex 70.2 10.2 12
    endloop
  endfacet
  facet normal -0 0 -1
    outer loop
      vertex 70.2 13.2 12
      vertex 67.2 10.2 12
      vertex 67.2 13.2 12
    endloop
  endfacet
  facet normal -1 0 0
    outer loop
      vertex 67.2 10.2 12
      vertex 67.2 13.2 15.4286
      vertex 67.2 13.2 12
    endloop
  endfacet
  facet normal -1 -0 0
    outer loop
      vertex 67.2 13.2 15.4286
      vertex 67.2 10.2 12
      vertex 67.2 10.2 15.4286
    endloop
  endfacet
  facet normal 0 1 -0
    outer loop
      vertex 70.2 13.2 12
      vertex 67.2 13.2 15.4286
      vertex 70.2 13.2 15.4286
    endloop
  endfacet
  facet normal 0 1 0
    outer loop
      vertex 67.2 13.2 15.4286
      vertex 70.2 13.2 12
      vertex 67.2 13.2 12
    endloop
  endfacet
  facet normal 0 -1 0
    outer loop
      vertex 67.2 10.2 12
      vertex 70.2 10.2 15.4286
      vertex 67.2 10.2 15.4286
    endloop
  endfacet
  facet normal 0 -1 -0
    outer loop
      vertex 70.2 10.2 15.4286
      vertex 67.2 10.2 12
      vertex 70.2 10.2 12
    endloop
  endfacet
  facet normal 1 -0 0
    outer loop
      vertex 76.2 19.2 29.1429
      vertex 76.2 22.2 12
      vertex 76.2 22.2 29.1429
    endloop
  endfacet
  facet normal 1 0 0
    outer loop
      vertex 76.2 22.2 12
      vertex 76.2 19.2 29.1429
      vertex 76.2 19.2 12
    endloop
  endfacet
  facet normal -0 0 1
    outer loop
      vertex 73.2 22.2 29.1429
      vertex 76.2 19.2 29.1429
      vertex 76.2 22.2 29.1429
    endloop
  endfacet
  facet normal 0 0 1
    outer loop
      vertex 76.2 19.2 29.1429
      vertex 73.2 22.2 29.1429
      vertex 73.2 19.2 29.1429
    endloop
  endfacet
  facet normal 0 0 -1
    outer loop
      vertex 73.2 19.2 12
      vertex 76.2 22.2 12
      vertex 76.2 19.2 12
    endloop
  endfacet
  facet normal -0 0 -1
    outer loop
      vertex 76.2 22.2 12
      vertex 73.2 19.2 12
      vertex 73.2 22.2 12
    endloop
  endfacet
  facet normal -1 0 0
    outer loop
      vertex 73.2 19.2 12
      vertex 73.2 22.2 29.1429
      vertex 73.2 22.2 12
    endloop
  endfacet
  facet normal -1 -0 0
    outer loop
      vertex 73.2 22.2 29.1429
      vertex 73.2 19.2 12
      vertex 73.2 19.2 29.1429
    endloop
  endfacet
  facet normal 0 1 -0
    outer loop
      vertex 76.2 22.2 12
      vertex 73.2 22.2 29.1429
      vertex 76.2 22.2 29.1429
    endloop
  endfacet
  facet normal 0 1 0
    outer loop
      vertex 73.2 22.2 29.1429
      vertex 76.2 22.2 12
      vertex 73.2 22.2 12
    endloop
  endfacet
  facet normal 0 -1 0
    outer loop
      vertex 73.2 19.2 12
      vertex 76.2 19.2 29.1429
      vertex 73.2 19.2 29.1429
    endloop
  endfacet
  facet normal 0 -1 -0
    outer loop
      vertex 76.2 19.2 29.1429
      vertex 73.2 19.2 12
      vertex 76.2 19.2 12
    endloop
  endfacet
  facet normal 1 -0 0
    outer loop
      vertex 79.2 10.2 15.4286
      vertex 79.2 13.2 12
      vertex 79.2 13.2 15.4286
    endloop
  endfacet
  facet normal 1 0 0
    outer loop
      vertex 79.2 13.2 12
      vertex 79.2 10.2 15.4286
      vertex 79.2 10.2 12
    endloop
  endfacet
  facet normal -0 0 1
    outer loop
      vertex 76.2 13.2 15.4286
      vertex 79.2 10.2 15.4286
      vertex 79.2 13.2 15.4286
    endloop
  endfacet
  facet normal 0 0 1
    outer loop
      vertex 79.2 10.2 15.4286
      vertex 76.2 13.2 15.4286
      vertex 76.2 10.2 15.4286
    endloop
  endfacet
  facet normal 0 0 -1
    outer loop
      vertex 76.2 10.2 12
      vertex 79.2 13.2 12
      vertex 79.2 10.2 12
    endloop
  endfacet
  facet normal -0 0 -1
    outer loop
      vertex 79.2 13.2 12
      vertex 76.2 10.2 12
      vertex 76.2 13.2 12
    endloop
  endfacet
  facet normal -1 0 0
    outer loop
      vertex 76.2 10.2 12
      vertex 76.2 13.2 15.4286
      vertex 76.2 13.2 12
    endloop
  endfacet
  facet normal -1 -0 0
    outer loop
      vertex 76.2 13.2 15.4286
      vertex 76.2 10.2 12
      vertex 76.2 10.2 15.4286
    endloop
  endfacet
  facet normal 0 1 -0
    outer loop
      vertex 79.2 13.2 12
      vertex 76.2 13.2 15.4286
      vertex 79.2 13.2 15.4286
    endloop
  endfacet
  facet normal 0 1 0
    outer loop
      vertex 76.2 13.2 15.4286
      vertex 79.2 13.2 12
      vertex 76.2 13.2 12
    endloop
  endfacet
  facet normal 0 -1 0
    outer loop
      vertex 76.2 10.2 12
      vertex 79.2 10.2 15.4286
      vertex 76.2 10.2 15.4286
    endloop
  endfacet
  facet normal 0 -1 -0
    outer loop
      vertex 79.2 10.2 15.4286
      vertex 76.2 10.2 12
      vertex 79.2 10.2 12
    endloop
  endfacet
  facet normal 1 0 0
    outer loop
      vertex 82.2 16.2 22.2857
      vertex 82.2 13.2 22.2857
      vertex 82.2 16.2 18.8571
    endloop
  endfacet
  facet normal 1 -0 0
    outer loop
      vertex 82.2 16.2 18.8571
      vertex 82.2 19.2 12
      vertex 82.2 19.2 18.8571
    endloop
  endfacet
  facet normal 1 0 0
    outer loop
      vertex 82.2 13.2 12
      vertex 82.2 16.2 18.8571
      vertex 82.2 13.2 22.2857
    endloop
  endfacet
  facet normal 1 0 0
    outer loop
      vertex 82.2 16.2 18.8571
      vertex 82.2 13.2 12
      vertex 82.2 19.2 12
    endloop
  endfacet
  facet normal -0 0 1
    outer loop
      vertex 79.2 16.2 22.2857
      vertex 82.2 13.2 22.2857
      vertex 82.2 16.2 22.2857
    endloop
  endfacet
  facet normal 0 0 1
    outer loop
      vertex 82.2 13.2 22.2857
      vertex 79.2 16.2 22.2857
      vertex 79.2 13.2 22.2857
    endloop
  endfacet
  facet normal 0 0 -1
    outer loop
      vertex 79.2 13.2 12
      vertex 82.2 19.2 12
      vertex 82.2 13.2 12
    endloop
  endfacet
  facet normal -0 0 -1
    outer loop
      vertex 82.2 19.2 12
      vertex 79.2 13.2 12
      vertex 79.2 19.2 12
    endloop
  endfacet
  facet normal -1 0 0
    outer loop
      vertex 79.2 19.2 12
      vertex 79.2 16.2 18.8571
      vertex 79.2 19.2 18.8571
    endloop
  endfacet
  facet normal -1 0 0
    outer loop
      vertex 79.2 13.2 15.4286
      vertex 79.2 19.2 12
      vertex 79.2 13.2 12
    endloop
  endfacet
  facet normal -1 0 0
    outer loop
      vertex 79.2 19.2 12
      vertex 79.2 13.2 15.4286
      vertex 79.2 16.2 18.8571
    endloop
  endfacet
  facet normal -1 0 0
    outer loop
      vertex 79.2 13.2 22.2857
      vertex 79.2 16.2 18.8571
      vertex 79.2 13.2 15.4286
    endloop
  endfacet
  facet normal -1 0 0
    outer loop
      vertex 79.2 16.2 18.8571
      vertex 79.2 13.2 22.2857
      vertex 79.2 16.2 22.2857
    endloop
  endfacet
  facet normal 0 1 -0
    outer loop
      vertex 82.2 16.2 18.8571
      vertex 79.2 16.2 22.2857
      vertex 82.2 16.2 22.2857
    endloop
  endfacet
  facet normal 0 1 0
    outer loop
      vertex 79.2 16.2 22.2857
      vertex 82.2 16.2 18.8571
      vertex 79.2 16.2 18.8571
    endloop
  endfacet
  facet normal 0 -1 0
    outer loop
      vertex 79.2 13.2 15.4286
      vertex 82.2 13.2 22.2857
      vertex 79.2 13.2 22.2857
    endloop
  endfacet
  facet normal 0 -1 0
    outer loop
      vertex 82.2 13.2 12
      vertex 79.2 13.2 15.4286
      vertex 79.2 13.2 12
    endloop
  endfacet
  facet normal 0 -1 0
    outer loop
      vertex 79.2 13.2 15.4286
      vertex 82.2 13.2 12
      vertex 82.2 13.2 22.2857
    endloop
  endfacet
  facet normal -0 0 1
    outer loop
      vertex 79.2 19.2 18.8571
      vertex 82.2 16.2 18.8571
      vertex 82.2 19.2 18.8571
    endloop
  endfacet
  facet normal 0 0 1
    outer loop
      vertex 82.2 16.2 18.8571
      vertex 79.2 19.2 18.8571
      vertex 79.2 16.2 18.8571
    endloop
  endfacet
  facet normal 0 1 -0
    outer loop
      vertex 82.2 19.2 12
      vertex 79.2 19.2 18.8571
      vertex 82.2 19.2 18.8571
    endloop
  endfacet
  facet normal 0 1 0
    outer loop
      vertex 79.2 19.2 18.8571
      vertex 82.2 19.2 12
      vertex 79.2 19.2 12
    endloop
  endfacet
  facet normal 1 0 0
    outer loop
      vertex 88.2 22.2 32.5714
      vertex 88.2 19.2 32.5714
      vertex 88.2 22.2 22.2857
    endloop
  endfacet
  facet normal 1 -0 0
    outer loop
      vertex 88.2 22.2 22.2857
      vertex 88.2 25.2 12
      vertex 88.2 25.2 22.2857
    endloop
  endfacet
  facet normal 1 0 0
    outer loop
      vertex 88.2 19.2 12
      vertex 88.2 22.2 22.2857
      vertex 88.2 19.2 32.5714
    endloop
  endfacet
  facet normal 1 0 0
    outer loop
      vertex 88.2 22.2 22.2857
      vertex 88.2 19.2 12
      vertex 88.2 25.2 12
    endloop
  endfacet
  facet normal -0 0 1
    outer loop
      vertex 85.2 22.2 32.5714
      vertex 88.2 19.2 32.5714
      vertex 88.2 22.2 32.5714
    endloop
  endfacet
  facet normal 0 0 1
    outer loop
      vertex 88.2 19.2 32.5714
      vertex 85.2 22.2 32.5714
      vertex 85.2 19.2 32.5714
    endloop
  endfacet
  facet normal 0 0 -1
    outer loop
      vertex 85.2 19.2 12
      vertex 88.2 25.2 12
      vertex 88.2 19.2 12
    endloop
  endfacet
  facet normal -0 0 -1
    outer loop
      vertex 88.2 25.2 12
      vertex 85.2 19.2 12
      vertex 85.2 25.2 12
    endloop
  endfacet
  facet normal -1 0 0
    outer loop
      vertex 85.2 25.2 12
      vertex 85.2 22.2 22.2857
      vertex 85.2 25.2 22.2857
    endloop
  endfacet
  facet normal -1 0 0
    outer loop
      vertex 85.2 19.2 12
      vertex 85.2 22.2 22.2857
      vertex 85.2 25.2 12
    endloop
  endfacet
  facet normal -1 0 0
    outer loop
      vertex 85.2 19.2 32.5714
      vertex 85.2 22.2 22.2857
      vertex 85.2 19.2 12
    endloop
  endfacet
  facet normal -1 0 0
    outer loop
      vertex 85.2 22.2 22.2857
      vertex 85.2 19.2 32.5714
      vertex 85.2 22.2 32.5714
    endloop
  endfacet
  facet normal 0 1 -0
    outer loop
      vertex 88.2 22.2 22.2857
      vertex 85.2 22.2 32.5714
      vertex 88.2 22.2 32.5714
    endloop
  endfacet
  facet normal 0 1 0
    outer loop
      vertex 85.2 22.2 32.5714
      vertex 88.2 22.2 22.2857
      vertex 85.2 22.2 22.2857
    endloop
  endfacet
  facet normal 0 -1 0
    outer loop
      vertex 85.2 19.2 12
      vertex 88.2 19.2 32.5714
      vertex 85.2 19.2 32.5714
    endloop
  endfacet
  facet normal 0 -1 -0
    outer loop
      vertex 88.2 19.2 32.5714
      vertex 85.2 19.2 12
      vertex 88.2 19.2 12
    endloop
  endfacet
  facet normal -0 0 1
    outer loop
      vertex 85.2 25.2 22.2857
      vertex 88.2 22.2 22.2857
      vertex 88.2 25.2 22.2857
    endloop
  endfacet
  facet normal 0 0 1
    outer loop
      vertex 88.2 22.2 22.2857
      vertex 85.2 25.2 22.2857
      vertex 85.2 22.2 22.2857
    endloop
  endfacet
  facet normal 0 1 -0
    outer loop
      vertex 88.2 25.2 12
      vertex 85.2 25.2 22.2857
      vertex 88.2 25.2 22.2857
    endloop
  endfacet
  facet normal 0 1 0
    outer loop
      vertex 85.2 25.2 22.2857
      vertex 88.2 25.2 12
      vertex 85.2 25.2 12
    endloop
  endfacet
  facet normal 1 0 0
    outer loop
      vertex 91.2 13.2 22.2857
      vertex 91.2 16.2 36
      vertex 91.2 13.2 36
    endloop
  endfacet
  facet normal 1 0 0
    outer loop
      vertex 91.2 16.2 36
      vertex 91.2 13.2 22.2857
      vertex 91.2 16.2 12
    endloop
  endfacet
  facet normal 1 0 0
    outer loop
      vertex 91.2 10.2 12
      vertex 91.2 13.2 22.2857
      vertex 91.2 10.2 22.2857
    endloop
  endfacet
  facet normal 1 0 0
    outer loop
      vertex 91.2 13.2 22.2857
      vertex 91.2 10.2 12
      vertex 91.2 16.2 12
    endloop
  endfacet
  facet normal -0 0 1
    outer loop
      vertex 88.2 13.2 22.2857
      vertex 91.2 10.2 22.2857
      vertex 91.2 13.2 22.2857
    endloop
  endfacet
  facet normal 0 0 1
    outer loop
      vertex 91.2 10.2 22.2857
      vertex 88.2 13.2 22.2857
      vertex 88.2 10.2 22.2857
    endloop
  endfacet
  facet normal 0 0 -1
    outer loop
      vertex 88.2 10.2 12
      vertex 91.2 16.2 12
      vertex 91.2 10.2 12
    endloop
  endfacet
  facet normal -0 0 -1
    outer loop
      vertex 91.2 16.2 12
      vertex 88.2 10.2 12
      vertex 88.2 16.2 12
    endloop
  endfacet
  facet normal -1 0 0
    outer loop
      vertex 88.2 16.2 12
      vertex 88.2 13.2 22.2857
      vertex 88.2 16.2 36
    endloop
  endfacet
  facet normal -1 0 0
    outer loop
      vertex 88.2 10.2 12
      vertex 88.2 13.2 22.2857
      vertex 88.2 16.2 12
    endloop
  endfacet
  facet normal -1 -0 0
    outer loop
      vertex 88.2 13.2 22.2857
      vertex 88.2 10.2 12
      vertex 88.2 10.2 22.2857
    endloop
  endfacet
  facet normal -1 -0 0
    outer loop
      vertex 88.2 16.2 36
      vertex 88.2 13.2 22.2857
      vertex 88.2 13.2 36
    endloop
  endfacet
  facet normal 0 -1 0
    outer loop
      vertex 88.2 13.2 22.2857
      vertex 91.2 13.2 36
      vertex 88.2 13.2 36
    endloop
  endfacet
  facet normal 0 -1 -0
    outer loop
      vertex 91.2 13.2 36
      vertex 88.2 13.2 22.2857
      vertex 91.2 13.2 22.2857
    endloop
  endfacet
  facet normal 0 -1 0
    outer loop
      vertex 88.2 10.2 12
      vertex 91.2 10.2 22.2857
      vertex 88.2 10.2 22.2857
    endloop
  endfacet
  facet normal 0 -1 -0
    outer loop
      vertex 91.2 10.2 22.2857
      vertex 88.2 10.2 12
      vertex 91.2 10.2 12
    endloop
  endfacet
  facet normal -0 0 1
    outer loop
      vertex 88.2 16.2 36
      vertex 91.2 13.2 36
      vertex 91.2 16.2 36
    endloop
  endfacet
  facet normal 0 0 1
    outer loop
      vertex 91.2 13.2 36
      vertex 88.2 16.2 36
      vertex 88.2 13.2 36
    endloop
  endfacet
  facet normal 0 1 -0
    outer loop
      vertex 91.2 16.2 12
      vertex 88.2 16.2 36
      vertex 91.2 16.2 36
    endloop
  endfacet
  facet normal 0 1 0
    outer loop
      vertex 88.2 16.2 36
      vertex 91.2 16.2 12
      vertex 88.2 16.2 12
    endloop
  endfacet
  facet normal 1 -0 0
    outer loop
      vertex 112.2 16.2 15.4286
      vertex 112.2 19.2 12
      vertex 112.2 19.2 15.4286
    endloop
  endfacet
  facet normal 1 0 0
    outer loop
      vertex 112.2 19.2 12
      vertex 112.2 16.2 15.4286
      vertex 112.2 16.2 12
    endloop
  endfacet
  facet normal -0 0 1
    outer loop
      vertex 109.2 19.2 15.4286
      vertex 112.2 16.2 15.4286
      vertex 112.2 19.2 15.4286
    endloop
  endfacet
  facet normal 0 0 1
    outer loop
      vertex 112.2 16.2 15.4286
      vertex 109.2 19.2 15.4286
      vertex 109.2 16.2 15.4286
    endloop
  endfacet
  facet normal 0 0 -1
    outer loop
      vertex 109.2 16.2 12
      vertex 112.2 19.2 12
      vertex 112.2 16.2 12
    endloop
  endfacet
  facet normal -0 0 -1
    outer loop
      vertex 112.2 19.2 12
      vertex 109.2 16.2 12
      vertex 109.2 19.2 12
    endloop
  endfacet
  facet normal -1 0 0
    outer loop
      vertex 109.2 16.2 12
      vertex 109.2 19.2 15.4286
      vertex 109.2 19.2 12
    endloop
  endfacet
  facet normal -1 -0 0
    outer loop
      vertex 109.2 19.2 15.4286
      vertex 109.2 16.2 12
      vertex 109.2 16.2 15.4286
    endloop
  endfacet
  facet normal 0 1 -0
    outer loop
      vertex 112.2 19.2 12
      vertex 109.2 19.2 15.4286
      vertex 112.2 19.2 15.4286
    endloop
  endfacet
  facet normal 0 1 0
    outer loop
      vertex 109.2 19.2 15.4286
      vertex 112.2 19.2 12
      vertex 109.2 19.2 12
    endloop
  endfacet
  facet normal 0 -1 0
    outer loop
      vertex 109.2 16.2 12
      vertex 112.2 16.2 15.4286
      vertex 109.2 16.2 15.4286
    endloop
  endfacet
  facet normal 0 -1 -0
    outer loop
      vertex 112.2 16.2 15.4286
      vertex 109.2 16.2 12
      vertex 112.2 16.2 12
    endloop
  endfacet
  facet normal 0 0 1
    outer loop
      vertex 142.2 16.2 15.4286
      vertex 139.2 13.2 15.4286
      vertex 142.2 10.2 15.4286
    endloop
  endfacet
  facet normal -0 0 1
    outer loop
      vertex 136.2 16.2 15.4286
      vertex 139.2 13.2 15.4286
      vertex 142.2 16.2 15.4286
    endloop
  endfacet
  facet normal 0 0 1
    outer loop
      vertex 139.2 13.2 15.4286
      vertex 136.2 16.2 15.4286
      vertex 136.2 13.2 15.4286
    endloop
  endfacet
  facet normal 0 0 1
    outer loop
      vertex 142.2 10.2 15.4286
      vertex 139.2 13.2 15.4286
      vertex 139.2 10.2 15.4286
    endloop
  endfacet
  facet normal 0 0 -1
    outer loop
      vertex 139.2 13.2 12
      vertex 142.2 10.2 12
      vertex 139.2 10.2 12
    endloop
  endfacet
  facet normal 0 0 -1
    outer loop
      vertex 142.2 10.2 12
      vertex 139.2 13.2 12
      vertex 142.2 16.2 12
    endloop
  endfacet
  facet normal 0 0 -1
    outer loop
      vertex 136.2 16.2 12
      vertex 139.2 13.2 12
      vertex 136.2 13.2 12
    endloop
  endfacet
  facet normal 0 0 -1
    outer loop
      vertex 139.2 13.2 12
      vertex 136.2 16.2 12
      vertex 142.2 16.2 12
    endloop
  endfacet
  facet normal -1 0 0
    outer loop
      vertex 136.2 13.2 12
      vertex 136.2 16.2 15.4286
      vertex 136.2 16.2 12
    endloop
  endfacet
  facet normal -1 -0 0
    outer loop
      vertex 136.2 16.2 15.4286
      vertex 136.2 13.2 12
      vertex 136.2 13.2 15.4286
    endloop
  endfacet
  facet normal 0 1 -0
    outer loop
      vertex 142.2 16.2 12
      vertex 136.2 16.2 15.4286
      vertex 142.2 16.2 15.4286
    endloop
  endfacet
  facet normal 0 1 0
    outer loop
      vertex 136.2 16.2 15.4286
      vertex 142.2 16.2 12
      vertex 136.2 16.2 12
    endloop
  endfacet
  facet normal 0 -1 0
    outer loop
      vertex 136.2 13.2 12
      vertex 139.2 13.2 15.4286
      vertex 136.2 13.2 15.4286
    endloop
  endfacet
  facet normal 0 -1 -0
    outer loop
      vertex 139.2 13.2 15.4286
      vertex 136.2 13.2 12
      vertex 139.2 13.2 12
    endloop
  endfacet
  facet normal 1 -0 0
    outer loop
      vertex 142.2 10.2 15.4286
      vertex 142.2 16.2 12
      vertex 142.2 16.2 15.4286
    endloop
  endfacet
  facet normal 1 0 0
    outer loop
      vertex 142.2 16.2 12
      vertex 142.2 10.2 15.4286
      vertex 142.2 10.2 12
    endloop
  endfacet
  facet normal -1 0 0
    outer loop
      vertex 139.2 10.2 12
      vertex 139.2 13.2 15.4286
      vertex 139.2 13.2 12
    endloop
  endfacet
  facet normal -1 -0 0
    outer loop
      vertex 139.2 13.2 15.4286
      vertex 139.2 10.2 12
      vertex 139.2 10.2 15.4286
    endloop
  endfacet
  facet normal 0 -1 0
    outer loop
      vertex 139.2 10.2 12
      vertex 142.2 10.2 15.4286
      vertex 139.2 10.2 15.4286
    endloop
  endfacet
  facet normal 0 -1 -0
    outer loop
      vertex 142.2 10.2 15.4286
      vertex 139.2 10.2 12
      vertex 142.2 10.2 12
    endloop
  endfacet
  facet normal 1 -0 0
    outer loop
      vertex 145.2 16.2 18.8571
      vertex 145.2 19.2 12
      vertex 145.2 19.2 18.8571
    endloop
  endfacet
  facet normal 1 0 0
    outer loop
      vertex 145.2 19.2 12
      vertex 145.2 16.2 18.8571
      vertex 145.2 16.2 12
    endloop
  endfacet
  facet normal -0 0 1
    outer loop
      vertex 142.2 19.2 18.8571
      vertex 145.2 16.2 18.8571
      vertex 145.2 19.2 18.8571
    endloop
  endfacet
  facet normal 0 0 1
    outer loop
      vertex 145.2 16.2 18.8571
      vertex 142.2 19.2 18.8571
      vertex 142.2 16.2 18.8571
    endloop
  endfacet
  facet normal 0 0 -1
    outer loop
      vertex 142.2 16.2 12
      vertex 145.2 19.2 12
      vertex 145.2 16.2 12
    endloop
  endfacet
  facet normal -0 0 -1
    outer loop
      vertex 145.2 19.2 12
      vertex 142.2 16.2 12
      vertex 142.2 19.2 12
    endloop
  endfacet
  facet normal -1 0 0
    outer loop
      vertex 142.2 16.2 15.4286
      vertex 142.2 19.2 12
      vertex 142.2 16.2 12
    endloop
  endfacet
  facet normal -1 0 0
    outer loop
      vertex 142.2 19.2 12
      vertex 142.2 16.2 15.4286
      vertex 142.2 19.2 18.8571
    endloop
  endfacet
  facet normal -1 -0 0
    outer loop
      vertex 142.2 19.2 18.8571
      vertex 142.2 16.2 15.4286
      vertex 142.2 16.2 18.8571
    endloop
  endfacet
  facet normal 0 1 -0
    outer loop
      vertex 145.2 19.2 12
      vertex 142.2 19.2 18.8571
      vertex 145.2 19.2 18.8571
    endloop
  endfacet
  facet normal 0 1 0
    outer loop
      vertex 142.2 19.2 18.8571
      vertex 145.2 19.2 12
      vertex 142.2 19.2 12
    endloop
  endfacet
  facet normal 0 -1 0
    outer loop
      vertex 142.2 16.2 15.4286
      vertex 145.2 16.2 18.8571
      vertex 142.2 16.2 18.8571
    endloop
  endfacet
  facet normal 0 -1 0
    outer loop
      vertex 145.2 16.2 12
      vertex 142.2 16.2 15.4286
      vertex 142.2 16.2 12
    endloop
  endfacet
  facet normal 0 -1 0
    outer loop
      vertex 142.2 16.2 15.4286
      vertex 145.2 16.2 12
      vertex 145.2 16.2 18.8571
    endloop
  endfacet
  facet normal 1 -0 0
    outer loop
      vertex 157.2 16.2 15.4286
      vertex 157.2 19.2 12
      vertex 157.2 19.2 15.4286
    endloop
  endfacet
  facet normal 1 0 0
    outer loop
      vertex 157.2 19.2 12
      vertex 157.2 16.2 15.4286
      vertex 157.2 16.2 12
    endloop
  endfacet
  facet normal -0 0 1
    outer loop
      vertex 154.2 19.2 15.4286
      vertex 157.2 16.2 15.4286
      vertex 157.2 19.2 15.4286
    endloop
  endfacet
  facet normal 0 0 1
    outer loop
      vertex 157.2 16.2 15.4286
      vertex 154.2 19.2 15.4286
      vertex 154.2 16.2 15.4286
    endloop
  endfacet
  facet normal 0 0 -1
    outer loop
      vertex 154.2 16.2 12
      vertex 157.2 19.2 12
      vertex 157.2 16.2 12
    endloop
  endfacet
  facet normal -0 0 -1
    outer loop
      vertex 157.2 19.2 12
      vertex 154.2 16.2 12
      vertex 154.2 19.2 12
    endloop
  endfacet
  facet normal -1 0 0
    outer loop
      vertex 154.2 16.2 12
      vertex 154.2 19.2 15.4286
      vertex 154.2 19.2 12
    endloop
  endfacet
  facet normal -1 -0 0
    outer loop
      vertex 154.2 19.2 15.4286
      vertex 154.2 16.2 12
      vertex 154.2 16.2 15.4286
    endloop
  endfacet
  facet normal 0 1 -0
    outer loop
      vertex 157.2 19.2 12
      vertex 154.2 19.2 15.4286
      vertex 157.2 19.2 15.4286
    endloop
  endfacet
  facet normal 0 1 0
    outer loop
      vertex 154.2 19.2 15.4286
      vertex 157.2 19.2 12
      vertex 154.2 19.2 12
    endloop
  endfacet
  facet normal 0 -1 0
    outer loop
      vertex 154.2 16.2 12
      vertex 157.2 16.2 15.4286
      vertex 154.2 16.2 15.4286
    endloop
  endfacet
  facet normal 0 -1 -0
    outer loop
      vertex 157.2 16.2 15.4286
      vertex 154.2 16.2 12
      vertex 157.2 16.2 12
    endloop
  endfacet
  facet normal 1 -0 0
    outer loop
      vertex 160.2 19.2 15.4286
      vertex 160.2 22.2 12
      vertex 160.2 22.2 15.4286
    endloop
  endfacet
  facet normal 1 0 0
    outer loop
      vertex 160.2 22.2 12
      vertex 160.2 19.2 15.4286
      vertex 160.2 19.2 12
    endloop
  endfacet
  facet normal -0 0 1
    outer loop
      vertex 157.2 22.2 15.4286
      vertex 160.2 19.2 15.4286
      vertex 160.2 22.2 15.4286
    endloop
  endfacet
  facet normal 0 0 1
    outer loop
      vertex 160.2 19.2 15.4286
      vertex 157.2 22.2 15.4286
      vertex 157.2 19.2 15.4286
    endloop
  endfacet
  facet normal 0 0 -1
    outer loop
      vertex 157.2 19.2 12
      vertex 160.2 22.2 12
      vertex 160.2 19.2 12
    endloop
  endfacet
  facet normal -0 0 -1
    outer loop
      vertex 160.2 22.2 12
      vertex 157.2 19.2 12
      vertex 157.2 22.2 12
    endloop
  endfacet
  facet normal -1 0 0
    outer loop
      vertex 157.2 19.2 12
      vertex 157.2 22.2 15.4286
      vertex 157.2 22.2 12
    endloop
  endfacet
  facet normal -1 -0 0
    outer loop
      vertex 157.2 22.2 15.4286
      vertex 157.2 19.2 12
      vertex 157.2 19.2 15.4286
    endloop
  endfacet
  facet normal 0 1 -0
    outer loop
      vertex 160.2 22.2 12
      vertex 157.2 22.2 15.4286
      vertex 160.2 22.2 15.4286
    endloop
  endfacet
  facet normal 0 1 0
    outer loop
      vertex 157.2 22.2 15.4286
      vertex 160.2 22.2 12
      vertex 157.2 22.2 12
    endloop
  endfacet
  facet normal 0 -1 0
    outer loop
      vertex 157.2 19.2 12
      vertex 160.2 19.2 15.4286
      vertex 157.2 19.2 15.4286
    endloop
  endfacet
  facet normal 0 -1 -0
    outer loop
      vertex 160.2 19.2 15.4286
      vertex 157.2 19.2 12
      vertex 160.2 19.2 12
    endloop
  endfacet
endsolid OpenSCAD_Model
