solid OpenSCAD_Model
  facet normal 1 -0 0
    outer loop
      vertex 160.2 19.2 36
      vertex 160.2 22.2 24
      vertex 160.2 22.2 36
    endloop
  endfacet
  facet normal 1 0 0
    outer loop
      vertex 160.2 22.2 24
      vertex 160.2 19.2 36
      vertex 160.2 19.2 24
    endloop
  endfacet
  facet normal -0 0 1
    outer loop
      vertex 157.2 22.2 36
      vertex 160.2 19.2 36
      vertex 160.2 22.2 36
    endloop
  endfacet
  facet normal 0 0 1
    outer loop
      vertex 160.2 19.2 36
      vertex 157.2 22.2 36
      vertex 157.2 19.2 36
    endloop
  endfacet
  facet normal 0 0 -1
    outer loop
      vertex 157.2 19.2 12
      vertex 163.2 22.2 12
      vertex 163.2 19.2 12
    endloop
  endfacet
  facet normal -0 0 -1
    outer loop
      vertex 163.2 22.2 12
      vertex 157.2 19.2 12
      vertex 157.2 22.2 12
    endloop
  endfacet
  facet normal -1 0 0
    outer loop
      vertex 157.2 19.2 12
      vertex 157.2 22.2 36
      vertex 157.2 22.2 12
    endloop
  endfacet
  facet normal -1 -0 0
    outer loop
      vertex 157.2 22.2 36
      vertex 157.2 19.2 12
      vertex 157.2 19.2 36
    endloop
  endfacet
  facet normal 0 1 0
    outer loop
      vertex 163.2 22.2 24
      vertex 163.2 22.2 12
      vertex 160.2 22.2 24
    endloop
  endfacet
  facet normal 0 1 -0
    outer loop
      vertex 160.2 22.2 24
      vertex 157.2 22.2 36
      vertex 160.2 22.2 36
    endloop
  endfacet
  facet normal 0 1 0
    outer loop
      vertex 157.2 22.2 12
      vertex 160.2 22.2 24
      vertex 163.2 22.2 12
    endloop
  endfacet
  facet normal 0 1 0
    outer loop
      vertex 160.2 22.2 24
      vertex 157.2 22.2 12
      vertex 157.2 22.2 36
    endloop
  endfacet
  facet normal 0 -1 0
    outer loop
      vertex 157.2 19.2 36
      vertex 160.2 19.2 24
      vertex 160.2 19.2 36
    endloop
  endfacet
  facet normal 0 -1 0
    outer loop
      vertex 157.2 19.2 12
      vertex 160.2 19.2 24
      vertex 157.2 19.2 36
    endloop
  endfacet
  facet normal 0 -1 0
    outer loop
      vertex 163.2 19.2 12
      vertex 160.2 19.2 24
      vertex 157.2 19.2 12
    endloop
  endfacet
  facet normal 0 -1 0
    outer loop
      vertex 160.2 19.2 24
      vertex 163.2 19.2 12
      vertex 163.2 19.2 24
    endloop
  endfacet
  facet normal -0 0 1
    outer loop
      vertex 160.2 13.2 30
      vertex 166.2 10.2 30
      vertex 166.2 13.2 30
    endloop
  endfacet
  facet normal 0 0 1
    outer loop
      vertex 166.2 10.2 30
      vertex 160.2 13.2 30
      vertex 160.2 10.2 30
    endloop
  endfacet
  facet normal 0 0 -1
    outer loop
      vertex 169.2 10.2 12
      vertex 166.2 13.2 12
      vertex 169.2 16.2 12
    endloop
  endfacet
  facet normal 0 0 -1
    outer loop
      vertex 160.2 10.2 12
      vertex 166.2 13.2 12
      vertex 169.2 10.2 12
    endloop
  endfacet
  facet normal -0 0 -1
    outer loop
      vertex 166.2 13.2 12
      vertex 160.2 10.2 12
      vertex 160.2 13.2 12
    endloop
  endfacet
  facet normal -0 0 -1
    outer loop
      vertex 169.2 16.2 12
      vertex 166.2 13.2 12
      vertex 166.2 16.2 12
    endloop
  endfacet
  facet normal -1 0 0
    outer loop
      vertex 160.2 10.2 12
      vertex 160.2 13.2 30
      vertex 160.2 13.2 12
    endloop
  endfacet
  facet normal -1 -0 0
    outer loop
      vertex 160.2 13.2 30
      vertex 160.2 10.2 12
      vertex 160.2 10.2 30
    endloop
  endfacet
  facet normal 0 1 -0
    outer loop
      vertex 166.2 13.2 24
      vertex 160.2 13.2 30
      vertex 166.2 13.2 30
    endloop
  endfacet
  facet normal 0 1 0
    outer loop
      vertex 160.2 13.2 12
      vertex 166.2 13.2 24
      vertex 166.2 13.2 12
    endloop
  endfacet
  facet normal 0 1 0
    outer loop
      vertex 166.2 13.2 24
      vertex 160.2 13.2 12
      vertex 160.2 13.2 30
    endloop
  endfacet
  facet normal 0 -1 0
    outer loop
      vertex 160.2 10.2 30
      vertex 166.2 10.2 24
      vertex 166.2 10.2 30
    endloop
  endfacet
  facet normal 0 -1 0
    outer loop
      vertex 160.2 10.2 12
      vertex 166.2 10.2 24
      vertex 160.2 10.2 30
    endloop
  endfacet
  facet normal 0 -1 0
    outer loop
      vertex 169.2 10.2 12
      vertex 166.2 10.2 24
      vertex 160.2 10.2 12
    endloop
  endfacet
  facet normal 0 -1 0
    outer loop
      vertex 166.2 10.2 24
      vertex 169.2 10.2 12
      vertex 169.2 10.2 24
    endloop
  endfacet
  facet normal 1 -0 0
    outer loop
      vertex 163.2 19.2 24
      vertex 163.2 22.2 12
      vertex 163.2 22.2 24
    endloop
  endfacet
  facet normal 1 0 0
    outer loop
      vertex 163.2 22.2 12
      vertex 163.2 19.2 24
      vertex 163.2 19.2 12
    endloop
  endfacet
  facet normal -0 0 1
    outer loop
      vertex 160.2 22.2 24
      vertex 163.2 19.2 24
      vertex 163.2 22.2 24
    endloop
  endfacet
  facet normal 0 0 1
    outer loop
      vertex 163.2 19.2 24
      vertex 160.2 22.2 24
      vertex 160.2 19.2 24
    endloop
  endfacet
  facet normal 1 -0 0
    outer loop
      vertex 166.2 10.2 30
      vertex 166.2 13.2 24
      vertex 166.2 13.2 30
    endloop
  endfacet
  facet normal 1 0 0
    outer loop
      vertex 166.2 13.2 24
      vertex 166.2 10.2 30
      vertex 166.2 10.2 24
    endloop
  endfacet
  facet normal 1 -0 0
    outer loop
      vertex 169.2 10.2 24
      vertex 169.2 16.2 12
      vertex 169.2 16.2 24
    endloop
  endfacet
  facet normal 1 0 0
    outer loop
      vertex 169.2 16.2 12
      vertex 169.2 10.2 24
      vertex 169.2 10.2 12
    endloop
  endfacet
  facet normal 0 0 1
    outer loop
      vertex 166.2 13.2 24
      vertex 169.2 16.2 24
      vertex 166.2 16.2 24
    endloop
  endfacet
  facet normal 0 0 1
    outer loop
      vertex 169.2 16.2 24
      vertex 166.2 13.2 24
      vertex 169.2 10.2 24
    endloop
  endfacet
  facet normal 0 0 1
    outer loop
      vertex 169.2 10.2 24
      vertex 166.2 13.2 24
      vertex 166.2 10.2 24
    endloop
  endfacet
  facet normal -1 0 0
    outer loop
      vertex 166.2 13.2 12
      vertex 166.2 16.2 24
      vertex 166.2 16.2 12
    endloop
  endfacet
  facet normal -1 -0 0
    outer loop
      vertex 166.2 16.2 24
      vertex 166.2 13.2 12
      vertex 166.2 13.2 24
    endloop
  endfacet
  facet normal 0 1 -0
    outer loop
      vertex 169.2 16.2 12
      vertex 166.2 16.2 24
      vertex 169.2 16.2 24
    endloop
  endfacet
  facet normal 0 1 0
    outer loop
      vertex 166.2 16.2 24
      vertex 169.2 16.2 12
      vertex 166.2 16.2 12
    endloop
  endfacet
endsolid OpenSCAD_Model
