solid OpenSCAD_Model
  facet normal 1 0 0
    outer loop
      vertex 19.2 13.2 17.7143
      vertex 19.2 10.2 17.7143
      vertex 19.2 13.2 16.5714
    endloop
  endfacet
  facet normal 1 0 0
    outer loop
      vertex 19.2 16.2 16.5714
      vertex 19.2 13.2 16.5714
      vertex 19.2 16.2 14.2857
    endloop
  endfacet
  facet normal 1 -0 0
    outer loop
      vertex 19.2 16.2 14.2857
      vertex 19.2 19.2 12
      vertex 19.2 19.2 14.2857
    endloop
  endfacet
  facet normal 1 0 0
    outer loop
      vertex 19.2 10.2 12
      vertex 19.2 16.2 14.2857
      vertex 19.2 13.2 16.5714
    endloop
  endfacet
  facet normal 1 0 0
    outer loop
      vertex 19.2 10.2 12
      vertex 19.2 13.2 16.5714
      vertex 19.2 10.2 17.7143
    endloop
  endfacet
  facet normal 1 0 0
    outer loop
      vertex 19.2 16.2 14.2857
      vertex 19.2 10.2 12
      vertex 19.2 19.2 12
    endloop
  endfacet
  facet normal -0 0 1
    outer loop
      vertex 16.2 13.2 17.7143
      vertex 19.2 10.2 17.7143
      vertex 19.2 13.2 17.7143
    endloop
  endfacet
  facet normal 0 0 1
    outer loop
      vertex 19.2 10.2 17.7143
      vertex 16.2 13.2 17.7143
      vertex 16.2 10.2 17.7143
    endloop
  endfacet
  facet normal 0 0 -1
    outer loop
      vertex 16.2 10.2 12
      vertex 19.2 19.2 12
      vertex 19.2 10.2 12
    endloop
  endfacet
  facet normal -0 0 -1
    outer loop
      vertex 19.2 19.2 12
      vertex 16.2 10.2 12
      vertex 16.2 19.2 12
    endloop
  endfacet
  facet normal -1 0 0
    outer loop
      vertex 16.2 19.2 12
      vertex 16.2 16.2 14.2857
      vertex 16.2 19.2 14.2857
    endloop
  endfacet
  facet normal -1 0 0
    outer loop
      vertex 16.2 16.2 14.2857
      vertex 16.2 13.2 16.5714
      vertex 16.2 16.2 16.5714
    endloop
  endfacet
  facet normal -1 0 0
    outer loop
      vertex 16.2 10.2 12
      vertex 16.2 16.2 14.2857
      vertex 16.2 19.2 12
    endloop
  endfacet
  facet normal -1 -0 0
    outer loop
      vertex 16.2 16.2 14.2857
      vertex 16.2 10.2 12
      vertex 16.2 13.2 16.5714
    endloop
  endfacet
  facet normal -1 0 0
    outer loop
      vertex 16.2 10.2 17.7143
      vertex 16.2 13.2 16.5714
      vertex 16.2 10.2 12
    endloop
  endfacet
  facet normal -1 0 0
    outer loop
      vertex 16.2 13.2 16.5714
      vertex 16.2 10.2 17.7143
      vertex 16.2 13.2 17.7143
    endloop
  endfacet
  facet normal 0 1 -0
    outer loop
      vertex 19.2 13.2 16.5714
      vertex 16.2 13.2 17.7143
      vertex 19.2 13.2 17.7143
    endloop
  endfacet
  facet normal 0 1 0
    outer loop
      vertex 16.2 13.2 17.7143
      vertex 19.2 13.2 16.5714
      vertex 16.2 13.2 16.5714
    endloop
  endfacet
  facet normal 0 -1 0
    outer loop
      vertex 16.2 10.2 12
      vertex 19.2 10.2 17.7143
      vertex 16.2 10.2 17.7143
    endloop
  endfacet
  facet normal 0 -1 -0
    outer loop
      vertex 19.2 10.2 17.7143
      vertex 16.2 10.2 12
      vertex 19.2 10.2 12
    endloop
  endfacet
  facet normal -0 0 1
    outer loop
      vertex 16.2 16.2 16.5714
      vertex 19.2 13.2 16.5714
      vertex 19.2 16.2 16.5714
    endloop
  endfacet
  facet normal 0 0 1
    outer loop
      vertex 19.2 13.2 16.5714
      vertex 16.2 16.2 16.5714
      vertex 16.2 13.2 16.5714
    endloop
  endfacet
  facet normal 0 1 -0
    outer loop
      vertex 19.2 16.2 14.2857
      vertex 16.2 16.2 16.5714
      vertex 19.2 16.2 16.5714
    endloop
  endfacet
  facet normal 0 1 0
    outer loop
      vertex 16.2 16.2 16.5714
      vertex 19.2 16.2 14.2857
      vertex 16.2 16.2 14.2857
    endloop
  endfacet
  facet normal -0 0 1
    outer loop
      vertex 16.2 19.2 14.2857
      vertex 19.2 16.2 14.2857
      vertex 19.2 19.2 14.2857
    endloop
  endfacet
  facet normal 0 0 1
    outer loop
      vertex 19.2 16.2 14.2857
      vertex 16.2 19.2 14.2857
      vertex 16.2 16.2 14.2857
    endloop
  endfacet
  facet normal 0 1 -0
    outer loop
      vertex 19.2 19.2 12
      vertex 16.2 19.2 14.2857
      vertex 19.2 19.2 14.2857
    endloop
  endfacet
  facet normal 0 1 0
    outer loop
      vertex 16.2 19.2 14.2857
      vertex 19.2 19.2 12
      vertex 16.2 19.2 12
    endloop
  endfacet
  facet normal 1 0 0
    outer loop
      vertex 28.2 19.2 14.2857
      vertex 28.2 16.2 13.1429
      vertex 28.2 19.2 13.1429
    endloop
  endfacet
  facet normal 1 -0 0
    outer loop
      vertex 28.2 13.2 14.2857
      vertex 28.2 16.2 13.1429
      vertex 28.2 19.2 14.2857
    endloop
  endfacet
  facet normal 1 0 0
    outer loop
      vertex 28.2 13.2 13.1429
      vertex 28.2 16.2 13.1429
      vertex 28.2 13.2 14.2857
    endloop
  endfacet
  facet normal 1 0 0
    outer loop
      vertex 28.2 16.2 13.1429
      vertex 28.2 13.2 13.1429
      vertex 28.2 16.2 12
    endloop
  endfacet
  facet normal 1 0 0
    outer loop
      vertex 28.2 16.2 12
      vertex 28.2 13.2 13.1429
      vertex 28.2 13.2 12
    endloop
  endfacet
  facet normal -0 0 1
    outer loop
      vertex 25.2 19.2 14.2857
      vertex 28.2 13.2 14.2857
      vertex 28.2 19.2 14.2857
    endloop
  endfacet
  facet normal 0 0 1
    outer loop
      vertex 28.2 13.2 14.2857
      vertex 25.2 19.2 14.2857
      vertex 25.2 13.2 14.2857
    endloop
  endfacet
  facet normal 0 0 -1
    outer loop
      vertex 28.2 13.2 12
      vertex 25.2 13.2 12
      vertex 28.2 16.2 12
    endloop
  endfacet
  facet normal 0 0 -1
    outer loop
      vertex 28.2 16.2 12
      vertex 31.2 19.2 12
      vertex 31.2 16.2 12
    endloop
  endfacet
  facet normal 0 0 -1
    outer loop
      vertex 28.2 16.2 12
      vertex 25.2 19.2 12
      vertex 31.2 19.2 12
    endloop
  endfacet
  facet normal 0 0 -1
    outer loop
      vertex 25.2 19.2 12
      vertex 28.2 16.2 12
      vertex 25.2 13.2 12
    endloop
  endfacet
  facet normal 0 0 -1
    outer loop
      vertex 31.2 16.2 12
      vertex 34.2 13.2 12
      vertex 31.2 13.2 12
    endloop
  endfacet
  facet normal 0 0 -1
    outer loop
      vertex 34.2 13.2 12
      vertex 31.2 16.2 12
      vertex 34.2 22.2 12
    endloop
  endfacet
  facet normal 0 0 -1
    outer loop
      vertex 31.2 19.2 12
      vertex 34.2 22.2 12
      vertex 31.2 16.2 12
    endloop
  endfacet
  facet normal -0 0 -1
    outer loop
      vertex 34.2 22.2 12
      vertex 31.2 19.2 12
      vertex 31.2 22.2 12
    endloop
  endfacet
  facet normal -1 0 0
    outer loop
      vertex 25.2 13.2 12
      vertex 25.2 19.2 14.2857
      vertex 25.2 19.2 12
    endloop
  endfacet
  facet normal -1 -0 0
    outer loop
      vertex 25.2 19.2 14.2857
      vertex 25.2 13.2 12
      vertex 25.2 13.2 14.2857
    endloop
  endfacet
  facet normal 0 -1 0
    outer loop
      vertex 25.2 13.2 14.2857
      vertex 28.2 13.2 13.1429
      vertex 28.2 13.2 14.2857
    endloop
  endfacet
  facet normal 0 -1 0
    outer loop
      vertex 25.2 13.2 12
      vertex 28.2 13.2 13.1429
      vertex 25.2 13.2 14.2857
    endloop
  endfacet
  facet normal 0 -1 -0
    outer loop
      vertex 28.2 13.2 13.1429
      vertex 25.2 13.2 12
      vertex 28.2 13.2 12
    endloop
  endfacet
  facet normal 0 1 0
    outer loop
      vertex 31.2 19.2 13.1429
      vertex 31.2 19.2 12
      vertex 28.2 19.2 13.1429
    endloop
  endfacet
  facet normal 0 1 -0
    outer loop
      vertex 28.2 19.2 13.1429
      vertex 25.2 19.2 14.2857
      vertex 28.2 19.2 14.2857
    endloop
  endfacet
  facet normal 0 1 0
    outer loop
      vertex 28.2 19.2 13.1429
      vertex 25.2 19.2 12
      vertex 25.2 19.2 14.2857
    endloop
  endfacet
  facet normal 0 1 0
    outer loop
      vertex 25.2 19.2 12
      vertex 28.2 19.2 13.1429
      vertex 31.2 19.2 12
    endloop
  endfacet
  facet normal 1 -0 0
    outer loop
      vertex 28.2 22.2 14.2857
      vertex 28.2 25.2 13.1429
      vertex 28.2 25.2 14.2857
    endloop
  endfacet
  facet normal 1 0 0
    outer loop
      vertex 28.2 25.2 13.1429
      vertex 28.2 22.2 14.2857
      vertex 28.2 22.2 13.1429
    endloop
  endfacet
  facet normal -0 0 1
    outer loop
      vertex 25.2 25.2 14.2857
      vertex 28.2 22.2 14.2857
      vertex 28.2 25.2 14.2857
    endloop
  endfacet
  facet normal 0 0 1
    outer loop
      vertex 28.2 22.2 14.2857
      vertex 25.2 25.2 14.2857
      vertex 25.2 22.2 14.2857
    endloop
  endfacet
  facet normal 0 0 -1
    outer loop
      vertex 25.2 22.2 12
      vertex 31.2 25.2 12
      vertex 31.2 22.2 12
    endloop
  endfacet
  facet normal -0 0 -1
    outer loop
      vertex 31.2 25.2 12
      vertex 25.2 22.2 12
      vertex 25.2 25.2 12
    endloop
  endfacet
  facet normal -1 0 0
    outer loop
      vertex 25.2 22.2 12
      vertex 25.2 25.2 14.2857
      vertex 25.2 25.2 12
    endloop
  endfacet
  facet normal -1 -0 0
    outer loop
      vertex 25.2 25.2 14.2857
      vertex 25.2 22.2 12
      vertex 25.2 22.2 14.2857
    endloop
  endfacet
  facet normal 0 1 0
    outer loop
      vertex 31.2 25.2 13.1429
      vertex 31.2 25.2 12
      vertex 28.2 25.2 13.1429
    endloop
  endfacet
  facet normal 0 1 -0
    outer loop
      vertex 28.2 25.2 13.1429
      vertex 25.2 25.2 14.2857
      vertex 28.2 25.2 14.2857
    endloop
  endfacet
  facet normal 0 1 0
    outer loop
      vertex 28.2 25.2 13.1429
      vertex 25.2 25.2 12
      vertex 25.2 25.2 14.2857
    endloop
  endfacet
  facet normal 0 1 0
    outer loop
      vertex 25.2 25.2 12
      vertex 28.2 25.2 13.1429
      vertex 31.2 25.2 12
    endloop
  endfacet
  facet normal 0 -1 0
    outer loop
      vertex 25.2 22.2 14.2857
      vertex 28.2 22.2 13.1429
      vertex 28.2 22.2 14.2857
    endloop
  endfacet
  facet normal 0 -1 0
    outer loop
      vertex 25.2 22.2 12
      vertex 28.2 22.2 13.1429
      vertex 25.2 22.2 14.2857
    endloop
  endfacet
  facet normal 0 -1 0
    outer loop
      vertex 31.2 22.2 12
      vertex 28.2 22.2 13.1429
      vertex 25.2 22.2 12
    endloop
  endfacet
  facet normal 0 -1 0
    outer loop
      vertex 28.2 22.2 13.1429
      vertex 31.2 22.2 12
      vertex 31.2 22.2 13.1429
    endloop
  endfacet
  facet normal 1 -0 0
    outer loop
      vertex 31.2 10.2 13.1429
      vertex 31.2 13.2 12
      vertex 31.2 13.2 13.1429
    endloop
  endfacet
  facet normal 1 0 0
    outer loop
      vertex 31.2 13.2 12
      vertex 31.2 10.2 13.1429
      vertex 31.2 10.2 12
    endloop
  endfacet
  facet normal -0 0 1
    outer loop
      vertex 28.2 13.2 13.1429
      vertex 31.2 10.2 13.1429
      vertex 31.2 13.2 13.1429
    endloop
  endfacet
  facet normal 0 0 1
    outer loop
      vertex 31.2 10.2 13.1429
      vertex 28.2 13.2 13.1429
      vertex 28.2 10.2 13.1429
    endloop
  endfacet
  facet normal 0 0 -1
    outer loop
      vertex 28.2 10.2 12
      vertex 31.2 13.2 12
      vertex 31.2 10.2 12
    endloop
  endfacet
  facet normal -0 0 -1
    outer loop
      vertex 31.2 13.2 12
      vertex 28.2 10.2 12
      vertex 28.2 13.2 12
    endloop
  endfacet
  facet normal -1 0 0
    outer loop
      vertex 28.2 10.2 12
      vertex 28.2 13.2 13.1429
      vertex 28.2 13.2 12
    endloop
  endfacet
  facet normal -1 -0 0
    outer loop
      vertex 28.2 13.2 13.1429
      vertex 28.2 10.2 12
      vertex 28.2 10.2 13.1429
    endloop
  endfacet
  facet normal 0 1 -0
    outer loop
      vertex 31.2 13.2 12
      vertex 28.2 13.2 13.1429
      vertex 31.2 13.2 13.1429
    endloop
  endfacet
  facet normal 0 1 0
    outer loop
      vertex 28.2 13.2 13.1429
      vertex 31.2 13.2 12
      vertex 28.2 13.2 12
    endloop
  endfacet
  facet normal 0 -1 0
    outer loop
      vertex 28.2 10.2 12
      vertex 31.2 10.2 13.1429
      vertex 28.2 10.2 13.1429
    endloop
  endfacet
  facet normal 0 -1 -0
    outer loop
      vertex 31.2 10.2 13.1429
      vertex 28.2 10.2 12
      vertex 31.2 10.2 12
    endloop
  endfacet
  facet normal -1 0 0
    outer loop
      vertex 31.2 19.2 13.1429
      vertex 31.2 22.2 13.1429
      vertex 31.2 22.2 12
    endloop
  endfacet
  facet normal -1 0 0
    outer loop
      vertex 31.2 19.2 13.1429
      vertex 31.2 22.2 12
      vertex 31.2 19.2 12
    endloop
  endfacet
  facet normal -1 0 0
    outer loop
      vertex 31.2 22.2 13.1429
      vertex 31.2 19.2 13.1429
      vertex 31.2 22.2 17.7143
    endloop
  endfacet
  facet normal -1 0 0
    outer loop
      vertex 31.2 19.2 13.1429
      vertex 31.2 19.2 17.7143
      vertex 31.2 22.2 17.7143
    endloop
  endfacet
  facet normal -1 0 0
    outer loop
      vertex 31.2 16.2 16.5714
      vertex 31.2 19.2 17.7143
      vertex 31.2 19.2 13.1429
    endloop
  endfacet
  facet normal -1 0 0
    outer loop
      vertex 31.2 16.2 16.5714
      vertex 31.2 19.2 13.1429
      vertex 31.2 16.2 13.1429
    endloop
  endfacet
  facet normal -1 0 0
    outer loop
      vertex 31.2 16.2 22.2857
      vertex 31.2 19.2 17.7143
      vertex 31.2 16.2 16.5714
    endloop
  endfacet
  facet normal -1 0 0
    outer loop
      vertex 31.2 19.2 17.7143
      vertex 31.2 16.2 22.2857
      vertex 31.2 19.2 22.2857
    endloop
  endfacet
  facet normal -1 0 0
    outer loop
      vertex 31.2 13.2 13.1429
      vertex 31.2 16.2 13.1429
      vertex 31.2 16.2 12
    endloop
  endfacet
  facet normal -1 0 0
    outer loop
      vertex 31.2 13.2 13.1429
      vertex 31.2 16.2 12
      vertex 31.2 13.2 12
    endloop
  endfacet
  facet normal -1 0 0
    outer loop
      vertex 31.2 16.2 13.1429
      vertex 31.2 13.2 13.1429
      vertex 31.2 16.2 16.5714
    endloop
  endfacet
  facet normal -1 -0 0
    outer loop
      vertex 31.2 16.2 16.5714
      vertex 31.2 13.2 13.1429
      vertex 31.2 13.2 16.5714
    endloop
  endfacet
  facet normal -0 0 1
    outer loop
      vertex 28.2 19.2 13.1429
      vertex 31.2 16.2 13.1429
      vertex 31.2 19.2 13.1429
    endloop
  endfacet
  facet normal 0 0 1
    outer loop
      vertex 31.2 16.2 13.1429
      vertex 28.2 19.2 13.1429
      vertex 28.2 16.2 13.1429
    endloop
  endfacet
  facet normal 0 -1 0
    outer loop
      vertex 28.2 16.2 12
      vertex 31.2 16.2 13.1429
      vertex 28.2 16.2 13.1429
    endloop
  endfacet
  facet normal 0 -1 -0
    outer loop
      vertex 31.2 16.2 13.1429
      vertex 28.2 16.2 12
      vertex 31.2 16.2 12
    endloop
  endfacet
  facet normal 1 -0 0
    outer loop
      vertex 31.2 22.2 13.1429
      vertex 31.2 25.2 12
      vertex 31.2 25.2 13.1429
    endloop
  endfacet
  facet normal 1 0 0
    outer loop
      vertex 31.2 25.2 12
      vertex 31.2 22.2 13.1429
      vertex 31.2 22.2 12
    endloop
  endfacet
  facet normal -0 0 1
    outer loop
      vertex 28.2 25.2 13.1429
      vertex 31.2 22.2 13.1429
      vertex 31.2 25.2 13.1429
    endloop
  endfacet
  facet normal 0 0 1
    outer loop
      vertex 31.2 22.2 13.1429
      vertex 28.2 25.2 13.1429
      vertex 28.2 22.2 13.1429
    endloop
  endfacet
  facet normal 1 0 0
    outer loop
      vertex 34.2 19.2 22.2857
      vertex 34.2 16.2 22.2857
      vertex 34.2 19.2 17.7143
    endloop
  endfacet
  facet normal 1 -0 0
    outer loop
      vertex 34.2 19.2 17.7143
      vertex 34.2 22.2 12
      vertex 34.2 22.2 17.7143
    endloop
  endfacet
  facet normal 1 0 0
    outer loop
      vertex 34.2 16.2 16.5714
      vertex 34.2 19.2 17.7143
      vertex 34.2 16.2 22.2857
    endloop
  endfacet
  facet normal 1 0 0
    outer loop
      vertex 34.2 19.2 17.7143
      vertex 34.2 16.2 16.5714
      vertex 34.2 22.2 12
    endloop
  endfacet
  facet normal 1 0 0
    outer loop
      vertex 34.2 13.2 12
      vertex 34.2 16.2 16.5714
      vertex 34.2 13.2 16.5714
    endloop
  endfacet
  facet normal 1 0 0
    outer loop
      vertex 34.2 16.2 16.5714
      vertex 34.2 13.2 12
      vertex 34.2 22.2 12
    endloop
  endfacet
  facet normal -0 0 1
    outer loop
      vertex 31.2 16.2 16.5714
      vertex 34.2 13.2 16.5714
      vertex 34.2 16.2 16.5714
    endloop
  endfacet
  facet normal 0 0 1
    outer loop
      vertex 34.2 13.2 16.5714
      vertex 31.2 16.2 16.5714
      vertex 31.2 13.2 16.5714
    endloop
  endfacet
  facet normal 0 -1 0
    outer loop
      vertex 31.2 16.2 16.5714
      vertex 34.2 16.2 22.2857
      vertex 31.2 16.2 22.2857
    endloop
  endfacet
  facet normal 0 -1 -0
    outer loop
      vertex 34.2 16.2 22.2857
      vertex 31.2 16.2 16.5714
      vertex 34.2 16.2 16.5714
    endloop
  endfacet
  facet normal 0 -1 0
    outer loop
      vertex 31.2 13.2 13.1429
      vertex 34.2 13.2 16.5714
      vertex 31.2 13.2 16.5714
    endloop
  endfacet
  facet normal 0 -1 0
    outer loop
      vertex 34.2 13.2 12
      vertex 31.2 13.2 13.1429
      vertex 31.2 13.2 12
    endloop
  endfacet
  facet normal 0 -1 0
    outer loop
      vertex 31.2 13.2 13.1429
      vertex 34.2 13.2 12
      vertex 34.2 13.2 16.5714
    endloop
  endfacet
  facet normal -0 0 1
    outer loop
      vertex 31.2 19.2 22.2857
      vertex 34.2 16.2 22.2857
      vertex 34.2 19.2 22.2857
    endloop
  endfacet
  facet normal 0 0 1
    outer loop
      vertex 34.2 16.2 22.2857
      vertex 31.2 19.2 22.2857
      vertex 31.2 16.2 22.2857
    endloop
  endfacet
  facet normal 0 1 -0
    outer loop
      vertex 34.2 19.2 17.7143
      vertex 31.2 19.2 22.2857
      vertex 34.2 19.2 22.2857
    endloop
  endfacet
  facet normal 0 1 0
    outer loop
      vertex 31.2 19.2 22.2857
      vertex 34.2 19.2 17.7143
      vertex 31.2 19.2 17.7143
    endloop
  endfacet
  facet normal -0 0 1
    outer loop
      vertex 31.2 22.2 17.7143
      vertex 34.2 19.2 17.7143
      vertex 34.2 22.2 17.7143
    endloop
  endfacet
  facet normal 0 0 1
    outer loop
      vertex 34.2 19.2 17.7143
      vertex 31.2 22.2 17.7143
      vertex 31.2 19.2 17.7143
    endloop
  endfacet
  facet normal 0 1 0
    outer loop
      vertex 34.2 22.2 17.7143
      vertex 31.2 22.2 13.1429
      vertex 31.2 22.2 17.7143
    endloop
  endfacet
  facet normal 0 1 -0
    outer loop
      vertex 34.2 22.2 12
      vertex 31.2 22.2 13.1429
      vertex 34.2 22.2 17.7143
    endloop
  endfacet
  facet normal 0 1 0
    outer loop
      vertex 31.2 22.2 13.1429
      vertex 34.2 22.2 12
      vertex 31.2 22.2 12
    endloop
  endfacet
  facet normal 1 -0 0
    outer loop
      vertex 40.2 10.2 13.1429
      vertex 40.2 13.2 12
      vertex 40.2 13.2 13.1429
    endloop
  endfacet
  facet normal 1 0 0
    outer loop
      vertex 40.2 13.2 12
      vertex 40.2 10.2 13.1429
      vertex 40.2 10.2 12
    endloop
  endfacet
  facet normal -0 0 1
    outer loop
      vertex 37.2 13.2 13.1429
      vertex 40.2 10.2 13.1429
      vertex 40.2 13.2 13.1429
    endloop
  endfacet
  facet normal 0 0 1
    outer loop
      vertex 40.2 10.2 13.1429
      vertex 37.2 13.2 13.1429
      vertex 37.2 10.2 13.1429
    endloop
  endfacet
  facet normal 0 0 -1
    outer loop
      vertex 37.2 10.2 12
      vertex 40.2 13.2 12
      vertex 40.2 10.2 12
    endloop
  endfacet
  facet normal -0 0 -1
    outer loop
      vertex 40.2 13.2 12
      vertex 37.2 10.2 12
      vertex 37.2 13.2 12
    endloop
  endfacet
  facet normal -1 0 0
    outer loop
      vertex 37.2 10.2 12
      vertex 37.2 13.2 13.1429
      vertex 37.2 13.2 12
    endloop
  endfacet
  facet normal -1 -0 0
    outer loop
      vertex 37.2 13.2 13.1429
      vertex 37.2 10.2 12
      vertex 37.2 10.2 13.1429
    endloop
  endfacet
  facet normal 0 1 -0
    outer loop
      vertex 40.2 13.2 12
      vertex 37.2 13.2 13.1429
      vertex 40.2 13.2 13.1429
    endloop
  endfacet
  facet normal 0 1 0
    outer loop
      vertex 37.2 13.2 13.1429
      vertex 40.2 13.2 12
      vertex 37.2 13.2 12
    endloop
  endfacet
  facet normal 0 -1 0
    outer loop
      vertex 37.2 10.2 12
      vertex 40.2 10.2 13.1429
      vertex 37.2 10.2 13.1429
    endloop
  endfacet
  facet normal 0 -1 -0
    outer loop
      vertex 40.2 10.2 13.1429
      vertex 37.2 10.2 12
      vertex 40.2 10.2 12
    endloop
  endfacet
  facet normal 1 0 0
    outer loop
      vertex 43.2 16.2 13.1429
      vertex 43.2 19.2 14.2857
      vertex 43.2 16.2 14.2857
    endloop
  endfacet
  facet normal 1 0 0
    outer loop
      vertex 43.2 19.2 14.2857
      vertex 43.2 16.2 13.1429
      vertex 43.2 19.2 12
    endloop
  endfacet
  facet normal 1 0 0
    outer loop
      vertex 43.2 13.2 12
      vertex 43.2 16.2 13.1429
      vertex 43.2 13.2 13.1429
    endloop
  endfacet
  facet normal 1 0 0
    outer loop
      vertex 43.2 16.2 13.1429
      vertex 43.2 13.2 12
      vertex 43.2 19.2 12
    endloop
  endfacet
  facet normal -0 0 1
    outer loop
      vertex 40.2 16.2 13.1429
      vertex 43.2 13.2 13.1429
      vertex 43.2 16.2 13.1429
    endloop
  endfacet
  facet normal 0 0 1
    outer loop
      vertex 43.2 13.2 13.1429
      vertex 40.2 16.2 13.1429
      vertex 40.2 13.2 13.1429
    endloop
  endfacet
  facet normal 0 0 -1
    outer loop
      vertex 40.2 13.2 12
      vertex 43.2 19.2 12
      vertex 43.2 13.2 12
    endloop
  endfacet
  facet normal -0 0 -1
    outer loop
      vertex 43.2 19.2 12
      vertex 40.2 13.2 12
      vertex 40.2 19.2 12
    endloop
  endfacet
  facet normal -1 0 0
    outer loop
      vertex 40.2 19.2 12
      vertex 40.2 16.2 13.1429
      vertex 40.2 19.2 14.2857
    endloop
  endfacet
  facet normal -1 0 0
    outer loop
      vertex 40.2 13.2 12
      vertex 40.2 16.2 13.1429
      vertex 40.2 19.2 12
    endloop
  endfacet
  facet normal -1 -0 0
    outer loop
      vertex 40.2 16.2 13.1429
      vertex 40.2 13.2 12
      vertex 40.2 13.2 13.1429
    endloop
  endfacet
  facet normal -1 -0 0
    outer loop
      vertex 40.2 19.2 14.2857
      vertex 40.2 16.2 13.1429
      vertex 40.2 16.2 14.2857
    endloop
  endfacet
  facet normal 0 -1 0
    outer loop
      vertex 40.2 16.2 13.1429
      vertex 43.2 16.2 14.2857
      vertex 40.2 16.2 14.2857
    endloop
  endfacet
  facet normal 0 -1 -0
    outer loop
      vertex 43.2 16.2 14.2857
      vertex 40.2 16.2 13.1429
      vertex 43.2 16.2 13.1429
    endloop
  endfacet
  facet normal 0 -1 0
    outer loop
      vertex 40.2 13.2 12
      vertex 43.2 13.2 13.1429
      vertex 40.2 13.2 13.1429
    endloop
  endfacet
  facet normal 0 -1 -0
    outer loop
      vertex 43.2 13.2 13.1429
      vertex 40.2 13.2 12
      vertex 43.2 13.2 12
    endloop
  endfacet
  facet normal -0 0 1
    outer loop
      vertex 40.2 19.2 14.2857
      vertex 43.2 16.2 14.2857
      vertex 43.2 19.2 14.2857
    endloop
  endfacet
  facet normal 0 0 1
    outer loop
      vertex 43.2 16.2 14.2857
      vertex 40.2 19.2 14.2857
      vertex 40.2 16.2 14.2857
    endloop
  endfacet
  facet normal 0 1 -0
    outer loop
      vertex 43.2 19.2 12
      vertex 40.2 19.2 14.2857
      vertex 43.2 19.2 14.2857
    endloop
  endfacet
  facet normal 0 1 0
    outer loop
      vertex 40.2 19.2 14.2857
      vertex 43.2 19.2 12
      vertex 40.2 19.2 12
    endloop
  endfacet
  facet normal 1 -0 0
    outer loop
      vertex 49.2 16.2 21.1429
      vertex 49.2 19.2 12
      vertex 49.2 19.2 21.1429
    endloop
  endfacet
  facet normal 1 0 0
    outer loop
      vertex 49.2 19.2 12
      vertex 49.2 16.2 21.1429
      vertex 49.2 16.2 12
    endloop
  endfacet
  facet normal -0 0 1
    outer loop
      vertex 46.2 19.2 21.1429
      vertex 49.2 16.2 21.1429
      vertex 49.2 19.2 21.1429
    endloop
  endfacet
  facet normal 0 0 1
    outer loop
      vertex 49.2 16.2 21.1429
      vertex 46.2 19.2 21.1429
      vertex 46.2 16.2 21.1429
    endloop
  endfacet
  facet normal 0 0 -1
    outer loop
      vertex 46.2 16.2 12
      vertex 49.2 19.2 12
      vertex 49.2 16.2 12
    endloop
  endfacet
  facet normal -0 0 -1
    outer loop
      vertex 49.2 19.2 12
      vertex 46.2 16.2 12
      vertex 46.2 19.2 12
    endloop
  endfacet
  facet normal -1 0 0
    outer loop
      vertex 46.2 16.2 12
      vertex 46.2 19.2 21.1429
      vertex 46.2 19.2 12
    endloop
  endfacet
  facet normal -1 -0 0
    outer loop
      vertex 46.2 19.2 21.1429
      vertex 46.2 16.2 12
      vertex 46.2 16.2 21.1429
    endloop
  endfacet
  facet normal 0 1 -0
    outer loop
      vertex 49.2 19.2 12
      vertex 46.2 19.2 21.1429
      vertex 49.2 19.2 21.1429
    endloop
  endfacet
  facet normal 0 1 0
    outer loop
      vertex 46.2 19.2 21.1429
      vertex 49.2 19.2 12
      vertex 46.2 19.2 12
    endloop
  endfacet
  facet normal 0 -1 0
    outer loop
      vertex 46.2 16.2 12
      vertex 49.2 16.2 21.1429
      vertex 46.2 16.2 21.1429
    endloop
  endfacet
  facet normal 0 -1 -0
    outer loop
      vertex 49.2 16.2 21.1429
      vertex 46.2 16.2 12
      vertex 49.2 16.2 12
    endloop
  endfacet
  facet normal 1 -0 0
    outer loop
      vertex 52.2 10.2 13.1429
      vertex 52.2 13.2 12
      vertex 52.2 13.2 13.1429
    endloop
  endfacet
  facet normal 1 0 0
    outer loop
      vertex 52.2 13.2 12
      vertex 52.2 10.2 13.1429
      vertex 52.2 10.2 12
    endloop
  endfacet
  facet normal -0 0 1
    outer loop
      vertex 49.2 13.2 13.1429
      vertex 52.2 10.2 13.1429
      vertex 52.2 13.2 13.1429
    endloop
  endfacet
  facet normal 0 0 1
    outer loop
      vertex 52.2 10.2 13.1429
      vertex 49.2 13.2 13.1429
      vertex 49.2 10.2 13.1429
    endloop
  endfacet
  facet normal 0 0 -1
    outer loop
      vertex 49.2 10.2 12
      vertex 52.2 13.2 12
      vertex 52.2 10.2 12
    endloop
  endfacet
  facet normal -0 0 -1
    outer loop
      vertex 52.2 13.2 12
      vertex 49.2 10.2 12
      vertex 49.2 13.2 12
    endloop
  endfacet
  facet normal -1 0 0
    outer loop
      vertex 49.2 10.2 12
      vertex 49.2 13.2 13.1429
      vertex 49.2 13.2 12
    endloop
  endfacet
  facet normal -1 -0 0
    outer loop
      vertex 49.2 13.2 13.1429
      vertex 49.2 10.2 12
      vertex 49.2 10.2 13.1429
    endloop
  endfacet
  facet normal 0 1 -0
    outer loop
      vertex 52.2 13.2 12
      vertex 49.2 13.2 13.1429
      vertex 52.2 13.2 13.1429
    endloop
  endfacet
  facet normal 0 1 0
    outer loop
      vertex 49.2 13.2 13.1429
      vertex 52.2 13.2 12
      vertex 49.2 13.2 12
    endloop
  endfacet
  facet normal 0 -1 0
    outer loop
      vertex 49.2 10.2 12
      vertex 52.2 10.2 13.1429
      vertex 49.2 10.2 13.1429
    endloop
  endfacet
  facet normal 0 -1 -0
    outer loop
      vertex 52.2 10.2 13.1429
      vertex 49.2 10.2 12
      vertex 52.2 10.2 12
    endloop
  endfacet
  facet normal 1 -0 0
    outer loop
      vertex 52.2 22.2 14.2857
      vertex 52.2 25.2 12
      vertex 52.2 25.2 14.2857
    endloop
  endfacet
  facet normal 1 0 0
    outer loop
      vertex 52.2 25.2 12
      vertex 52.2 22.2 14.2857
      vertex 52.2 22.2 12
    endloop
  endfacet
  facet normal -0 0 1
    outer loop
      vertex 49.2 25.2 14.2857
      vertex 52.2 22.2 14.2857
      vertex 52.2 25.2 14.2857
    endloop
  endfacet
  facet normal 0 0 1
    outer loop
      vertex 52.2 22.2 14.2857
      vertex 49.2 25.2 14.2857
      vertex 49.2 22.2 14.2857
    endloop
  endfacet
  facet normal 0 0 -1
    outer loop
      vertex 49.2 22.2 12
      vertex 52.2 25.2 12
      vertex 52.2 22.2 12
    endloop
  endfacet
  facet normal -0 0 -1
    outer loop
      vertex 52.2 25.2 12
      vertex 49.2 22.2 12
      vertex 49.2 25.2 12
    endloop
  endfacet
  facet normal -1 0 0
    outer loop
      vertex 49.2 22.2 12
      vertex 49.2 25.2 14.2857
      vertex 49.2 25.2 12
    endloop
  endfacet
  facet normal -1 -0 0
    outer loop
      vertex 49.2 25.2 14.2857
      vertex 49.2 22.2 12
      vertex 49.2 22.2 14.2857
    endloop
  endfacet
  facet normal 0 1 -0
    outer loop
      vertex 52.2 25.2 12
      vertex 49.2 25.2 14.2857
      vertex 52.2 25.2 14.2857
    endloop
  endfacet
  facet normal 0 1 0
    outer loop
      vertex 49.2 25.2 14.2857
      vertex 52.2 25.2 12
      vertex 49.2 25.2 12
    endloop
  endfacet
  facet normal 0 -1 0
    outer loop
      vertex 49.2 22.2 12
      vertex 52.2 22.2 14.2857
      vertex 49.2 22.2 14.2857
    endloop
  endfacet
  facet normal 0 -1 -0
    outer loop
      vertex 52.2 22.2 14.2857
      vertex 49.2 22.2 12
      vertex 52.2 22.2 12
    endloop
  endfacet
  facet normal -1 0 0
    outer loop
      vertex 55.2 22.2 12
      vertex 55.2 25.2 16.5714
      vertex 55.2 25.2 12
    endloop
  endfacet
  facet normal -1 -0 0
    outer loop
      vertex 55.2 25.2 16.5714
      vertex 55.2 22.2 12
      vertex 55.2 22.2 16.5714
    endloop
  endfacet
  facet normal 0 0 1
    outer loop
      vertex 55.2 22.2 16.5714
      vertex 58.2 25.2 16.5714
      vertex 55.2 25.2 16.5714
    endloop
  endfacet
  facet normal 0 0 1
    outer loop
      vertex 58.2 25.2 16.5714
      vertex 55.2 22.2 16.5714
      vertex 58.2 19.2 16.5714
    endloop
  endfacet
  facet normal 0 0 1
    outer loop
      vertex 52.2 19.2 16.5714
      vertex 55.2 22.2 16.5714
      vertex 52.2 22.2 16.5714
    endloop
  endfacet
  facet normal 0 0 1
    outer loop
      vertex 55.2 22.2 16.5714
      vertex 52.2 19.2 16.5714
      vertex 58.2 19.2 16.5714
    endloop
  endfacet
  facet normal 0 0 -1
    outer loop
      vertex 58.2 19.2 12
      vertex 55.2 22.2 12
      vertex 58.2 22.2 12
    endloop
  endfacet
  facet normal 0 0 -1
    outer loop
      vertex 52.2 19.2 12
      vertex 55.2 22.2 12
      vertex 58.2 19.2 12
    endloop
  endfacet
  facet normal -0 0 -1
    outer loop
      vertex 55.2 22.2 12
      vertex 52.2 19.2 12
      vertex 52.2 22.2 12
    endloop
  endfacet
  facet normal 0 0 -1
    outer loop
      vertex 58.2 22.2 12
      vertex 61.2 25.2 12
      vertex 61.2 22.2 12
    endloop
  endfacet
  facet normal 0 0 -1
    outer loop
      vertex 55.2 25.2 12
      vertex 58.2 22.2 12
      vertex 55.2 22.2 12
    endloop
  endfacet
  facet normal 0 0 -1
    outer loop
      vertex 58.2 22.2 12
      vertex 55.2 25.2 12
      vertex 61.2 25.2 12
    endloop
  endfacet
  facet normal -1 0 0
    outer loop
      vertex 52.2 19.2 12
      vertex 52.2 22.2 14.2857
      vertex 52.2 22.2 12
    endloop
  endfacet
  facet normal -1 0 0
    outer loop
      vertex 52.2 19.2 16.5714
      vertex 52.2 22.2 14.2857
      vertex 52.2 19.2 12
    endloop
  endfacet
  facet normal -1 0 0
    outer loop
      vertex 52.2 22.2 14.2857
      vertex 52.2 19.2 16.5714
      vertex 52.2 22.2 16.5714
    endloop
  endfacet
  facet normal 0 1 0
    outer loop
      vertex 55.2 22.2 16.5714
      vertex 52.2 22.2 14.2857
      vertex 52.2 22.2 16.5714
    endloop
  endfacet
  facet normal 0 1 -0
    outer loop
      vertex 55.2 22.2 12
      vertex 52.2 22.2 14.2857
      vertex 55.2 22.2 16.5714
    endloop
  endfacet
  facet normal 0 1 0
    outer loop
      vertex 52.2 22.2 14.2857
      vertex 55.2 22.2 12
      vertex 52.2 22.2 12
    endloop
  endfacet
  facet normal 0 -1 0
    outer loop
      vertex 52.2 19.2 12
      vertex 58.2 19.2 16.5714
      vertex 52.2 19.2 16.5714
    endloop
  endfacet
  facet normal 0 -1 -0
    outer loop
      vertex 58.2 19.2 16.5714
      vertex 52.2 19.2 12
      vertex 58.2 19.2 12
    endloop
  endfacet
  facet normal 1 0 0
    outer loop
      vertex 58.2 25.2 16.5714
      vertex 58.2 22.2 13.1429
      vertex 58.2 25.2 13.1429
    endloop
  endfacet
  facet normal 1 -0 0
    outer loop
      vertex 58.2 19.2 16.5714
      vertex 58.2 22.2 13.1429
      vertex 58.2 25.2 16.5714
    endloop
  endfacet
  facet normal 1 0 0
    outer loop
      vertex 58.2 19.2 12
      vertex 58.2 22.2 13.1429
      vertex 58.2 19.2 16.5714
    endloop
  endfacet
  facet normal 1 0 0
    outer loop
      vertex 58.2 22.2 13.1429
      vertex 58.2 19.2 12
      vertex 58.2 22.2 12
    endloop
  endfacet
  facet normal 0 1 0
    outer loop
      vertex 61.2 25.2 13.1429
      vertex 61.2 25.2 12
      vertex 58.2 25.2 13.1429
    endloop
  endfacet
  facet normal 0 1 -0
    outer loop
      vertex 58.2 25.2 13.1429
      vertex 55.2 25.2 16.5714
      vertex 58.2 25.2 16.5714
    endloop
  endfacet
  facet normal 0 1 0
    outer loop
      vertex 58.2 25.2 13.1429
      vertex 55.2 25.2 12
      vertex 55.2 25.2 16.5714
    endloop
  endfacet
  facet normal 0 1 0
    outer loop
      vertex 55.2 25.2 12
      vertex 58.2 25.2 13.1429
      vertex 61.2 25.2 12
    endloop
  endfacet
  facet normal 1 -0 0
    outer loop
      vertex 61.2 22.2 13.1429
      vertex 61.2 25.2 12
      vertex 61.2 25.2 13.1429
    endloop
  endfacet
  facet normal 1 0 0
    outer loop
      vertex 61.2 25.2 12
      vertex 61.2 22.2 13.1429
      vertex 61.2 22.2 12
    endloop
  endfacet
  facet normal -0 0 1
    outer loop
      vertex 58.2 25.2 13.1429
      vertex 61.2 22.2 13.1429
      vertex 61.2 25.2 13.1429
    endloop
  endfacet
  facet normal 0 0 1
    outer loop
      vertex 61.2 22.2 13.1429
      vertex 58.2 25.2 13.1429
      vertex 58.2 22.2 13.1429
    endloop
  endfacet
  facet normal 0 -1 0
    outer loop
      vertex 58.2 22.2 12
      vertex 61.2 22.2 13.1429
      vertex 58.2 22.2 13.1429
    endloop
  endfacet
  facet normal 0 -1 -0
    outer loop
      vertex 61.2 22.2 13.1429
      vertex 58.2 22.2 12
      vertex 61.2 22.2 12
    endloop
  endfacet
  facet normal 1 -0 0
    outer loop
      vertex 64.2 10.2 13.1429
      vertex 64.2 13.2 12
      vertex 64.2 13.2 13.1429
    endloop
  endfacet
  facet normal 1 0 0
    outer loop
      vertex 64.2 13.2 12
      vertex 64.2 10.2 13.1429
      vertex 64.2 10.2 12
    endloop
  endfacet
  facet normal -0 0 1
    outer loop
      vertex 61.2 13.2 13.1429
      vertex 64.2 10.2 13.1429
      vertex 64.2 13.2 13.1429
    endloop
  endfacet
  facet normal 0 0 1
    outer loop
      vertex 64.2 10.2 13.1429
      vertex 61.2 13.2 13.1429
      vertex 61.2 10.2 13.1429
    endloop
  endfacet
  facet normal 0 0 -1
    outer loop
      vertex 61.2 10.2 12
      vertex 64.2 13.2 12
      vertex 64.2 10.2 12
    endloop
  endfacet
  facet normal -0 0 -1
    outer loop
      vertex 64.2 13.2 12
      vertex 61.2 10.2 12
      vertex 61.2 13.2 12
    endloop
  endfacet
  facet normal -1 0 0
    outer loop
      vertex 61.2 10.2 12
      vertex 61.2 13.2 13.1429
      vertex 61.2 13.2 12
    endloop
  endfacet
  facet normal -1 -0 0
    outer loop
      vertex 61.2 13.2 13.1429
      vertex 61.2 10.2 12
      vertex 61.2 10.2 13.1429
    endloop
  endfacet
  facet normal 0 1 -0
    outer loop
      vertex 64.2 13.2 12
      vertex 61.2 13.2 13.1429
      vertex 64.2 13.2 13.1429
    endloop
  endfacet
  facet normal 0 1 0
    outer loop
      vertex 61.2 13.2 13.1429
      vertex 64.2 13.2 12
      vertex 61.2 13.2 12
    endloop
  endfacet
  facet normal 0 -1 0
    outer loop
      vertex 61.2 10.2 12
      vertex 64.2 10.2 13.1429
      vertex 61.2 10.2 13.1429
    endloop
  endfacet
  facet normal 0 -1 -0
    outer loop
      vertex 64.2 10.2 13.1429
      vertex 61.2 10.2 12
      vertex 64.2 10.2 12
    endloop
  endfacet
  facet normal 1 -0 0
    outer loop
      vertex 64.2 19.2 13.1429
      vertex 64.2 22.2 12
      vertex 64.2 22.2 13.1429
    endloop
  endfacet
  facet normal 1 0 0
    outer loop
      vertex 64.2 22.2 12
      vertex 64.2 19.2 13.1429
      vertex 64.2 19.2 12
    endloop
  endfacet
  facet normal -0 0 1
    outer loop
      vertex 61.2 22.2 13.1429
      vertex 64.2 19.2 13.1429
      vertex 64.2 22.2 13.1429
    endloop
  endfacet
  facet normal 0 0 1
    outer loop
      vertex 64.2 19.2 13.1429
      vertex 61.2 22.2 13.1429
      vertex 61.2 19.2 13.1429
    endloop
  endfacet
  facet normal 0 0 -1
    outer loop
      vertex 61.2 19.2 12
      vertex 64.2 22.2 12
      vertex 64.2 19.2 12
    endloop
  endfacet
  facet normal -0 0 -1
    outer loop
      vertex 64.2 22.2 12
      vertex 61.2 19.2 12
      vertex 61.2 22.2 12
    endloop
  endfacet
  facet normal -1 0 0
    outer loop
      vertex 61.2 19.2 12
      vertex 61.2 22.2 13.1429
      vertex 61.2 22.2 12
    endloop
  endfacet
  facet normal -1 -0 0
    outer loop
      vertex 61.2 22.2 13.1429
      vertex 61.2 19.2 12
      vertex 61.2 19.2 13.1429
    endloop
  endfacet
  facet normal 0 1 -0
    outer loop
      vertex 64.2 22.2 12
      vertex 61.2 22.2 13.1429
      vertex 64.2 22.2 13.1429
    endloop
  endfacet
  facet normal 0 1 0
    outer loop
      vertex 61.2 22.2 13.1429
      vertex 64.2 22.2 12
      vertex 61.2 22.2 12
    endloop
  endfacet
  facet normal 0 -1 0
    outer loop
      vertex 61.2 19.2 12
      vertex 64.2 19.2 13.1429
      vertex 61.2 19.2 13.1429
    endloop
  endfacet
  facet normal 0 -1 -0
    outer loop
      vertex 64.2 19.2 13.1429
      vertex 61.2 19.2 12
      vertex 64.2 19.2 12
    endloop
  endfacet
  facet normal -1 0 0
    outer loop
      vertex 82.2 22.2 12
      vertex 82.2 19.2 13.1429
      vertex 82.2 22.2 13.1429
    endloop
  endfacet
  facet normal -1 0 0
    outer loop
      vertex 82.2 16.2 12
      vertex 82.2 19.2 13.1429
      vertex 82.2 22.2 12
    endloop
  endfacet
  facet normal -1 0 0
    outer loop
      vertex 82.2 16.2 14.2857
      vertex 82.2 19.2 13.1429
      vertex 82.2 16.2 12
    endloop
  endfacet
  facet normal -1 0 0
    outer loop
      vertex 82.2 19.2 13.1429
      vertex 82.2 16.2 14.2857
      vertex 82.2 19.2 14.2857
    endloop
  endfacet
  facet normal -1 0 0
    outer loop
      vertex 82.2 22.2 14.2857
      vertex 82.2 25.2 15.4286
      vertex 82.2 25.2 14.2857
    endloop
  endfacet
  facet normal -1 -0 0
    outer loop
      vertex 82.2 25.2 15.4286
      vertex 82.2 22.2 14.2857
      vertex 82.2 22.2 15.4286
    endloop
  endfacet
  facet normal -0 0 1
    outer loop
      vertex 79.2 25.2 14.2857
      vertex 82.2 22.2 14.2857
      vertex 82.2 25.2 14.2857
    endloop
  endfacet
  facet normal 0 0 1
    outer loop
      vertex 82.2 22.2 14.2857
      vertex 79.2 25.2 14.2857
      vertex 79.2 22.2 14.2857
    endloop
  endfacet
  facet normal 0 0 -1
    outer loop
      vertex 88.2 13.2 12
      vertex 85.2 13.2 12
      vertex 88.2 16.2 12
    endloop
  endfacet
  facet normal 0 0 -1
    outer loop
      vertex 88.2 16.2 12
      vertex 91.2 19.2 12
      vertex 91.2 16.2 12
    endloop
  endfacet
  facet normal 0 0 -1
    outer loop
      vertex 85.2 16.2 12
      vertex 88.2 16.2 12
      vertex 85.2 13.2 12
    endloop
  endfacet
  facet normal 0 0 -1
    outer loop
      vertex 85.2 19.2 12
      vertex 88.2 16.2 12
      vertex 85.2 16.2 12
    endloop
  endfacet
  facet normal 0 0 -1
    outer loop
      vertex 88.2 16.2 12
      vertex 85.2 19.2 12
      vertex 91.2 19.2 12
    endloop
  endfacet
  facet normal 0 0 -1
    outer loop
      vertex 82.2 16.2 12
      vertex 85.2 19.2 12
      vertex 85.2 16.2 12
    endloop
  endfacet
  facet normal 0 0 -1
    outer loop
      vertex 82.2 22.2 12
      vertex 85.2 19.2 12
      vertex 82.2 16.2 12
    endloop
  endfacet
  facet normal 0 0 -1
    outer loop
      vertex 85.2 22.2 12
      vertex 88.2 25.2 12
      vertex 88.2 22.2 12
    endloop
  endfacet
  facet normal 0 0 -1
    outer loop
      vertex 85.2 19.2 12
      vertex 82.2 22.2 12
      vertex 85.2 22.2 12
    endloop
  endfacet
  facet normal 0 0 -1
    outer loop
      vertex 82.2 22.2 12
      vertex 88.2 25.2 12
      vertex 85.2 22.2 12
    endloop
  endfacet
  facet normal 0 0 -1
    outer loop
      vertex 79.2 25.2 12
      vertex 82.2 22.2 12
      vertex 79.2 22.2 12
    endloop
  endfacet
  facet normal 0 0 -1
    outer loop
      vertex 82.2 22.2 12
      vertex 79.2 25.2 12
      vertex 88.2 25.2 12
    endloop
  endfacet
  facet normal -1 0 0
    outer loop
      vertex 79.2 22.2 12
      vertex 79.2 25.2 14.2857
      vertex 79.2 25.2 12
    endloop
  endfacet
  facet normal -1 -0 0
    outer loop
      vertex 79.2 25.2 14.2857
      vertex 79.2 22.2 12
      vertex 79.2 22.2 14.2857
    endloop
  endfacet
  facet normal 0 1 0
    outer loop
      vertex 88.2 25.2 15.4286
      vertex 82.2 25.2 14.2857
      vertex 82.2 25.2 15.4286
    endloop
  endfacet
  facet normal 0 1 -0
    outer loop
      vertex 88.2 25.2 12
      vertex 82.2 25.2 14.2857
      vertex 88.2 25.2 15.4286
    endloop
  endfacet
  facet normal 0 1 0
    outer loop
      vertex 79.2 25.2 12
      vertex 82.2 25.2 14.2857
      vertex 88.2 25.2 12
    endloop
  endfacet
  facet normal 0 1 0
    outer loop
      vertex 82.2 25.2 14.2857
      vertex 79.2 25.2 12
      vertex 79.2 25.2 14.2857
    endloop
  endfacet
  facet normal 0 -1 0
    outer loop
      vertex 79.2 22.2 14.2857
      vertex 82.2 22.2 13.1429
      vertex 82.2 22.2 14.2857
    endloop
  endfacet
  facet normal 0 -1 0
    outer loop
      vertex 79.2 22.2 12
      vertex 82.2 22.2 13.1429
      vertex 79.2 22.2 14.2857
    endloop
  endfacet
  facet normal 0 -1 -0
    outer loop
      vertex 82.2 22.2 13.1429
      vertex 79.2 22.2 12
      vertex 82.2 22.2 12
    endloop
  endfacet
  facet normal 0 -1 0
    outer loop
      vertex 85.2 22.2 13.1429
      vertex 82.2 22.2 15.4286
      vertex 82.2 22.2 14.2857
    endloop
  endfacet
  facet normal 0 -1 0
    outer loop
      vertex 85.2 22.2 13.1429
      vertex 82.2 22.2 14.2857
      vertex 82.2 22.2 13.1429
    endloop
  endfacet
  facet normal 0 -1 0
    outer loop
      vertex 82.2 22.2 15.4286
      vertex 85.2 22.2 13.1429
      vertex 88.2 22.2 15.4286
    endloop
  endfacet
  facet normal 0 -1 0
    outer loop
      vertex 88.2 22.2 12
      vertex 85.2 22.2 13.1429
      vertex 85.2 22.2 12
    endloop
  endfacet
  facet normal 0 -1 0
    outer loop
      vertex 85.2 22.2 13.1429
      vertex 88.2 22.2 12
      vertex 88.2 22.2 15.4286
    endloop
  endfacet
  facet normal 1 -0 0
    outer loop
      vertex 85.2 19.2 13.1429
      vertex 85.2 22.2 12
      vertex 85.2 22.2 13.1429
    endloop
  endfacet
  facet normal 1 0 0
    outer loop
      vertex 85.2 22.2 12
      vertex 85.2 19.2 13.1429
      vertex 85.2 19.2 12
    endloop
  endfacet
  facet normal 1 -0 0
    outer loop
      vertex 85.2 16.2 14.2857
      vertex 85.2 19.2 13.1429
      vertex 85.2 19.2 14.2857
    endloop
  endfacet
  facet normal 1 0 0
    outer loop
      vertex 85.2 19.2 13.1429
      vertex 85.2 16.2 14.2857
      vertex 85.2 16.2 13.1429
    endloop
  endfacet
  facet normal -1 0 0
    outer loop
      vertex 85.2 13.2 12
      vertex 85.2 16.2 13.1429
      vertex 85.2 16.2 12
    endloop
  endfacet
  facet normal -1 -0 0
    outer loop
      vertex 85.2 16.2 13.1429
      vertex 85.2 13.2 12
      vertex 85.2 13.2 13.1429
    endloop
  endfacet
  facet normal -0 0 1
    outer loop
      vertex 82.2 19.2 14.2857
      vertex 85.2 16.2 14.2857
      vertex 85.2 19.2 14.2857
    endloop
  endfacet
  facet normal 0 0 1
    outer loop
      vertex 85.2 16.2 14.2857
      vertex 82.2 19.2 14.2857
      vertex 82.2 16.2 14.2857
    endloop
  endfacet
  facet normal 0 1 -0
    outer loop
      vertex 85.2 19.2 13.1429
      vertex 82.2 19.2 14.2857
      vertex 85.2 19.2 14.2857
    endloop
  endfacet
  facet normal 0 1 0
    outer loop
      vertex 82.2 19.2 14.2857
      vertex 85.2 19.2 13.1429
      vertex 82.2 19.2 13.1429
    endloop
  endfacet
  facet normal 0 -1 0
    outer loop
      vertex 82.2 16.2 14.2857
      vertex 85.2 16.2 13.1429
      vertex 85.2 16.2 14.2857
    endloop
  endfacet
  facet normal 0 -1 0
    outer loop
      vertex 82.2 16.2 12
      vertex 85.2 16.2 13.1429
      vertex 82.2 16.2 14.2857
    endloop
  endfacet
  facet normal 0 -1 -0
    outer loop
      vertex 85.2 16.2 13.1429
      vertex 82.2 16.2 12
      vertex 85.2 16.2 12
    endloop
  endfacet
  facet normal -0 0 1
    outer loop
      vertex 82.2 22.2 13.1429
      vertex 85.2 19.2 13.1429
      vertex 85.2 22.2 13.1429
    endloop
  endfacet
  facet normal 0 0 1
    outer loop
      vertex 85.2 19.2 13.1429
      vertex 82.2 22.2 13.1429
      vertex 82.2 19.2 13.1429
    endloop
  endfacet
  facet normal -0 0 1
    outer loop
      vertex 82.2 25.2 15.4286
      vertex 88.2 22.2 15.4286
      vertex 88.2 25.2 15.4286
    endloop
  endfacet
  facet normal 0 0 1
    outer loop
      vertex 88.2 22.2 15.4286
      vertex 82.2 25.2 15.4286
      vertex 82.2 22.2 15.4286
    endloop
  endfacet
  facet normal 1 -0 0
    outer loop
      vertex 88.2 13.2 13.1429
      vertex 88.2 16.2 12
      vertex 88.2 16.2 13.1429
    endloop
  endfacet
  facet normal 1 0 0
    outer loop
      vertex 88.2 16.2 12
      vertex 88.2 13.2 13.1429
      vertex 88.2 13.2 12
    endloop
  endfacet
  facet normal 0 0 1
    outer loop
      vertex 91.2 19.2 13.1429
      vertex 88.2 16.2 13.1429
      vertex 91.2 16.2 13.1429
    endloop
  endfacet
  facet normal -0 0 1
    outer loop
      vertex 85.2 19.2 13.1429
      vertex 88.2 16.2 13.1429
      vertex 91.2 19.2 13.1429
    endloop
  endfacet
  facet normal 0 0 1
    outer loop
      vertex 85.2 16.2 13.1429
      vertex 88.2 16.2 13.1429
      vertex 85.2 19.2 13.1429
    endloop
  endfacet
  facet normal 0 0 1
    outer loop
      vertex 88.2 16.2 13.1429
      vertex 85.2 16.2 13.1429
      vertex 88.2 13.2 13.1429
    endloop
  endfacet
  facet normal 0 0 1
    outer loop
      vertex 88.2 13.2 13.1429
      vertex 85.2 16.2 13.1429
      vertex 85.2 13.2 13.1429
    endloop
  endfacet
  facet normal 0 -1 0
    outer loop
      vertex 85.2 13.2 12
      vertex 88.2 13.2 13.1429
      vertex 85.2 13.2 13.1429
    endloop
  endfacet
  facet normal 0 -1 -0
    outer loop
      vertex 88.2 13.2 13.1429
      vertex 85.2 13.2 12
      vertex 88.2 13.2 12
    endloop
  endfacet
  facet normal 0 1 -0
    outer loop
      vertex 91.2 19.2 12
      vertex 85.2 19.2 13.1429
      vertex 91.2 19.2 13.1429
    endloop
  endfacet
  facet normal 0 1 0
    outer loop
      vertex 85.2 19.2 13.1429
      vertex 91.2 19.2 12
      vertex 85.2 19.2 12
    endloop
  endfacet
  facet normal 1 -0 0
    outer loop
      vertex 88.2 22.2 15.4286
      vertex 88.2 25.2 12
      vertex 88.2 25.2 15.4286
    endloop
  endfacet
  facet normal 1 0 0
    outer loop
      vertex 88.2 25.2 12
      vertex 88.2 22.2 15.4286
      vertex 88.2 22.2 12
    endloop
  endfacet
  facet normal 1 -0 0
    outer loop
      vertex 91.2 16.2 13.1429
      vertex 91.2 19.2 12
      vertex 91.2 19.2 13.1429
    endloop
  endfacet
  facet normal 1 0 0
    outer loop
      vertex 91.2 19.2 12
      vertex 91.2 16.2 13.1429
      vertex 91.2 16.2 12
    endloop
  endfacet
  facet normal 0 -1 0
    outer loop
      vertex 88.2 16.2 12
      vertex 91.2 16.2 13.1429
      vertex 88.2 16.2 13.1429
    endloop
  endfacet
  facet normal 0 -1 -0
    outer loop
      vertex 91.2 16.2 13.1429
      vertex 88.2 16.2 12
      vertex 91.2 16.2 12
    endloop
  endfacet
  facet normal 1 -0 0
    outer loop
      vertex 94.2 22.2 13.1429
      vertex 94.2 25.2 12
      vertex 94.2 25.2 13.1429
    endloop
  endfacet
  facet normal 1 0 0
    outer loop
      vertex 94.2 25.2 12
      vertex 94.2 22.2 13.1429
      vertex 94.2 22.2 12
    endloop
  endfacet
  facet normal -0 0 1
    outer loop
      vertex 91.2 25.2 13.1429
      vertex 94.2 22.2 13.1429
      vertex 94.2 25.2 13.1429
    endloop
  endfacet
  facet normal 0 0 1
    outer loop
      vertex 94.2 22.2 13.1429
      vertex 91.2 25.2 13.1429
      vertex 91.2 22.2 13.1429
    endloop
  endfacet
  facet normal 0 0 -1
    outer loop
      vertex 91.2 22.2 12
      vertex 94.2 25.2 12
      vertex 94.2 22.2 12
    endloop
  endfacet
  facet normal -0 0 -1
    outer loop
      vertex 94.2 25.2 12
      vertex 91.2 22.2 12
      vertex 91.2 25.2 12
    endloop
  endfacet
  facet normal -1 0 0
    outer loop
      vertex 91.2 22.2 12
      vertex 91.2 25.2 13.1429
      vertex 91.2 25.2 12
    endloop
  endfacet
  facet normal -1 -0 0
    outer loop
      vertex 91.2 25.2 13.1429
      vertex 91.2 22.2 12
      vertex 91.2 22.2 13.1429
    endloop
  endfacet
  facet normal 0 1 -0
    outer loop
      vertex 94.2 25.2 12
      vertex 91.2 25.2 13.1429
      vertex 94.2 25.2 13.1429
    endloop
  endfacet
  facet normal 0 1 0
    outer loop
      vertex 91.2 25.2 13.1429
      vertex 94.2 25.2 12
      vertex 91.2 25.2 12
    endloop
  endfacet
  facet normal 0 -1 0
    outer loop
      vertex 91.2 22.2 12
      vertex 94.2 22.2 13.1429
      vertex 91.2 22.2 13.1429
    endloop
  endfacet
  facet normal 0 -1 -0
    outer loop
      vertex 94.2 22.2 13.1429
      vertex 91.2 22.2 12
      vertex 94.2 22.2 12
    endloop
  endfacet
  facet normal 1 -0 0
    outer loop
      vertex 103.2 10.2 18.8571
      vertex 103.2 13.2 12
      vertex 103.2 13.2 18.8571
    endloop
  endfacet
  facet normal 1 0 0
    outer loop
      vertex 103.2 13.2 12
      vertex 103.2 10.2 18.8571
      vertex 103.2 10.2 12
    endloop
  endfacet
  facet normal -0 0 1
    outer loop
      vertex 100.2 13.2 18.8571
      vertex 103.2 10.2 18.8571
      vertex 103.2 13.2 18.8571
    endloop
  endfacet
  facet normal 0 0 1
    outer loop
      vertex 103.2 10.2 18.8571
      vertex 100.2 13.2 18.8571
      vertex 100.2 10.2 18.8571
    endloop
  endfacet
  facet normal 0 0 -1
    outer loop
      vertex 100.2 10.2 12
      vertex 103.2 13.2 12
      vertex 103.2 10.2 12
    endloop
  endfacet
  facet normal -0 0 -1
    outer loop
      vertex 103.2 13.2 12
      vertex 100.2 10.2 12
      vertex 100.2 13.2 12
    endloop
  endfacet
  facet normal -1 0 0
    outer loop
      vertex 100.2 10.2 12
      vertex 100.2 13.2 18.8571
      vertex 100.2 13.2 12
    endloop
  endfacet
  facet normal -1 -0 0
    outer loop
      vertex 100.2 13.2 18.8571
      vertex 100.2 10.2 12
      vertex 100.2 10.2 18.8571
    endloop
  endfacet
  facet normal 0 1 -0
    outer loop
      vertex 103.2 13.2 12
      vertex 100.2 13.2 18.8571
      vertex 103.2 13.2 18.8571
    endloop
  endfacet
  facet normal 0 1 0
    outer loop
      vertex 100.2 13.2 18.8571
      vertex 103.2 13.2 12
      vertex 100.2 13.2 12
    endloop
  endfacet
  facet normal 0 -1 0
    outer loop
      vertex 100.2 10.2 12
      vertex 103.2 10.2 18.8571
      vertex 100.2 10.2 18.8571
    endloop
  endfacet
  facet normal 0 -1 -0
    outer loop
      vertex 103.2 10.2 18.8571
      vertex 100.2 10.2 12
      vertex 103.2 10.2 12
    endloop
  endfacet
  facet normal 1 -0 0
    outer loop
      vertex 112.2 13.2 23.4286
      vertex 112.2 16.2 14.2857
      vertex 112.2 16.2 23.4286
    endloop
  endfacet
  facet normal 1 0 0
    outer loop
      vertex 112.2 16.2 14.2857
      vertex 112.2 13.2 23.4286
      vertex 112.2 13.2 14.2857
    endloop
  endfacet
  facet normal 1 0 0
    outer loop
      vertex 112.2 22.2 21.1429
      vertex 112.2 25.2 29.1429
      vertex 112.2 22.2 29.1429
    endloop
  endfacet
  facet normal 1 0 0
    outer loop
      vertex 112.2 25.2 29.1429
      vertex 112.2 22.2 21.1429
      vertex 112.2 25.2 13.1429
    endloop
  endfacet
  facet normal 1 0 0
    outer loop
      vertex 112.2 22.2 21.1429
      vertex 112.2 22.2 13.1429
      vertex 112.2 25.2 13.1429
    endloop
  endfacet
  facet normal 1 0 0
    outer loop
      vertex 112.2 19.2 13.1429
      vertex 112.2 22.2 13.1429
      vertex 112.2 22.2 21.1429
    endloop
  endfacet
  facet normal 1 0 0
    outer loop
      vertex 112.2 19.2 13.1429
      vertex 112.2 22.2 21.1429
      vertex 112.2 19.2 21.1429
    endloop
  endfacet
  facet normal 1 0 0
    outer loop
      vertex 112.2 22.2 13.1429
      vertex 112.2 19.2 13.1429
      vertex 112.2 22.2 12
    endloop
  endfacet
  facet normal 1 0 0
    outer loop
      vertex 112.2 22.2 12
      vertex 112.2 19.2 13.1429
      vertex 112.2 19.2 12
    endloop
  endfacet
  facet normal 1 -0 0
    outer loop
      vertex 112.2 16.2 23.4286
      vertex 112.2 19.2 21.1429
      vertex 112.2 19.2 36
    endloop
  endfacet
  facet normal 1 0 0
    outer loop
      vertex 112.2 16.2 23.4286
      vertex 112.2 19.2 36
      vertex 112.2 16.2 36
    endloop
  endfacet
  facet normal 1 0 0
    outer loop
      vertex 112.2 16.2 14.2857
      vertex 112.2 19.2 21.1429
      vertex 112.2 16.2 23.4286
    endloop
  endfacet
  facet normal 1 0 0
    outer loop
      vertex 112.2 19.2 21.1429
      vertex 112.2 16.2 14.2857
      vertex 112.2 19.2 13.1429
    endloop
  endfacet
  facet normal 1 0 0
    outer loop
      vertex 112.2 19.2 13.1429
      vertex 112.2 16.2 14.2857
      vertex 112.2 16.2 13.1429
    endloop
  endfacet
  facet normal -0 0 1
    outer loop
      vertex 109.2 16.2 23.4286
      vertex 112.2 13.2 23.4286
      vertex 112.2 16.2 23.4286
    endloop
  endfacet
  facet normal 0 0 1
    outer loop
      vertex 112.2 13.2 23.4286
      vertex 109.2 16.2 23.4286
      vertex 109.2 13.2 23.4286
    endloop
  endfacet
  facet normal 0 0 -1
    outer loop
      vertex 112.2 13.2 12
      vertex 115.2 10.2 12
      vertex 112.2 10.2 12
    endloop
  endfacet
  facet normal 0 0 -1
    outer loop
      vertex 115.2 10.2 12
      vertex 112.2 13.2 12
      vertex 115.2 19.2 12
    endloop
  endfacet
  facet normal 0 0 -1
    outer loop
      vertex 112.2 13.2 12
      vertex 112.2 19.2 12
      vertex 115.2 19.2 12
    endloop
  endfacet
  facet normal 0 0 -1
    outer loop
      vertex 109.2 13.2 12
      vertex 112.2 19.2 12
      vertex 112.2 13.2 12
    endloop
  endfacet
  facet normal 0 0 -1
    outer loop
      vertex 109.2 25.2 12
      vertex 112.2 19.2 12
      vertex 109.2 13.2 12
    endloop
  endfacet
  facet normal 0 0 -1
    outer loop
      vertex 112.2 22.2 12
      vertex 115.2 25.2 12
      vertex 115.2 22.2 12
    endloop
  endfacet
  facet normal 0 0 -1
    outer loop
      vertex 112.2 22.2 12
      vertex 109.2 25.2 12
      vertex 115.2 25.2 12
    endloop
  endfacet
  facet normal 0 0 -1
    outer loop
      vertex 112.2 19.2 12
      vertex 109.2 25.2 12
      vertex 112.2 22.2 12
    endloop
  endfacet
  facet normal -1 0 0
    outer loop
      vertex 109.2 25.2 12
      vertex 109.2 22.2 21.1429
      vertex 109.2 25.2 29.1429
    endloop
  endfacet
  facet normal -1 0 0
    outer loop
      vertex 109.2 25.2 12
      vertex 109.2 19.2 21.1429
      vertex 109.2 22.2 21.1429
    endloop
  endfacet
  facet normal -1 0 0
    outer loop
      vertex 109.2 19.2 21.1429
      vertex 109.2 16.2 23.4286
      vertex 109.2 19.2 36
    endloop
  endfacet
  facet normal -1 0 0
    outer loop
      vertex 109.2 13.2 12
      vertex 109.2 19.2 21.1429
      vertex 109.2 25.2 12
    endloop
  endfacet
  facet normal -1 0 0
    outer loop
      vertex 109.2 13.2 23.4286
      vertex 109.2 19.2 21.1429
      vertex 109.2 13.2 12
    endloop
  endfacet
  facet normal -1 0 0
    outer loop
      vertex 109.2 19.2 21.1429
      vertex 109.2 13.2 23.4286
      vertex 109.2 16.2 23.4286
    endloop
  endfacet
  facet normal -1 -0 0
    outer loop
      vertex 109.2 25.2 29.1429
      vertex 109.2 22.2 21.1429
      vertex 109.2 22.2 29.1429
    endloop
  endfacet
  facet normal -1 -0 0
    outer loop
      vertex 109.2 19.2 36
      vertex 109.2 16.2 23.4286
      vertex 109.2 16.2 36
    endloop
  endfacet
  facet normal 0 -1 0
    outer loop
      vertex 109.2 16.2 23.4286
      vertex 112.2 16.2 36
      vertex 109.2 16.2 36
    endloop
  endfacet
  facet normal 0 -1 -0
    outer loop
      vertex 112.2 16.2 36
      vertex 109.2 16.2 23.4286
      vertex 112.2 16.2 23.4286
    endloop
  endfacet
  facet normal 0 -1 0
    outer loop
      vertex 109.2 13.2 23.4286
      vertex 112.2 13.2 14.2857
      vertex 112.2 13.2 23.4286
    endloop
  endfacet
  facet normal 0 -1 0
    outer loop
      vertex 109.2 13.2 12
      vertex 112.2 13.2 14.2857
      vertex 109.2 13.2 23.4286
    endloop
  endfacet
  facet normal 0 -1 -0
    outer loop
      vertex 112.2 13.2 14.2857
      vertex 109.2 13.2 12
      vertex 112.2 13.2 12
    endloop
  endfacet
  facet normal -0 0 1
    outer loop
      vertex 109.2 19.2 36
      vertex 112.2 16.2 36
      vertex 112.2 19.2 36
    endloop
  endfacet
  facet normal 0 0 1
    outer loop
      vertex 112.2 16.2 36
      vertex 109.2 19.2 36
      vertex 109.2 16.2 36
    endloop
  endfacet
  facet normal 0 1 -0
    outer loop
      vertex 112.2 19.2 21.1429
      vertex 109.2 19.2 36
      vertex 112.2 19.2 36
    endloop
  endfacet
  facet normal 0 1 0
    outer loop
      vertex 109.2 19.2 36
      vertex 112.2 19.2 21.1429
      vertex 109.2 19.2 21.1429
    endloop
  endfacet
  facet normal -0 0 1
    outer loop
      vertex 109.2 22.2 21.1429
      vertex 112.2 19.2 21.1429
      vertex 112.2 22.2 21.1429
    endloop
  endfacet
  facet normal 0 0 1
    outer loop
      vertex 112.2 19.2 21.1429
      vertex 109.2 22.2 21.1429
      vertex 109.2 19.2 21.1429
    endloop
  endfacet
  facet normal 0 -1 0
    outer loop
      vertex 109.2 22.2 21.1429
      vertex 112.2 22.2 29.1429
      vertex 109.2 22.2 29.1429
    endloop
  endfacet
  facet normal 0 -1 -0
    outer loop
      vertex 112.2 22.2 29.1429
      vertex 109.2 22.2 21.1429
      vertex 112.2 22.2 21.1429
    endloop
  endfacet
  facet normal 0 -1 0
    outer loop
      vertex 112.2 22.2 12
      vertex 115.2 22.2 13.1429
      vertex 112.2 22.2 13.1429
    endloop
  endfacet
  facet normal 0 -1 -0
    outer loop
      vertex 115.2 22.2 13.1429
      vertex 112.2 22.2 12
      vertex 115.2 22.2 12
    endloop
  endfacet
  facet normal -0 0 1
    outer loop
      vertex 109.2 25.2 29.1429
      vertex 112.2 22.2 29.1429
      vertex 112.2 25.2 29.1429
    endloop
  endfacet
  facet normal 0 0 1
    outer loop
      vertex 112.2 22.2 29.1429
      vertex 109.2 25.2 29.1429
      vertex 109.2 22.2 29.1429
    endloop
  endfacet
  facet normal 0 1 0
    outer loop
      vertex 115.2 25.2 13.1429
      vertex 115.2 25.2 12
      vertex 112.2 25.2 13.1429
    endloop
  endfacet
  facet normal 0 1 -0
    outer loop
      vertex 112.2 25.2 13.1429
      vertex 109.2 25.2 29.1429
      vertex 112.2 25.2 29.1429
    endloop
  endfacet
  facet normal 0 1 0
    outer loop
      vertex 112.2 25.2 13.1429
      vertex 109.2 25.2 12
      vertex 109.2 25.2 29.1429
    endloop
  endfacet
  facet normal 0 1 0
    outer loop
      vertex 109.2 25.2 12
      vertex 112.2 25.2 13.1429
      vertex 115.2 25.2 12
    endloop
  endfacet
  facet normal 1 0 0
    outer loop
      vertex 115.2 16.2 14.2857
      vertex 115.2 10.2 14.2857
      vertex 115.2 16.2 13.1429
    endloop
  endfacet
  facet normal 1 -0 0
    outer loop
      vertex 115.2 16.2 13.1429
      vertex 115.2 19.2 12
      vertex 115.2 19.2 13.1429
    endloop
  endfacet
  facet normal 1 0 0
    outer loop
      vertex 115.2 10.2 12
      vertex 115.2 16.2 13.1429
      vertex 115.2 10.2 14.2857
    endloop
  endfacet
  facet normal 1 0 0
    outer loop
      vertex 115.2 16.2 13.1429
      vertex 115.2 10.2 12
      vertex 115.2 19.2 12
    endloop
  endfacet
  facet normal 0 0 1
    outer loop
      vertex 112.2 13.2 14.2857
      vertex 115.2 16.2 14.2857
      vertex 112.2 16.2 14.2857
    endloop
  endfacet
  facet normal 0 0 1
    outer loop
      vertex 115.2 16.2 14.2857
      vertex 112.2 13.2 14.2857
      vertex 115.2 10.2 14.2857
    endloop
  endfacet
  facet normal 0 0 1
    outer loop
      vertex 115.2 10.2 14.2857
      vertex 112.2 13.2 14.2857
      vertex 112.2 10.2 14.2857
    endloop
  endfacet
  facet normal -1 0 0
    outer loop
      vertex 112.2 10.2 12
      vertex 112.2 13.2 14.2857
      vertex 112.2 13.2 12
    endloop
  endfacet
  facet normal -1 -0 0
    outer loop
      vertex 112.2 13.2 14.2857
      vertex 112.2 10.2 12
      vertex 112.2 10.2 14.2857
    endloop
  endfacet
  facet normal 0 -1 0
    outer loop
      vertex 112.2 10.2 12
      vertex 115.2 10.2 14.2857
      vertex 112.2 10.2 14.2857
    endloop
  endfacet
  facet normal 0 -1 -0
    outer loop
      vertex 115.2 10.2 14.2857
      vertex 112.2 10.2 12
      vertex 115.2 10.2 12
    endloop
  endfacet
  facet normal 0 1 -0
    outer loop
      vertex 115.2 16.2 13.1429
      vertex 112.2 16.2 14.2857
      vertex 115.2 16.2 14.2857
    endloop
  endfacet
  facet normal 0 1 0
    outer loop
      vertex 112.2 16.2 14.2857
      vertex 115.2 16.2 13.1429
      vertex 112.2 16.2 13.1429
    endloop
  endfacet
  facet normal -0 0 1
    outer loop
      vertex 112.2 19.2 13.1429
      vertex 115.2 16.2 13.1429
      vertex 115.2 19.2 13.1429
    endloop
  endfacet
  facet normal 0 0 1
    outer loop
      vertex 115.2 16.2 13.1429
      vertex 112.2 19.2 13.1429
      vertex 112.2 16.2 13.1429
    endloop
  endfacet
  facet normal 0 1 -0
    outer loop
      vertex 115.2 19.2 12
      vertex 112.2 19.2 13.1429
      vertex 115.2 19.2 13.1429
    endloop
  endfacet
  facet normal 0 1 0
    outer loop
      vertex 112.2 19.2 13.1429
      vertex 115.2 19.2 12
      vertex 112.2 19.2 12
    endloop
  endfacet
  facet normal 1 -0 0
    outer loop
      vertex 115.2 22.2 13.1429
      vertex 115.2 25.2 12
      vertex 115.2 25.2 13.1429
    endloop
  endfacet
  facet normal 1 0 0
    outer loop
      vertex 115.2 25.2 12
      vertex 115.2 22.2 13.1429
      vertex 115.2 22.2 12
    endloop
  endfacet
  facet normal -0 0 1
    outer loop
      vertex 112.2 25.2 13.1429
      vertex 115.2 22.2 13.1429
      vertex 115.2 25.2 13.1429
    endloop
  endfacet
  facet normal 0 0 1
    outer loop
      vertex 115.2 22.2 13.1429
      vertex 112.2 25.2 13.1429
      vertex 112.2 22.2 13.1429
    endloop
  endfacet
  facet normal 1 -0 0
    outer loop
      vertex 151.2 10.2 13.1429
      vertex 151.2 16.2 12
      vertex 151.2 16.2 13.1429
    endloop
  endfacet
  facet normal 1 0 0
    outer loop
      vertex 151.2 16.2 12
      vertex 151.2 10.2 13.1429
      vertex 151.2 10.2 12
    endloop
  endfacet
  facet normal -0 0 1
    outer loop
      vertex 148.2 16.2 13.1429
      vertex 151.2 10.2 13.1429
      vertex 151.2 16.2 13.1429
    endloop
  endfacet
  facet normal 0 0 1
    outer loop
      vertex 151.2 10.2 13.1429
      vertex 148.2 16.2 13.1429
      vertex 148.2 10.2 13.1429
    endloop
  endfacet
  facet normal 0 0 -1
    outer loop
      vertex 148.2 10.2 12
      vertex 151.2 16.2 12
      vertex 151.2 10.2 12
    endloop
  endfacet
  facet normal -0 0 -1
    outer loop
      vertex 151.2 16.2 12
      vertex 148.2 10.2 12
      vertex 148.2 16.2 12
    endloop
  endfacet
  facet normal -1 0 0
    outer loop
      vertex 148.2 10.2 12
      vertex 148.2 16.2 13.1429
      vertex 148.2 16.2 12
    endloop
  endfacet
  facet normal -1 -0 0
    outer loop
      vertex 148.2 16.2 13.1429
      vertex 148.2 10.2 12
      vertex 148.2 10.2 13.1429
    endloop
  endfacet
  facet normal 0 -1 0
    outer loop
      vertex 148.2 10.2 12
      vertex 151.2 10.2 13.1429
      vertex 148.2 10.2 13.1429
    endloop
  endfacet
  facet normal 0 -1 -0
    outer loop
      vertex 151.2 10.2 13.1429
      vertex 148.2 10.2 12
      vertex 151.2 10.2 12
    endloop
  endfacet
  facet normal 0 1 -0
    outer loop
      vertex 151.2 16.2 12
      vertex 148.2 16.2 13.1429
      vertex 151.2 16.2 13.1429
    endloop
  endfacet
  facet normal 0 1 0
    outer loop
      vertex 148.2 16.2 13.1429
      vertex 151.2 16.2 12
      vertex 148.2 16.2 12
    endloop
  endfacet
  facet normal 1 -0 0
    outer loop
      vertex 163.2 16.2 23.4286
      vertex 163.2 19.2 12
      vertex 163.2 19.2 23.4286
    endloop
  endfacet
  facet normal 1 0 0
    outer loop
      vertex 163.2 19.2 12
      vertex 163.2 16.2 23.4286
      vertex 163.2 16.2 12
    endloop
  endfacet
  facet normal -0 0 1
    outer loop
      vertex 160.2 19.2 23.4286
      vertex 163.2 16.2 23.4286
      vertex 163.2 19.2 23.4286
    endloop
  endfacet
  facet normal 0 0 1
    outer loop
      vertex 163.2 16.2 23.4286
      vertex 160.2 19.2 23.4286
      vertex 160.2 16.2 23.4286
    endloop
  endfacet
  facet normal 0 0 -1
    outer loop
      vertex 160.2 16.2 12
      vertex 163.2 19.2 12
      vertex 163.2 16.2 12
    endloop
  endfacet
  facet normal -0 0 -1
    outer loop
      vertex 163.2 19.2 12
      vertex 160.2 16.2 12
      vertex 160.2 19.2 12
    endloop
  endfacet
  facet normal -1 0 0
    outer loop
      vertex 160.2 16.2 12
      vertex 160.2 19.2 23.4286
      vertex 160.2 19.2 12
    endloop
  endfacet
  facet normal -1 -0 0
    outer loop
      vertex 160.2 19.2 23.4286
      vertex 160.2 16.2 12
      vertex 160.2 16.2 23.4286
    endloop
  endfacet
  facet normal 0 1 -0
    outer loop
      vertex 163.2 19.2 12
      vertex 160.2 19.2 23.4286
      vertex 163.2 19.2 23.4286
    endloop
  endfacet
  facet normal 0 1 0
    outer loop
      vertex 160.2 19.2 23.4286
      vertex 163.2 19.2 12
      vertex 160.2 19.2 12
    endloop
  endfacet
  facet normal 0 -1 0
    outer loop
      vertex 160.2 16.2 12
      vertex 163.2 16.2 23.4286
      vertex 160.2 16.2 23.4286
    endloop
  endfacet
  facet normal 0 -1 -0
    outer loop
      vertex 163.2 16.2 23.4286
      vertex 160.2 16.2 12
      vertex 163.2 16.2 12
    endloop
  endfacet
  facet normal 1 -0 0
    outer loop
      vertex 166.2 22.2 13.1429
      vertex 166.2 25.2 12
      vertex 166.2 25.2 13.1429
    endloop
  endfacet
  facet normal 1 0 0
    outer loop
      vertex 166.2 25.2 12
      vertex 166.2 22.2 13.1429
      vertex 166.2 22.2 12
    endloop
  endfacet
  facet normal -0 0 1
    outer loop
      vertex 163.2 25.2 13.1429
      vertex 166.2 22.2 13.1429
      vertex 166.2 25.2 13.1429
    endloop
  endfacet
  facet normal 0 0 1
    outer loop
      vertex 166.2 22.2 13.1429
      vertex 163.2 25.2 13.1429
      vertex 163.2 22.2 13.1429
    endloop
  endfacet
  facet normal 0 0 -1
    outer loop
      vertex 163.2 22.2 12
      vertex 166.2 25.2 12
      vertex 166.2 22.2 12
    endloop
  endfacet
  facet normal -0 0 -1
    outer loop
      vertex 166.2 25.2 12
      vertex 163.2 22.2 12
      vertex 163.2 25.2 12
    endloop
  endfacet
  facet normal -1 0 0
    outer loop
      vertex 163.2 22.2 12
      vertex 163.2 25.2 13.1429
      vertex 163.2 25.2 12
    endloop
  endfacet
  facet normal -1 -0 0
    outer loop
      vertex 163.2 25.2 13.1429
      vertex 163.2 22.2 12
      vertex 163.2 22.2 13.1429
    endloop
  endfacet
  facet normal 0 1 -0
    outer loop
      vertex 166.2 25.2 12
      vertex 163.2 25.2 13.1429
      vertex 166.2 25.2 13.1429
    endloop
  endfacet
  facet normal 0 1 0
    outer loop
      vertex 163.2 25.2 13.1429
      vertex 166.2 25.2 12
      vertex 163.2 25.2 12
    endloop
  endfacet
  facet normal 0 -1 0
    outer loop
      vertex 163.2 22.2 12
      vertex 166.2 22.2 13.1429
      vertex 163.2 22.2 13.1429
    endloop
  endfacet
  facet normal 0 -1 -0
    outer loop
      vertex 166.2 22.2 13.1429
      vertex 163.2 22.2 12
      vertex 166.2 22.2 12
    endloop
  endfacet
  facet normal 1 0 0
    outer loop
      vertex 169.2 13.2 13.1429
      vertex 169.2 16.2 14.2857
      vertex 169.2 13.2 14.2857
    endloop
  endfacet
  facet normal 1 0 0
    outer loop
      vertex 169.2 16.2 14.2857
      vertex 169.2 13.2 13.1429
      vertex 169.2 16.2 12
    endloop
  endfacet
  facet normal 1 0 0
    outer loop
      vertex 169.2 10.2 12
      vertex 169.2 13.2 13.1429
      vertex 169.2 10.2 13.1429
    endloop
  endfacet
  facet normal 1 0 0
    outer loop
      vertex 169.2 13.2 13.1429
      vertex 169.2 10.2 12
      vertex 169.2 16.2 12
    endloop
  endfacet
  facet normal -0 0 1
    outer loop
      vertex 166.2 13.2 13.1429
      vertex 169.2 10.2 13.1429
      vertex 169.2 13.2 13.1429
    endloop
  endfacet
  facet normal 0 0 1
    outer loop
      vertex 169.2 10.2 13.1429
      vertex 166.2 13.2 13.1429
      vertex 166.2 10.2 13.1429
    endloop
  endfacet
  facet normal 0 0 -1
    outer loop
      vertex 166.2 10.2 12
      vertex 169.2 16.2 12
      vertex 169.2 10.2 12
    endloop
  endfacet
  facet normal -0 0 -1
    outer loop
      vertex 169.2 16.2 12
      vertex 166.2 10.2 12
      vertex 166.2 16.2 12
    endloop
  endfacet
  facet normal -1 0 0
    outer loop
      vertex 166.2 16.2 12
      vertex 166.2 13.2 13.1429
      vertex 166.2 16.2 14.2857
    endloop
  endfacet
  facet normal -1 0 0
    outer loop
      vertex 166.2 10.2 12
      vertex 166.2 13.2 13.1429
      vertex 166.2 16.2 12
    endloop
  endfacet
  facet normal -1 -0 0
    outer loop
      vertex 166.2 13.2 13.1429
      vertex 166.2 10.2 12
      vertex 166.2 10.2 13.1429
    endloop
  endfacet
  facet normal -1 -0 0
    outer loop
      vertex 166.2 16.2 14.2857
      vertex 166.2 13.2 13.1429
      vertex 166.2 13.2 14.2857
    endloop
  endfacet
  facet normal 0 -1 0
    outer loop
      vertex 166.2 13.2 13.1429
      vertex 169.2 13.2 14.2857
      vertex 166.2 13.2 14.2857
    endloop
  endfacet
  facet normal 0 -1 -0
    outer loop
      vertex 169.2 13.2 14.2857
      vertex 166.2 13.2 13.1429
      vertex 169.2 13.2 13.1429
    endloop
  endfacet
  facet normal 0 -1 0
    outer loop
      vertex 166.2 10.2 12
      vertex 169.2 10.2 13.1429
      vertex 166.2 10.2 13.1429
    endloop
  endfacet
  facet normal 0 -1 -0
    outer loop
      vertex 169.2 10.2 13.1429
      vertex 166.2 10.2 12
      vertex 169.2 10.2 12
    endloop
  endfacet
  facet normal -0 0 1
    outer loop
      vertex 166.2 16.2 14.2857
      vertex 169.2 13.2 14.2857
      vertex 169.2 16.2 14.2857
    endloop
  endfacet
  facet normal 0 0 1
    outer loop
      vertex 169.2 13.2 14.2857
      vertex 166.2 16.2 14.2857
      vertex 166.2 13.2 14.2857
    endloop
  endfacet
  facet normal 0 1 -0
    outer loop
      vertex 169.2 16.2 12
      vertex 166.2 16.2 14.2857
      vertex 169.2 16.2 14.2857
    endloop
  endfacet
  facet normal 0 1 0
    outer loop
      vertex 166.2 16.2 14.2857
      vertex 169.2 16.2 12
      vertex 166.2 16.2 12
    endloop
  endfacet
endsolid OpenSCAD_Model
